<svg width="64" height="64" viewBox="0 0 64 64" fill="none" xmlns="http://www.w3.org/2000/svg">
<path d="M54.2857 12.3636H45.7143V8.54545C45.7143 8.24545 45.5214 8 45.2857 8H42.2857C42.05 8 41.8571 8.24545 41.8571 8.54545V12.3636H33.9286V8.54545C33.9286 8.24545 33.7357 8 33.5 8H30.5C30.2643 8 30.0714 8.24545 30.0714 8.54545V12.3636H22.1429V8.54545C22.1429 8.24545 21.95 8 21.7143 8H18.7143C18.4786 8 18.2857 8.24545 18.2857 8.54545V12.3636H9.71429C8.76607 12.3636 8 13.3386 8 14.5455V53.8182C8 55.025 8.76607 56 9.71429 56H54.2857C55.2339 56 56 55.025 56 53.8182V14.5455C56 13.3386 55.2339 12.3636 54.2857 12.3636ZM52.1429 51.0909H11.8571V17.2727H18.2857V21.0909C18.2857 21.3909 18.4786 21.6364 18.7143 21.6364H21.7143C21.95 21.6364 22.1429 21.3909 22.1429 21.0909V17.2727H30.0714V21.0909C30.0714 21.3909 30.2643 21.6364 30.5 21.6364H33.5C33.7357 21.6364 33.9286 21.3909 33.9286 21.0909V17.2727H41.8571V21.0909C41.8571 21.3909 42.05 21.6364 42.2857 21.6364H45.2857C45.5214 21.6364 45.7143 21.3909 45.7143 21.0909V17.2727H52.1429V51.0909ZM26.8571 30.9091H17C16.7643 30.9091 16.5714 31.1545 16.5714 31.4545V34.7273C16.5714 35.0273 16.7643 35.2727 17 35.2727H26.8571C27.0929 35.2727 27.2857 35.0273 27.2857 34.7273V31.4545C27.2857 31.1545 27.0929 30.9091 26.8571 30.9091ZM26.8571 40.1818H17C16.7643 40.1818 16.5714 40.4273 16.5714 40.7273V44C16.5714 44.3 16.7643 44.5455 17 44.5455H26.8571C27.0929 44.5455 27.2857 44.3 27.2857 44V40.7273C27.2857 40.4273 27.0929 40.1818 26.8571 40.1818ZM43.3679 28.0864L37.8179 37.8841L34.9893 32.9C34.8286 32.6136 34.5714 32.45 34.2982 32.45H31.3571C31.0089 32.45 30.8054 32.9545 31.0089 33.3159L37.1214 44.1023C37.2003 44.2417 37.3042 44.3552 37.4243 44.4335C37.5445 44.5118 37.6775 44.5526 37.8125 44.5526C37.9475 44.5526 38.0805 44.5118 38.2007 44.4335C38.3208 44.3552 38.4247 44.2417 38.5036 44.1023L47.3429 28.5091C47.5464 28.1477 47.3429 27.6432 46.9946 27.6432H44.0536C43.7857 27.6364 43.5286 27.8068 43.3679 28.0864Z" fill="#1DC3C4"/>
</svg>
