<svg width="64" height="64" viewBox="0 0 64 64" fill="none" xmlns="http://www.w3.org/2000/svg">
<rect width="64" height="64" rx="5" fill="#1E96C8"/>
<rect x="2" y="2" width="60" height="60" rx="5" fill="white"/>
<rect x="8" y="16" width="6" height="6" rx="1" fill="#C4C4C4"/>
<rect x="8" y="25" width="6" height="6" rx="1" fill="#C4C4C4"/>
<rect x="8" y="34" width="6" height="6" rx="1" fill="#C4C4C4"/>
<rect x="8" y="43" width="6" height="6" rx="1" fill="#C4C4C4"/>
<rect x="8" y="52" width="6" height="6" rx="1" fill="#C4C4C4"/>
<rect x="8" y="7" width="6" height="6" rx="1" fill="#C4C4C4"/>
<path d="M12.3911 10.2151L14.0362 8.29329L14.8573 5L15.546 9.25273L13.9009 11.1746L11.4316 11.7249L8.82406 10.4918L12.3911 10.2151Z" fill="#25D366"/>
<path d="M12.3911 19.2151L14.0362 17.2933L14.8573 14L15.546 18.2527L13.9009 20.1746L11.4316 20.7249L8.82406 19.4918L12.3911 19.2151Z" fill="#25D366"/>
<path d="M12.3911 28.2151L14.0362 26.2933L14.8573 23L15.546 27.2527L13.9009 29.1746L11.4316 29.7249L8.82406 28.4918L12.3911 28.2151Z" fill="#25D366"/>
<path d="M12.3911 37.2151L14.0362 35.2933L14.8573 32L15.546 36.2527L13.9009 38.1746L11.4316 38.7249L8.82406 37.4918L12.3911 37.2151Z" fill="#25D366"/>
<path d="M12.3911 46.2151L14.0362 44.2933L14.8573 41L15.546 45.2527L13.9009 47.1746L11.4316 47.7249L8.82406 46.4918L12.3911 46.2151Z" fill="#25D366"/>
<path d="M12.3911 55.2151L14.0362 53.2933L14.8573 50L15.546 54.2527L13.9009 56.1746L11.4316 56.7249L8.82406 55.4918L12.3911 55.2151Z" fill="#25D366"/>
</svg>
