<svg width="64" height="64" viewBox="0 0 64 64" fill="none" xmlns="http://www.w3.org/2000/svg">
<path d="M45.9328 20.4672C46.0818 20.6158 46.2 20.7924 46.2807 20.9868C46.3613 21.1812 46.4029 21.3896 46.4029 21.6C46.4029 21.8105 46.3613 22.0188 46.2807 22.2132C46.2 22.4076 46.0818 22.5842 45.9328 22.7328L40.3328 28.3328C40.0413 28.624 39.6487 28.7914 39.2368 28.8004C38.8249 28.8093 38.4255 28.659 38.1216 28.3808L35.7216 26.1888C35.4244 25.8989 35.2515 25.5047 35.2395 25.0896C35.2275 24.6746 35.3774 24.2711 35.6574 23.9645C35.9374 23.6579 36.3257 23.4721 36.7401 23.4465C37.1546 23.4209 37.5627 23.5574 37.8784 23.8272L39.1488 24.9856L43.6672 20.4672C43.8158 20.3182 43.9924 20.2 44.1868 20.1193C44.3812 20.0387 44.5895 19.9971 44.8 19.9971C45.0105 19.9971 45.2188 20.0387 45.4132 20.1193C45.6076 20.2 45.7842 20.3182 45.9328 20.4672ZM45.9328 38.7328C46.2332 38.4328 46.4022 38.0257 46.4025 37.6011C46.4028 37.1766 46.2344 36.7692 45.9344 36.4688C45.6344 36.1684 45.2273 35.9994 44.8027 35.9991C44.3781 35.9988 43.9708 36.1672 43.6704 36.4672L39.1488 40.9856L37.8784 39.8272C37.5627 39.5574 37.1546 39.4209 36.7401 39.4465C36.3257 39.4721 35.9374 39.6579 35.6574 39.9645C35.3774 40.2711 35.2275 40.6746 35.2395 41.0896C35.2515 41.5047 35.4244 41.8989 35.7216 42.1888L38.1216 44.3808C38.4253 44.6581 38.8241 44.8078 39.2352 44.7989C39.6463 44.7899 40.0382 44.623 40.3296 44.3328L45.9296 38.7328H45.9328ZM19.2 40C19.2 39.5757 19.3686 39.1687 19.6686 38.8686C19.9687 38.5686 20.3757 38.4 20.8 38.4H28.8C29.2243 38.4 29.6313 38.5686 29.9314 38.8686C30.2314 39.1687 30.4 39.5757 30.4 40C30.4 40.4244 30.2314 40.8313 29.9314 41.1314C29.6313 41.4314 29.2243 41.6 28.8 41.6H20.8C20.3757 41.6 19.9687 41.4314 19.6686 41.1314C19.3686 40.8313 19.2 40.4244 19.2 40ZM20.8 22.4C20.3757 22.4 19.9687 22.5686 19.6686 22.8686C19.3686 23.1687 19.2 23.5757 19.2 24C19.2 24.4244 19.3686 24.8313 19.6686 25.1314C19.9687 25.4314 20.3757 25.6 20.8 25.6H28.8C29.2243 25.6 29.6313 25.4314 29.9314 25.1314C30.2314 24.8313 30.4 24.4244 30.4 24C30.4 23.5757 30.2314 23.1687 29.9314 22.8686C29.6313 22.5686 29.2243 22.4 28.8 22.4H20.8ZM9.6 14.4C9.6 13.127 10.1057 11.9061 11.0059 11.0059C11.9061 10.1057 13.127 9.60001 14.4 9.60001H49.6C50.873 9.60001 52.0939 10.1057 52.9941 11.0059C53.8943 11.9061 54.4 13.127 54.4 14.4V49.6C54.4 50.873 53.8943 52.0939 52.9941 52.9941C52.0939 53.8943 50.873 54.4 49.6 54.4H14.4C13.127 54.4 11.9061 53.8943 11.0059 52.9941C10.1057 52.0939 9.6 50.873 9.6 49.6V14.4ZM14.4 12.8C13.9757 12.8 13.5687 12.9686 13.2686 13.2686C12.9686 13.5687 12.8 13.9757 12.8 14.4V49.6C12.8 50.0244 12.9686 50.4313 13.2686 50.7314C13.5687 51.0314 13.9757 51.2 14.4 51.2H49.6C50.0243 51.2 50.4313 51.0314 50.7314 50.7314C51.0314 50.4313 51.2 50.0244 51.2 49.6V14.4C51.2 13.9757 51.0314 13.5687 50.7314 13.2686C50.4313 12.9686 50.0243 12.8 49.6 12.8H14.4Z" fill="#1DC3C4"/>
</svg>
