<svg width="64" height="64" viewBox="0 0 64 64" fill="none" xmlns="http://www.w3.org/2000/svg">
<path d="M36.8801 50.6667C36.4817 50.668 36.0881 50.5801 35.7282 50.4093C35.3682 50.2386 35.0511 49.9894 34.8001 49.68L21.9201 33.68C21.5279 33.2028 21.3135 32.6043 21.3135 31.9867C21.3135 31.369 21.5279 30.7705 21.9201 30.2933L35.2534 14.2933C35.7061 13.7487 36.3565 13.4063 37.0616 13.3413C37.7668 13.2763 38.4689 13.494 39.0134 13.9467C39.558 14.3993 39.9005 15.0497 39.9655 15.7549C40.0305 16.46 39.8127 17.1621 39.3601 17.7067L27.4401 32L38.9601 46.2933C39.2862 46.6848 39.4933 47.1614 39.557 47.6669C39.6207 48.1723 39.5382 48.6855 39.3194 49.1455C39.1006 49.6056 38.7546 49.9934 38.3223 50.2629C37.89 50.5325 37.3895 50.6726 36.8801 50.6667Z" fill="#247D7E"/>
</svg>
