<svg width="601" height="545" viewBox="0 0 601 545" fill="none" xmlns="http://www.w3.org/2000/svg">
<path d="M497.504 430.852V109.151C497.504 109.151 427.024 101.637 364.731 99.3441V400.002" stroke="#247D7E" stroke-width="1.03078" stroke-linecap="round" stroke-linejoin="round"/>
<path d="M399.642 62.465V85.8416C399.642 85.8416 435.01 86.9072 452.06 88.7148V65.0414C452.06 65.0414 429.938 63.5037 408.544 62.3436" stroke="#247D7E" stroke-width="1.03078" stroke-linecap="round" stroke-linejoin="round"/>
<path d="M379.341 126.214V243.718L404.458 245.282V126.646L384.899 125.162" stroke="#247D7E" stroke-width="1.03078" stroke-linecap="round" stroke-linejoin="round"/>
<path d="M381.647 262.575C381.647 266.096 379.434 268.955 376.696 268.955C373.958 268.955 371.746 266.096 371.746 262.575C371.746 259.055 373.971 256.195 376.696 256.195C379.421 256.195 381.647 259.041 381.647 262.575Z" stroke="#247D7E" stroke-width="1.03078" stroke-linecap="round" stroke-linejoin="round"/>
<path d="M381.646 257.76C381.646 257.76 384.129 257.76 384.129 262.575C384.129 267.391 381.646 266.784 381.646 266.784" stroke="#247D7E" stroke-width="1.03078" stroke-linecap="round" stroke-linejoin="round"/>
<path d="M138.237 106.331C138.237 106.331 287.965 107.883 326.315 111.821V262.44C326.315 262.44 181.24 258.056 128.889 258.056V109.11" stroke="#247D7E" stroke-width="1.03078" stroke-linecap="round" stroke-linejoin="round"/>
<path d="M150.58 123.247V157.792C150.58 157.792 173.659 162.689 173.875 159.762C174.091 156.834 173.875 125.162 173.875 125.162L158.268 123.503" stroke="#247D7E" stroke-width="1.03078" stroke-linecap="round" stroke-linejoin="round"/>
<path d="M186.865 155.445V202.67L214.801 204.505L216.271 157.927" stroke="#247D7E" stroke-width="1.03078" stroke-linecap="round" stroke-linejoin="round"/>
<path d="M209.662 138.597L191.695 141.969L196.834 160.692L212.967 155.445L211.133 141.969" stroke="#247D7E" stroke-width="1.03078" stroke-linecap="round" stroke-linejoin="round"/>
<path d="M262.472 172.967L267.611 193.754C267.611 193.754 288.654 188.358 287.845 187.266C287.035 186.173 284.081 170.769 284.081 170.769H278.605" stroke="#247D7E" stroke-width="1.03078" stroke-linecap="round" stroke-linejoin="round"/>
<path d="M257.71 155.445L255.875 167.68L275.164 170.769L278.604 152.154L259.908 147.298L259.544 152.154" stroke="#247D7E" stroke-width="1.03078" stroke-linecap="round" stroke-linejoin="round"/>
<path d="M227.603 125.162V147.298C227.603 147.298 244.14 147.662 244.14 147.298V125.162H232.769" stroke="#247D7E" stroke-width="1.03078" stroke-linecap="round" stroke-linejoin="round"/>
<path d="M186.865 214.406L150.58 215.498L151.025 236.244L186.865 235.314V220.638" stroke="#247D7E" stroke-width="1.03078" stroke-linecap="round" stroke-linejoin="round"/>
<path d="M191.695 245.282V229.433H219.927V249.383H195" stroke="#247D7E" stroke-width="1.03078" stroke-linecap="round" stroke-linejoin="round"/>
<path d="M230.502 88.4852C241.438 88.4852 250.304 78.6352 250.304 66.4846C250.304 54.3339 241.438 44.4839 230.502 44.4839C219.566 44.4839 210.7 54.3339 210.7 66.4846C210.7 78.6352 219.566 88.4852 230.502 88.4852Z" stroke="#247D7E" stroke-width="1.03078" stroke-linecap="round" stroke-linejoin="round"/>
<path d="M224.337 56.9076L230.502 69.0073L224.337 79.4613" stroke="#247D7E" stroke-width="1.03078" stroke-linecap="round" stroke-linejoin="round"/>
<path d="M65.9888 421.652C238.366 420.303 412.159 424.444 583.119 449.385" stroke="#247D7E" stroke-width="1.03078" stroke-linecap="round" stroke-linejoin="round"/>
<path d="M37.4185 421.8H47.913" stroke="#247D7E" stroke-width="1.03078" stroke-linecap="round" stroke-linejoin="round"/>
<path d="M13.584 422.272C15.0273 422.272 15.0678 422.178 16.4976 422.124" stroke="#247D7E" stroke-width="1.03078" stroke-linecap="round" stroke-linejoin="round"/>
<path d="M78.7495 514.619L239.607 491.175L250.277 496.341L90.8627 521.377L78.7495 514.619Z" fill="#1DC3C4"/>
<path d="M8.34973 452.326L113.726 444.961L103.056 442.655L0 450.195L8.34973 452.326Z" fill="#1DC3C4"/>
<path d="M41.4521 261.064C52.9988 257.125 61.0383 260.741 61.0383 260.741V263.155L66.7846 266.46L64.5859 269.522C64.5859 269.522 65.1524 292.359 58.2595 294.706L57.1129 297.579C57.1129 297.579 65.638 299.63 68.12 302.3C70.602 304.971 76.6451 324.153 76.0921 329.548C76.025 331.011 75.477 332.411 74.5331 333.53C73.5892 334.65 72.3022 335.426 70.8718 335.74L68.6731 351.077L67.0139 352.426L67.54 387.551L64.2352 388.253C64.2352 388.253 62.5895 411.413 62.5895 412.924C62.5895 414.435 60.9438 430.379 60.9438 430.379C61.5771 433.025 63.0144 435.409 65.058 437.205C68.6461 440.55 72.7198 443.828 68.0931 444.678C63.4663 445.527 52.702 444.475 51.0698 442.654C49.4377 440.833 48.372 438.607 49.1409 437.259C50.2643 434.606 51.0921 431.837 51.6094 429.003C51.6094 428.18 49.694 403.145 49.694 403.145L46.9961 384.112C46.9961 384.112 40.1167 408.931 38.7408 410.847C37.3649 412.762 30.7688 429.556 30.7688 429.556C30.7688 429.556 32.9675 439.255 30.7688 440.725C28.5701 442.196 24.1726 443.059 21.1376 435.073C18.1025 427.088 14.7977 425.132 18.4398 423.554C22.0818 421.975 23.4442 411.67 26.169 407.502C28.8938 403.334 28.624 386.863 28.624 386.863L24.7662 383.113L29.4469 357.484C29.4469 357.484 22.2977 354.179 21.1915 349.795C20.0854 345.411 19.5459 335.025 19.5459 335.025C19.5459 335.025 15.1484 314.049 24.7662 309.8C24.7662 309.8 26.4253 304.769 29.1771 303.231C31.9289 301.693 43.4755 297.593 43.4755 297.593L45.1346 295.691C45.1346 295.691 38.2282 295.394 36.8524 292.238C36.8524 292.238 33.2778 294.45 33.008 293.694L31.079 288.542L27.7742 286.882L30.2562 278.789L26.6816 279.248C26.6816 279.248 29.4604 266.757 34.1411 266.73C34.7129 264.859 35.7409 263.159 37.1324 261.784C38.524 260.409 40.2355 259.402 42.1131 258.852L41.4521 261.064Z" stroke="#247D7E" stroke-width="1.03078" stroke-linecap="round" stroke-linejoin="round"/>
<path d="M145.574 298.888C134.931 296.069 108.911 296.932 95.9476 310.179C87.6922 318.609 90.5519 358.577 97.1751 368.546C103.798 378.514 146.801 377.084 152.683 368.546C158.564 360.007 160.614 302.854 145.574 298.888Z" fill="#247D7E"/>
<path d="M154.747 416.863C154.221 430.622 136.334 454.997 136.334 454.997C136.852 456.468 137.134 458.011 137.171 459.57C137.171 462.133 138.317 470.847 140.88 474.92C143.443 478.994 135.174 480.599 129.023 478.967C122.872 477.335 114.59 458.045 116.371 453.486C118.151 448.927 125.395 449.777 125.395 449.777L134.001 423.055L154.747 416.863Z" fill="#247D7E"/>
<path d="M116.303 490.19C116.303 490.19 118.002 479.183 116.883 473.545C115.763 467.906 124.032 464.885 129.441 465.937C136.887 467.367 134.027 472.897 134.756 478.077C135.484 483.257 141.258 489.259 143.2 491.714C143.791 492.527 144.203 493.456 144.408 494.44C144.612 495.423 144.605 496.439 144.387 497.42C144.387 497.42 131.721 506.094 116.303 490.19Z" fill="white" stroke="#247D7E" stroke-width="1.03078" stroke-linecap="round" stroke-linejoin="round"/>
<path d="M136.334 423.514L131.424 470.725C131.424 470.725 124.005 474.232 119.972 470.725C119.972 470.725 116.303 433.995 117.773 426.589C119.244 419.184 136.334 423.514 136.334 423.514Z" fill="white" stroke="#247D7E" stroke-width="1.03078" stroke-linecap="round" stroke-linejoin="round"/>
<path d="M133.244 474.92C131.802 476.075 130.116 476.885 128.314 477.29C126.512 477.694 124.641 477.682 122.844 477.254C122.693 478.599 122.693 479.956 122.844 481.301C123.127 482.812 130.695 482.812 133.986 480.208" fill="white"/>
<path d="M133.244 474.92C131.802 476.075 130.116 476.885 128.314 477.29C126.512 477.694 124.641 477.682 122.844 477.254C122.693 478.599 122.693 479.956 122.844 481.301C123.127 482.812 130.695 482.812 133.986 480.208" stroke="#247D7E" stroke-width="1.03078" stroke-linecap="round" stroke-linejoin="round"/>
<path d="M135.175 482.757C134.757 482.892 129.469 485.455 126.825 485.455C124.181 485.455 125.611 489.718 126.825 489.718C130.471 489.333 133.983 488.134 137.104 486.211" fill="white"/>
<path d="M135.175 482.757C134.757 482.892 129.469 485.455 126.825 485.455C124.181 485.455 125.611 489.718 126.825 489.718C130.471 489.333 133.983 488.134 137.104 486.211" stroke="#247D7E" stroke-width="1.03078" stroke-linecap="round" stroke-linejoin="round"/>
<path d="M156.865 351.698C156.865 351.698 164.567 387.848 168.6 420.222L162.841 424.093L162.733 426.629L151.941 431.688L151.267 435.734L129.846 439.174V440.779L108.115 437.609V432.74L96.3395 429.556V424.161L90.8359 422.259C90.8359 422.259 97.0949 379.094 111.65 355.906L156.865 351.698Z" fill="#1DC3C4"/>
<path opacity="0.3" d="M168.6 420.222L162.84 424.107L162.732 426.629L151.941 431.688L151.725 433.037C151.725 413.181 151.199 388.388 151.199 388.388C153.05 390.19 154.615 392.264 155.839 394.539C156.122 381.05 153.721 361.76 153.721 361.76C129.67 365.322 117.017 361.059 110.812 357.174C111.096 356.716 111.366 356.257 111.649 355.825L156.851 351.684C156.851 351.684 164.566 387.835 168.6 420.222Z" fill="black" fill-opacity="0.7"/>
<path d="M156.865 351.698C156.865 351.698 164.567 387.848 168.6 420.222L162.841 424.093L162.733 426.629L151.941 431.688L151.267 435.734L129.846 439.174V440.779L108.115 437.609V432.74L96.3395 429.556V424.161L90.8359 422.259C90.8359 422.259 97.0949 379.094 111.65 355.906L156.865 351.698Z" stroke="#247D7E" stroke-width="1.03078" stroke-linecap="round" stroke-linejoin="round"/>
<path d="M158.255 351.684C158.255 351.684 138.588 362.259 109.761 354.814L108.547 354.49C108.547 354.49 106.2 347.637 103.934 339.652C101.142 329.845 98.5385 318.285 100.225 315.129C100.225 315.129 111.205 299.346 126.731 297.741C139.923 296.392 155.611 305.713 156.811 311.783C157.36 316.106 157.662 320.457 157.715 324.814C157.998 332.705 158.147 342.066 158.201 347.408C158.241 350.038 158.255 351.684 158.255 351.684Z" fill="white"/>
<path opacity="0.4" d="M116.411 304.162L115.494 308.277L123.992 309.248L138.101 314.401L141.514 306.213L144.387 306.078C144.387 306.078 140.448 296.919 130.817 298.888C121.186 300.857 116.411 304.162 116.411 304.162Z" fill="#1DC3C4"/>
<path opacity="0.4" d="M114.32 351.131C112.948 352.551 111.419 353.809 109.761 354.881L108.547 354.558C108.547 354.558 106.2 347.705 103.934 339.72C111.42 331.707 120.781 323.533 120.781 323.533C120.781 323.533 122.845 342.256 114.32 351.131Z" fill="#1DC3C4"/>
<path opacity="0.4" d="M158.2 347.381C146.64 341.271 151.753 316.909 151.753 316.909L156.568 325.772C156.929 325.424 157.307 325.096 157.701 324.787C157.998 332.678 158.146 342.04 158.2 347.381Z" fill="#1DC3C4"/>
<path d="M158.255 351.684C158.255 351.684 138.588 362.259 109.761 354.814L108.547 354.49C108.547 354.49 106.2 347.637 103.934 339.652C101.142 329.845 98.5385 318.285 100.225 315.129C100.225 315.129 111.205 299.346 126.731 297.741C139.923 296.392 155.611 305.713 156.811 311.783C157.36 316.106 157.662 320.457 157.715 324.814C157.998 332.705 158.147 342.066 158.201 347.408C158.241 350.038 158.255 351.684 158.255 351.684Z" stroke="#247D7E" stroke-width="1.03078" stroke-linecap="round" stroke-linejoin="round"/>
<path d="M110.92 303.218C110.92 303.218 139.881 324.342 103.676 355.825V353.02C103.676 353.02 117.826 335.862 116.302 325.839C114.778 315.817 103.676 307.089 103.676 307.089L110.92 303.218Z" fill="#247D7E"/>
<path d="M145.574 298.888C145.574 298.888 147.503 319 150.579 325.866C153.654 332.732 158.254 345.628 158.254 345.628L159.792 341.878C159.792 341.878 152.143 322.898 152.885 320.106C153.627 317.314 152.885 303.245 152.885 303.245L145.574 298.888Z" fill="#247D7E"/>
<path d="M114.32 306.617C114.32 306.617 113.308 298.794 122.845 296.285C132.382 293.776 141.905 296.082 144.428 303.178H139.032L138.155 314.36L123.628 305.7L114.32 306.617Z" fill="white" stroke="#247D7E" stroke-width="1.03078" stroke-linecap="round" stroke-linejoin="round"/>
<path d="M104.351 310.165C99.2254 313.038 90.8622 339.841 90.8622 339.841C90.8622 339.841 87.2606 347.3 92.1302 349.566C96.9997 351.833 101.991 351.967 106.348 346.626C110.705 341.284 108.452 332.867 108.452 332.867C108.452 332.867 111.703 322.966 109.018 315.722" fill="white"/>
<path d="M104.351 310.165C99.2254 313.038 90.8622 339.841 90.8622 339.841C90.8622 339.841 87.2606 347.3 92.1302 349.566C96.9997 351.833 101.991 351.967 106.348 346.626C110.705 341.284 108.452 332.867 108.452 332.867C108.452 332.867 111.703 322.966 109.018 315.722" stroke="#247D7E" stroke-width="1.03078" stroke-linecap="round" stroke-linejoin="round"/>
<path d="M110.921 316.923C110.921 316.923 98.6455 335.983 96.0826 337.642C93.5197 339.301 89.1222 343.78 91.82 349.054C94.5178 354.328 102.975 364.701 116.384 327.471" fill="white"/>
<path d="M110.921 316.923C110.921 316.923 98.6455 335.983 96.0826 337.642C93.5197 339.301 89.1222 343.78 91.82 349.054C94.5178 354.328 102.975 364.701 116.384 327.471" stroke="#247D7E" stroke-width="1.03078" stroke-linecap="round" stroke-linejoin="round"/>
<path d="M108.102 322.237C108.102 322.237 106.888 311.365 110.921 310.475C114.954 309.585 118.812 309.531 119.729 310.475C120.646 311.419 120.458 314.4 120.458 314.4C120.458 314.4 123.021 315.641 122.656 317.287C122.292 318.933 123.708 321.698 122.656 324.8C121.604 327.903 115.655 329.144 115.655 329.144C114.37 329.552 112.979 329.463 111.756 328.897C110.533 328.33 109.566 327.326 109.046 326.082" fill="white"/>
<path d="M108.102 322.237C108.102 322.237 106.888 311.365 110.921 310.475C114.954 309.585 118.812 309.531 119.729 310.475C120.646 311.419 120.458 314.4 120.458 314.4C120.458 314.4 123.021 315.641 122.656 317.287C122.292 318.933 123.708 321.698 122.656 324.8C121.604 327.903 115.655 329.144 115.655 329.144C114.37 329.552 112.979 329.463 111.756 328.897C110.533 328.33 109.566 327.326 109.046 326.082" stroke="#247D7E" stroke-width="1.03078" stroke-linecap="round" stroke-linejoin="round"/>
<path d="M151.023 303.218C153.53 304.395 155.951 305.747 158.267 307.265C160.479 308.924 165.47 315.534 165.47 315.534C167.185 316.977 168.72 318.621 170.043 320.43C172.125 322.988 173.242 326.197 173.199 329.495C172.619 336.819 164.459 337.157 162.125 336.523C159.791 335.889 156.905 330.587 156.905 330.587" fill="white"/>
<path opacity="0.4" d="M173.2 329.549C172.62 336.873 164.459 337.21 162.125 336.576C159.792 335.942 156.905 330.641 156.905 330.641L155.408 323.654L156.581 325.799C156.581 325.799 163.744 318.865 170.07 320.484C172.143 323.046 173.25 326.254 173.2 329.549V329.549Z" fill="#1DC3C4"/>
<path d="M151.023 303.218C153.53 304.395 155.951 305.747 158.267 307.265C160.479 308.924 165.47 315.534 165.47 315.534C167.185 316.977 168.72 318.621 170.043 320.43C172.125 322.988 173.242 326.197 173.199 329.495C172.619 336.819 164.459 337.157 162.125 336.523C159.791 335.889 156.905 330.587 156.905 330.587" stroke="#247D7E" stroke-width="1.03078" stroke-linecap="round" stroke-linejoin="round"/>
<path d="M156.487 312.431C156.487 312.431 172.984 324.342 173.82 331.68C174.657 339.018 167.076 340.852 164.459 337.548C161.842 334.243 156.217 322.602 153.924 320.673" fill="white"/>
<path d="M156.487 312.431C156.487 312.431 172.984 324.342 173.82 331.68C174.657 339.018 167.076 340.852 164.459 337.548C161.842 334.243 156.217 322.602 153.924 320.673" stroke="#247D7E" stroke-width="1.03078" stroke-linecap="round" stroke-linejoin="round"/>
<path d="M146.127 309.787C148.461 307.089 152.723 302.355 154.747 304.877C156.77 307.4 157.903 316.936 158.254 319.58C158.605 322.224 154.518 322.534 152.858 321.28C152.858 321.28 148.407 321.401 147.84 320.592C146.747 318.562 146.151 316.301 146.1 313.996C145.815 313.724 145.588 313.397 145.433 313.034C145.279 312.671 145.201 312.28 145.203 311.886C145.206 311.491 145.289 311.102 145.448 310.741C145.607 310.38 145.838 310.055 146.127 309.787Z" fill="white" stroke="#247D7E" stroke-width="1.03078" stroke-linecap="round" stroke-linejoin="round"/>
<path d="M140.381 319.931C140.381 320.147 140.316 320.358 140.196 320.538C140.076 320.717 139.906 320.858 139.706 320.94C139.506 321.023 139.287 321.045 139.075 321.002C138.863 320.96 138.668 320.856 138.515 320.703C138.363 320.551 138.258 320.356 138.216 320.144C138.174 319.932 138.196 319.712 138.278 319.513C138.361 319.313 138.501 319.142 138.681 319.022C138.861 318.902 139.072 318.838 139.288 318.838C139.578 318.838 139.856 318.953 140.061 319.158C140.265 319.363 140.381 319.641 140.381 319.931V319.931Z" fill="#247D7E"/>
<path d="M142.593 333.919C142.593 334.136 142.528 334.348 142.408 334.528C142.287 334.707 142.116 334.848 141.915 334.93C141.715 335.012 141.494 335.033 141.282 334.99C141.07 334.946 140.875 334.841 140.723 334.687C140.571 334.533 140.468 334.337 140.427 334.124C140.386 333.911 140.41 333.691 140.495 333.492C140.58 333.292 140.722 333.122 140.903 333.004C141.085 332.886 141.297 332.824 141.514 332.826C141.801 332.83 142.076 332.947 142.278 333.151C142.48 333.356 142.593 333.632 142.593 333.919Z" fill="#247D7E"/>
<path d="M143.685 348.69C143.685 348.906 143.621 349.117 143.501 349.297C143.381 349.476 143.21 349.616 143.011 349.699C142.811 349.782 142.591 349.803 142.379 349.761C142.168 349.719 141.973 349.615 141.82 349.462C141.667 349.309 141.563 349.115 141.521 348.903C141.479 348.691 141.5 348.471 141.583 348.271C141.666 348.072 141.806 347.901 141.986 347.781C142.165 347.661 142.377 347.597 142.593 347.597C142.882 347.597 143.16 347.712 143.365 347.917C143.57 348.122 143.685 348.4 143.685 348.69V348.69Z" fill="#247D7E"/>
<path d="M103.839 382.952C104.306 381.125 104.869 379.324 105.525 377.556" stroke="#247D7E" stroke-width="1.03078" stroke-linecap="round" stroke-linejoin="round"/>
<path d="M96.3657 424.094C98.0653 412.061 99.9538 399.989 102.598 388.118" stroke="#247D7E" stroke-width="1.03078" stroke-linecap="round" stroke-linejoin="round"/>
<path d="M110.705 409.957C112.283 397.466 113.551 384.409 117.355 372.363" stroke="#247D7E" stroke-width="1.03078" stroke-linecap="round" stroke-linejoin="round"/>
<path d="M108.141 432.7C108.708 426.913 109.355 421.126 110.043 415.353" stroke="#247D7E" stroke-width="1.03078" stroke-linecap="round" stroke-linejoin="round"/>
<path d="M130.79 408.163L130.992 401.418" stroke="#247D7E" stroke-width="1.03078" stroke-linecap="round" stroke-linejoin="round"/>
<path d="M129.873 439.134L130.641 413.006" stroke="#247D7E" stroke-width="1.03078" stroke-linecap="round" stroke-linejoin="round"/>
<path d="M151.644 406.787C151.523 399.233 151.388 391.679 151.023 384.139" stroke="#247D7E" stroke-width="1.03078" stroke-linecap="round" stroke-linejoin="round"/>
<path d="M151.967 431.688C151.913 424.979 151.833 418.28 151.725 411.589" stroke="#247D7E" stroke-width="1.03078" stroke-linecap="round" stroke-linejoin="round"/>
<path d="M158.105 371.108C157.822 368.788 157.512 366.468 157.094 364.162" stroke="#247D7E" stroke-width="1.03078" stroke-linecap="round" stroke-linejoin="round"/>
<path d="M162.84 424.093C161.666 407.906 160.412 391.72 158.631 375.654" stroke="#247D7E" stroke-width="1.03078" stroke-linecap="round" stroke-linejoin="round"/>
<path d="M135.821 303.798L136.172 310.475L121.846 301.222V287.301C121.846 287.301 138.748 287.867 135.983 291.253C135.547 291.824 135.238 292.482 135.079 293.182C134.6 295.541 134.6 297.972 135.079 300.331C135.267 301.499 135.515 302.656 135.821 303.798V303.798Z" fill="white" stroke="#247D7E" stroke-width="1.03078" stroke-linecap="round" stroke-linejoin="round"/>
<path d="M135.079 300.331C127.93 303.434 123.061 292.238 123.061 292.238L135.079 293.223C134.606 295.568 134.606 297.985 135.079 300.331V300.331Z" fill="#247D7E"/>
<path d="M114.32 248.02C114.32 248.02 111.622 238.78 99.8326 238.241C88.0432 237.701 80.8535 252.796 86.0873 261.064C91.321 269.333 88.286 280.124 90.7545 283.537C93.223 286.95 98.187 285.992 98.187 285.992C98.187 285.992 94.6123 281.743 95.4891 280.219C96.3659 278.695 101.91 266.824 99.3875 261.064C96.865 255.305 104.783 261.064 104.783 261.064L114.32 248.02Z" fill="#247D7E"/>
<path d="M136.334 247.616C136.334 247.616 148.852 243.205 152.157 246.51C155.461 249.815 156.972 269.752 147.071 272.368C137.17 274.985 136.334 247.616 136.334 247.616Z" fill="#247D7E"/>
<path d="M111.771 255.278C117.881 247.711 136.253 247.265 144.144 254.914C149.999 260.552 147.395 271.101 148.474 273.164C155.34 286.653 146.883 294.949 138.263 296.743C132.598 297.917 118.677 293.438 114.698 287.463C107.103 276.024 102.841 266.312 111.771 255.278Z" fill="white" stroke="#247D7E" stroke-width="1.03078" stroke-linecap="round" stroke-linejoin="round"/>
<path d="M115.238 280.475L118.394 276.429C118.394 276.429 117.045 261.847 128.889 257.989C140.732 254.131 145.575 256.492 145.575 256.492C145.575 256.492 149.379 249.194 137.05 245.35C124.721 241.506 108.089 243.677 103.759 257.166C99.4286 270.655 101.061 287.22 114.321 286.761L115.238 280.475Z" fill="#247D7E"/>
<path d="M123.574 278.776C123.574 278.776 137.211 279.693 142.283 276.213C147.355 272.733 150.201 276.213 150.201 276.213C151.484 277.99 152.332 280.044 152.677 282.209C153.021 284.374 152.852 286.589 152.184 288.677C149.796 295.651 145.844 299.198 128.484 296.325C128.484 296.325 129.266 284.104 123.574 278.776Z" fill="#1DC3C4" stroke="#247D7E" stroke-width="1.03078" stroke-linecap="round" stroke-linejoin="round"/>
<path d="M128.484 269.252C128.484 269.252 132.005 264.841 135.134 265.206" stroke="#247D7E" stroke-width="1.03078" stroke-linecap="round" stroke-linejoin="round"/>
<path d="M143.2 263.924C143.806 263.404 144.579 263.118 145.378 263.118C146.177 263.118 146.95 263.404 147.557 263.924" stroke="#247D7E" stroke-width="1.03078" stroke-linecap="round" stroke-linejoin="round"/>
<path d="M133.933 273.96C134.589 273.96 135.12 273.247 135.12 272.368C135.12 271.489 134.589 270.777 133.933 270.777C133.278 270.777 132.746 271.489 132.746 272.368C132.746 273.247 133.278 273.96 133.933 273.96Z" fill="#247D7E"/>
<path d="M145.574 269.792C145.574 270.669 145.048 271.384 144.387 271.384C143.726 271.384 143.2 270.669 143.2 269.792C143.2 268.915 143.726 268.214 144.387 268.214C145.048 268.214 145.574 268.915 145.574 269.792Z" fill="#247D7E"/>
<path d="M117.706 280.138C117.706 280.138 113.052 271.1 111.38 275.039C109.707 278.978 112.729 291.496 117.706 287.179" fill="white"/>
<path d="M117.706 280.138C117.706 280.138 113.052 271.1 111.38 275.039C109.707 278.978 112.729 291.496 117.706 287.179" stroke="#247D7E" stroke-width="1.03078" stroke-linecap="round" stroke-linejoin="round"/>
<path d="M114.32 262.697C114.32 262.697 130.642 253.659 148.785 253.389C148.785 253.389 159.792 293.304 159.792 295.489C159.792 297.674 134.352 304.823 131.802 302.894C129.253 300.965 118.799 267.216 118.799 267.216L115.777 268.214L114.32 262.697Z" stroke="#247D7E" stroke-width="1.03078" stroke-linecap="round" stroke-linejoin="round"/>
<path d="M112.054 263.115C112.054 263.115 131.303 250.219 149.459 253.389L150.566 258.003C150.566 258.003 134.473 256.546 113.025 269.252L112.054 263.115Z" fill="#1DC3C4" stroke="#247D7E" stroke-width="1.03078" stroke-linecap="round" stroke-linejoin="round"/>
<path d="M488.102 266.487C488.102 267.054 488.102 267.62 488.102 268.173C488.507 279.18 481.844 281.743 472.657 275.147C463.471 268.551 464.942 262.872 474.6 250.273C474.735 250.071 474.883 249.869 475.059 249.653C475.234 249.437 483.152 202.886 492.689 194.793C493.199 194.327 493.801 193.973 494.456 193.754C494.456 193.754 508.484 267.715 488.102 266.487Z" fill="#1DC3C4"/>
<path opacity="0.3" d="M484.245 256.195C483.154 254.582 481.731 253.22 480.073 252.199C478.415 251.178 476.559 250.522 474.627 250.273C474.762 250.071 474.911 249.868 475.086 249.653C475.261 249.437 483.18 202.886 492.716 194.793C493.472 206.029 495.05 228.974 495.32 229.864C495.697 230.903 491.286 266.15 484.245 256.195Z" fill="black" fill-opacity="0.7"/>
<path d="M488.102 266.487C488.102 267.054 488.102 267.62 488.102 268.173C488.507 279.18 481.844 281.743 472.657 275.147C463.471 268.551 464.942 262.872 474.6 250.273C474.735 250.071 474.883 249.869 475.059 249.653C475.234 249.437 483.152 202.886 492.689 194.793C493.199 194.327 493.801 193.973 494.456 193.754C494.456 193.754 508.484 267.715 488.102 266.487Z" stroke="#247D7E" stroke-width="1.03078" stroke-linecap="round" stroke-linejoin="round"/>
<path d="M478.741 251.622C480.229 252.233 481.525 253.232 482.493 254.516C483.462 255.8 484.067 257.321 484.244 258.92" stroke="#247D7E" stroke-width="1.03078" stroke-linecap="round" stroke-linejoin="round"/>
<path d="M481.209 258.407C480.801 258.314 480.377 258.314 479.968 258.407C479.27 258.603 478.634 258.975 478.12 259.486C475.536 262.284 474.047 265.919 473.925 269.725C473.863 270.712 474.008 271.702 474.349 272.631C474.69 273.56 475.221 274.408 475.908 275.12C476.88 276.003 478.069 276.611 479.354 276.884C480.638 277.156 481.972 277.083 483.219 276.672C484.456 276.244 485.554 275.49 486.399 274.491C487.244 273.492 487.805 272.283 488.021 270.993C488.325 268.487 487.722 265.956 486.321 263.857C485.391 262.346 483.624 258.879 481.209 258.407Z" fill="#247D7E"/>
<path d="M534.734 478.441L520.773 478.347C519.842 456.36 505.26 402.916 505.26 402.916C504.383 401.931 503.129 398.869 501.686 394.742C496.911 380.915 490.274 355.043 490.274 355.043L528.866 362.071C528.866 362.071 527.018 384.409 529.217 401.473C529.672 405.736 530.65 409.926 532.131 413.95C538.389 429.368 534.734 478.441 534.734 478.441Z" fill="white"/>
<path opacity="0.4" d="M529.204 401.472C519.781 400.456 510.536 398.188 501.713 394.728C496.938 380.901 490.301 355.029 490.301 355.029L528.867 362.071C528.867 362.071 527.005 384.408 529.204 401.472Z" fill="#1DC3C4"/>
<path d="M534.734 478.441L520.773 478.347C519.842 456.36 505.26 402.916 505.26 402.916C504.383 401.931 503.129 398.869 501.686 394.742C496.911 380.915 490.274 355.043 490.274 355.043L528.866 362.071C528.866 362.071 527.018 384.409 529.217 401.473C529.672 405.736 530.65 409.926 532.131 413.95C538.389 429.368 534.734 478.441 534.734 478.441Z" stroke="#247D7E" stroke-width="1.03078" stroke-linecap="round" stroke-linejoin="round"/>
<path d="M554.792 479.736L540.912 478.387C541.87 456.413 531.928 401.85 531.928 401.85C528.651 397.507 521.704 356.405 521.137 353.02V352.804L522.014 353.047L558.947 363.406C557.228 373.976 556.191 384.645 555.845 395.348C555.696 402.862 556.141 410.186 557.733 415.312C562.589 431.162 554.792 479.736 554.792 479.736Z" fill="white"/>
<path opacity="0.4" d="M558.907 363.366C557.199 373.95 556.177 384.633 555.845 395.348C546.78 398.114 537.743 396.252 535.814 394.553C533.008 392.098 531.956 401.81 531.956 401.81C528.678 397.466 521.731 356.365 521.165 352.979H522.001L558.907 363.366Z" fill="#1DC3C4"/>
<path d="M554.792 479.736L540.912 478.387C541.87 456.413 531.928 401.85 531.928 401.85C528.651 397.507 521.704 356.405 521.137 353.02V352.804L522.014 353.047L558.947 363.406C557.228 373.976 556.191 384.645 555.845 395.348C555.696 402.862 556.141 410.186 557.733 415.312C562.589 431.162 554.792 479.736 554.792 479.736Z" stroke="#247D7E" stroke-width="1.03078" stroke-linecap="round" stroke-linejoin="round"/>
<path d="M549.1 257.76C549.1 257.76 574.014 325.88 565.921 382.345C565.921 382.345 534.505 393.365 490.503 382.345C490.503 382.345 477.689 333.029 493.282 258.245L549.1 257.76Z" fill="#247D7E"/>
<path d="M563.938 203.844L557.706 233.358L551.663 261.928C551.663 261.928 526.357 266.339 512.288 266.339C498.219 266.339 493.174 262.373 493.174 262.373L492.311 211.546V208.579L508.862 188.224L518.305 182.18C518.305 182.18 520.557 179.253 532.293 178.269C535.58 177.905 538.906 178.229 542.062 179.218C545.217 180.207 548.133 181.841 550.624 184.015L563.938 203.844Z" fill="white"/>
<path opacity="0.4" d="M557.761 233.358L551.718 261.928C551.718 261.928 526.412 266.339 512.343 266.339C498.274 266.339 493.229 262.373 493.229 262.373L492.366 211.546L501.107 201.604C501.107 201.604 502.456 228.704 505.518 231.645C508.58 234.585 524.294 233.938 524.294 233.938L540.225 210.669C540.225 210.669 548.21 220.921 557.761 233.358Z" fill="#1DC3C4"/>
<path d="M563.938 203.844L557.706 233.358L551.663 261.928C551.663 261.928 526.357 266.339 512.288 266.339C498.219 266.339 493.174 262.373 493.174 262.373L492.311 211.546V208.579L508.862 188.224L518.305 182.18C518.305 182.18 520.557 179.253 532.293 178.269C535.58 177.905 538.906 178.229 542.062 179.218C545.217 180.207 548.133 181.841 550.624 184.015L563.938 203.844Z" stroke="#247D7E" stroke-width="1.03078" stroke-linecap="round" stroke-linejoin="round"/>
<path d="M507.162 139.46C507.162 149.429 514.123 164.766 505.517 170.998C505.517 170.998 513.394 190.071 554.995 174.977L548.601 132.5C548.601 132.5 532.414 123.327 524.32 123.516C516.227 123.705 507.162 129.559 507.162 139.46Z" fill="#247D7E"/>
<path d="M521.151 165.602C522.7 168.974 523.207 172.732 522.608 176.394C522.155 179.053 521.099 181.572 519.519 183.759C518.454 187.927 521.151 201.645 521.151 201.645C526.544 192.989 534.093 185.883 543.058 181.02C536.731 172.225 543.058 155.998 543.058 155.998C543.058 155.998 512.033 150.602 519.519 162.5C520.135 163.494 520.681 164.531 521.151 165.602V165.602Z" fill="white" stroke="#247D7E" stroke-width="1.03078" stroke-linecap="round" stroke-linejoin="round"/>
<path d="M522.608 176.461C536.097 175.841 537.189 163.269 537.189 163.269C531.743 163.001 526.296 163.793 521.151 165.602C522.713 168.994 523.221 172.777 522.608 176.461V176.461Z" fill="#247D7E"/>
<path d="M548.601 142.631C549.245 139.75 549.226 136.76 548.546 133.887C547.867 131.015 546.544 128.334 544.677 126.047C542.811 123.759 540.45 121.926 537.772 120.684C535.094 119.442 532.169 118.824 529.217 118.876C505.423 118.876 508.067 146.057 510.211 157.01C512.127 166.884 516.47 173.655 519.721 173.655C529.002 173.655 538.403 166.547 538.403 160.463" fill="white"/>
<path d="M548.601 142.631C549.245 139.75 549.226 136.76 548.546 133.887C547.867 131.015 546.544 128.334 544.677 126.047C542.811 123.759 540.45 121.926 537.772 120.684C535.094 119.442 532.169 118.824 529.217 118.876C505.423 118.876 508.067 146.057 510.211 157.01C512.127 166.884 516.47 173.655 519.721 173.655C529.002 173.655 538.403 166.547 538.403 160.463" stroke="#247D7E" stroke-width="1.03078" stroke-linecap="round" stroke-linejoin="round"/>
<path d="M523.687 142.495C523.687 142.495 527.733 142.185 530.013 143.844" stroke="#247D7E" stroke-width="1.03078" stroke-linecap="round" stroke-linejoin="round"/>
<path d="M513.394 142.604C513.394 142.604 510.413 141.484 508.875 143.952" stroke="#247D7E" stroke-width="1.03078" stroke-linecap="round" stroke-linejoin="round"/>
<path d="M524.307 150.144C524.307 150.953 524.779 151.601 525.359 151.601C525.939 151.601 526.411 150.953 526.411 150.144C526.411 149.334 525.939 148.673 525.359 148.673C524.779 148.673 524.307 149.294 524.307 150.144Z" fill="#247D7E"/>
<path d="M511.331 150.144C511.331 150.953 511.803 151.601 512.383 151.601C512.963 151.601 513.435 150.953 513.435 150.144C513.435 149.334 512.963 148.673 512.383 148.673C511.803 148.673 511.331 149.294 511.331 150.144Z" fill="#247D7E"/>
<path d="M516.146 150.643C516.146 152.761 511.924 156.039 512.747 157.158C513.729 158.056 514.886 158.741 516.146 159.168" fill="white"/>
<path d="M516.146 150.643C516.146 152.761 511.924 156.039 512.747 157.158C513.729 158.056 514.886 158.741 516.146 159.168" stroke="#247D7E" stroke-width="1.03078" stroke-linecap="round" stroke-linejoin="round"/>
<path d="M515.04 162.567C516.066 163.019 517.176 163.252 518.297 163.252C519.419 163.252 520.528 163.019 521.555 162.567" fill="white"/>
<path d="M515.04 162.567C516.066 163.019 517.176 163.252 518.297 163.252C519.419 163.252 520.528 163.019 521.555 162.567" stroke="#247D7E" stroke-width="1.03078" stroke-linecap="round" stroke-linejoin="round"/>
<path d="M514.393 129.195C512.384 134.874 530.27 149.2 543.827 151.56C543.827 151.56 544.892 171.241 542.329 176.461C545.872 177.22 549.554 177.003 552.983 175.831C556.411 174.66 559.457 172.579 561.794 169.811C561.794 169.811 551.893 168.61 554.105 157.792C556.318 146.974 561.956 128.467 549.101 117.77C536.246 107.073 518.589 115.49 516.201 120.468C516.201 120.468 496.237 123.408 509.065 147.783C508.942 142.991 509.663 138.215 511.197 133.674C513.584 127.361 514.393 129.195 514.393 129.195Z" fill="#247D7E"/>
<path d="M532.913 154.906C529.196 155.958 525.259 155.958 521.542 154.906C515.674 153.125 508.862 155.513 508.862 155.513C508.862 155.513 508.862 167.154 514.379 172.28C518.615 176.218 528.448 174.114 533.615 169.811C533.628 169.811 530.822 161.097 532.913 154.906Z" fill="#1DC3C4" stroke="#247D7E" stroke-width="1.03078" stroke-linecap="round" stroke-linejoin="round"/>
<path d="M532.914 154.906C532.914 154.906 539.052 147.527 541.439 149.51" stroke="#247D7E" stroke-width="1.03078" stroke-linecap="round" stroke-linejoin="round"/>
<path d="M533.629 169.811C533.629 169.811 542.95 162.837 542.289 157.792" stroke="#247D7E" stroke-width="1.03078" stroke-linecap="round" stroke-linejoin="round"/>
<path d="M538.794 151.56C538.794 151.56 540.345 146.434 543.191 146.704C546.038 146.974 546.388 152.936 545.026 155.418C543.664 157.9 541.087 160.18 539.887 158.116" fill="white"/>
<path d="M538.794 151.56C538.794 151.56 540.345 146.434 543.191 146.704C546.038 146.974 546.388 152.936 545.026 155.418C543.664 157.9 541.087 160.18 539.887 158.116" stroke="#247D7E" stroke-width="1.03078" stroke-linecap="round" stroke-linejoin="round"/>
<path d="M543.057 131.853C543.057 131.853 525.683 128.467 501.106 131.853L503.129 176.92C503.129 176.92 526.938 184.069 533.628 178.269C540.319 172.468 537.972 136.345 537.972 136.345L543.057 136.898V131.853Z" stroke="#247D7E" stroke-width="1.03078" stroke-linecap="round" stroke-linejoin="round"/>
<path d="M543.057 136.898C543.057 136.898 517.981 136.641 500.377 138.597L499.649 130.679C499.649 130.679 526.33 125.607 543.057 129.6V136.898Z" fill="#1DC3C4" stroke="#247D7E" stroke-width="1.03078" stroke-linecap="round" stroke-linejoin="round"/>
<path d="M560.31 260.876C563.076 278.142 570.602 322.453 570.602 322.453H545.796C545.796 322.453 529.353 285.035 530.702 244.878C532.051 204.721 549.047 180.535 549.047 180.535C549.047 180.535 568.309 190.544 570.629 196.911C573.705 205.463 568.363 223.025 564.02 236.73C561.322 245.201 559.042 252.175 559.366 254.644C559.46 255.628 559.811 257.814 560.31 260.876Z" fill="#1DC3C4"/>
<path opacity="0.3" d="M563.938 236.73C561.24 245.201 558.961 252.175 559.284 254.644C559.406 255.629 559.757 257.814 560.256 260.876C553.376 264.922 540.17 261.496 540.17 261.496C546.915 260.147 554.307 248.142 554.307 248.142C549.181 227.908 560.053 208.147 560.053 208.147L563.938 217.333V236.73Z" fill="black" fill-opacity="0.7"/>
<path d="M560.31 260.876C563.076 278.142 570.602 322.453 570.602 322.453H545.796C545.796 322.453 529.353 285.035 530.702 244.878C532.051 204.721 549.047 180.535 549.047 180.535C549.047 180.535 568.309 190.544 570.629 196.911C573.705 205.463 568.363 223.025 564.02 236.73C561.322 245.201 559.042 252.175 559.366 254.644C559.46 255.628 559.811 257.814 560.31 260.876Z" stroke="#247D7E" stroke-width="1.03078" stroke-linecap="round" stroke-linejoin="round"/>
<path d="M516.146 180.791C516.146 180.791 489.748 216.834 493.039 322.426H484.245C484.245 322.426 486.403 275.916 493.039 251.595C493.039 251.595 484.946 211.276 490.342 198.664C493.431 191.367 516.146 180.791 516.146 180.791Z" fill="#1DC3C4" stroke="#247D7E" stroke-width="1.03078" stroke-linecap="round" stroke-linejoin="round"/>
<path d="M567.473 192.756C571.924 196.128 575.876 205.098 579.181 215.053C582.486 225.008 585.143 235.827 587.045 243.111C587.652 245.431 588.178 247.373 588.623 248.83C591.874 259.379 585.13 266.676 578.048 261.928C570.966 257.18 559.339 228.084 559.339 228.084C559.339 228.084 558.867 206.704 561.794 200.593" fill="#1DC3C4"/>
<path opacity="0.3" d="M587.045 243.11C584.266 249.032 579.68 251.77 573.772 245.404C560.283 230.916 570.737 218.425 579.167 215.053C582.472 224.954 585.143 235.826 587.045 243.11Z" fill="black" fill-opacity="0.7"/>
<path d="M567.473 192.756C571.924 196.128 575.876 205.098 579.181 215.053C582.486 225.008 585.143 235.827 587.045 243.111C587.652 245.431 588.178 247.373 588.623 248.83C591.874 259.379 585.13 266.676 578.048 261.928C570.966 257.18 559.339 228.084 559.339 228.084C559.339 228.084 558.867 206.704 561.794 200.593" stroke="#247D7E" stroke-width="1.03078" stroke-linecap="round" stroke-linejoin="round"/>
<path d="M575.417 248.83C571.802 243.772 574.392 239.711 574.392 239.711L568.78 206.798C575.026 200.377 586.829 203.884 586.829 203.884C586.829 203.884 601.033 242.719 599.94 248.87C598.847 255.021 594.666 271.802 578.047 261.968" fill="#1DC3C4"/>
<path d="M575.417 248.83C571.802 243.772 574.392 239.711 574.392 239.711L568.78 206.798C575.026 200.377 586.829 203.884 586.829 203.884C586.829 203.884 601.033 242.719 599.94 248.87C598.847 255.021 594.666 271.802 578.047 261.968" stroke="#247D7E" stroke-width="1.03078" stroke-linecap="round" stroke-linejoin="round"/>
<path d="M577.427 187.455C577.427 187.455 578.169 192.405 583.12 205.517C583.12 205.517 580.139 209.563 572.464 207.648L567.715 189.653L577.427 187.455Z" fill="white" stroke="#247D7E" stroke-width="1.03078" stroke-linecap="round" stroke-linejoin="round"/>
<path d="M571.087 193.754C566.204 193.687 566.447 192.904 563.668 185.58C560.889 178.255 557.544 178.012 559.621 176.569C561.698 175.126 565.759 180.724 565.759 180.724C563.978 159.236 567.634 160.342 567.634 160.342C567.94 162.791 568.418 165.216 569.063 167.599C569.063 167.599 570.008 161.569 572.018 159.856C572.706 159.263 573.744 161.596 573.744 161.596C573.744 161.596 575.093 160.409 576.213 161.596L576.563 173.601C578.479 164.537 581.433 163.431 580.61 166.371C579.787 169.312 578.965 187.63 578.965 187.63C578.83 190.8 577.386 192.311 575.875 192.648" fill="white"/>
<path d="M571.087 193.754C566.204 193.687 566.447 192.904 563.668 185.58C560.889 178.255 557.544 178.012 559.621 176.569C561.698 175.126 565.759 180.724 565.759 180.724C563.978 159.236 567.634 160.342 567.634 160.342C567.94 162.791 568.418 165.216 569.063 167.599C569.063 167.599 570.008 161.569 572.018 159.856C572.706 159.263 573.744 161.596 573.744 161.596C573.744 161.596 575.093 160.409 576.213 161.596L576.563 173.601C578.479 164.537 581.433 163.431 580.61 166.371C579.787 169.312 578.965 187.63 578.965 187.63C578.83 190.8 577.386 192.311 575.875 192.648" stroke="#247D7E" stroke-width="1.03078" stroke-linecap="round" stroke-linejoin="round"/>
<path d="M573.771 161.596C572.883 165.189 572.43 168.875 572.422 172.576" stroke="#247D7E" stroke-width="1.03078" stroke-linecap="round" stroke-linejoin="round"/>
<path d="M569.09 167.599C568.838 169.127 568.752 170.679 568.834 172.225" stroke="#247D7E" stroke-width="1.03078" stroke-linecap="round" stroke-linejoin="round"/>
<path d="M524.307 292.022L518.304 237.755H480.022L486.497 292.602L524.307 292.022Z" fill="white" stroke="#247D7E" stroke-width="1.03078" stroke-linecap="round" stroke-linejoin="round"/>
<path d="M487.05 260.107C487.05 260.107 481.358 255.709 480.076 256.627C478.795 257.544 479.159 258.097 478.606 260.107C478.053 262.117 477.324 265.61 477.877 266.339C478.431 267.067 478.43 268.915 478.43 270.75C478.43 272.584 479.901 272.207 480.076 273.448C480.252 274.689 486.497 279.558 487.05 278.708C487.603 277.858 485.769 275.107 485.769 275.107C485.769 275.107 492.729 277.305 489.815 272.53C489.815 272.53 491.245 270.52 490.53 269.239C488.94 267.183 487.228 265.223 485.404 263.371C485.404 263.371 494.01 265.516 487.05 260.107Z" fill="white" stroke="#247D7E" stroke-width="1.03078" stroke-linecap="round" stroke-linejoin="round"/>
<path d="M489.748 272.571C489.748 272.571 482.68 268.133 481.587 267.674" stroke="#247D7E" stroke-width="1.03078" stroke-linecap="round" stroke-linejoin="round"/>
<path d="M485.337 263.452C485.337 263.452 482.41 261.982 481.587 261.523" stroke="#247D7E" stroke-width="1.03078" stroke-linecap="round" stroke-linejoin="round"/>
<path d="M485.702 275.147C484.191 274.414 482.747 273.552 481.385 272.571" stroke="#247D7E" stroke-width="1.03078" stroke-linecap="round" stroke-linejoin="round"/>
<path d="M534.977 474.651C534.702 480.122 535.694 485.583 537.877 490.608C540.413 496.085 536.42 510.963 536.42 510.963H531.821L528.071 501.615L518.628 510.963H497.504C497.504 510.963 498.678 507.213 504.91 502.991C504.91 502.991 511.762 500.819 515.836 492.024C517.994 487.344 521.11 483.742 520.449 473.652" fill="white"/>
<path d="M534.977 474.651C534.702 480.122 535.694 485.583 537.877 490.608C540.413 496.085 536.42 510.963 536.42 510.963H531.821L528.071 501.615L518.628 510.963H497.504C497.504 510.963 498.678 507.213 504.91 502.991C504.91 502.991 511.762 500.819 515.836 492.024C517.994 487.344 521.11 483.742 520.449 473.652" stroke="#247D7E" stroke-width="1.03078" stroke-linecap="round" stroke-linejoin="round"/>
<path d="M497.504 510.963H518.628L528.071 501.615L531.821 510.963H536.42C536.42 510.963 540.467 496.125 537.864 490.608C537.486 489.772 537.149 488.935 536.852 488.099C532.374 486.224 531.2 486.224 528.071 489.448C524.941 492.672 518.318 507.281 506.232 502.344C505.795 502.564 505.344 502.758 504.883 502.924C498.678 507.213 497.504 510.963 497.504 510.963Z" fill="#247D7E"/>
<path d="M541.006 473.652C539.832 484.282 536.541 494.803 533.789 498.904C531.534 502.743 529.633 506.779 528.11 510.963H549.693L552.175 505.46L553.267 510.963H557.678C557.678 510.963 559.904 498.041 559.338 493.643C558.771 489.246 554.441 484.052 555.965 471.71" fill="white"/>
<path d="M541.006 473.652C539.832 484.282 536.541 494.803 533.789 498.904C531.534 502.743 529.633 506.779 528.11 510.963H549.693L552.175 505.46L553.267 510.963H557.678C557.678 510.963 559.904 498.041 559.338 493.643C558.771 489.246 554.441 484.052 555.965 471.71" stroke="#247D7E" stroke-width="1.03078" stroke-linecap="round" stroke-linejoin="round"/>
<path d="M528.071 510.963H549.653L552.122 505.459L553.214 510.963H557.612C557.612 510.963 559.851 498.04 559.284 493.643C558.846 491.583 558.227 489.565 557.436 487.613C556.756 487.294 556.01 487.142 555.259 487.17C554.508 487.198 553.774 487.405 553.12 487.775C550.193 489.974 550.571 499.915 546.888 502.073C543.206 504.232 542.841 502.073 537.351 502.073C534.451 502.073 532.859 502.181 532.198 501.453C530.643 504.542 529.265 507.717 528.071 510.963V510.963Z" fill="#247D7E"/>
<g opacity="0.2">
<path opacity="0.2" d="M507.068 350.457C505.51 351.692 503.869 352.818 502.158 353.829" stroke="white" stroke-width="1.03078" stroke-linecap="round" stroke-linejoin="round"/>
<path opacity="0.2" d="M530.62 310.475C527.693 323.964 520.908 337.521 510.967 347.085" stroke="white" stroke-width="1.03078" stroke-linecap="round" stroke-linejoin="round"/>
<path opacity="0.2" d="M499.19 297.552C499.19 297.552 505.287 310.475 513.057 313.739" stroke="white" stroke-width="1.03078" stroke-linecap="round" stroke-linejoin="round"/>
</g>
<path d="M353.94 353.829C373.378 361.531 393.719 390.505 393.719 390.505C393.719 390.505 376.71 420.181 365.392 420.896L335.716 411.683L353.94 353.829Z" fill="white"/>
<path opacity="0.4" d="M386.407 397.277C386.407 397.277 386.11 399.557 385.463 403.118C379.568 411.211 371.623 420.438 365.404 420.856L338.103 412.385C341.375 403.022 348.095 395.26 356.893 390.681C356.893 390.681 364.056 382.399 366.794 384.854C369.532 387.309 365.971 399.287 365.782 399.948C366.214 399.408 372.945 390.762 376.776 390.681C380.607 390.6 386.407 397.277 386.407 397.277Z" fill="#1DC3C4"/>
<path d="M353.94 353.829C373.378 361.531 393.719 390.505 393.719 390.505C393.719 390.505 376.71 420.181 365.392 420.896L335.716 411.683L353.94 353.829Z" stroke="#247D7E" stroke-width="1.03078" stroke-linecap="round" stroke-linejoin="round"/>
<path d="M234.061 481.435C234.061 481.435 220.909 471.116 219.223 463.36C217.537 455.604 219.763 363.109 221.921 359.022C224.079 354.935 286.048 343.968 301.345 348.42C316.641 352.871 323.278 462.173 323.278 462.173L234.061 481.435Z" fill="#247D7E"/>
<path d="M359.173 387.673C358.958 396.413 357.504 405.078 354.857 413.41C354.857 413.41 347.06 459.543 346.305 478.414C345.212 505.23 239.674 491.174 239.674 491.174C239.674 491.174 238.096 385.164 245.15 369.017C259.789 357.068 277.61 349.672 296.409 347.745C327.069 344.939 349.65 349.269 356.975 354.49C358.488 355.628 359.73 357.089 360.609 358.766C361.489 360.444 361.984 362.296 362.06 364.188" fill="white"/>
<path opacity="0.4" d="M278.885 359.022C277.865 363.917 278.034 368.984 279.376 373.8C280.719 378.616 283.196 383.04 286.601 386.702L301.439 378.743L310.692 380.443L320.553 377.677L331.856 383.855C331.856 383.855 342.256 362.691 320.553 352.399C298.849 342.107 282.554 349.539 278.885 359.022Z" fill="#1DC3C4"/>
<path opacity="0.4" d="M358.349 397.223C357.708 402.725 356.515 408.148 354.788 413.41C354.788 413.41 346.991 459.529 346.222 478.4C345.143 505.217 239.659 491.161 239.659 491.161C239.659 491.161 239.092 452.893 240.158 418.833C251.219 430.892 278.332 458.841 291.497 458.302C308.264 457.614 331.897 431.674 331.897 431.674C331.897 431.674 352.967 416.135 358.39 397.264L358.349 397.223Z" fill="#1DC3C4"/>
<path d="M359.173 387.673C358.958 396.413 357.504 405.078 354.857 413.41C354.857 413.41 347.06 459.543 346.305 478.414C345.212 505.23 239.674 491.174 239.674 491.174C239.674 491.174 238.096 385.164 245.15 369.017C259.789 357.068 277.61 349.672 296.409 347.745C327.069 344.939 349.65 349.269 356.975 354.49C358.488 355.628 359.73 357.089 360.609 358.766C361.489 360.444 361.984 362.296 362.06 364.188" stroke="#247D7E" stroke-width="1.03078" stroke-linecap="round" stroke-linejoin="round"/>
<path d="M268.215 352.399C268.215 352.399 283.256 361.369 286.318 391.706C289.38 422.043 265.828 452.299 265.828 452.299C265.828 452.299 248.724 474.38 235.248 476.404L234.102 466.597C234.102 466.597 249.547 466.88 261.66 450.923C261.66 450.923 258.355 445.703 263.858 439.646C269.362 433.589 284.713 383.504 254.187 359.022L268.215 352.399Z" fill="#247D7E"/>
<path d="M337.496 346.963C337.496 346.963 355.949 360.721 347.154 428.099C347.154 428.099 346.871 446.525 350.999 451.746L348.557 458.315C344.188 449.471 342.657 439.493 344.173 429.745L341.921 428.099C341.921 428.099 341.233 366.765 323.373 345.964L337.496 346.963Z" fill="#247D7E"/>
<path d="M245.083 369.017C228.424 387.7 232.497 416.081 245.083 443.909C245.083 443.909 267.596 450.437 286.319 426.022L284.97 420.02L281.544 419.264C281.544 419.264 275.244 407.434 274.799 400.973C274.354 394.512 267.839 380.038 260.191 378.042" fill="white"/>
<path d="M245.083 369.017C228.424 387.7 232.497 416.081 245.083 443.909C245.083 443.909 267.596 450.437 286.319 426.022L284.97 420.02L281.544 419.264C281.544 419.264 275.244 407.434 274.799 400.973C274.354 394.512 267.839 380.038 260.191 378.042" stroke="#247D7E" stroke-width="1.03078" stroke-linecap="round" stroke-linejoin="round"/>
<path d="M281.503 347.731C281.503 347.731 285.711 343.145 304.178 344.454C318.422 345.452 328.067 354.206 330.778 361.652C332.41 366.131 331.695 380.739 331.695 380.739L319.056 369.948L310.504 378.972L297.433 370.622L287.721 384.111C287.721 384.111 266.84 361.652 281.503 347.731Z" fill="white" stroke="#247D7E" stroke-width="1.03078" stroke-linecap="round" stroke-linejoin="round"/>
<path d="M323.994 337.642L323.899 340.218L323.319 355.178L323.252 357.147L309.898 376.032L284.066 351.846C294.561 331.734 279.588 323.937 278.886 323.519L323.994 337.642Z" fill="white" stroke="#247D7E" stroke-width="1.03078" stroke-linecap="round" stroke-linejoin="round"/>
<path d="M323.899 340.205L323.319 355.177C310.666 354.125 308.818 338.991 308.818 338.869L323.899 340.205Z" fill="#247D7E"/>
<path d="M306.484 340.677C310.828 346.234 330.238 356.189 340.841 349.229C351.443 342.268 351.497 305.254 351.497 305.254C351.497 305.254 344.672 303.096 343.579 300.358C339.91 291.05 346.142 275.174 337.819 263.168C329.497 251.163 287.114 245.39 270.374 271.262C261.404 285.169 265.194 318.177 284.025 329.966" fill="white"/>
<path d="M306.484 340.677C310.828 346.234 330.238 356.189 340.841 349.229C351.443 342.268 351.497 305.254 351.497 305.254C351.497 305.254 344.672 303.096 343.579 300.358C339.91 291.05 346.142 275.174 337.819 263.168C329.497 251.163 287.114 245.39 270.374 271.262C261.404 285.169 265.194 318.177 284.025 329.966" stroke="#247D7E" stroke-width="1.03078" stroke-linecap="round" stroke-linejoin="round"/>
<path d="M337.415 283.524C337.415 283.524 329.74 285.196 326.313 290.538" stroke="#247D7E" stroke-width="1.03078" stroke-linecap="round" stroke-linejoin="round"/>
<path d="M335.284 296.298C335.284 298.065 334.515 299.495 333.571 299.495C332.626 299.495 331.871 298.065 331.871 296.298C331.871 294.531 332.626 293.101 333.571 293.101C334.515 293.101 335.284 294.477 335.284 296.298Z" fill="#247D7E"/>
<path d="M346.763 301.221C346.763 301.221 335.459 312.012 320.513 313.739C320.513 313.739 329.052 332.152 317.748 344.319C317.748 344.319 329.699 353.909 339.331 352.21C348.962 350.51 351.471 333.001 351.471 333.001C351.471 333.001 354.236 329.589 353.602 328.105C352.968 326.621 357.446 309.544 356.799 306.765C356.151 303.986 346.763 301.221 346.763 301.221Z" fill="#1DC3C4" stroke="#247D7E" stroke-width="1.03078" stroke-linecap="round" stroke-linejoin="round"/>
<path d="M320.554 313.726C320.554 313.726 299.943 303.352 295.707 311.23C290.946 320.106 300.037 339.827 317.789 344.305" stroke="#247D7E" stroke-width="1.03078" stroke-linecap="round" stroke-linejoin="round"/>
<path d="M270.847 261.577C270.847 261.577 272.978 240.399 275.972 242.962C277.641 244.304 278.96 246.03 279.817 247.993C279.817 247.993 288.342 239.725 292.186 240.493C296.031 241.262 297.73 240.399 300.725 238.699C303.719 237 306.687 240.493 306.687 240.493C306.687 240.493 315.226 242.881 317.788 238.227C320.351 233.574 327.231 234.599 326.314 240.493C329.276 241.071 332.322 241.071 335.284 240.493C340.396 239.549 339.115 245.026 339.115 245.026C339.115 245.026 345.063 251.514 343.58 252.998C342.096 254.482 337.82 263.169 337.82 263.169C337.82 263.169 308.036 267.647 308.643 275.997C308.643 275.997 310.167 287.341 308.643 293.101C307.119 298.861 308.643 309.962 308.643 309.962C308.643 309.962 298.162 311.54 297.299 318.218C296.435 324.895 300.361 330.047 298.58 333.42C296.8 336.792 284.079 338.815 284.079 338.815C284.079 338.815 270.428 335.16 270.847 330.034C271.265 324.908 269.039 328.577 265.249 325.677C261.458 322.777 271.17 320.956 265.249 318.244C259.327 315.533 253.783 315.129 254.215 309.989C254.735 306.204 255.889 302.533 257.627 299.13C257.627 299.13 250.37 296.325 250.37 293.128C250.37 289.931 258.464 279.814 258.464 279.814C258.464 279.814 252.92 280.043 252.488 276.024C252.056 272.004 262.308 266.433 262.308 266.433C262.308 266.433 257.614 263.155 257.614 261.604C257.614 260.053 265.235 261.604 265.235 261.604C265.235 261.604 266.584 251.541 267.852 253.025C269.12 254.509 270.847 261.577 270.847 261.577Z" fill="#247D7E"/>
<path d="M306.687 313.685C306.687 313.685 303.275 296.298 295.599 299.495C287.924 302.692 280.235 312.471 286.157 317.826C292.079 323.181 295.114 332.327 299.16 332.948C303.207 333.568 303.207 329.103 303.207 329.103" fill="white"/>
<path d="M306.687 313.685C306.687 313.685 303.275 296.298 295.599 299.495C287.924 302.692 280.235 312.471 286.157 317.826C292.079 323.181 295.114 332.327 299.16 332.948C303.207 333.568 303.207 329.103 303.207 329.103" stroke="#247D7E" stroke-width="1.03078" stroke-linecap="round" stroke-linejoin="round"/>
<path d="M297.096 269.859C300.293 269.859 354.91 256.195 354.91 256.195L369.411 351.616C369.411 351.616 338.696 359.022 328.876 359.022C319.056 359.022 306.686 279.868 306.686 279.868L297.096 281.797V269.859Z" stroke="#247D7E" stroke-width="1.03078" stroke-linecap="round" stroke-linejoin="round"/>
<path d="M292.982 269.859L355.127 254.481L357.892 266.406L296.692 280.637L292.982 269.859Z" fill="#1DC3C4" stroke="#247D7E" stroke-width="1.03078" stroke-linecap="round" stroke-linejoin="round"/>
<path d="M354.856 413.41C355.207 412.385 361.48 401.445 362.95 394.525" stroke="#247D7E" stroke-width="1.03078" stroke-linecap="round" stroke-linejoin="round"/>
<path d="M362.829 419.655C364.173 409.689 369.138 400.566 376.777 394.026" stroke="#247D7E" stroke-width="1.03078" stroke-linecap="round" stroke-linejoin="round"/>
<path d="M281.503 419.264C281.503 419.264 267.232 417.659 257.52 423.567" stroke="#247D7E" stroke-width="1.03078" stroke-linecap="round" stroke-linejoin="round"/>
<path d="M312.42 387.335C313.381 387.335 314.16 386.556 314.16 385.595C314.16 384.634 313.381 383.855 312.42 383.855C311.459 383.855 310.68 384.634 310.68 385.595C310.68 386.556 311.459 387.335 312.42 387.335Z" fill="#247D7E"/>
<path d="M312.42 414.678C313.381 414.678 314.16 413.899 314.16 412.938C314.16 411.977 313.381 411.198 312.42 411.198C311.459 411.198 310.68 411.977 310.68 412.938C310.68 413.899 311.459 414.678 312.42 414.678Z" fill="#247D7E"/>
<path d="M313.203 442.964C313.203 443.309 313.101 443.645 312.91 443.931C312.718 444.217 312.447 444.44 312.129 444.572C311.811 444.704 311.461 444.738 311.123 444.671C310.786 444.604 310.476 444.438 310.232 444.195C309.989 443.952 309.823 443.642 309.756 443.304C309.689 442.966 309.723 442.617 309.855 442.299C309.987 441.981 310.21 441.709 310.496 441.518C310.782 441.326 311.119 441.224 311.463 441.224C311.692 441.223 311.919 441.266 312.131 441.353C312.343 441.44 312.535 441.568 312.697 441.73C312.859 441.892 312.987 442.085 313.074 442.296C313.161 442.508 313.205 442.735 313.203 442.964Z" fill="#247D7E"/>
<path d="M310.693 474.664C310.714 474.904 310.685 475.146 310.608 475.375C310.53 475.604 310.406 475.814 310.243 475.992C310.08 476.17 309.882 476.312 309.661 476.409C309.44 476.507 309.201 476.557 308.96 476.557C308.718 476.557 308.48 476.507 308.259 476.409C308.038 476.312 307.839 476.17 307.676 475.992C307.513 475.814 307.389 475.604 307.312 475.375C307.234 475.146 307.205 474.904 307.226 474.664C307.265 474.23 307.464 473.827 307.785 473.533C308.106 473.24 308.525 473.077 308.96 473.077C309.395 473.077 309.814 473.24 310.135 473.533C310.456 473.827 310.655 474.23 310.693 474.664V474.664Z" fill="#247D7E"/>
<path d="M212.236 544.024V485.172L214.287 484.888L427.67 455.374L570.803 480.477L572.192 480.72V544.024" fill="white"/>
<path opacity="0.7" d="M570.803 480.477L376.776 533.112L214.287 484.888L427.671 455.374L570.803 480.477Z" fill="#1DC3C4"/>
<path d="M212.236 544.024V485.172L214.287 484.888L427.67 455.374L570.803 480.477L572.192 480.72V544.024" stroke="#247D7E" stroke-width="1.03078" stroke-linecap="round" stroke-linejoin="round"/>
<path d="M388.404 393.095C388.404 393.095 373.107 405.708 369.964 416.836C369.964 416.836 394.083 450.329 405.629 455.01C417.176 459.691 428.466 454.376 429.289 440.523C430.112 426.67 417.729 386.202 417.729 386.202L395.472 389.737L397.523 405.303L388.404 393.095Z" fill="white"/>
<path opacity="0.4" d="M421.074 441.224C420.889 446.282 419.947 451.283 418.282 456.062C414.068 457.142 409.615 456.781 405.629 455.037C394.083 450.37 369.964 416.85 369.964 416.85C373.107 405.735 388.417 393.122 388.417 393.122L397.536 405.343L395.472 389.777L400.962 388.914C405.4 389.413 409.46 391.8 412.994 397.304C412.994 397.304 410.836 403.549 405.225 405.397C405.225 405.317 422.302 419.615 421.074 441.224Z" fill="#1DC3C4"/>
<path d="M388.404 393.095C388.404 393.095 373.107 405.708 369.964 416.836C369.964 416.836 394.083 450.329 405.629 455.01C417.176 459.691 428.466 454.376 429.289 440.523C430.112 426.67 417.729 386.202 417.729 386.202L395.472 389.737L397.523 405.303L388.404 393.095Z" stroke="#247D7E" stroke-width="1.03078" stroke-linecap="round" stroke-linejoin="round"/>
<path d="M415.261 398.505C415.261 398.505 408.287 401.809 405.818 398.505C403.35 395.2 395.58 395.942 387.46 393.109C379.339 390.276 379.285 383.37 379.285 383.37C380.499 377.489 388.62 371.54 398.979 374.035C409.339 376.531 416.394 383.06 418.403 388.671" fill="white"/>
<path d="M415.261 398.505C415.261 398.505 408.287 401.809 405.818 398.505C403.35 395.2 395.58 395.942 387.46 393.109C379.339 390.276 379.285 383.37 379.285 383.37C380.499 377.489 388.62 371.54 398.979 374.035C409.339 376.531 416.394 383.06 418.403 388.671" stroke="#247D7E" stroke-width="1.03078" stroke-linecap="round" stroke-linejoin="round"/>
<path d="M397.522 405.316C397.846 416.283 398.21 429.313 403.336 435.168" stroke="#247D7E" stroke-width="1.03078" stroke-linecap="round" stroke-linejoin="round"/>
<path d="M250.275 441.346C250.275 441.346 260.662 430.46 282.582 427.857L288.949 447.065C288.949 447.065 302.019 438.216 307.091 432.227C310.264 428.525 313.637 424.999 317.195 421.665L337.132 434.331C337.132 434.331 319.785 456.345 306.457 469.12C293.13 481.894 275.824 477.321 268.688 469.12C261.552 460.918 250.275 441.346 250.275 441.346Z" fill="white" stroke="#247D7E" stroke-width="1.03078" stroke-linecap="round" stroke-linejoin="round"/>
<path d="M417.567 426.009C416.624 423.785 415.188 421.806 413.368 420.219C411.548 418.632 409.39 417.48 407.059 416.85C405.993 414.907 400.315 413.41 393.327 413.41C386.34 413.41 380.661 414.907 379.582 416.85C377.243 417.484 375.079 418.643 373.256 420.24C371.433 421.836 369.998 423.828 369.06 426.063C368.785 426.46 368.631 426.928 368.615 427.412V486.21C368.615 489.502 376.007 492.267 386.151 493.171L386.933 493.481V493.238C388.97 493.387 391.102 493.481 393.314 493.481C395.526 493.481 397.657 493.387 399.681 493.238V493.481L400.476 493.171C410.62 492.267 418.012 489.502 418.012 486.21V427.412C418.008 426.91 417.853 426.421 417.567 426.009V426.009Z" fill="white"/>
<path opacity="0.5" d="M418.039 486.237C418.039 489.501 410.62 492.253 400.504 493.157L399.735 493.481V493.238C397.684 493.4 395.553 493.481 393.354 493.481C391.156 493.481 389.011 493.4 386.974 493.238V493.481L386.205 493.157C376.034 492.253 368.669 489.488 368.669 486.21V427.411C368.685 426.928 368.839 426.46 369.115 426.062C370.051 423.828 371.486 421.838 373.31 420.244C375.133 418.649 377.297 417.493 379.636 416.863C380.715 414.907 386.448 413.423 393.381 413.423C400.315 413.423 406.061 414.907 407.113 416.863C411.039 419.763 406.088 423.607 399.114 424.713C392.14 425.82 388.417 425.091 388.633 429.205C388.849 433.319 404.618 434.088 405.535 435.167C406.452 436.247 406.088 483.93 406.088 483.93L409.393 451.3C409.393 451.3 411.511 484.78 411.511 486.817C411.511 488.368 415.557 487.37 418.039 486.237Z" fill="#1DC3C4"/>
<path d="M417.567 426.009C416.624 423.785 415.188 421.806 413.368 420.219C411.548 418.632 409.39 417.48 407.059 416.85C405.993 414.907 400.315 413.41 393.327 413.41C386.34 413.41 380.661 414.907 379.582 416.85C377.243 417.484 375.079 418.643 373.256 420.24C371.433 421.836 369.998 423.828 369.06 426.063C368.785 426.46 368.631 426.928 368.615 427.412V486.21C368.615 489.502 376.007 492.267 386.151 493.171L386.933 493.481V493.238C388.97 493.387 391.102 493.481 393.314 493.481C395.526 493.481 397.657 493.387 399.681 493.238V493.481L400.476 493.171C410.62 492.267 418.012 489.502 418.012 486.21V427.412C418.008 426.91 417.853 426.421 417.567 426.009V426.009Z" stroke="#247D7E" stroke-width="1.03078" stroke-linecap="round" stroke-linejoin="round"/>
<path d="M379.393 417.51C379.393 419.777 385.625 421.557 393.327 421.557C401.029 421.557 407.261 419.723 407.261 417.51C407.261 415.298 401.016 413.464 393.327 413.464C385.638 413.464 379.393 415.244 379.393 417.51Z" fill="#1DC3C4" stroke="#247D7E" stroke-width="1.03078" stroke-linecap="round" stroke-linejoin="round"/>
<path d="M403.229 414.53L400.302 410.604C398.064 409.821 395.695 409.482 393.328 409.606C387.932 409.606 385.922 410.604 385.922 410.604L383.225 414.651C383.007 414.775 382.821 414.948 382.683 415.156C382.545 415.365 382.458 415.603 382.429 415.852C382.429 417.619 387.312 419.049 393.341 419.049C399.371 419.049 404.254 417.619 404.254 415.852C404.241 415.366 403.876 414.921 403.229 414.53Z" fill="#1DC3C4" stroke="#247D7E" stroke-width="1.03078" stroke-linecap="round" stroke-linejoin="round"/>
<path d="M388.687 403.738V410.928C390.176 411.462 391.744 411.744 393.327 411.764C394.949 411.744 396.564 411.545 398.142 411.171V403.738H388.687Z" fill="white" stroke="#247D7E" stroke-width="1.03078" stroke-linecap="round" stroke-linejoin="round"/>
<path d="M372.001 382.331C381.268 383.194 406.047 388.253 408.542 389.305V394.552C408.542 394.552 400.449 399.813 399.478 405.465C399.478 405.465 392.504 407.825 387.446 405.465C386.325 403.626 385.077 401.868 383.709 400.204C383.048 399.813 371.744 389.035 370.692 389.035C369.64 389.035 369.114 391.665 369.114 391.665C367.975 392.379 366.653 392.744 365.31 392.718C363.597 392.448 362.949 381.495 372.001 382.331Z" fill="#1DC3C4" stroke="#247D7E" stroke-width="1.03078" stroke-linecap="round" stroke-linejoin="round"/>
<path d="M408.543 389.305L386.407 392.65C386.407 392.65 371.569 383.464 368.615 384.179" stroke="#247D7E" stroke-width="1.03078" stroke-linecap="round" stroke-linejoin="round"/>
<path d="M388.58 399.948C388.58 399.948 400.72 401 408.543 394.552" stroke="#247D7E" stroke-width="1.03078" stroke-linecap="round" stroke-linejoin="round"/>
<path d="M365.769 390.681C365.769 390.681 367.644 386.782 370.693 389.035" stroke="#247D7E" stroke-width="1.03078" stroke-linecap="round" stroke-linejoin="round"/>
<path d="M325.18 434.358C329.69 436.233 334.527 437.199 339.411 437.199C344.296 437.199 349.132 436.233 353.642 434.358C358.013 432.497 358.714 430.312 361.452 428.275C368.116 423.176 370.342 419.75 370.342 419.75C376.061 412.938 373.04 411.198 373.04 411.198C373.251 410.126 373.058 409.015 372.497 408.078C371.937 407.141 371.048 406.445 370.005 406.126C366.147 404.682 362.923 409.484 362.923 409.484C362.717 408.656 362.283 407.902 361.67 407.309C361.057 406.715 360.29 406.305 359.456 406.126C356.381 405.276 351.511 406.598 348.867 408.918C344.267 412.965 330.198 416.512 330.198 416.512C332.667 411.198 338.737 411.211 339.722 405.977C340.706 400.743 336.592 404.372 328.93 405.559C323.022 406.463 319.609 410.874 316.574 419.75C314.821 424.862 316.574 427.843 316.574 427.843" fill="white"/>
<path d="M325.18 434.358C329.69 436.233 334.527 437.199 339.411 437.199C344.296 437.199 349.132 436.233 353.642 434.358C358.013 432.497 358.714 430.312 361.452 428.275C368.116 423.176 370.342 419.75 370.342 419.75C376.061 412.938 373.04 411.198 373.04 411.198C373.251 410.126 373.058 409.015 372.497 408.078C371.937 407.141 371.048 406.445 370.005 406.126C366.147 404.682 362.923 409.484 362.923 409.484C362.717 408.656 362.283 407.902 361.67 407.309C361.057 406.715 360.29 406.305 359.456 406.126C356.381 405.276 351.511 406.598 348.867 408.918C344.267 412.965 330.198 416.512 330.198 416.512C332.667 411.198 338.737 411.211 339.722 405.977C340.706 400.743 336.592 404.372 328.93 405.559C323.022 406.463 319.609 410.874 316.574 419.75C314.821 424.862 316.574 427.843 316.574 427.843" stroke="#247D7E" stroke-width="1.03078" stroke-linecap="round" stroke-linejoin="round"/>
<path d="M362.828 409.485C360.468 415.447 351.093 419.831 347.235 421.827C344.718 423.053 341.94 423.645 339.142 423.554" fill="white"/>
<path d="M362.828 409.485C360.468 415.447 351.093 419.831 347.235 421.827C344.718 423.053 341.94 423.645 339.142 423.554" stroke="#247D7E" stroke-width="1.03078" stroke-linecap="round" stroke-linejoin="round"/>
<path d="M372.945 411.198C372.945 411.198 367.724 418.859 366.632 420.006C365.539 421.152 356.353 425.294 355.557 426.427C354.761 427.56 350.998 428.099 350.998 428.099" fill="white"/>
<path d="M372.945 411.198C372.945 411.198 367.724 418.859 366.632 420.006C365.539 421.152 356.353 425.294 355.557 426.427C354.761 427.56 350.998 428.099 350.998 428.099" stroke="#247D7E" stroke-width="1.03078" stroke-linecap="round" stroke-linejoin="round"/>
<path d="M288.949 447.025C280.316 449.83 278.279 458.625 278.886 461.107" stroke="#247D7E" stroke-width="1.03078" stroke-linecap="round" stroke-linejoin="round"/>
<path d="M415.557 393.972C421.06 389.696 416.906 381.454 413.196 376.828C409.487 372.201 398.25 371.23 395.661 370.218C393.071 369.206 386.96 371.486 386.96 371.486C383.831 370.703 380.661 371.661 377.423 374.022C377.423 374.022 366.834 380.766 369.114 382.925C369.689 383.477 370.407 383.856 371.186 384.021C371.966 384.185 372.776 384.128 373.525 383.855C374.412 384.491 375.396 384.978 376.439 385.299C378.342 385.556 380.278 385.404 382.117 384.854C383.104 385.788 384.276 386.504 385.557 386.958C386.557 387.298 387.616 387.427 388.668 387.337C389.72 387.246 390.741 386.938 391.668 386.432C394.366 389.062 400.584 386.432 400.584 386.432C400.584 386.432 406.33 389.13 408.677 383.855" fill="white"/>
<path d="M415.557 393.972C421.06 389.696 416.906 381.454 413.196 376.828C409.487 372.201 398.25 371.23 395.661 370.218C393.071 369.206 386.96 371.486 386.96 371.486C383.831 370.703 380.661 371.661 377.423 374.022C377.423 374.022 366.834 380.766 369.114 382.925C369.689 383.477 370.407 383.856 371.186 384.021C371.966 384.185 372.776 384.128 373.525 383.855C374.412 384.491 375.396 384.978 376.439 385.299C378.342 385.556 380.278 385.404 382.117 384.854C383.104 385.788 384.276 386.504 385.557 386.958C386.557 387.298 387.616 387.427 388.668 387.337C389.72 387.246 390.741 386.938 391.668 386.432C394.366 389.062 400.584 386.432 400.584 386.432C400.584 386.432 406.33 389.13 408.677 383.855" stroke="#247D7E" stroke-width="1.03078" stroke-linecap="round" stroke-linejoin="round"/>
<path d="M391.682 386.432C390.724 385.38 390.333 383.113 393.503 381.711C396.673 380.308 398.238 374.292 405.225 374.467" stroke="#247D7E" stroke-width="1.03078" stroke-linecap="round" stroke-linejoin="round"/>
<path d="M382.131 384.853C380.931 383.113 382.941 380.321 385.733 379.458C388.525 378.594 390.076 373.253 393.503 372.646" stroke="#247D7E" stroke-width="1.03078" stroke-linecap="round" stroke-linejoin="round"/>
<path d="M373.539 383.855C372.459 382.061 374.078 379.809 376.452 379.444C378.826 379.08 379.73 373.846 386.974 371.486" stroke="#247D7E" stroke-width="1.03078" stroke-linecap="round" stroke-linejoin="round"/>
<path d="M212.236 485.172L359.173 528.296" stroke="#247D7E" stroke-width="1.03078" stroke-linecap="round" stroke-linejoin="round"/>
<path d="M572.192 480.72L394.878 528.296" stroke="#247D7E" stroke-width="1.03078" stroke-linecap="round" stroke-linejoin="round"/>
</svg>
