<svg width="621" height="500" viewBox="0 0 621 500" fill="none" xmlns="http://www.w3.org/2000/svg">
<path d="M315.504 500C468.098 500 591.799 473.838 591.799 441.567C591.799 409.295 468.098 383.134 315.504 383.134C162.911 383.134 39.209 409.295 39.209 441.567C39.209 473.838 162.911 500 315.504 500Z" fill="black" fill-opacity="0.31"/>
<path opacity="0.3" d="M315.504 500C468.098 500 591.799 473.838 591.799 441.567C591.799 409.295 468.098 383.134 315.504 383.134C162.911 383.134 39.209 409.295 39.209 441.567C39.209 473.838 162.911 500 315.504 500Z" fill="white"/>
<path d="M0.325606 50.0502C-0.0109948 48.8328 -0.0876893 47.5583 0.1005 46.3094C0.288689 45.0605 0.737551 43.8651 1.41792 42.801C2.09829 41.7369 2.99495 40.8279 4.04961 40.133C5.10428 39.4381 6.29336 38.9728 7.53958 38.7675C15.0854 37.7431 24.3481 47.8716 27.2914 54.0034C27.5367 54.5373 30.5522 63.2806 30.4079 63.2806C30.2636 63.2806 17.0332 63.5836 11.6515 61.1886C6.93361 59.1542 1.58084 55.2731 0.325606 50.0502ZM194.122 26.7635C193.011 32.0152 187.759 36.0406 183.171 38.2048C178.583 40.369 167.69 40.7442 165.021 40.7874C163.578 42.5044 162.034 44.3656 160.375 46.4432C157.489 50.1368 154.286 54.3353 151.112 59.1254C150.261 60.4094 149.395 61.809 148.529 63.1652C150.463 61.1886 153.132 58.5194 153.421 58.2885C158.744 54.0612 171.499 48.9969 177.833 53.2099C178.866 53.9369 179.735 54.8733 180.383 55.9583C181.031 57.0433 181.443 58.2525 181.593 59.5073C181.742 60.762 181.626 62.0342 181.252 63.2412C180.878 64.4481 180.253 65.5627 179.42 66.5125C176 70.6677 169.493 71.8219 164.415 71.62C159.336 71.418 149.193 66.5846 147.029 65.5025C145.168 68.518 143.321 71.6632 141.59 75.0538C138.366 81.1658 135.696 87.554 133.611 94.142L134.001 94.3296C135.544 92.2952 138.906 88.0967 139.223 87.7937C144.042 82.9892 156.176 76.5687 162.943 80.0459C164.037 80.6593 164.992 81.4943 165.745 82.4976C166.499 83.5009 167.034 84.6504 167.318 85.8725C167.602 87.0947 167.628 88.3626 167.394 89.5953C167.159 90.8279 166.671 91.9981 165.958 93.031C163.073 97.547 156.681 99.4082 151.617 99.7545C145.846 100.173 133.712 95.6136 133.25 95.4261C131.378 102.026 129.932 108.739 128.922 115.524C128.143 120.545 127.551 125.624 127.003 130.803C128.056 129.361 132.471 123.835 132.774 123.474C137.593 118.684 149.727 112.249 156.479 115.741C157.587 116.35 158.554 117.187 159.317 118.195C160.08 119.203 160.623 120.361 160.908 121.593C161.194 122.825 161.217 124.103 160.976 125.345C160.735 126.586 160.235 127.763 159.509 128.798C156.624 133.299 150.232 135.161 145.168 135.507C139.469 135.911 127.854 131.597 126.902 131.179C126.657 133.516 126.411 135.839 126.181 138.19C125.43 145.823 124.738 153.499 123.786 161.044C123.454 163.656 123.05 166.224 122.646 168.792C124.291 166.657 127.349 162.833 127.652 162.53C132.471 157.74 144.605 151.306 151.372 154.797C152.468 155.409 153.424 156.243 154.179 157.246C154.933 158.249 155.47 159.399 155.754 160.622C156.038 161.845 156.063 163.114 155.828 164.347C155.592 165.58 155.102 166.75 154.387 167.782C151.502 172.284 145.11 174.145 140.046 174.506C134.982 174.866 125.142 171.447 122.386 170.437C121.679 174.765 120.943 178.935 119.904 183.047C119.443 184.822 119.096 186.654 118.548 188.328L117.105 193.363C115.951 196.768 114.898 199.928 113.744 203.073C113.167 204.66 112.604 206.146 112.027 207.69C113.369 205.266 115.562 201.486 115.792 201.154C119.832 195.686 130.841 187.505 138.055 189.929C139.243 190.362 140.326 191.04 141.234 191.92C142.142 192.8 142.854 193.861 143.324 195.035C143.793 196.209 144.01 197.468 143.96 198.732C143.91 199.995 143.594 201.233 143.032 202.366C140.811 207.272 134.823 210.071 129.86 211.181C124.406 212.422 112.69 210.042 111.262 209.739C109.819 213.504 108.376 217.14 107.02 220.531C102.692 231.251 98.5799 240.023 95.651 246.126L95.1749 247.107H116.514L109.141 390.809C108.939 396.122 106.683 401.149 102.848 404.831C99.0125 408.513 93.8978 410.562 88.5814 410.547V410.547C83.3164 410.55 78.2513 408.53 74.433 404.905C70.6147 401.28 68.3349 396.327 68.0648 391.069L60.6921 247.367H83.6037C83.4883 246.371 83.3729 245.318 83.243 244.135C82.4783 237.498 81.2375 228.004 79.2465 216.722C78.6838 213.461 78.0345 210.013 77.3131 206.478C75.8703 206.666 64.0106 208.166 58.6578 206.478C53.81 205.035 48.0388 201.746 46.192 196.696C45.7187 195.524 45.4973 194.266 45.5421 193.004C45.5869 191.741 45.8971 190.502 46.4523 189.367C47.0075 188.232 47.7955 187.226 48.7648 186.416C49.7342 185.606 50.8633 185.008 52.0786 184.663C59.4513 182.773 69.825 191.776 73.4464 197.518C73.6773 197.893 75.9136 202.554 77.0101 204.963C76.5773 202.828 76.1589 200.707 75.6683 198.485C74.9758 195.296 74.2255 191.949 73.3743 188.688C72.9126 187.015 72.4365 185.327 71.9315 183.624C71.4265 181.922 70.8494 180.306 70.3156 178.603C69.4787 176.15 68.4832 173.654 67.43 171.158C64.227 172.053 54.7623 174.491 49.9 173.784C45.0378 173.077 38.6751 170.726 36.0925 166.022C35.4451 164.935 35.0341 163.724 34.8861 162.468C34.7381 161.212 34.8565 159.938 35.2335 158.731C35.6106 157.524 36.2379 156.409 37.0745 155.46C37.9111 154.512 38.9383 153.75 40.089 153.224C47.0866 150.238 58.7011 157.553 63.1737 162.704C63.318 162.862 64.1548 164.045 65.1215 165.459C64.0827 163.064 63.0583 160.655 61.9329 158.245C58.7299 151.435 55.2528 144.582 51.8334 137.714C51.112 136.272 50.3906 134.829 49.698 133.386C47 134.151 36.7129 136.892 31.6775 136.156C26.6422 135.42 20.4526 133.097 17.87 128.379C17.2334 127.293 16.8318 126.085 16.6911 124.834C16.5504 123.583 16.6737 122.316 17.0531 121.115C17.4324 119.915 18.0594 118.807 18.8935 117.864C19.7276 116.921 20.7502 116.163 21.8954 115.64C28.8929 112.667 40.5074 119.968 44.9801 125.133C45.1388 125.306 46.1343 126.72 47.2164 128.322C45.3985 124.556 43.6239 120.79 41.9791 116.981C39.1386 110.481 36.7287 103.801 34.7651 96.9843C33.8273 97.2584 21.8954 100.721 16.2252 99.8699C11.2043 99.1485 5.01469 96.8111 2.43208 92.1076C1.78429 91.0218 1.37248 89.8116 1.22348 88.556C1.07448 87.3004 1.19164 86.0275 1.56731 84.8202C1.94298 83.6129 2.56874 82.4983 3.40385 81.5489C4.23895 80.5995 5.26467 79.8367 6.4142 79.3101C13.4262 76.3379 25.0407 83.6384 29.4989 88.7892C29.8163 89.1644 33.3367 94.3007 34.5343 96.1907C34.5279 96.1091 34.5279 96.0271 34.5343 95.9455C32.7696 89.1993 31.6108 82.3091 31.0716 75.3568C30.5411 69.1534 30.3677 62.9247 30.5522 56.7015C30.6964 50.9303 31.1726 45.6497 31.6342 40.9894C31.9084 38.4645 32.1969 36.1561 32.4999 34.0063L32.3701 34.0929C32.2402 34.1794 29.7009 25.2918 29.5999 24.7147C28.4745 18.0057 30.2636 4.40016 37.0159 0.894171C38.1554 0.344983 39.3977 0.0416956 40.6621 0.00400426C41.9265 -0.0336871 43.1847 0.195059 44.355 0.675394C45.5252 1.15573 46.5812 1.8769 47.4545 2.79204C48.3278 3.70719 48.9988 4.79583 49.4239 5.98723C51.3861 10.9937 49.2219 17.241 46.5383 21.5839C43.8547 25.9267 34.996 32.2317 32.8318 33.7466C32.5721 35.9829 32.3124 38.378 32.0815 40.9606C31.7208 45.6208 31.3601 50.887 31.3457 56.6438C31.3457 58.1875 31.3457 59.8323 31.4178 61.4338C31.9372 58.7214 32.7019 55.0278 32.8606 54.6671C34.9527 48.2034 42.8015 36.9496 50.4194 36.964C51.683 37.0008 52.9248 37.3033 54.0637 37.8517C55.2027 38.4002 56.2134 39.1824 57.03 40.1474C57.8467 41.1124 58.4509 42.2385 58.8035 43.4525C59.156 44.6665 59.2489 45.9412 59.0762 47.1935C58.5279 52.5462 53.7234 57.091 49.3806 59.7313C45.0378 62.3716 33.8562 64.002 31.4611 64.2761C31.5765 67.8254 31.7641 71.4901 32.1969 75.2414C32.8813 82.1141 34.1753 88.9124 36.0636 95.5559H36.4965C36.6696 93.0022 37.1602 87.6494 37.2467 87.2021C38.6895 80.5509 45.1821 68.4458 52.7568 67.6811C54.0167 67.5794 55.284 67.7441 56.4761 68.1645C57.6682 68.585 58.7584 69.2518 59.6757 70.1215C60.5931 70.9912 61.317 72.0443 61.8003 73.2123C62.2837 74.3803 62.5157 75.637 62.4812 76.9006C62.4812 82.2678 58.2538 87.332 54.2284 90.4196C49.5826 93.9833 37.0014 96.84 36.5253 96.941C38.5805 103.493 41.0627 109.903 43.9557 116.13C46.0766 120.747 48.3995 125.35 50.7801 129.938C50.8667 128.134 51.5015 121.108 51.6025 120.603C53.0453 113.952 59.5379 101.847 67.1126 101.067C68.372 100.968 69.6383 101.134 70.8294 101.556C72.0205 101.977 73.1098 102.644 74.0266 103.513C74.9434 104.382 75.6674 105.434 76.1515 106.601C76.6357 107.768 76.8692 109.024 76.837 110.287C76.837 115.668 72.5952 120.718 68.5698 123.806C64.0394 127.283 52.0065 130.082 50.9821 130.313C52.0642 132.39 53.1463 134.483 54.2428 136.56C57.8354 143.356 61.4568 150.137 64.8618 156.947C66.0305 159.313 67.0981 161.679 68.1802 164.045C68.3678 161.347 68.8295 156.471 68.9016 156.052C70.3444 149.401 76.8514 137.296 84.4117 136.517C85.6716 136.415 86.9389 136.58 88.131 137C89.3231 137.421 90.4133 138.088 91.3306 138.957C92.248 139.827 92.9719 140.88 93.4552 142.048C93.9386 143.216 94.1706 144.473 94.1361 145.736C94.1361 151.118 89.9087 156.168 85.8833 159.255C81.8579 162.343 71.7584 164.925 68.9161 165.618C70.6907 169.6 72.3932 173.496 73.836 177.478C74.4275 179.209 75.1345 180.926 75.6106 182.614L77.14 187.649C78.049 191.127 78.9146 194.344 79.6937 197.605C80.0977 199.25 80.4296 200.808 80.8047 202.395C80.5883 199.654 80.3286 195.282 80.343 194.878C80.7037 188.097 85.3639 175.184 92.7222 173.236C93.9527 172.945 95.2308 172.916 96.4732 173.151C97.7156 173.387 98.8945 173.881 99.933 174.603C100.972 175.324 101.847 176.256 102.501 177.338C103.155 178.42 103.574 179.628 103.731 180.883C103.832 181.541 103.876 182.208 103.861 182.874C106.823 188.063 108.408 193.924 108.463 199.899C108.463 200.332 107.756 205.454 107.338 208.065C108.16 206.045 108.968 204.04 109.776 201.933C110.974 198.889 112.128 195.643 113.282 192.497L114.898 187.491C115.475 185.803 115.821 184.129 116.341 182.412C117.004 179.902 117.553 177.261 118.101 174.65C114.941 173.611 105.693 170.437 102.028 167.162C98.3635 163.887 94.367 158.418 94.8142 153.066C94.8761 151.803 95.2027 150.568 95.7727 149.44C96.3426 148.313 97.1433 147.317 98.1228 146.518C99.1023 145.72 100.239 145.136 101.458 144.805C102.678 144.474 103.954 144.403 105.202 144.597C112.69 146.039 118.346 158.491 119.212 165.228C119.212 165.445 119.284 166.888 119.313 168.605C119.775 166.036 120.251 163.454 120.626 160.828C121.722 153.383 122.588 145.751 123.511 138.118C123.699 136.517 123.915 134.93 124.103 133.343C121.434 132.491 111.392 129.144 107.554 125.71C103.716 122.276 99.8929 116.967 100.34 111.614C100.398 110.35 100.721 109.113 101.29 107.983C101.858 106.853 102.659 105.855 103.64 105.056C104.62 104.256 105.758 103.673 106.98 103.344C108.201 103.014 109.479 102.947 110.728 103.145C118.216 104.588 123.858 117.039 124.738 123.777C124.738 124.008 124.738 125.739 124.839 127.673C125.387 123.517 125.993 119.405 126.729 115.322C127.926 108.301 129.599 101.369 131.735 94.5748C130.783 94.2863 118.938 90.5927 114.667 86.7837C110.873 83.3932 106.991 78.0404 107.453 72.6876C107.511 71.4238 107.834 70.1864 108.403 69.0562C108.971 67.9261 109.772 66.9287 110.753 66.1292C111.733 65.3298 112.871 64.7464 114.093 64.4171C115.314 64.0878 116.592 64.0201 117.841 64.2184C125.315 65.6612 130.971 78.1125 131.851 84.8504C131.851 85.3265 132.009 91.5594 131.966 93.7957C131.966 93.7092 131.966 93.6226 132.038 93.5504C134.293 86.9503 137.127 80.5626 140.508 74.4623C143.509 68.9862 146.824 63.6872 150.434 58.5915C153.738 53.8447 157.042 49.7183 160.014 46.0825C161.63 44.1203 163.145 42.3601 164.573 40.7297H164.415C164.27 40.7297 167.055 31.8998 167.3 31.366C170.07 25.162 179.059 14.7883 186.619 15.5963C187.878 15.7678 189.087 16.2041 190.166 16.8762C191.244 17.5484 192.168 18.4413 192.877 19.4961C193.585 20.551 194.063 21.7439 194.277 22.9965C194.492 24.2491 194.439 25.5329 194.122 26.7635V26.7635ZM106.847 209.421C105.549 208.801 95.5789 203.867 91.6834 199.639C88.3116 201.476 84.8331 203.109 81.2664 204.53C82.1465 208.455 82.9833 212.278 83.6903 215.871C85.941 227.24 87.3983 236.791 88.3216 243.5C88.5092 244.943 88.6823 246.198 88.8266 247.367H89.3316L91.0052 244.12C94.0207 238.162 98.2192 229.563 102.807 219.03C104.135 216 105.491 212.769 106.847 209.421ZM146.726 64.1319C146.841 64.1319 149.15 55.2587 149.236 54.6671C150.174 47.9437 148.024 34.3814 141.171 31.063C140.017 30.5454 138.766 30.2766 137.5 30.2741C136.235 30.2716 134.983 30.5355 133.827 31.0485C132.67 31.5616 131.634 32.3123 130.787 33.2519C129.939 34.1915 129.299 35.299 128.907 36.5023C127.075 41.5521 129.412 47.7417 132.168 51.998C135.4 57.0622 146.712 64.1319 146.726 64.1319V64.1319Z" fill="#1DC3C4"/>
<path opacity="0.3" d="M0.325606 50.0502C-0.0109948 48.8328 -0.0876893 47.5583 0.1005 46.3094C0.288689 45.0605 0.737551 43.8651 1.41792 42.801C2.09829 41.7369 2.99495 40.8279 4.04961 40.133C5.10428 39.4381 6.29336 38.9728 7.53958 38.7675C15.0854 37.7431 24.3481 47.8716 27.2914 54.0034C27.5367 54.5373 30.5522 63.2806 30.4079 63.2806C30.2636 63.2806 17.0332 63.5836 11.6515 61.1886C6.93361 59.1542 1.58084 55.2731 0.325606 50.0502ZM194.122 26.7635C193.011 32.0152 187.759 36.0406 183.171 38.2048C178.583 40.369 167.69 40.7442 165.021 40.7874C163.578 42.5044 162.034 44.3656 160.375 46.4432C157.489 50.1368 154.286 54.3353 151.112 59.1254C150.261 60.4094 149.395 61.809 148.529 63.1652C150.463 61.1886 153.132 58.5194 153.421 58.2885C158.744 54.0612 171.499 48.9969 177.833 53.2099C178.866 53.9369 179.735 54.8733 180.383 55.9583C181.031 57.0433 181.443 58.2525 181.593 59.5073C181.742 60.762 181.626 62.0342 181.252 63.2412C180.878 64.4481 180.253 65.5627 179.42 66.5125C176 70.6677 169.493 71.8219 164.415 71.62C159.336 71.418 149.193 66.5846 147.029 65.5025C145.168 68.518 143.321 71.6632 141.59 75.0538C138.366 81.1658 135.696 87.554 133.611 94.142L134.001 94.3296C135.544 92.2952 138.906 88.0967 139.223 87.7937C144.042 82.9892 156.176 76.5687 162.943 80.0459C164.037 80.6593 164.992 81.4943 165.745 82.4976C166.499 83.5009 167.034 84.6504 167.318 85.8725C167.602 87.0947 167.628 88.3626 167.394 89.5953C167.159 90.8279 166.671 91.9981 165.958 93.031C163.073 97.547 156.681 99.4082 151.617 99.7545C145.846 100.173 133.712 95.6136 133.25 95.4261C131.378 102.026 129.932 108.739 128.922 115.524C128.143 120.545 127.551 125.624 127.003 130.803C128.056 129.361 132.471 123.835 132.774 123.474C137.593 118.684 149.727 112.249 156.479 115.741C157.587 116.35 158.554 117.187 159.317 118.195C160.08 119.203 160.623 120.361 160.908 121.593C161.194 122.825 161.217 124.103 160.976 125.345C160.735 126.586 160.235 127.763 159.509 128.798C156.624 133.299 150.232 135.161 145.168 135.507C139.469 135.911 127.854 131.597 126.902 131.179C126.657 133.516 126.411 135.839 126.181 138.19C125.43 145.823 124.738 153.499 123.786 161.044C123.454 163.656 123.05 166.224 122.646 168.792C124.291 166.657 127.349 162.833 127.652 162.53C132.471 157.74 144.605 151.306 151.372 154.797C152.468 155.409 153.424 156.243 154.179 157.246C154.933 158.249 155.47 159.399 155.754 160.622C156.038 161.845 156.063 163.114 155.828 164.347C155.592 165.58 155.102 166.75 154.387 167.782C151.502 172.284 145.11 174.145 140.046 174.506C134.982 174.866 125.142 171.447 122.386 170.437C121.679 174.765 120.943 178.935 119.904 183.047C119.443 184.822 119.096 186.654 118.548 188.328L117.105 193.363C115.951 196.768 114.898 199.928 113.744 203.073C113.167 204.66 112.604 206.146 112.027 207.69C113.369 205.266 115.562 201.486 115.792 201.154C119.832 195.686 130.841 187.505 138.055 189.929C139.243 190.362 140.326 191.04 141.234 191.92C142.142 192.8 142.854 193.861 143.324 195.035C143.793 196.209 144.01 197.468 143.96 198.732C143.91 199.995 143.594 201.233 143.032 202.366C140.811 207.272 134.823 210.071 129.86 211.181C124.406 212.422 112.69 210.042 111.262 209.739C109.819 213.504 108.376 217.14 107.02 220.531C102.692 231.251 98.5799 240.023 95.651 246.126L95.1749 247.107H116.514L109.141 390.809C108.939 396.122 106.683 401.149 102.848 404.831C99.0125 408.513 93.8978 410.562 88.5814 410.547V410.547C83.3164 410.55 78.2513 408.53 74.433 404.905C70.6147 401.28 68.3349 396.327 68.0648 391.069L60.6921 247.367H83.6037C83.4883 246.371 83.3729 245.318 83.243 244.135C82.4783 237.498 81.2375 228.004 79.2465 216.722C78.6838 213.461 78.0345 210.013 77.3131 206.478C75.8703 206.666 64.0106 208.166 58.6578 206.478C53.81 205.035 48.0388 201.746 46.192 196.696C45.7187 195.524 45.4973 194.266 45.5421 193.004C45.5869 191.741 45.8971 190.502 46.4523 189.367C47.0075 188.232 47.7955 187.226 48.7648 186.416C49.7342 185.606 50.8633 185.008 52.0786 184.663C59.4513 182.773 69.825 191.776 73.4464 197.518C73.6773 197.893 75.9136 202.554 77.0101 204.963C76.5773 202.828 76.1589 200.707 75.6683 198.485C74.9758 195.296 74.2255 191.949 73.3743 188.688C72.9126 187.015 72.4365 185.327 71.9315 183.624C71.4265 181.922 70.8494 180.306 70.3156 178.603C69.4787 176.15 68.4832 173.654 67.43 171.158C64.227 172.053 54.7623 174.491 49.9 173.784C45.0378 173.077 38.6751 170.726 36.0925 166.022C35.4451 164.935 35.0341 163.724 34.8861 162.468C34.7381 161.212 34.8565 159.938 35.2335 158.731C35.6106 157.524 36.2379 156.409 37.0745 155.46C37.9111 154.512 38.9383 153.75 40.089 153.224C47.0866 150.238 58.7011 157.553 63.1737 162.704C63.318 162.862 64.1548 164.045 65.1215 165.459C64.0827 163.064 63.0583 160.655 61.9329 158.245C58.7299 151.435 55.2528 144.582 51.8334 137.714C51.112 136.272 50.3906 134.829 49.698 133.386C47 134.151 36.7129 136.892 31.6775 136.156C26.6422 135.42 20.4526 133.097 17.87 128.379C17.2334 127.293 16.8318 126.085 16.6911 124.834C16.5504 123.583 16.6737 122.316 17.0531 121.115C17.4324 119.915 18.0594 118.807 18.8935 117.864C19.7276 116.921 20.7502 116.163 21.8954 115.64C28.8929 112.667 40.5074 119.968 44.9801 125.133C45.1388 125.306 46.1343 126.72 47.2164 128.322C45.3985 124.556 43.6239 120.79 41.9791 116.981C39.1386 110.481 36.7287 103.801 34.7651 96.9843C33.8273 97.2584 21.8954 100.721 16.2252 99.8699C11.2043 99.1485 5.01469 96.8111 2.43208 92.1076C1.78429 91.0218 1.37248 89.8116 1.22348 88.556C1.07448 87.3004 1.19164 86.0275 1.56731 84.8202C1.94298 83.6129 2.56874 82.4983 3.40385 81.5489C4.23895 80.5995 5.26467 79.8367 6.4142 79.3101C13.4262 76.3379 25.0407 83.6384 29.4989 88.7892C29.8163 89.1644 33.3367 94.3007 34.5343 96.1907C34.5279 96.1091 34.5279 96.0271 34.5343 95.9455C32.7696 89.1993 31.6108 82.3091 31.0716 75.3568C30.5411 69.1534 30.3677 62.9247 30.5522 56.7015C30.6964 50.9303 31.1726 45.6497 31.6342 40.9894C31.9084 38.4645 32.1969 36.1561 32.4999 34.0063L32.3701 34.0929C32.2402 34.1794 29.7009 25.2918 29.5999 24.7147C28.4745 18.0057 30.2636 4.40016 37.0159 0.894171C38.1554 0.344983 39.3977 0.0416956 40.6621 0.00400426C41.9265 -0.0336871 43.1847 0.195059 44.355 0.675394C45.5252 1.15573 46.5812 1.8769 47.4545 2.79204C48.3278 3.70719 48.9988 4.79583 49.4239 5.98723C51.3861 10.9937 49.2219 17.241 46.5383 21.5839C43.8547 25.9267 34.996 32.2317 32.8318 33.7466C32.5721 35.9829 32.3124 38.378 32.0815 40.9606C31.7208 45.6208 31.3601 50.887 31.3457 56.6438C31.3457 58.1875 31.3457 59.8323 31.4178 61.4338C31.9372 58.7214 32.7019 55.0278 32.8606 54.6671C34.9527 48.2034 42.8015 36.9496 50.4194 36.964C51.683 37.0008 52.9248 37.3033 54.0637 37.8517C55.2027 38.4002 56.2134 39.1824 57.03 40.1474C57.8467 41.1124 58.4509 42.2385 58.8035 43.4525C59.156 44.6665 59.2489 45.9412 59.0762 47.1935C58.5279 52.5462 53.7234 57.091 49.3806 59.7313C45.0378 62.3716 33.8562 64.002 31.4611 64.2761C31.5765 67.8254 31.7641 71.4901 32.1969 75.2414C32.8813 82.1141 34.1753 88.9124 36.0636 95.5559H36.4965C36.6696 93.0022 37.1602 87.6494 37.2467 87.2021C38.6895 80.5509 45.1821 68.4458 52.7568 67.6811C54.0167 67.5794 55.284 67.7441 56.4761 68.1645C57.6682 68.585 58.7584 69.2518 59.6757 70.1215C60.5931 70.9912 61.317 72.0443 61.8003 73.2123C62.2837 74.3803 62.5157 75.637 62.4812 76.9006C62.4812 82.2678 58.2538 87.332 54.2284 90.4196C49.5826 93.9833 37.0014 96.84 36.5253 96.941C38.5805 103.493 41.0627 109.903 43.9557 116.13C46.0766 120.747 48.3995 125.35 50.7801 129.938C50.8667 128.134 51.5015 121.108 51.6025 120.603C53.0453 113.952 59.5379 101.847 67.1126 101.067C68.372 100.968 69.6383 101.134 70.8294 101.556C72.0205 101.977 73.1098 102.644 74.0266 103.513C74.9434 104.382 75.6674 105.434 76.1515 106.601C76.6357 107.768 76.8692 109.024 76.837 110.287C76.837 115.668 72.5952 120.718 68.5698 123.806C64.0394 127.283 52.0065 130.082 50.9821 130.313C52.0642 132.39 53.1463 134.483 54.2428 136.56C57.8354 143.356 61.4568 150.137 64.8618 156.947C66.0305 159.313 67.0981 161.679 68.1802 164.045C68.3678 161.347 68.8295 156.471 68.9016 156.052C70.3444 149.401 76.8514 137.296 84.4117 136.517C85.6716 136.415 86.9389 136.58 88.131 137C89.3231 137.421 90.4133 138.088 91.3306 138.957C92.248 139.827 92.9719 140.88 93.4552 142.048C93.9386 143.216 94.1706 144.473 94.1361 145.736C94.1361 151.118 89.9087 156.168 85.8833 159.255C81.8579 162.343 71.7584 164.925 68.9161 165.618C70.6907 169.6 72.3932 173.496 73.836 177.478C74.4275 179.209 75.1345 180.926 75.6106 182.614L77.14 187.649C78.049 191.127 78.9146 194.344 79.6937 197.605C80.0977 199.25 80.4296 200.808 80.8047 202.395C80.5883 199.654 80.3286 195.282 80.343 194.878C80.7037 188.097 85.3639 175.184 92.7222 173.236C93.9527 172.945 95.2308 172.916 96.4732 173.151C97.7156 173.387 98.8945 173.881 99.933 174.603C100.972 175.324 101.847 176.256 102.501 177.338C103.155 178.42 103.574 179.628 103.731 180.883C103.832 181.541 103.876 182.208 103.861 182.874C106.823 188.063 108.408 193.924 108.463 199.899C108.463 200.332 107.756 205.454 107.338 208.065C108.16 206.045 108.968 204.04 109.776 201.933C110.974 198.889 112.128 195.643 113.282 192.497L114.898 187.491C115.475 185.803 115.821 184.129 116.341 182.412C117.004 179.902 117.553 177.261 118.101 174.65C114.941 173.611 105.693 170.437 102.028 167.162C98.3635 163.887 94.367 158.418 94.8142 153.066C94.8761 151.803 95.2027 150.568 95.7727 149.44C96.3426 148.313 97.1433 147.317 98.1228 146.518C99.1023 145.72 100.239 145.136 101.458 144.805C102.678 144.474 103.954 144.403 105.202 144.597C112.69 146.039 118.346 158.491 119.212 165.228C119.212 165.445 119.284 166.888 119.313 168.605C119.775 166.036 120.251 163.454 120.626 160.828C121.722 153.383 122.588 145.751 123.511 138.118C123.699 136.517 123.915 134.93 124.103 133.343C121.434 132.491 111.392 129.144 107.554 125.71C103.716 122.276 99.8929 116.967 100.34 111.614C100.398 110.35 100.721 109.113 101.29 107.983C101.858 106.853 102.659 105.855 103.64 105.056C104.62 104.256 105.758 103.673 106.98 103.344C108.201 103.014 109.479 102.947 110.728 103.145C118.216 104.588 123.858 117.039 124.738 123.777C124.738 124.008 124.738 125.739 124.839 127.673C125.387 123.517 125.993 119.405 126.729 115.322C127.926 108.301 129.599 101.369 131.735 94.5748C130.783 94.2863 118.938 90.5927 114.667 86.7837C110.873 83.3932 106.991 78.0404 107.453 72.6876C107.511 71.4238 107.834 70.1864 108.403 69.0562C108.971 67.9261 109.772 66.9287 110.753 66.1292C111.733 65.3298 112.871 64.7464 114.093 64.4171C115.314 64.0878 116.592 64.0201 117.841 64.2184C125.315 65.6612 130.971 78.1125 131.851 84.8504C131.851 85.3265 132.009 91.5594 131.966 93.7957C131.966 93.7092 131.966 93.6226 132.038 93.5504C134.293 86.9503 137.127 80.5626 140.508 74.4623C143.509 68.9862 146.824 63.6872 150.434 58.5915C153.738 53.8447 157.042 49.7183 160.014 46.0825C161.63 44.1203 163.145 42.3601 164.573 40.7297H164.415C164.27 40.7297 167.055 31.8998 167.3 31.366C170.07 25.162 179.059 14.7883 186.619 15.5963C187.878 15.7678 189.087 16.2041 190.166 16.8762C191.244 17.5484 192.168 18.4413 192.877 19.4961C193.585 20.551 194.063 21.7439 194.277 22.9965C194.492 24.2491 194.439 25.5329 194.122 26.7635V26.7635ZM106.847 209.421C105.549 208.801 95.5789 203.867 91.6834 199.639C88.3116 201.476 84.8331 203.109 81.2664 204.53C82.1465 208.455 82.9833 212.278 83.6903 215.871C85.941 227.24 87.3983 236.791 88.3216 243.5C88.5092 244.943 88.6823 246.198 88.8266 247.367H89.3316L91.0052 244.12C94.0207 238.162 98.2192 229.563 102.807 219.03C104.135 216 105.491 212.769 106.847 209.421ZM146.726 64.1319C146.841 64.1319 149.15 55.2587 149.236 54.6671C150.174 47.9437 148.024 34.3814 141.171 31.063C140.017 30.5454 138.766 30.2766 137.5 30.2741C136.235 30.2716 134.983 30.5355 133.827 31.0485C132.67 31.5616 131.634 32.3123 130.787 33.2519C129.939 34.1915 129.299 35.299 128.907 36.5023C127.075 41.5521 129.412 47.7417 132.168 51.998C135.4 57.0622 146.712 64.1319 146.726 64.1319V64.1319Z" fill="white"/>
<path d="M555.168 115.149C555.168 115.149 541.057 125.941 539.109 134.252C537.162 142.562 539.672 151.407 541.331 156.673C542.99 161.939 543.265 187.404 527.769 198.745C512.273 210.085 505.348 221.44 507.007 235.565C508.666 249.69 529.702 265.185 547.146 268.749C564.589 272.313 589.218 264.32 598.899 243.558C608.58 222.796 595.58 199.899 588.381 186.914C581.181 173.929 581.744 161.723 589.824 161.174C597.903 160.626 602.001 162.617 602.289 151.205C602.578 139.792 599.793 122.147 585.12 113.288C570.447 104.429 555.168 115.149 555.168 115.149Z" fill="#247D7E" stroke="#247D7E" stroke-linecap="round" stroke-linejoin="round"/>
<path d="M520.425 254.379C521.868 255.346 534.853 260.641 544.462 245.722C554.071 230.804 540.985 217.054 543.51 203.881" stroke="white" stroke-width="0.5" stroke-miterlimit="10"/>
<path d="M570.952 132.318C570.952 132.318 566.451 117.775 576.204 122.493C586.664 127.543 594.96 151.349 591.353 156.759" stroke="white" stroke-width="0.5" stroke-miterlimit="10"/>
<path d="M568.268 130.429C568.268 130.429 562.858 119.968 566.465 115.279C570.072 110.59 578.368 116.001 582.696 119.247" stroke="white" stroke-width="0.5" stroke-miterlimit="10"/>
<path d="M580.531 158.924C580.531 158.924 581.974 165.416 577.646 178.402C573.317 191.387 565.382 206.175 573.317 219.882C581.253 233.588 587.385 242.967 578.367 256.673" stroke="white" stroke-width="0.5" stroke-miterlimit="10"/>
<path d="M580.532 166.498C580.845 174.955 580.241 183.421 578.728 191.747C576.203 206.175 584.139 215.553 592.435 224.571C600.731 233.588 598.566 241.163 595.681 249.459" stroke="white" stroke-width="0.5" stroke-miterlimit="10"/>
<path d="M567.908 132.593C567.908 132.593 550.955 134.035 545.905 131.871C540.855 129.707 541.937 127.904 541.937 127.904" stroke="white" stroke-width="0.5" stroke-miterlimit="10"/>
<path d="M570.158 190.218C570.158 190.218 572.365 212.639 575.193 225.61C578.021 238.581 582.523 254.956 581.397 259.472C580.272 263.988 555.427 302.352 555.427 302.352L548.098 297.273L563.334 251.566L550.507 208.715C550.507 208.715 562.251 191.502 570.158 190.218Z" fill="white" stroke="#247D7E" stroke-linecap="round" stroke-linejoin="round"/>
<path d="M568.182 186.567C564.575 182.412 556.827 171.62 556.827 171.62L544.65 157.192L527.769 133.949C525.548 130.904 518.074 132.001 496.49 132.289C474.905 132.578 409.388 120.112 409.388 120.112L407.181 134.54C407.181 134.54 467.143 147.525 482.365 148.968C497.586 150.411 511.711 152.287 511.711 152.287C509.632 156.428 507.782 160.681 506.171 165.027C504.512 170.004 485.135 196.58 485.135 196.58C485.135 196.58 484.659 196.869 483.836 197.417C483.62 202.236 484.082 212.466 491.281 217.862C496.85 222.031 505.002 223.792 510.889 224.527C510.99 224.196 511.076 223.907 511.148 223.705C511.985 221.483 518.074 218.165 521.392 217.934C524.711 217.703 534.955 218.208 541.058 217.66C547.161 217.111 550.465 208.801 550.465 208.801C550.465 208.801 563.911 195.671 570.101 190.304C569.717 188.943 569.065 187.672 568.182 186.567V186.567Z" fill="white" stroke="#247D7E" stroke-linecap="round" stroke-linejoin="round"/>
<path d="M519.371 155.634L511.71 152.243L517.279 161.102" stroke="#247D7E" stroke-width="0.75" stroke-linecap="round" stroke-linejoin="round"/>
<path d="M500.053 206.045C505.819 209.623 512.641 211.105 519.372 210.244" stroke="#247D7E" stroke-width="0.75" stroke-linecap="round" stroke-linejoin="round"/>
<path d="M493.69 195.96C493.69 195.96 494.946 201.01 502.939 204.372" stroke="#247D7E" stroke-width="0.75" stroke-linecap="round" stroke-linejoin="round"/>
<path d="M563.29 251.565C563.29 251.565 568.527 249.314 572.726 255.201" stroke="#247D7E" stroke-width="0.75" stroke-linecap="round" stroke-linejoin="round"/>
<path d="M564.748 212.35L550.464 208.714L563.06 218.655" stroke="#247D7E" stroke-width="0.75" stroke-linecap="round" stroke-linejoin="round"/>
<path d="M525.677 139.301C525.677 139.301 518.535 151.897 510.138 151.479C498.726 150.901 466.436 141.379 466.436 138.032C466.436 134.684 475.266 133.415 475.266 133.415" stroke="#247D7E" stroke-width="0.75" stroke-linecap="round" stroke-linejoin="round"/>
<path d="M550.464 149.748C550.464 149.748 544.693 148.305 540.494 150.859C536.296 153.412 525.273 177.435 525.273 177.435C525.273 177.435 526.095 178.546 529.428 178.546C532.761 178.546 533.583 182.975 533.583 187.116C533.583 191.257 533.295 193.205 534.68 192.887C536.065 192.57 544.376 189.569 546.035 190.68C547.694 191.791 543.813 197.317 544.592 197.894C545.371 198.471 552.34 191.517 554.562 184.043C556.784 176.569 558.991 165.503 558.428 161.074C557.866 156.644 554.288 150.844 550.464 149.748Z" fill="#1DC3C4" stroke="#247D7E" stroke-linecap="round" stroke-linejoin="round"/>
<path d="M555.168 172.731C552.119 176.132 548.888 179.364 545.487 182.412C539.109 188.184 533.858 192.382 534.132 189.626C534.406 186.871 540.769 171.909 542.428 163.656C544.087 155.403 547.146 149.805 550.464 149.805C553.783 149.805 560.982 166.715 555.168 172.731Z" fill="white" stroke="#247D7E" stroke-linecap="round" stroke-linejoin="round"/>
<path d="M551.85 137.022C552.071 137.696 552.432 138.316 552.909 138.84C553.387 139.365 553.97 139.783 554.62 140.066C556.553 140.615 570.952 132.319 570.952 132.319C570.952 132.319 581.196 154.177 579.522 157.495C577.849 160.814 572.886 164.983 567.345 168.85C561.805 172.717 551.575 175.776 547.694 173.554C543.813 171.332 546.583 148.651 546.583 148.651C546.583 148.651 543.539 145.044 546.858 139.23C550.176 133.415 551.85 137.022 551.85 137.022Z" fill="white" stroke="#247D7E" stroke-linecap="round" stroke-linejoin="round"/>
<path d="M575.035 159.602C575.035 159.602 575.28 157.885 572.077 157.885C568.874 157.885 563.248 163.772 563.248 163.772" stroke="#247D7E" stroke-width="0.75" stroke-linecap="round" stroke-linejoin="round"/>
<path d="M561.039 164.262L559.322 162.545" stroke="#247D7E" stroke-width="0.75" stroke-linecap="round" stroke-linejoin="round"/>
<path d="M558.616 167.465C558.616 167.465 554.201 166.729 553.465 161.073" stroke="#247D7E" stroke-width="0.75" stroke-linecap="round" stroke-linejoin="round"/>
<path d="M568.831 150.685C568.831 150.685 567.734 145.303 563.06 144.265" stroke="#247D7E" stroke-width="0.75" stroke-linecap="round" stroke-linejoin="round"/>
<path d="M563.276 153.571C562.15 154.451 560.909 154.74 560.491 154.206C560.072 153.672 560.635 152.532 561.746 151.652C562.857 150.772 564.112 150.483 564.531 151.017C564.949 151.551 564.386 152.691 563.276 153.571Z" fill="#247D7E"/>
<path d="M570.23 162.661C569.307 163.382 568.283 163.627 567.936 163.18C567.59 162.733 568.052 161.737 568.975 161.059C569.898 160.381 570.923 160.107 571.269 160.54C571.615 160.973 571.154 161.925 570.23 162.661Z" fill="#247D7E"/>
<path d="M543.293 398.24L557.447 417.905C557.447 417.905 557.447 421.512 552.397 421.512C547.347 421.512 544.462 421.512 541.576 417.905C538.691 414.298 538.691 412.134 535.805 410.691C532.919 409.248 530.034 409.248 531.477 401.313C532.919 393.378 543.293 398.24 543.293 398.24Z" fill="white" stroke="#247D7E" stroke-linecap="round" stroke-linejoin="round"/>
<path d="M557.39 418.352C555.148 419.429 552.633 419.801 550.176 419.42C545.068 418.497 541.966 413.389 540.076 411.196C538.186 409.003 535.878 409.018 533.699 407.185C532.662 406.3 531.758 405.269 531.015 404.126C530.712 409.263 533.208 409.436 535.69 410.691C538.576 412.134 538.576 414.298 541.461 417.905C544.347 421.512 547.232 421.512 552.282 421.512C556.336 421.512 557.173 419.319 557.39 418.352Z" fill="white" stroke="#247D7E" stroke-linecap="round" stroke-linejoin="round"/>
<path d="M542.485 395.744C539.599 387.087 535.487 335.262 533.352 318.857C529.024 285.5 509.777 242.201 509.777 242.201L510.888 224.484C505.001 223.748 496.849 221.988 491.28 217.818C484.066 212.422 483.619 202.193 483.835 197.374C480.185 199.726 469.407 206.81 460.217 214.254C448.876 223.387 441.114 255.778 438.907 266.008C436.699 276.237 434.203 306.406 434.203 306.406C434.203 306.406 414.264 314.154 406.242 325.162C398.22 336.171 373.851 361.145 373.851 361.145L376.073 369.456C376.073 369.456 383.547 364.204 389.909 359.212C396.272 354.22 445.832 326.547 449.151 324.585C452.469 322.623 456.365 318.814 460.779 307.704C462.395 303.65 464.675 297.013 466.926 290.218L474.616 266.267L482.017 259.962C489.318 279.7 506.285 317.746 508.695 323.185C511.58 329.707 513.773 358.707 521.752 376.843C529.731 394.979 531.852 403.679 531.852 403.679C531.852 403.679 545.385 404.444 542.485 395.744Z" fill="#247D7E" stroke="#247D7E" stroke-linecap="round" stroke-linejoin="round"/>
<path d="M510.411 227.904L513.167 243.991" stroke="white" stroke-width="0.5" stroke-miterlimit="10"/>
<path d="M120.266 103.65L78.5977 457.568C78.5413 458.078 78.6289 458.593 78.8506 459.055C79.0724 459.518 79.4194 459.909 79.8522 460.184C80.285 460.459 80.7863 460.607 81.299 460.611C81.8118 460.615 82.3155 460.476 82.753 460.208L109.531 443.732C111.121 442.746 113.03 442.417 114.858 442.813C116.686 443.208 118.288 444.298 119.328 445.852L152.974 495.874L167.012 285.457L120.266 103.65Z" fill="#1DC3C4" stroke="#247D7E" stroke-linecap="round" stroke-linejoin="round"/>
<path d="M120.005 112.552L82.3486 448.723C82.2672 449.449 82.3994 450.183 82.7289 450.834C83.0583 451.486 83.5708 452.027 84.2035 452.392C84.8361 452.756 85.5614 452.928 86.2903 452.887C87.0193 452.845 87.7203 452.592 88.3073 452.157L107.886 437.729C108.904 436.976 110.065 436.439 111.299 436.15C112.532 435.862 113.811 435.828 115.057 436.051C116.304 436.273 117.492 436.748 118.549 437.446C119.606 438.144 120.509 439.051 121.203 440.11L144.115 475.083C144.363 475.472 144.734 475.766 145.169 475.919C145.604 476.072 146.078 476.075 146.515 475.927C146.951 475.779 147.326 475.489 147.579 475.104C147.832 474.718 147.948 474.259 147.909 473.799L121.16 112.567C121.132 112.435 121.06 112.317 120.956 112.232C120.853 112.147 120.723 112.099 120.588 112.098C120.454 112.096 120.323 112.14 120.217 112.223C120.111 112.305 120.037 112.422 120.005 112.552V112.552Z" fill="#1DC3C4" stroke="#247D7E" stroke-linecap="round" stroke-linejoin="round"/>
<path opacity="0.6" d="M120.525 107.676L82.3202 448.695C82.2389 449.42 82.3711 450.154 82.7005 450.805C83.03 451.457 83.5425 451.998 84.1751 452.363C84.8078 452.727 85.5331 452.899 86.262 452.858C86.991 452.816 87.692 452.563 88.279 452.128L107.858 437.7C108.876 436.947 110.037 436.41 111.27 436.121C112.503 435.833 113.782 435.799 115.029 436.022C116.276 436.244 117.464 436.719 118.521 437.417C119.577 438.116 120.48 439.022 121.175 440.081L144.086 475.054C144.335 475.443 144.706 475.737 145.141 475.89C145.576 476.043 146.05 476.046 146.486 475.898C146.923 475.75 147.298 475.46 147.55 475.075C147.803 474.689 147.92 474.23 147.881 473.77L120.8 107.676C120.79 107.647 120.772 107.622 120.747 107.604C120.723 107.586 120.693 107.576 120.663 107.576C120.632 107.576 120.603 107.586 120.578 107.604C120.553 107.622 120.535 107.647 120.525 107.676V107.676Z" fill="black"/>
<path d="M113.557 435.854C115.073 435.88 116.559 436.276 117.887 437.008C119.215 437.74 120.344 438.785 121.175 440.052L144.087 475.025C144.335 475.414 144.706 475.708 145.141 475.861C145.577 476.014 146.05 476.017 146.487 475.869C146.924 475.721 147.298 475.431 147.551 475.046C147.804 474.66 147.92 474.201 147.882 473.741L144.606 429.534L113.067 435.709C113.235 435.742 113.399 435.79 113.557 435.854V435.854Z" fill="#1DC3C4" stroke="#247D7E" stroke-linecap="round" stroke-linejoin="round"/>
<path opacity="0.3" d="M113.557 435.854C115.073 435.88 116.559 436.276 117.887 437.008C119.215 437.74 120.344 438.785 121.175 440.052L144.087 475.025C144.335 475.414 144.706 475.708 145.141 475.861C145.577 476.014 146.05 476.017 146.487 475.869C146.924 475.721 147.298 475.431 147.551 475.046C147.804 474.66 147.92 474.201 147.882 473.741L144.606 429.534L113.067 435.709C113.235 435.742 113.399 435.79 113.557 435.854V435.854Z" fill="black"/>
<path d="M121.117 103.434L152.959 495.874L524.262 425.119L437.002 119.059L121.117 103.434Z" fill="#247D7E" stroke="#247D7E" stroke-linecap="round" stroke-linejoin="round"/>
<path d="M138.33 111.903L160.202 475.126L509.359 411.643L435.762 129.447L138.33 111.903Z" fill="#1DC3C4" stroke="#247D7E" stroke-linecap="round" stroke-linejoin="round"/>
<path d="M159.668 290.65L176.275 462.819L493.517 405.136L464.04 275.732L159.668 290.65Z" fill="white" stroke="#247D7E" stroke-linecap="round" stroke-linejoin="round"/>
<path d="M220.901 454.249L215.635 398.947" stroke="#247D7E" stroke-linecap="round" stroke-linejoin="round"/>
<path d="M269.451 445.693L264.372 399.596" stroke="#247D7E" stroke-linecap="round" stroke-linejoin="round"/>
<path d="M317.049 436.474L311.119 399.596" stroke="#247D7E" stroke-linecap="round" stroke-linejoin="round"/>
<path d="M366.089 428.062L359.034 384.1" stroke="#247D7E" stroke-linecap="round" stroke-linejoin="round"/>
<path d="M409.286 420.271L403.27 377.363" stroke="#247D7E" stroke-linecap="round" stroke-linejoin="round"/>
<path d="M450.708 412.61L441.749 361.016" stroke="#247D7E" stroke-linecap="round" stroke-linejoin="round"/>
<path d="M548.054 297.273C548.054 297.273 543.639 301.717 543.351 304.025C543.062 306.334 545.371 313.288 545.371 313.288L552.325 314.442L555.384 302.352L548.054 297.273Z" fill="white" stroke="#247D7E" stroke-linecap="round" stroke-linejoin="round"/>
<g style="mix-blend-mode:multiply" opacity="0.49">
<path d="M140.09 212.249C140.09 212.249 147.419 317.732 154.157 356.197C160.895 394.662 173.39 452.229 173.39 452.229C173.39 452.229 389.809 418.728 496.576 373.51L487.919 332.16L140.09 212.249Z" fill="#1DC3C4"/>
</g>
<path d="M130.308 107.95L434.262 124.325C434.262 124.325 463.853 212.985 493.301 263.05C522.748 313.115 571.313 309.854 571.313 309.854C571.313 309.854 459.929 370.755 373.174 403.174C282.884 436.892 204.583 442.952 204.583 442.952C204.583 442.952 133.266 345.535 130.308 107.95Z" fill="#1DC3C4" stroke="#247D7E" stroke-linecap="round" stroke-linejoin="round"/>
<path d="M165.108 92.1655C159.467 92.1655 155.384 97.172 154.1 105.021L159.871 105.338C160.765 100.808 162.54 97.9367 165.094 97.9367C168.066 97.9367 171.37 102.712 171.37 109.58C171.37 116.448 168.066 121.238 165.094 121.238C164.328 121.238 163.594 121.542 163.053 122.083C162.512 122.624 162.208 123.358 162.208 124.123C162.208 124.889 162.512 125.623 163.053 126.164C163.594 126.705 164.328 127.009 165.094 127.009C171.846 127.009 177.141 119.348 177.141 109.58C177.141 99.8123 171.86 92.1655 165.108 92.1655Z" fill="white" stroke="#247D7E" stroke-miterlimit="10"/>
<path d="M173.39 114.255C173.114 115.272 172.757 116.266 172.322 117.227" stroke="#247D7E" stroke-width="0.75" stroke-linecap="round" stroke-linejoin="round"/>
<path d="M156.956 102.423C156.956 102.423 159.12 94.6035 165.512 95.0364C170.533 95.3826 174.674 102.842 173.981 110.821" stroke="#247D7E" stroke-width="0.75" stroke-linecap="round" stroke-linejoin="round"/>
<path d="M215.231 94.6904C209.589 94.6904 205.506 99.6969 204.222 107.546L209.993 107.863C210.888 103.333 212.663 100.462 215.216 100.462C218.188 100.462 221.492 105.237 221.492 112.105C221.492 118.973 218.188 123.763 215.216 123.763C214.451 123.763 213.717 124.067 213.176 124.608C212.635 125.149 212.331 125.883 212.331 126.648C212.331 127.414 212.635 128.148 213.176 128.689C213.717 129.23 214.451 129.534 215.216 129.534C221.969 129.534 227.264 121.873 227.264 112.105C227.264 102.337 221.997 94.6904 215.231 94.6904Z" fill="white" stroke="#247D7E" stroke-miterlimit="10"/>
<path d="M223.527 116.779C223.251 117.797 222.894 118.791 222.459 119.751" stroke="#247D7E" stroke-width="0.75" stroke-linecap="round" stroke-linejoin="round"/>
<path d="M207.093 104.949C207.093 104.949 209.257 97.1289 215.649 97.5618C220.67 97.908 224.811 105.367 224.118 113.346" stroke="#247D7E" stroke-width="0.75" stroke-linecap="round" stroke-linejoin="round"/>
<path d="M265.382 97.2151C259.741 97.2151 255.658 102.222 254.374 110.07L260.145 110.388C261.039 105.857 262.814 102.986 265.368 102.986C268.34 102.986 271.644 107.762 271.644 114.63C271.644 121.497 268.34 126.287 265.368 126.287C264.602 126.287 263.868 126.591 263.327 127.133C262.786 127.674 262.482 128.408 262.482 129.173C262.482 129.938 262.786 130.672 263.327 131.213C263.868 131.755 264.602 132.059 265.368 132.059C272.12 132.059 277.415 124.397 277.415 114.63C277.415 104.862 272.134 97.2151 265.382 97.2151Z" fill="white" stroke="#247D7E" stroke-miterlimit="10"/>
<path d="M273.664 119.305C273.388 120.322 273.03 121.316 272.596 122.277" stroke="#247D7E" stroke-width="0.75" stroke-linecap="round" stroke-linejoin="round"/>
<path d="M257.23 107.474C257.23 107.474 259.394 99.6536 265.786 100.086C270.807 100.433 274.948 107.892 274.255 115.871" stroke="#247D7E" stroke-width="0.75" stroke-linecap="round" stroke-linejoin="round"/>
<path d="M315.519 99.74C309.877 99.74 305.794 104.746 304.51 112.595L310.281 112.913C311.176 108.382 312.951 105.511 315.504 105.511C318.476 105.511 321.781 110.287 321.781 117.155C321.781 124.022 318.476 128.812 315.504 128.812C314.739 128.812 314.005 129.116 313.464 129.657C312.923 130.199 312.619 130.933 312.619 131.698C312.619 132.463 312.923 133.197 313.464 133.738C314.005 134.279 314.739 134.583 315.504 134.583C322.257 134.583 327.552 126.922 327.552 117.155C327.552 107.387 322.271 99.74 315.519 99.74Z" fill="white" stroke="#247D7E" stroke-miterlimit="10"/>
<path d="M323.801 121.829C323.524 122.847 323.167 123.841 322.733 124.801" stroke="#247D7E" stroke-width="0.75" stroke-linecap="round" stroke-linejoin="round"/>
<path d="M307.368 109.998C307.368 109.998 309.532 102.178 315.923 102.611C320.944 102.958 325.085 110.417 324.393 118.395" stroke="#247D7E" stroke-width="0.75" stroke-linecap="round" stroke-linejoin="round"/>
<path d="M366.566 101.976C360.925 101.976 356.841 106.983 355.572 114.846L361.343 115.163C362.252 110.633 364.027 107.747 366.566 107.747C369.538 107.747 372.856 112.538 372.856 119.405C372.856 126.273 369.538 131.049 366.566 131.049C365.801 131.049 365.067 131.353 364.525 131.894C363.984 132.435 363.68 133.169 363.68 133.934C363.68 134.7 363.984 135.433 364.525 135.975C365.067 136.516 365.801 136.82 366.566 136.82C373.333 136.82 378.628 129.173 378.628 119.405C378.628 109.638 373.333 101.976 366.566 101.976Z" fill="white" stroke="#247D7E" stroke-miterlimit="10"/>
<path d="M374.847 124.08C374.573 125.094 374.216 126.083 373.78 127.038" stroke="#247D7E" stroke-width="0.75" stroke-linecap="round" stroke-linejoin="round"/>
<path d="M358.414 112.249C358.414 112.249 360.592 104.415 366.969 104.848C372.005 105.194 376.131 112.668 375.453 120.646" stroke="#247D7E" stroke-width="0.75" stroke-linecap="round" stroke-linejoin="round"/>
<path d="M415.606 104.675C409.965 104.675 405.882 109.681 404.612 117.53L410.383 117.862C411.292 113.331 413.067 110.446 415.606 110.446C418.579 110.446 421.897 115.236 421.897 122.089C421.897 128.942 418.579 133.747 415.606 133.747C414.841 133.747 414.107 134.051 413.566 134.592C413.025 135.133 412.721 135.867 412.721 136.632C412.721 137.398 413.025 138.132 413.566 138.673C414.107 139.214 414.841 139.518 415.606 139.518C422.373 139.518 427.668 131.857 427.668 122.089C427.668 112.321 422.373 104.675 415.606 104.675Z" fill="white" stroke="#247D7E" stroke-miterlimit="10"/>
<path d="M423.888 126.691C423.616 127.71 423.259 128.705 422.82 129.664" stroke="#247D7E" stroke-width="0.75" stroke-linecap="round" stroke-linejoin="round"/>
<path d="M407.455 114.875C407.455 114.875 409.633 107.041 416.01 107.473C421.046 107.82 425.172 115.279 424.494 123.258" stroke="#247D7E" stroke-width="0.75" stroke-linecap="round" stroke-linejoin="round"/>
<path d="M555.384 302.337C555.384 302.337 558.269 306.291 558.269 307.979C558.269 309.667 554.316 312.495 554.316 316.433C554.316 320.372 549.237 319.319 548.675 316.433C548.112 313.548 549.8 309.667 549.8 309.667C549.8 309.667 547.448 308.224 546.914 303.145C546.381 298.067 550.954 299.509 550.954 299.509L555.384 302.337Z" fill="white" stroke="#247D7E" stroke-linecap="round" stroke-linejoin="round"/>
<path d="M483.244 263.281C462.338 227.73 440.379 171.591 432.573 150.93L160.938 139.922C160.765 340.687 221.536 423.633 221.536 423.633C221.536 423.633 290.718 418.28 370.504 388.472C447.174 359.833 538.619 311.759 538.619 311.759C538.619 311.759 509.258 307.531 483.244 263.281Z" fill="white" stroke="#247D7E" stroke-linecap="round" stroke-linejoin="round"/>
<path d="M432.573 150.93L160.938 139.922C160.938 159.674 161.501 178.257 162.539 195.758L449.396 193.074C441.966 175.371 435.978 159.861 432.573 150.93Z" fill="#247D7E" stroke="#247D7E" stroke-linecap="round" stroke-linejoin="round"/>
<path d="M437.377 210.778L450.218 210.33" stroke="#247D7E" stroke-width="3" stroke-linecap="round" stroke-linejoin="round"/>
<path d="M399.634 212.062L427.754 211.095" stroke="#247D7E" stroke-width="3" stroke-linecap="round" stroke-linejoin="round"/>
<path d="M353.941 213.606L390.083 212.379" stroke="#247D7E" stroke-width="3" stroke-linecap="round" stroke-linejoin="round"/>
<path d="M307.454 215.178L345.962 213.88" stroke="#247D7E" stroke-width="3" stroke-linecap="round" stroke-linejoin="round"/>
<path d="M262.511 216.707L297.816 215.51" stroke="#247D7E" stroke-width="3" stroke-linecap="round" stroke-linejoin="round"/>
<path d="M215.158 218.323L250.492 217.111" stroke="#247D7E" stroke-width="3" stroke-linecap="round" stroke-linejoin="round"/>
<path d="M173.476 219.737L206.357 218.612" stroke="#247D7E" stroke-width="3" stroke-linecap="round" stroke-linejoin="round"/>
<path d="M168.124 250.685L466.97 232.477" stroke="#247D7E" stroke-linecap="round" stroke-linejoin="round"/>
<path d="M215.346 248.117C215.346 248.117 220.252 327.586 272.64 415.799" stroke="#247D7E" stroke-linecap="round" stroke-linejoin="round"/>
<path d="M263.564 244.928C263.564 244.928 269.09 335.825 326.528 402.381" stroke="#247D7E" stroke-linecap="round" stroke-linejoin="round"/>
<path d="M307.223 242.245C307.223 242.245 310.108 325.927 374.673 386.063" stroke="#247D7E" stroke-linecap="round" stroke-linejoin="round"/>
<path d="M352.484 240.297C352.484 240.297 359.611 333.329 422.099 366.094" stroke="#247D7E" stroke-linecap="round" stroke-linejoin="round"/>
<path d="M399.908 236.561C399.908 236.561 404.929 306.926 468.844 345.463" stroke="#247D7E" stroke-linecap="round" stroke-linejoin="round"/>
<path d="M437.247 234.281C437.247 234.281 454.445 306.42 502.562 329.779" stroke="#247D7E" stroke-linecap="round" stroke-linejoin="round"/>
<path d="M174.673 291.675L479.911 258.102" stroke="#247D7E" stroke-linecap="round" stroke-linejoin="round"/>
<path d="M182.638 327.586C182.638 327.586 247.809 325.032 494.108 279.642" stroke="#247D7E" stroke-linecap="round" stroke-linejoin="round"/>
<path d="M194.137 365.604C194.137 365.604 257.62 372.818 506.329 293.623" stroke="#247D7E" stroke-linecap="round" stroke-linejoin="round"/>
<path d="M207.872 398.774C207.872 398.774 260.793 416.304 520.756 304.992" stroke="#247D7E" stroke-linecap="round" stroke-linejoin="round"/>
<path d="M278.267 179.195L180.416 177.882C179.624 177.87 178.862 177.571 178.273 177.041C177.684 176.51 177.308 175.784 177.213 174.996L176.377 167.09C176.327 166.635 176.376 166.175 176.518 165.74C176.66 165.305 176.893 164.905 177.201 164.566C177.509 164.228 177.886 163.959 178.306 163.777C178.726 163.596 179.18 163.505 179.637 163.512L276.305 165.185C277.019 165.198 277.709 165.445 278.27 165.888C278.83 166.331 279.23 166.946 279.407 167.638L281.369 175.155C281.491 175.631 281.504 176.128 281.406 176.609C281.308 177.09 281.102 177.542 280.803 177.932C280.504 178.321 280.12 178.637 279.681 178.856C279.241 179.075 278.758 179.191 278.267 179.195V179.195Z" fill="white"/>
</svg>
