<svg width="40" height="40" viewBox="0 0 40 40" fill="none" xmlns="http://www.w3.org/2000/svg">
<path d="M10 1.25C10 0.918479 9.8683 0.600537 9.63388 0.366117C9.39946 0.131696 9.08152 0 8.75 0C8.41848 0 8.10054 0.131696 7.86612 0.366117C7.6317 0.600537 7.5 0.918479 7.5 1.25V2.5H5C3.67392 2.5 2.40215 3.02678 1.46447 3.96447C0.526784 4.90215 0 6.17392 0 7.5L0 10H40V7.5C40 6.17392 39.4732 4.90215 38.5355 3.96447C37.5979 3.02678 36.3261 2.5 35 2.5H32.5V1.25C32.5 0.918479 32.3683 0.600537 32.1339 0.366117C31.8995 0.131696 31.5815 0 31.25 0C30.9185 0 30.6005 0.131696 30.3661 0.366117C30.1317 0.600537 30 0.918479 30 1.25V2.5H10V1.25ZM40 35V12.5H0V35C0 36.3261 0.526784 37.5979 1.46447 38.5355C2.40215 39.4732 3.67392 40 5 40H35C36.3261 40 37.5979 39.4732 38.5355 38.5355C39.4732 37.5979 40 36.3261 40 35ZM23.75 17.5H26.25C26.5815 17.5 26.8995 17.6317 27.1339 17.8661C27.3683 18.1005 27.5 18.4185 27.5 18.75V21.25C27.5 21.5815 27.3683 21.8995 27.1339 22.1339C26.8995 22.3683 26.5815 22.5 26.25 22.5H23.75C23.4185 22.5 23.1005 22.3683 22.8661 22.1339C22.6317 21.8995 22.5 21.5815 22.5 21.25V18.75C22.5 18.4185 22.6317 18.1005 22.8661 17.8661C23.1005 17.6317 23.4185 17.5 23.75 17.5ZM31.25 17.5H33.75C34.0815 17.5 34.3995 17.6317 34.6339 17.8661C34.8683 18.1005 35 18.4185 35 18.75V21.25C35 21.5815 34.8683 21.8995 34.6339 22.1339C34.3995 22.3683 34.0815 22.5 33.75 22.5H31.25C30.9185 22.5 30.6005 22.3683 30.3661 22.1339C30.1317 21.8995 30 21.5815 30 21.25V18.75C30 18.4185 30.1317 18.1005 30.3661 17.8661C30.6005 17.6317 30.9185 17.5 31.25 17.5ZM5 26.25C5 25.9185 5.1317 25.6005 5.36612 25.3661C5.60054 25.1317 5.91848 25 6.25 25H8.75C9.08152 25 9.39946 25.1317 9.63388 25.3661C9.8683 25.6005 10 25.9185 10 26.25V28.75C10 29.0815 9.8683 29.3995 9.63388 29.6339C9.39946 29.8683 9.08152 30 8.75 30H6.25C5.91848 30 5.60054 29.8683 5.36612 29.6339C5.1317 29.3995 5 29.0815 5 28.75V26.25ZM13.75 25H16.25C16.5815 25 16.8995 25.1317 17.1339 25.3661C17.3683 25.6005 17.5 25.9185 17.5 26.25V28.75C17.5 29.0815 17.3683 29.3995 17.1339 29.6339C16.8995 29.8683 16.5815 30 16.25 30H13.75C13.4185 30 13.1005 29.8683 12.8661 29.6339C12.6317 29.3995 12.5 29.0815 12.5 28.75V26.25C12.5 25.9185 12.6317 25.6005 12.8661 25.3661C13.1005 25.1317 13.4185 25 13.75 25Z" fill="#247D7E"/>
</svg>
