<svg width="64" height="64" viewBox="0 0 64 64" fill="none" xmlns="http://www.w3.org/2000/svg">
<path d="M49.7143 6.85712C51.6845 6.85712 53.574 7.63977 54.9671 9.03289C56.3602 10.426 57.1429 12.3155 57.1429 14.2857V49.7143C57.1429 51.6844 56.3602 53.5739 54.9671 54.9671C53.574 56.3602 51.6845 57.1428 49.7143 57.1428H14.2857C12.3155 57.1428 10.4261 56.3602 9.03293 54.9671C7.6398 53.5739 6.85715 51.6844 6.85715 49.7143V14.2857C6.85715 12.3155 7.6398 10.426 9.03293 9.03289C10.4261 7.63977 12.3155 6.85712 14.2857 6.85712H49.7143ZM53.7143 21.7211H10.2857V49.7143C10.2857 51.9223 12.0777 53.7143 14.2857 53.7143H49.7143C50.7752 53.7143 51.7926 53.2928 52.5427 52.5427C53.2929 51.7925 53.7143 50.7751 53.7143 49.7143V21.7211ZM19.9977 40.0023C20.7555 40.0023 21.4822 40.3033 22.018 40.8391C22.5538 41.3749 22.8549 42.1016 22.8549 42.8594C22.8549 43.6172 22.5538 44.3439 22.018 44.8797C21.4822 45.4155 20.7555 45.7165 19.9977 45.7165C19.24 45.7165 18.5132 45.4155 17.9774 44.8797C17.4416 44.3439 17.1406 43.6172 17.1406 42.8594C17.1406 42.1016 17.4416 41.3749 17.9774 40.8391C18.5132 40.3033 19.24 40.0023 19.9977 40.0023ZM32.0069 40.0023C32.7646 40.0023 33.4914 40.3033 34.0272 40.8391C34.563 41.3749 34.864 42.1016 34.864 42.8594C34.864 43.6172 34.563 44.3439 34.0272 44.8797C33.4914 45.4155 32.7646 45.7165 32.0069 45.7165C31.2491 45.7165 30.5224 45.4155 29.9866 44.8797C29.4507 44.3439 29.1497 43.6172 29.1497 42.8594C29.1497 42.1016 29.4507 41.3749 29.9866 40.8391C30.5224 40.3033 31.2491 40.0023 32.0069 40.0023ZM19.9977 28.5737C20.7555 28.5737 21.4822 28.8747 22.018 29.4105C22.5538 29.9463 22.8549 30.6731 22.8549 31.4308C22.8549 32.1886 22.5538 32.9153 22.018 33.4511C21.4822 33.987 20.7555 34.288 19.9977 34.288C19.24 34.288 18.5132 33.987 17.9774 33.4511C17.4416 32.9153 17.1406 32.1886 17.1406 31.4308C17.1406 30.6731 17.4416 29.9463 17.9774 29.4105C18.5132 28.8747 19.24 28.5737 19.9977 28.5737ZM32.0069 28.5737C32.7646 28.5737 33.4914 28.8747 34.0272 29.4105C34.563 29.9463 34.864 30.6731 34.864 31.4308C34.864 32.1886 34.563 32.9153 34.0272 33.4511C33.4914 33.987 32.7646 34.288 32.0069 34.288C31.2491 34.288 30.5224 33.987 29.9866 33.4511C29.4507 32.9153 29.1497 32.1886 29.1497 31.4308C29.1497 30.6731 29.4507 29.9463 29.9866 29.4105C30.5224 28.8747 31.2491 28.5737 32.0069 28.5737ZM44.0183 28.5737C44.7761 28.5737 45.5028 28.8747 46.0386 29.4105C46.5744 29.9463 46.8754 30.6731 46.8754 31.4308C46.8754 32.1886 46.5744 32.9153 46.0386 33.4511C45.5028 33.987 44.7761 34.288 44.0183 34.288C43.2605 34.288 42.5338 33.987 41.998 33.4511C41.4622 32.9153 41.1611 32.1886 41.1611 31.4308C41.1611 30.6731 41.4622 29.9463 41.998 29.4105C42.5338 28.8747 43.2605 28.5737 44.0183 28.5737ZM49.7143 10.2857H14.2857C13.2249 10.2857 12.2074 10.7071 11.4573 11.4573C10.7071 12.2074 10.2857 13.2248 10.2857 14.2857V18.2925H53.7143V14.2857C53.7143 13.2248 53.2929 12.2074 52.5427 11.4573C51.7926 10.7071 50.7752 10.2857 49.7143 10.2857Z" fill="#1DC3C4"/>
</svg>
