<svg width="28" height="28" viewBox="0 0 28 28" fill="none" xmlns="http://www.w3.org/2000/svg">
<path d="M26.5757 23.9242C26.9226 24.2768 27.1161 24.7522 27.1141 25.2468C27.1121 25.7415 26.9147 26.2153 26.565 26.565C26.2152 26.9148 25.7414 27.1122 25.2468 27.1142C24.7521 27.1162 24.2768 26.9227 23.9242 26.5758L13.9999 16.6517L4.07573 26.5758C3.72313 26.9227 3.24774 27.1162 2.75311 27.1142C2.25848 27.1122 1.78468 26.9148 1.43492 26.565C1.08516 26.2153 0.887772 25.7415 0.885758 25.2468C0.883744 24.7522 1.07726 24.2768 1.42416 23.9242L11.3482 14L1.42416 4.07577C1.07726 3.72317 0.883744 3.24778 0.885758 2.75315C0.887772 2.25852 1.08516 1.78472 1.43492 1.43496C1.78468 1.0852 2.25848 0.887818 2.75311 0.885804C3.24774 0.883789 3.72313 1.07731 4.07573 1.42421L13.9999 11.3483L23.9242 1.42421C24.2768 1.07731 24.7521 0.883789 25.2468 0.885804C25.7414 0.887818 26.2152 1.0852 26.565 1.43496C26.9147 1.78472 27.1121 2.25852 27.1141 2.75315C27.1161 3.24778 26.9226 3.72317 26.5757 4.07577L16.6517 14L26.5757 23.9242Z" fill="#FF533D"/>
</svg>
