<svg width="64" height="62" viewBox="0 0 64 62" fill="none" xmlns="http://www.w3.org/2000/svg">
<path d="M56.9937 17.6204V17.6498L52.2187 51.7816C52.1562 52.2519 51.725 52.6046 51.225 52.6046H12.7812C12.275 52.6046 11.85 52.246 11.7812 51.7816L7.00623 17.6498V17.6145V17.7085L11.7812 51.8403C11.85 52.3048 12.275 52.6634 12.7812 52.6634H51.225C51.725 52.6634 52.1562 52.3106 52.2187 51.8403L56.9937 17.7085C57 17.6791 57 17.6498 56.9937 17.6204Z" fill="#E07F1F"/>
<path d="M48.35 48.5835L51.7188 24.5161L42.9813 29.5777L32 15.798L21.0187 29.5777L12.2812 24.5161L15.6438 48.5835H48.35ZM24.9625 37.4728C24.9625 33.8221 28.1187 30.8533 32 30.8533C35.8813 30.8533 39.0375 33.8221 39.0375 37.4728V37.5316C39.0375 41.1822 35.8813 44.151 32 44.151C28.1187 44.151 24.9625 41.1822 24.9625 37.5316V37.4728Z" fill="#E07F1F"/>
<path d="M32 44.0922C35.8688 44.0922 39.0188 41.1411 39.0375 37.5022V37.4728C39.0375 33.8221 35.8813 30.8533 32 30.8533C28.1188 30.8533 24.9625 33.8221 24.9625 37.4728V37.5022C24.9813 41.1411 28.1313 44.0922 32 44.0922ZM32 34.6334C33.6625 34.6334 35.0125 35.9032 35.0125 37.4728C35.0125 39.0365 33.6625 40.3122 32 40.3122C30.3375 40.3122 28.9875 39.0424 28.9875 37.4728C28.9875 35.909 30.3375 34.6334 32 34.6334Z" fill="#A46628"/>
<path d="M11.7813 51.7816C11.85 52.246 12.275 52.6046 12.7813 52.6046H51.225C51.725 52.6046 52.1563 52.2519 52.2188 51.7816L56.9938 17.6498V17.6204C57.0125 17.2441 56.575 16.9855 56.225 17.1853L44.0625 24.2339L32.4 9.6018C32.3531 9.5429 32.2922 9.4951 32.2223 9.46218C32.1523 9.42925 32.0751 9.41211 31.9969 9.41211C31.9186 9.41211 31.8415 9.42925 31.7715 9.46218C31.7015 9.4951 31.6407 9.5429 31.5938 9.6018L19.9375 24.2339L7.76876 17.1853C7.42501 16.9855 6.98126 17.2382 7.00626 17.6145V17.6498L11.7813 51.7816ZM21.0188 29.5777L32 15.798L42.9813 29.5777L51.7188 24.5161L48.35 48.5835H15.6438L12.2813 24.5161L21.0188 29.5777Z" fill="#A46628"/>
</svg>
