<svg width="64" height="61" viewBox="0 0 64 61" fill="none" xmlns="http://www.w3.org/2000/svg">
<path d="M56.9937 16.9566V16.9862L52.2187 51.4594C52.1562 51.9344 51.725 52.2906 51.225 52.2906H12.7812C12.275 52.2906 11.85 51.9284 11.7812 51.4594L7.00623 16.9862V16.9506V17.0456L11.7812 51.5187C11.85 51.9878 12.275 52.35 12.7812 52.35H51.225C51.725 52.35 52.1562 51.9937 52.2187 51.5187L56.9937 17.0456C57 17.0159 57 16.9862 56.9937 16.9566Z" fill="#FFFF00"/>
<path d="M48.35 48.2294L51.7188 23.9212L42.9813 29.0334L32 15.1159L21.0187 29.0334L12.2812 23.9212L15.6438 48.2294H48.35ZM24.9625 37.0075C24.9625 33.3203 28.1187 30.3219 32 30.3219C35.8813 30.3219 39.0375 33.3203 39.0375 37.0075V37.0669C39.0375 40.7541 35.8813 43.7525 32 43.7525C28.1187 43.7525 24.9625 40.7541 24.9625 37.0669V37.0075Z" fill="#FFFF00"/>
<path d="M32 43.6931C35.8688 43.6931 39.0188 40.7125 39.0375 37.0372V37.0075C39.0375 33.3203 35.8813 30.3219 32 30.3219C28.1188 30.3219 24.9625 33.3203 24.9625 37.0075V37.0372C24.9813 40.7125 28.1313 43.6931 32 43.6931ZM32 34.1397C33.6625 34.1397 35.0125 35.4222 35.0125 37.0075C35.0125 38.5869 33.6625 39.8753 32 39.8753C30.3375 39.8753 28.9875 38.5928 28.9875 37.0075C28.9875 35.4281 30.3375 34.1397 32 34.1397Z" fill="#E5E619"/>
<path d="M11.7813 51.4594C11.85 51.9284 12.275 52.2906 12.7813 52.2906H51.225C51.725 52.2906 52.1563 51.9344 52.2188 51.4594L56.9938 16.9862V16.9566C57.0125 16.5766 56.575 16.3153 56.225 16.5172L44.0625 23.6362L32.4 8.85781C32.3531 8.79833 32.2922 8.75005 32.2223 8.7168C32.1523 8.68354 32.0751 8.66623 31.9969 8.66623C31.9186 8.66623 31.8415 8.68354 31.7715 8.7168C31.7015 8.75005 31.6407 8.79833 31.5938 8.85781L19.9375 23.6362L7.76876 16.5172C7.42501 16.3153 6.98126 16.5706 7.00626 16.9506V16.9862L11.7813 51.4594ZM21.0188 29.0334L32 15.1159L42.9813 29.0334L51.7188 23.9213L48.35 48.2294H15.6438L12.2813 23.9213L21.0188 29.0334Z" fill="#E5E619"/>
</svg>
