<svg width="48" height="48" viewBox="0 0 48 48" fill="none" xmlns="http://www.w3.org/2000/svg">
<path d="M38 18C36.7621 18.0035 35.5556 18.3898 34.5459 19.1059C33.5361 19.822 32.7726 20.8329 32.36 22H6C5.46957 22 4.96086 22.2107 4.58579 22.5858C4.21071 22.9609 4 23.4696 4 24C4 24.5304 4.21071 25.0392 4.58579 25.4142C4.96086 25.7893 5.46957 26 6 26H32.36C32.7269 27.0378 33.3722 27.9546 34.2253 28.6502C35.0784 29.3457 36.1063 29.7932 37.1967 29.9437C38.2871 30.0941 39.3979 29.9417 40.4074 29.5032C41.417 29.0646 42.2865 28.3568 42.9207 27.4572C43.5549 26.5576 43.9295 25.5008 44.0033 24.4026C44.0772 23.3044 43.8475 22.207 43.3395 21.2306C42.8314 20.2541 42.0645 19.4363 41.1228 18.8665C40.181 18.2967 39.1007 17.9969 38 18ZM6 14H8.36C8.78041 15.1583 9.54726 16.1591 10.5563 16.8663C11.5654 17.5736 12.7678 17.953 14 17.953C15.2322 17.953 16.4346 17.5736 17.4437 16.8663C18.4527 16.1591 19.2196 15.1583 19.64 14H42C42.5304 14 43.0391 13.7893 43.4142 13.4142C43.7893 13.0392 44 12.5304 44 12C44 11.4696 43.7893 10.9609 43.4142 10.5858C43.0391 10.2107 42.5304 10 42 10H19.64C19.2196 8.84171 18.4527 7.84093 17.4437 7.13369C16.4346 6.42646 15.2322 6.04706 14 6.04706C12.7678 6.04706 11.5654 6.42646 10.5563 7.13369C9.54726 7.84093 8.78041 8.84171 8.36 10H6C5.46957 10 4.96086 10.2107 4.58579 10.5858C4.21071 10.9609 4 11.4696 4 12C4 12.5304 4.21071 13.0392 4.58579 13.4142C4.96086 13.7893 5.46957 14 6 14ZM42 34H27.64C27.2196 32.8417 26.4527 31.8409 25.4437 31.1337C24.4346 30.4265 23.2322 30.0471 22 30.0471C20.7678 30.0471 19.5654 30.4265 18.5563 31.1337C17.5473 31.8409 16.7804 32.8417 16.36 34H6C5.46957 34 4.96086 34.2107 4.58579 34.5858C4.21071 34.9609 4 35.4696 4 36C4 36.5304 4.21071 37.0392 4.58579 37.4142C4.96086 37.7893 5.46957 38 6 38H16.36C16.7804 39.1583 17.5473 40.1591 18.5563 40.8663C19.5654 41.5736 20.7678 41.953 22 41.953C23.2322 41.953 24.4346 41.5736 25.4437 40.8663C26.4527 40.1591 27.2196 39.1583 27.64 38H42C42.5304 38 43.0391 37.7893 43.4142 37.4142C43.7893 37.0392 44 36.5304 44 36C44 35.4696 43.7893 34.9609 43.4142 34.5858C43.0391 34.2107 42.5304 34 42 34Z" fill="#247D7E"/>
</svg>
