<svg width="64" height="64" viewBox="0 0 64 64" fill="none" xmlns="http://www.w3.org/2000/svg">
<path d="M50.6667 8H13.3333C10.3733 8 8 10.3733 8 13.3333V24H13.3333V13.3333H50.6667V50.6667H13.3333V40H8V50.6667C8 52.0812 8.5619 53.4377 9.5621 54.4379C10.5623 55.4381 11.9188 56 13.3333 56H50.6667C52.0812 56 53.4377 55.4381 54.4379 54.4379C55.4381 53.4377 56 52.0812 56 50.6667V13.3333C56 11.9188 55.4381 10.5623 54.4379 9.5621C53.4377 8.5619 52.0812 8 50.6667 8ZM26.88 41.5467L30.6667 45.3333L44 32L30.6667 18.6667L26.88 22.4267L33.7867 29.3333H8V34.6667H33.7867L26.88 41.5467Z" fill="#1DC3C4"/>
</svg>
