<svg width="1152" height="674" viewBox="0 0 1152 674" fill="none" xmlns="http://www.w3.org/2000/svg">
<path fill-rule="evenodd" clip-rule="evenodd" d="M0 0L48 5.76C96 11.52 192 23.04 288 51.84C384 80.64 480 126.72 576 149.76C672 172.8 768 172.8 864 149.76C960 126.72 1056 80.64 1104 57.6L1152 34.56V311.04H1104C1056 311.04 960 311.04 864 311.04C768 311.04 672 311.04 576 311.04C480 311.04 384 311.04 288 311.04C192 311.04 96 311.04 48 311.04H0V0Z" fill="#1DC3C4"/>
<path fill-rule="evenodd" clip-rule="evenodd" d="M0 51L48 56.76C96 62.52 192 74.04 288 102.84C384 131.64 480 177.72 576 200.76C672 223.8 768 223.8 864 200.76C960 177.72 1056 131.64 1104 108.6L1152 85.56V362.04H1104C1056 362.04 960 362.04 864 362.04C768 362.04 672 362.04 576 362.04C480 362.04 384 362.04 288 362.04C192 362.04 96 362.04 48 362.04H0V51Z" fill="#A6E2E1"/>
<path fill-rule="evenodd" clip-rule="evenodd" d="M1152 673.04L1104 667.28C1056 661.52 960 650 864 621.2C768 592.4 672 546.32 576 523.28C480 500.24 384 500.24 288 523.28C192 546.32 96 592.4 48 615.44L0 638.48V362H48C96 362 192 362 288 362C384 362 480 362 576 362C672 362 768 362 864 362C960 362 1056 362 1104 362H1152V673.04Z" fill="#A6E2E1"/>
</svg>
