<svg width="48" height="48" viewBox="0 0 48 48" fill="none" xmlns="http://www.w3.org/2000/svg">
<path d="M23.9952 17.9972C20.69 17.9972 17.9927 20.6945 17.9927 23.9997C17.9927 27.3048 20.69 30.0021 23.9952 30.0021C27.3003 30.0021 29.9976 27.3048 29.9976 23.9997C29.9976 20.6945 27.3003 17.9972 23.9952 17.9972ZM41.998 23.9997C41.998 21.514 42.0205 19.0509 41.8809 16.5698C41.7413 13.6879 41.0839 11.1302 38.9765 9.02282C36.8646 6.91094 34.3114 6.25801 31.4295 6.11842C28.9439 5.97882 26.4808 6.00134 23.9997 6.00134C21.514 6.00134 19.0509 5.97882 16.5698 6.11842C13.6879 6.25801 11.1302 6.91544 9.02282 9.02282C6.91094 11.1347 6.25801 13.6879 6.11842 16.5698C5.97882 19.0554 6.00134 21.5185 6.00134 23.9997C6.00134 26.4808 5.97882 28.9484 6.11842 31.4295C6.25801 34.3114 6.91544 36.8691 9.02282 38.9765C11.1347 41.0884 13.6879 41.7413 16.5698 41.8809C19.0554 42.0205 21.5185 41.998 23.9997 41.998C26.4853 41.998 28.9484 42.0205 31.4295 41.8809C34.3114 41.7413 36.8691 41.0839 38.9765 38.9765C41.0884 36.8646 41.7413 34.3114 41.8809 31.4295C42.025 28.9484 41.998 26.4853 41.998 23.9997ZM23.9952 33.2352C18.8843 33.2352 14.7596 29.1105 14.7596 23.9997C14.7596 18.8888 18.8843 14.7641 23.9952 14.7641C29.106 14.7641 33.2307 18.8888 33.2307 23.9997C33.2307 29.1105 29.106 33.2352 23.9952 33.2352ZM33.609 16.5428C32.4157 16.5428 31.4521 15.5791 31.4521 14.3858C31.4521 13.1926 32.4157 12.2289 33.609 12.2289C34.8023 12.2289 35.7659 13.1926 35.7659 14.3858C35.7663 14.6692 35.7107 14.9498 35.6024 15.2117C35.4942 15.4735 35.3353 15.7115 35.1349 15.9118C34.9346 16.1122 34.6967 16.271 34.4348 16.3793C34.173 16.4876 33.8923 16.5431 33.609 16.5428Z" fill="#1DC3C4"/>
</svg>
