<svg width="32" height="32" viewBox="0 0 32 32" fill="none" xmlns="http://www.w3.org/2000/svg">
<path d="M15.9968 11.9981C13.7933 11.9981 11.9951 13.7963 11.9951 15.9998C11.9951 18.2032 13.7933 20.0014 15.9968 20.0014C18.2002 20.0014 19.9984 18.2032 19.9984 15.9998C19.9984 13.7963 18.2002 11.9981 15.9968 11.9981ZM27.9987 15.9998C27.9987 14.3427 28.0137 12.7006 27.9206 11.0465C27.8275 9.12526 27.3893 7.42014 25.9843 6.01522C24.5764 4.60729 22.8743 4.17201 20.953 4.07894C19.2959 3.98588 17.6539 4.00089 15.9998 4.00089C14.3427 4.00089 12.7006 3.98588 11.0465 4.07894C9.12526 4.17201 7.42014 4.61029 6.01522 6.01522C4.60729 7.42314 4.17201 9.12526 4.07894 11.0465C3.98588 12.7036 4.00089 14.3457 4.00089 15.9998C4.00089 17.6539 3.98588 19.2989 4.07894 20.953C4.17201 22.8743 4.61029 24.5794 6.01522 25.9843C7.42314 27.3923 9.12526 27.8275 11.0465 27.9206C12.7036 28.0137 14.3457 27.9987 15.9998 27.9987C17.6569 27.9987 19.2989 28.0137 20.953 27.9206C22.8743 27.8275 24.5794 27.3893 25.9843 25.9843C27.3923 24.5764 27.8275 22.8743 27.9206 20.953C28.0167 19.2989 27.9987 17.6569 27.9987 15.9998ZM15.9968 22.1568C12.5895 22.1568 9.83973 19.407 9.83973 15.9998C9.83973 12.5925 12.5895 9.84273 15.9968 9.84273C19.404 9.84273 22.1538 12.5925 22.1538 15.9998C22.1538 19.407 19.404 22.1568 15.9968 22.1568ZM22.406 11.0285C21.6105 11.0285 20.968 10.3861 20.968 9.59057C20.968 8.79504 21.6105 8.15262 22.406 8.15262C23.2015 8.15262 23.8439 8.79504 23.8439 9.59057C23.8442 9.77947 23.8071 9.96656 23.735 10.1411C23.6628 10.3157 23.5569 10.4743 23.4233 10.6079C23.2897 10.7414 23.1311 10.8474 22.9565 10.9195C22.782 10.9917 22.5949 11.0287 22.406 11.0285Z" fill="#CCCCCC"/>
</svg>
