<svg width="49" height="48" viewBox="0 0 49 48" fill="none" xmlns="http://www.w3.org/2000/svg">
<path d="M24.4085 17.9972C21.1234 17.9972 18.4425 20.6945 18.4425 23.9997C18.4425 27.3048 21.1234 30.0021 24.4085 30.0021C27.6936 30.0021 30.3745 27.3048 30.3745 23.9997C30.3745 20.6945 27.6936 17.9972 24.4085 17.9972ZM42.3019 23.9997C42.3019 21.514 42.3243 19.0509 42.1855 16.5698C42.0468 13.6879 41.3934 11.1302 39.2988 9.02282C37.1997 6.91094 34.6621 6.25801 31.7977 6.11842C29.3272 5.97882 26.879 6.00134 24.413 6.00134C21.9424 6.00134 19.4943 5.97882 17.0282 6.11842C14.1639 6.25801 11.6217 6.91544 9.52716 9.02282C7.42811 11.1347 6.77914 13.6879 6.6404 16.5698C6.50166 19.0554 6.52404 21.5185 6.52404 23.9997C6.52404 26.4808 6.50166 28.9484 6.6404 31.4295C6.77914 34.3114 7.43258 36.8691 9.52716 38.9765C11.6262 41.0884 14.1639 41.7413 17.0282 41.8809C19.4988 42.0205 21.9469 41.998 24.413 41.998C26.8835 41.998 29.3316 42.0205 31.7977 41.8809C34.6621 41.7413 37.2042 41.0839 39.2988 38.9765C41.3978 36.8646 42.0468 34.3114 42.1855 31.4295C42.3288 28.9484 42.3019 26.4853 42.3019 23.9997V23.9997ZM24.4085 33.2352C19.3287 33.2352 15.2291 29.1105 15.2291 23.9997C15.2291 18.8888 19.3287 14.7641 24.4085 14.7641C29.4883 14.7641 33.5879 18.8888 33.5879 23.9997C33.5879 29.1105 29.4883 33.2352 24.4085 33.2352ZM33.9639 16.5428C32.7778 16.5428 31.8201 15.5791 31.8201 14.3858C31.8201 13.1926 32.7778 12.2289 33.9639 12.2289C35.1499 12.2289 36.1077 13.1926 36.1077 14.3858C36.108 14.6692 36.0528 14.9498 35.9452 15.2117C35.8376 15.4735 35.6797 15.7115 35.4806 15.9118C35.2814 16.1122 35.045 16.271 34.7847 16.3793C34.5244 16.4876 34.2455 16.5431 33.9639 16.5428V16.5428Z" fill="#A0A1A1"/>
</svg>
