<svg width="36" height="36" viewBox="0 0 36 36" fill="none" xmlns="http://www.w3.org/2000/svg">
<path fill-rule="evenodd" clip-rule="evenodd" d="M0.000153033 3.00764C0.000153033 2.20997 0.317028 1.44497 0.881069 0.880924C1.44511 0.316883 2.21011 7.8243e-06 3.00779 7.8243e-06H32.9892C33.3845 -0.000637806 33.7761 0.0766926 34.1415 0.227571C34.5069 0.37845 34.8389 0.599915 35.1186 0.879285C35.3982 1.15866 35.6201 1.49045 35.7713 1.85566C35.9226 2.22087 36.0004 2.61234 36.0001 3.00764V32.9891C36.0006 33.3845 35.923 33.7761 35.772 34.1415C35.6209 34.5068 35.3993 34.8389 35.1198 35.1185C34.8403 35.3982 34.5084 35.62 34.1431 35.7712C33.7778 35.9225 33.3863 36.0002 32.9909 36H3.00779C2.61268 36 2.22145 35.9222 1.85644 35.7709C1.49143 35.6197 1.1598 35.398 0.88049 35.1185C0.601184 34.8391 0.379678 34.5073 0.228626 34.1422C0.0775743 33.7771 -6.19322e-05 33.3858 0.000153033 32.9907V3.00764ZM14.2496 13.7258H19.1243V16.1738C19.828 14.7666 21.628 13.5 24.3329 13.5C29.5185 13.5 30.7474 16.3031 30.7474 21.4462V30.9731H25.4996V22.6178C25.4996 19.6887 24.796 18.036 23.0091 18.036C20.53 18.036 19.4991 19.818 19.4991 22.6178V30.9731H14.2496V13.7258ZM5.24961 30.7489H10.4991V13.5H5.24961V30.7473V30.7489ZM11.2502 7.87419C11.26 8.32365 11.1801 8.77057 11.0149 9.1887C10.8497 9.60684 10.6027 9.98777 10.2883 10.3092C9.97397 10.6305 9.59857 10.8859 9.18417 11.0602C8.76977 11.2345 8.32473 11.3243 7.87515 11.3243C7.42558 11.3243 6.98053 11.2345 6.56614 11.0602C6.15174 10.8859 5.77633 10.6305 5.46196 10.3092C5.14758 9.98777 4.90056 9.60684 4.7354 9.1887C4.57023 8.77057 4.49026 8.32365 4.50015 7.87419C4.51958 6.99195 4.88369 6.15239 5.51451 5.53531C6.14533 4.91823 6.9927 4.57269 7.87515 4.57269C8.7576 4.57269 9.60498 4.91823 10.2358 5.53531C10.8666 6.15239 11.2307 6.99195 11.2502 7.87419Z" fill="#A0A1A1"/>
</svg>
