<svg width="33" height="32" viewBox="0 0 33 32" fill="none" xmlns="http://www.w3.org/2000/svg">
<path fill-rule="evenodd" clip-rule="evenodd" d="M4.3335 6.00509C4.3335 5.47331 4.54475 4.96331 4.92077 4.58728C5.2968 4.21125 5.8068 4 6.33859 4H26.3262C26.5898 3.99957 26.8508 4.05113 27.0944 4.15171C27.338 4.2523 27.5593 4.39994 27.7458 4.58619C27.9322 4.77243 28.0801 4.99363 28.181 5.2371C28.2818 5.48058 28.3336 5.74156 28.3335 6.00509V25.9927C28.3338 26.2563 28.2821 26.5174 28.1814 26.761C28.0807 27.0046 27.9329 27.2259 27.7466 27.4123C27.5603 27.5988 27.339 27.7466 27.0955 27.8475C26.8519 27.9483 26.5909 28.0001 26.3273 28H6.33859C6.07518 28 5.81436 27.9481 5.57102 27.8473C5.32768 27.7464 5.10659 27.5986 4.92039 27.4123C4.73418 27.226 4.58651 27.0049 4.48581 26.7615C4.38511 26.5181 4.33335 26.2572 4.3335 25.9938V6.00509ZM13.8331 13.1505H17.0829V14.7825C17.552 13.8444 18.752 13 20.5553 13C24.0124 13 24.8317 14.8687 24.8317 18.2975V24.6487H21.3331V19.0785C21.3331 17.1258 20.864 16.024 19.6728 16.024C18.02 16.024 17.3328 17.212 17.3328 19.0785V24.6487H13.8331V13.1505ZM7.83313 24.4993H11.3328V13H7.83313V24.4982V24.4993ZM11.8335 9.24946C11.8401 9.5491 11.7868 9.84704 11.6767 10.1258C11.5666 10.4046 11.4019 10.6585 11.1923 10.8728C10.9827 11.087 10.7324 11.2572 10.4562 11.3735C10.1799 11.4897 9.88321 11.5495 9.5835 11.5495C9.28378 11.5495 8.98708 11.4897 8.71082 11.3735C8.43455 11.2572 8.18428 11.087 7.9747 10.8728C7.76511 10.6585 7.60043 10.4046 7.49033 10.1258C7.38022 9.84704 7.3269 9.5491 7.3335 9.24946C7.34645 8.6613 7.58919 8.10159 8.00973 7.69021C8.43028 7.27882 8.99519 7.04846 9.5835 7.04846C10.1718 7.04846 10.7367 7.27882 11.1573 7.69021C11.5778 8.10159 11.8205 8.6613 11.8335 9.24946Z" fill="#CCCCCC"/>
</svg>
