<svg width="48" height="48" viewBox="0 0 48 48" fill="none" xmlns="http://www.w3.org/2000/svg">
<path fill-rule="evenodd" clip-rule="evenodd" d="M6 9.00764C6 8.20997 6.31688 7.44496 6.88092 6.88092C7.44496 6.31688 8.20996 6 9.00764 6H38.9891C39.3844 5.99936 39.7759 6.07669 40.1413 6.22757C40.5067 6.37845 40.8387 6.59991 41.1184 6.87928C41.3981 7.15865 41.6199 7.49044 41.7712 7.85566C41.9225 8.22087 42.0002 8.61234 42 9.00764V38.9891C42.0004 39.3845 41.9229 39.7761 41.7718 40.1414C41.6208 40.5068 41.3992 40.8389 41.1197 41.1185C40.8402 41.3982 40.5083 41.62 40.143 41.7712C39.7776 41.9225 39.3861 42.0002 38.9907 42H9.00764C8.61253 42 8.2213 41.9221 7.85629 41.7709C7.49128 41.6197 7.15964 41.398 6.88034 41.1185C6.60103 40.8391 6.37952 40.5073 6.22847 40.1422C6.07742 39.7771 5.99979 39.3858 6 38.9907V9.00764ZM20.2495 19.7258H25.1242V22.1738C25.8278 20.7665 27.6278 19.5 30.3327 19.5C35.5184 19.5 36.7473 22.3031 36.7473 27.4462V36.9731H31.4995V28.6178C31.4995 25.6887 30.7958 24.036 29.0089 24.036C26.5298 24.036 25.4989 25.818 25.4989 28.6178V36.9731H20.2495V19.7258ZM11.2495 36.7489H16.4989V19.5H11.2495V36.7473V36.7489ZM17.25 13.8742C17.2599 14.3236 17.1799 14.7706 17.0148 15.1887C16.8496 15.6068 16.6026 15.9878 16.2882 16.3091C15.9738 16.6305 15.5984 16.8859 15.184 17.0602C14.7696 17.2345 14.3246 17.3243 13.875 17.3243C13.4254 17.3243 12.9804 17.2345 12.566 17.0602C12.1516 16.8859 11.7762 16.6305 11.4618 16.3091C11.1474 15.9878 10.9004 15.6068 10.7352 15.1887C10.5701 14.7706 10.4901 14.3236 10.5 13.8742C10.5194 12.9919 10.8835 12.1524 11.5144 11.5353C12.1452 10.9182 12.9925 10.5727 13.875 10.5727C14.7575 10.5727 15.6048 10.9182 16.2356 11.5353C16.8665 12.1524 17.2306 12.9919 17.25 13.8742Z" fill="#1DC3C4"/>
</svg>
