<svg width="581" height="550" viewBox="0 0 581 550" fill="none" xmlns="http://www.w3.org/2000/svg">
<path d="M118.459 31.4685C118.459 31.4685 125.98 25.5388 127.892 21.7302C129.499 18.5163 130.721 13.9042 129.033 10.4814C128.667 9.65144 128.129 8.9085 127.455 8.30142C126.78 7.69434 125.985 7.23686 125.121 6.95908C124.258 6.6813 123.345 6.58951 122.443 6.68974C121.542 6.78996 120.671 7.07995 119.89 7.54061C115.262 10.4171 114.763 20.2357 115.953 24.9602C116.049 25.3298 118.379 31.5328 118.459 31.4685Z" fill="#1DC3C4"/>
<path d="M48.9568 80.9308C49.2621 81.22 54.6294 85.0928 54.6616 85.0125C54.6937 84.9321 57.6505 75.917 57.1524 71.6746C56.7346 68.0589 55.1919 63.6397 51.8815 61.631C51.1175 61.1429 50.2589 60.8219 49.362 60.6891C48.4651 60.5564 47.5504 60.6149 46.6777 60.8607C45.805 61.1066 44.9943 61.5343 44.2986 62.1157C43.603 62.6971 43.0382 63.4191 42.6414 64.2343C40.3595 69.1838 45.3732 77.6365 48.9568 80.9308Z" fill="#1DC3C4"/>
<path d="M206.457 40.4673C206.457 40.4673 178.945 68.8787 179.138 103.766C179.331 138.654 207.051 166.824 207.051 166.824C207.051 166.824 234.579 138.429 234.37 103.525C234.161 68.6215 206.457 40.4673 206.457 40.4673Z" fill="#1DC3C4"/>
<path d="M167.231 124.657C167.593 124.269 167.926 123.856 168.228 123.42C170.22 120.382 171.94 115.963 170.654 112.331C170.385 111.466 169.936 110.666 169.336 109.986C168.736 109.306 167.999 108.761 167.173 108.386C166.348 108.011 165.452 107.815 164.545 107.811C163.639 107.807 162.741 107.995 161.912 108.362C158.168 110.13 156.336 116.124 155.95 121.025C154.456 120.688 153.106 120.431 151.949 120.222C151.467 119.113 150.969 118.004 150.455 116.879C149.94 115.754 149.539 114.549 149.056 113.36C148.398 111.624 147.819 109.792 147.225 107.96C149.394 106.996 155.725 104.023 158.088 101.42C160.45 98.8167 162.909 94.6064 162.169 90.83C162.033 89.9347 161.71 89.0782 161.219 88.3167C160.729 87.5552 160.084 86.9059 159.325 86.4113C158.567 85.9167 157.712 85.5879 156.817 85.4466C155.923 85.3053 155.009 85.3546 154.135 85.5913C148.896 87.1983 145.826 96.4866 145.73 101.356C145.73 101.5 145.73 102.529 145.907 103.766C145.393 101.966 144.846 100.167 144.38 98.3186C143.03 93.0959 141.825 87.7286 140.604 82.3613C140.347 81.2525 140.073 80.1276 139.816 79.0188C141.648 78.1992 148.542 75.0495 151.065 72.3177C153.588 69.5858 155.886 65.5041 155.147 61.7277C155.011 60.8324 154.687 59.9759 154.197 59.2144C153.707 58.4529 153.061 57.8035 152.303 57.3089C151.544 56.8143 150.69 56.4856 149.795 56.3443C148.9 56.203 147.986 56.2523 147.112 56.4889C141.889 58.0959 138.82 67.3842 138.708 72.2534C138.708 72.4141 138.804 73.6515 138.933 75.0335C138.225 72.1248 137.486 69.2323 136.651 66.3879C135.264 61.4934 133.546 56.699 131.508 52.0376C132.167 51.7644 140.331 48.2291 143.079 45.1919C145.505 42.4922 147.899 38.3783 147.144 34.6019C147.008 33.7066 146.684 32.8501 146.194 32.0886C145.704 31.3271 145.059 30.6778 144.3 30.1831C143.541 29.6885 142.687 29.3598 141.792 29.2185C140.898 29.0772 139.983 29.1265 139.109 29.3631C133.887 30.9701 130.817 40.2585 130.705 45.1276C130.705 45.4651 131.107 49.9485 131.299 51.5555C131.293 51.5021 131.293 51.4482 131.299 51.3948C129.191 46.8699 126.685 42.5408 123.811 38.4586C121.255 34.8004 118.492 31.2915 115.535 27.949C112.819 24.7351 110.152 22.1318 107.773 19.7695C106.472 18.5 105.25 17.359 104.109 16.3145H104.222C104.318 16.3145 101.683 10.2401 101.474 9.88659C99.0313 5.67631 91.832 -1.02479 86.5129 0.132232C85.6278 0.327441 84.794 0.707618 84.0663 1.24781C83.3385 1.78799 82.7332 2.47598 82.2901 3.26662C81.8469 4.05725 81.576 4.93266 81.4951 5.83539C81.4142 6.73811 81.5251 7.64774 81.8205 8.50458C83.0097 12.1685 87.0593 14.6272 90.4821 15.8163C93.905 17.0055 101.731 16.4431 103.611 16.2663C104.768 17.3912 106.006 18.5964 107.339 19.9463C109.669 22.3567 112.273 25.1047 114.908 28.2704C115.615 29.1221 116.338 30.0542 117.045 30.9541C115.535 29.6846 113.414 27.9972 113.189 27.8526C109.091 25.2493 99.6098 22.6139 95.4316 26.0849C94.7406 26.6801 94.1841 27.4156 93.7991 28.2424C93.4142 29.0692 93.2096 29.9685 93.1989 30.8805C93.1883 31.7925 93.3718 32.6963 93.7374 33.5318C94.103 34.3674 94.6421 35.1156 95.3191 35.7268C98.051 38.4265 102.792 38.7479 106.391 38.2176C109.991 37.6873 116.837 33.3967 118.299 32.545C119.906 34.5376 121.4 36.6428 122.895 38.9729C125.641 43.0404 128.024 47.3424 130.014 51.8287C130.126 52.0858 130.207 52.3751 130.319 52.6322C129.676 51.8769 125.852 48.0202 125.498 47.8113C121.706 44.758 112.642 41.1102 108.03 44.0991C107.286 44.6162 106.659 45.2849 106.191 46.0613C105.723 46.8378 105.425 47.7045 105.315 48.6044C105.206 49.5044 105.288 50.4173 105.557 51.2831C105.825 52.149 106.274 52.9483 106.873 53.6285C109.3 56.6175 113.96 57.4531 117.592 57.3246C121.786 57.1799 130.03 53.0179 130.335 52.8572C132.188 57.4121 133.745 62.0821 134.995 66.8379C135.927 70.3572 136.747 73.9568 137.518 77.5725C136.667 76.6083 133.099 73.0247 132.81 72.7515C129.017 69.7144 119.954 66.0505 115.342 69.0555C114.597 69.5725 113.971 70.2412 113.503 71.0177C113.035 71.7942 112.736 72.6608 112.627 73.5608C112.518 74.4607 112.6 75.3736 112.869 76.2395C113.137 77.1054 113.586 77.9047 114.185 78.5849C116.612 81.5578 121.272 82.4095 124.904 82.2809C129.001 82.1202 136.924 78.1671 137.583 77.8296L138.643 82.7791C139.752 88.1625 140.845 93.5619 142.082 98.8489C142.516 100.681 142.998 102.481 143.48 104.28C142.146 102.882 139.672 100.392 139.431 100.199C135.638 97.1615 126.575 93.4976 121.963 96.5027C121.218 97.0197 120.591 97.6884 120.123 98.4649C119.655 99.2413 119.357 100.108 119.248 101.008C119.138 101.908 119.221 102.821 119.489 103.687C119.758 104.553 120.206 105.352 120.806 106.032C123.232 109.005 127.893 109.857 131.524 109.712C135.156 109.567 141.905 106.402 143.802 105.486C144.621 108.475 145.505 111.415 146.517 114.276C146.983 115.497 147.369 116.783 147.883 117.924L148.655 119.756L147.707 119.611C147.707 119.611 147.626 121.314 147.787 124.078C143.786 121.234 138.017 118.775 134.256 120.495C133.442 120.893 132.722 121.459 132.142 122.155C131.562 122.852 131.136 123.663 130.892 124.535C130.648 125.408 130.591 126.322 130.725 127.218C130.859 128.114 131.18 128.972 131.669 129.735C131.905 130.15 132.185 130.538 132.505 130.892C133.214 135.117 134.995 139.09 137.679 142.43C137.888 142.655 140.604 145.178 142.018 146.431C140.652 145.676 139.286 144.953 137.872 144.15C135.831 143.025 133.71 141.755 131.637 140.534L128.423 138.509C127.33 137.85 126.366 137.079 125.321 136.356C123.811 135.279 122.3 134.074 120.806 132.885C122.075 130.86 125.723 124.85 126.253 121.411C126.784 117.972 126.495 113.087 123.811 110.339C123.208 109.655 122.466 109.107 121.635 108.732C120.803 108.357 119.902 108.163 118.99 108.163C118.078 108.163 117.176 108.357 116.345 108.732C115.514 109.107 114.772 109.655 114.169 110.339C110.666 114.517 113.253 123.998 115.856 128.112C115.856 128.257 116.579 129.06 117.335 130.024C115.905 128.819 114.474 127.614 113.06 126.328C109.059 122.712 105.025 118.904 101.104 115.079L98.5974 112.717C99.6901 111.03 103.692 104.602 104.254 100.954C104.816 97.3062 104.495 92.6299 101.811 89.8659C101.208 89.1819 100.466 88.6341 99.6351 88.2589C98.8039 87.8837 97.9024 87.6896 96.9904 87.6896C96.0784 87.6896 95.1769 87.8837 94.3457 88.2589C93.5145 88.6341 92.7727 89.1819 92.1695 89.8659C88.6663 94.044 91.2535 103.525 93.7765 107.655C93.8729 107.8 94.6442 108.764 95.512 109.841C93.3104 107.816 91.0928 105.807 88.827 103.895C84.9711 100.582 80.8962 97.5321 76.63 94.7671C77.0317 94.1726 81.8848 86.7323 82.4955 82.6827C83.0418 79.083 82.7365 74.3585 80.0529 71.5945C79.4497 70.9106 78.7078 70.3628 77.8766 69.9876C77.0454 69.6123 76.1439 69.4183 75.2319 69.4183C74.32 69.4183 73.4184 69.6123 72.5872 69.9876C71.756 70.3628 71.0142 70.9106 70.411 71.5945C66.9078 75.7727 69.495 85.2538 72.018 89.3838C72.1947 89.673 74.9909 93.1602 76.0193 94.3654L75.8747 94.269C71.6223 91.648 67.1421 89.416 62.4886 87.6C58.3404 85.9608 54.1018 84.5604 49.7935 83.4058C45.8082 82.297 42.096 81.5257 38.8017 80.8668C37.018 80.5293 35.3789 80.2401 33.8522 79.999C33.8522 79.999 28.3725 76.319 28.0028 76.1423C23.6479 73.9729 13.9418 72.3498 10.1493 76.2548C9.51741 76.9197 9.03513 77.7122 8.7349 78.579C8.43466 79.4458 8.32343 80.3668 8.40868 81.2802C8.49392 82.1935 8.77367 83.078 9.22912 83.8743C9.68457 84.6706 10.3052 85.3601 11.0492 85.8966C14.0543 88.291 18.7949 88.1143 22.2981 87.1983C25.8013 86.2823 31.9399 81.5417 33.5469 80.3526C35.1539 80.6418 36.7609 80.9632 38.6893 81.3489C41.9032 82.0881 45.6475 82.9559 49.5846 84.129C50.6452 84.4343 51.754 84.82 52.7985 85.1735C50.838 84.9646 48.1383 84.7235 47.8812 84.7235C43.0602 84.8039 33.6594 87.8411 32.0846 93.0477C31.8478 93.9195 31.7974 94.8314 31.9368 95.724C32.0762 96.6166 32.4021 97.4698 32.8934 98.2279C33.3847 98.9861 34.0303 99.6321 34.788 100.124C35.5458 100.616 36.3987 100.943 37.2912 101.083C41.0676 101.822 45.1814 99.4756 47.8972 97.0651C50.613 94.6547 54.0037 87.3268 54.6948 85.8163C57.1052 86.6358 59.5157 87.5197 62.0547 88.5963C66.6117 90.4936 70.9895 92.7954 75.1355 95.4742C75.3605 95.6188 75.6015 95.8117 75.8265 95.9724C74.8784 95.6992 69.5593 94.5904 69.1736 94.5582C64.3527 94.1083 54.7108 96.1652 52.5575 101.099C52.2197 101.941 52.0643 102.846 52.1013 103.753C52.1383 104.66 52.3671 105.548 52.7724 106.361C53.1778 107.173 53.7505 107.89 54.453 108.465C55.1555 109.04 55.9718 109.459 56.8481 109.696C60.5281 110.837 64.883 108.973 67.8398 106.852C71.2466 104.409 75.8747 96.3902 75.9872 96.0849C80.0427 98.8688 83.9179 101.907 87.5896 105.18C90.3054 107.591 92.973 110.162 95.6245 112.749C94.371 112.428 89.4215 111.383 89.0519 111.351C84.231 110.901 74.5891 112.958 72.4358 117.908C72.1008 118.749 71.9474 119.652 71.9858 120.557C72.0242 121.462 72.2535 122.349 72.6587 123.159C73.0638 123.97 73.6356 124.685 74.3366 125.259C75.0377 125.833 75.8521 126.252 76.7264 126.489C80.4064 127.63 84.7613 125.766 87.7181 123.645C91.0446 121.266 95.4638 113.601 95.8334 112.958C97.0386 114.131 98.2439 115.304 99.433 116.493C103.338 120.382 107.227 124.287 111.196 128.016C112.562 129.317 113.96 130.538 115.358 131.776C113.478 131.342 110.039 130.635 109.734 130.603C104.913 130.153 95.2709 132.21 93.1176 137.159C92.7826 138.001 92.6292 138.904 92.6676 139.809C92.7061 140.714 92.9353 141.601 93.3405 142.411C93.7456 143.221 94.3174 143.937 95.0184 144.511C95.7195 145.084 96.5339 145.503 97.4082 145.74C101.072 146.897 105.443 145.017 108.384 142.912C111.325 140.807 115.214 134.411 116.274 132.611C118.62 134.636 120.983 136.613 123.409 138.445C124.47 139.2 125.498 140.052 126.623 140.727L129.757 142.816C131.942 144.182 133.967 145.435 136.04 146.64C137.068 147.267 138.065 147.83 139.093 148.408C137.245 147.685 134.272 146.608 134.031 146.528C129.307 145.355 119.488 145.853 116.612 150.481C116.151 151.263 115.861 152.133 115.761 153.035C115.66 153.936 115.752 154.849 116.03 155.713C116.308 156.577 116.765 157.372 117.372 158.046C117.979 158.72 118.722 159.258 119.552 159.625C123.007 161.312 127.587 160.123 130.801 158.484C134.385 156.668 139.768 150.015 140.443 149.195C142.95 150.626 145.393 151.976 147.707 153.213C153.877 156.523 159.277 159.159 163.455 161.119C177.05 172.882 196.173 174.168 196.173 174.168C196.173 174.168 197.185 151.252 183.703 136.179C179.096 131.209 173.48 127.281 167.231 124.657ZM142.966 147.01C143.384 146.062 146.646 138.782 146.871 134.684L149.121 134.218C150.502 141.454 153.375 148.322 157.557 154.386C155.083 153.218 152.404 151.911 149.523 150.465C147.45 149.388 145.232 148.231 142.966 147.01V147.01Z" fill="#1DC3C4"/>
<path d="M267.475 120.286C267.475 120.286 244.543 120.977 230.514 135.568C216.485 150.16 216.662 173.075 216.662 173.075C216.662 173.075 239.578 172.368 253.623 157.793C267.668 143.217 267.475 120.286 267.475 120.286Z" fill="#1DC3C4"/>
<g opacity="0.5">
<path opacity="0.5" d="M118.459 31.4685C118.459 31.4685 125.98 25.5388 127.892 21.7302C129.499 18.5163 130.721 13.9042 129.033 10.4814C128.667 9.65144 128.129 8.9085 127.455 8.30142C126.78 7.69434 125.985 7.23686 125.121 6.95908C124.258 6.6813 123.345 6.58951 122.443 6.68974C121.542 6.78996 120.671 7.07995 119.89 7.54061C115.262 10.4171 114.763 20.2357 115.953 24.9602C116.049 25.3298 118.379 31.5328 118.459 31.4685Z" fill="white"/>
<path opacity="0.5" d="M48.9568 80.9308C49.2621 81.22 54.6294 85.0928 54.6616 85.0125C54.6937 84.9321 57.6505 75.917 57.1524 71.6746C56.7346 68.0589 55.1919 63.6397 51.8815 61.631C51.1175 61.1429 50.2589 60.8219 49.362 60.6891C48.4651 60.5564 47.5504 60.6149 46.6777 60.8607C45.805 61.1066 44.9943 61.5343 44.2986 62.1157C43.603 62.6971 43.0382 63.4191 42.6414 64.2343C40.3595 69.1838 45.3732 77.6365 48.9568 80.9308Z" fill="white"/>
<path opacity="0.5" d="M206.457 40.4673C206.457 40.4673 178.945 68.8787 179.138 103.766C179.331 138.654 207.051 166.824 207.051 166.824C207.051 166.824 234.579 138.429 234.37 103.525C234.161 68.6215 206.457 40.4673 206.457 40.4673Z" fill="white"/>
<path opacity="0.5" d="M167.231 124.657C167.593 124.269 167.926 123.856 168.228 123.42C170.22 120.382 171.94 115.963 170.654 112.331C170.385 111.466 169.936 110.666 169.336 109.986C168.736 109.306 167.999 108.761 167.173 108.386C166.348 108.011 165.452 107.815 164.545 107.811C163.639 107.807 162.741 107.995 161.912 108.362C158.168 110.13 156.336 116.124 155.95 121.025C154.456 120.688 153.106 120.431 151.949 120.222C151.467 119.113 150.969 118.004 150.455 116.879C149.94 115.754 149.539 114.549 149.056 113.36C148.398 111.624 147.819 109.792 147.225 107.96C149.394 106.996 155.725 104.023 158.088 101.42C160.45 98.8167 162.909 94.6064 162.169 90.83C162.033 89.9347 161.71 89.0782 161.219 88.3167C160.729 87.5552 160.084 86.9059 159.325 86.4113C158.567 85.9167 157.712 85.5879 156.817 85.4466C155.923 85.3053 155.009 85.3546 154.135 85.5913C148.896 87.1983 145.826 96.4866 145.73 101.356C145.73 101.5 145.73 102.529 145.907 103.766C145.393 101.966 144.846 100.167 144.38 98.3186C143.03 93.0959 141.825 87.7286 140.604 82.3613C140.347 81.2525 140.073 80.1276 139.816 79.0188C141.648 78.1992 148.542 75.0495 151.065 72.3177C153.588 69.5858 155.886 65.5041 155.147 61.7277C155.011 60.8324 154.687 59.9759 154.197 59.2144C153.707 58.4529 153.061 57.8035 152.303 57.3089C151.544 56.8143 150.69 56.4856 149.795 56.3443C148.9 56.203 147.986 56.2523 147.112 56.4889C141.889 58.0959 138.82 67.3842 138.708 72.2534C138.708 72.4141 138.804 73.6515 138.933 75.0335C138.225 72.1248 137.486 69.2323 136.651 66.3879C135.264 61.4934 133.546 56.699 131.508 52.0376C132.167 51.7644 140.331 48.2291 143.079 45.1919C145.505 42.4922 147.899 38.3783 147.144 34.6019C147.008 33.7066 146.684 32.8501 146.194 32.0886C145.704 31.3271 145.059 30.6778 144.3 30.1831C143.541 29.6885 142.687 29.3598 141.792 29.2185C140.898 29.0772 139.983 29.1265 139.109 29.3631C133.887 30.9701 130.817 40.2585 130.705 45.1276C130.705 45.4651 131.107 49.9485 131.299 51.5555C131.293 51.5021 131.293 51.4482 131.299 51.3948C129.191 46.8699 126.685 42.5408 123.811 38.4586C121.255 34.8004 118.492 31.2915 115.535 27.949C112.819 24.7351 110.152 22.1318 107.773 19.7695C106.472 18.5 105.25 17.359 104.109 16.3145H104.222C104.318 16.3145 101.683 10.2401 101.474 9.88659C99.0313 5.67631 91.832 -1.02479 86.5129 0.132232C85.6278 0.327441 84.794 0.707618 84.0663 1.24781C83.3385 1.78799 82.7332 2.47598 82.2901 3.26662C81.8469 4.05725 81.576 4.93266 81.4951 5.83539C81.4142 6.73811 81.5251 7.64774 81.8205 8.50458C83.0097 12.1685 87.0593 14.6272 90.4821 15.8163C93.905 17.0055 101.731 16.4431 103.611 16.2663C104.768 17.3912 106.006 18.5964 107.339 19.9463C109.669 22.3567 112.273 25.1047 114.908 28.2704C115.615 29.1221 116.338 30.0542 117.045 30.9541C115.535 29.6846 113.414 27.9972 113.189 27.8526C109.091 25.2493 99.6098 22.6139 95.4316 26.0849C94.7406 26.6801 94.1841 27.4156 93.7991 28.2424C93.4142 29.0692 93.2096 29.9685 93.1989 30.8805C93.1883 31.7925 93.3718 32.6963 93.7374 33.5318C94.103 34.3674 94.6421 35.1156 95.3191 35.7268C98.051 38.4265 102.792 38.7479 106.391 38.2176C109.991 37.6873 116.837 33.3967 118.299 32.545C119.906 34.5376 121.4 36.6428 122.895 38.9729C125.641 43.0404 128.024 47.3424 130.014 51.8287C130.126 52.0858 130.207 52.3751 130.319 52.6322C129.676 51.8769 125.852 48.0202 125.498 47.8113C121.706 44.758 112.642 41.1102 108.03 44.0991C107.286 44.6162 106.659 45.2849 106.191 46.0613C105.723 46.8378 105.425 47.7045 105.315 48.6044C105.206 49.5044 105.288 50.4173 105.557 51.2831C105.825 52.149 106.274 52.9483 106.873 53.6285C109.3 56.6175 113.96 57.4531 117.592 57.3246C121.786 57.1799 130.03 53.0179 130.335 52.8572C132.188 57.4121 133.745 62.0821 134.995 66.8379C135.927 70.3572 136.747 73.9568 137.518 77.5725C136.667 76.6083 133.099 73.0247 132.81 72.7515C129.017 69.7144 119.954 66.0505 115.342 69.0555C114.597 69.5725 113.971 70.2412 113.503 71.0177C113.035 71.7942 112.736 72.6608 112.627 73.5608C112.518 74.4607 112.6 75.3736 112.869 76.2395C113.137 77.1054 113.586 77.9047 114.185 78.5849C116.612 81.5578 121.272 82.4095 124.904 82.2809C129.001 82.1202 136.924 78.1671 137.583 77.8296L138.643 82.7791C139.752 88.1625 140.845 93.5619 142.082 98.8489C142.516 100.681 142.998 102.481 143.48 104.28C142.146 102.882 139.672 100.392 139.431 100.199C135.638 97.1615 126.575 93.4976 121.963 96.5027C121.218 97.0197 120.591 97.6884 120.123 98.4649C119.655 99.2413 119.357 100.108 119.248 101.008C119.138 101.908 119.221 102.821 119.489 103.687C119.758 104.553 120.206 105.352 120.806 106.032C123.232 109.005 127.893 109.857 131.524 109.712C135.156 109.567 141.905 106.402 143.802 105.486C144.621 108.475 145.505 111.415 146.517 114.276C146.983 115.497 147.369 116.783 147.883 117.924L148.655 119.756L147.707 119.611C147.707 119.611 147.626 121.314 147.787 124.078C143.786 121.234 138.017 118.775 134.256 120.495C133.442 120.893 132.722 121.459 132.142 122.155C131.562 122.852 131.136 123.663 130.892 124.535C130.648 125.408 130.591 126.322 130.725 127.218C130.859 128.114 131.18 128.972 131.669 129.735C131.905 130.15 132.185 130.538 132.505 130.892C133.214 135.117 134.995 139.09 137.679 142.43C137.888 142.655 140.604 145.178 142.018 146.431C140.652 145.676 139.286 144.953 137.872 144.15C135.831 143.025 133.71 141.755 131.637 140.534L128.423 138.509C127.33 137.85 126.366 137.079 125.321 136.356C123.811 135.279 122.3 134.074 120.806 132.885C122.075 130.86 125.723 124.85 126.253 121.411C126.784 117.972 126.495 113.087 123.811 110.339C123.208 109.655 122.466 109.107 121.635 108.732C120.803 108.357 119.902 108.163 118.99 108.163C118.078 108.163 117.176 108.357 116.345 108.732C115.514 109.107 114.772 109.655 114.169 110.339C110.666 114.517 113.253 123.998 115.856 128.112C115.856 128.257 116.579 129.06 117.335 130.024C115.905 128.819 114.474 127.614 113.06 126.328C109.059 122.712 105.025 118.904 101.104 115.079L98.5974 112.717C99.6901 111.03 103.692 104.602 104.254 100.954C104.816 97.3062 104.495 92.6299 101.811 89.8659C101.208 89.1819 100.466 88.6341 99.6351 88.2589C98.8039 87.8837 97.9024 87.6896 96.9904 87.6896C96.0784 87.6896 95.1769 87.8837 94.3457 88.2589C93.5145 88.6341 92.7727 89.1819 92.1695 89.8659C88.6663 94.044 91.2535 103.525 93.7765 107.655C93.8729 107.8 94.6442 108.764 95.512 109.841C93.3104 107.816 91.0928 105.807 88.827 103.895C84.9711 100.582 80.8962 97.5321 76.63 94.7671C77.0317 94.1726 81.8848 86.7323 82.4955 82.6827C83.0418 79.083 82.7365 74.3585 80.0529 71.5945C79.4497 70.9106 78.7078 70.3628 77.8766 69.9876C77.0454 69.6123 76.1439 69.4183 75.2319 69.4183C74.32 69.4183 73.4184 69.6123 72.5872 69.9876C71.756 70.3628 71.0142 70.9106 70.411 71.5945C66.9078 75.7727 69.495 85.2538 72.018 89.3838C72.1947 89.673 74.9909 93.1602 76.0193 94.3654L75.8747 94.269C71.6223 91.648 67.1421 89.416 62.4886 87.6C58.3404 85.9608 54.1018 84.5604 49.7935 83.4058C45.8082 82.297 42.096 81.5257 38.8017 80.8668C37.018 80.5293 35.3789 80.2401 33.8522 79.999C33.8522 79.999 28.3725 76.319 28.0028 76.1423C23.6479 73.9729 13.9418 72.3498 10.1493 76.2548C9.51741 76.9197 9.03513 77.7122 8.7349 78.579C8.43466 79.4458 8.32343 80.3668 8.40868 81.2802C8.49392 82.1935 8.77367 83.078 9.22912 83.8743C9.68457 84.6706 10.3052 85.3601 11.0492 85.8966C14.0543 88.291 18.7949 88.1143 22.2981 87.1983C25.8013 86.2823 31.9399 81.5417 33.5469 80.3526C35.1539 80.6418 36.7609 80.9632 38.6893 81.3489C41.9032 82.0881 45.6475 82.9559 49.5846 84.129C50.6452 84.4343 51.754 84.82 52.7985 85.1735C50.838 84.9646 48.1383 84.7235 47.8812 84.7235C43.0602 84.8039 33.6594 87.8411 32.0846 93.0477C31.8478 93.9195 31.7974 94.8314 31.9368 95.724C32.0762 96.6166 32.4021 97.4698 32.8934 98.2279C33.3847 98.9861 34.0303 99.6321 34.788 100.124C35.5458 100.616 36.3987 100.943 37.2912 101.083C41.0676 101.822 45.1814 99.4756 47.8972 97.0651C50.613 94.6547 54.0037 87.3268 54.6948 85.8163C57.1052 86.6358 59.5157 87.5197 62.0547 88.5963C66.6117 90.4936 70.9895 92.7954 75.1355 95.4742C75.3605 95.6188 75.6015 95.8117 75.8265 95.9724C74.8784 95.6992 69.5593 94.5904 69.1736 94.5582C64.3527 94.1083 54.7108 96.1652 52.5575 101.099C52.2197 101.941 52.0643 102.846 52.1013 103.753C52.1383 104.66 52.3671 105.548 52.7724 106.361C53.1778 107.173 53.7505 107.89 54.453 108.465C55.1555 109.04 55.9718 109.459 56.8481 109.696C60.5281 110.837 64.883 108.973 67.8398 106.852C71.2466 104.409 75.8747 96.3902 75.9872 96.0849C80.0427 98.8688 83.9179 101.907 87.5896 105.18C90.3054 107.591 92.973 110.162 95.6245 112.749C94.371 112.428 89.4215 111.383 89.0519 111.351C84.231 110.901 74.5891 112.958 72.4358 117.908C72.1008 118.749 71.9474 119.652 71.9858 120.557C72.0242 121.462 72.2535 122.349 72.6587 123.159C73.0638 123.97 73.6356 124.685 74.3366 125.259C75.0377 125.833 75.8521 126.252 76.7264 126.489C80.4064 127.63 84.7613 125.766 87.7181 123.645C91.0446 121.266 95.4638 113.601 95.8334 112.958C97.0386 114.131 98.2439 115.304 99.433 116.493C103.338 120.382 107.227 124.287 111.196 128.016C112.562 129.317 113.96 130.538 115.358 131.776C113.478 131.342 110.039 130.635 109.734 130.603C104.913 130.153 95.2709 132.21 93.1176 137.159C92.7826 138.001 92.6292 138.904 92.6676 139.809C92.7061 140.714 92.9353 141.601 93.3405 142.411C93.7456 143.221 94.3174 143.937 95.0184 144.511C95.7195 145.084 96.5339 145.503 97.4082 145.74C101.072 146.897 105.443 145.017 108.384 142.912C111.325 140.807 115.214 134.411 116.274 132.611C118.62 134.636 120.983 136.613 123.409 138.445C124.47 139.2 125.498 140.052 126.623 140.727L129.757 142.816C131.942 144.182 133.967 145.435 136.04 146.64C137.068 147.267 138.065 147.83 139.093 148.408C137.245 147.685 134.272 146.608 134.031 146.528C129.307 145.355 119.488 145.853 116.612 150.481C116.151 151.263 115.861 152.133 115.761 153.035C115.66 153.936 115.752 154.849 116.03 155.713C116.308 156.577 116.765 157.372 117.372 158.046C117.979 158.72 118.722 159.258 119.552 159.625C123.007 161.312 127.587 160.123 130.801 158.484C134.385 156.668 139.768 150.015 140.443 149.195C142.95 150.626 145.393 151.976 147.707 153.213C153.877 156.523 159.277 159.159 163.455 161.119C177.05 172.882 196.173 174.168 196.173 174.168C196.173 174.168 197.185 151.252 183.703 136.179C179.096 131.209 173.48 127.281 167.231 124.657ZM142.966 147.01C143.384 146.062 146.646 138.782 146.871 134.684L149.121 134.218C150.502 141.454 153.375 148.322 157.557 154.386C155.083 153.218 152.404 151.911 149.523 150.465C147.45 149.388 145.232 148.231 142.966 147.01V147.01Z" fill="white"/>
<path opacity="0.5" d="M267.475 120.286C267.475 120.286 244.543 120.977 230.514 135.568C216.485 150.16 216.662 173.075 216.662 173.075C216.662 173.075 239.578 172.368 253.623 157.793C267.668 143.217 267.475 120.286 267.475 120.286Z" fill="white"/>
</g>
<path d="M207.598 135.054L230.111 114.806L229.147 113.729L207.581 133.11L207.469 106.594L207.581 106.675L226.64 78.8258L225.435 78.0063L207.469 104.296L207.18 40.4673H205.749L205.926 83.7914L191.592 71.3855L190.644 72.4783L205.942 85.7198L206.071 116.686L184.345 97.4668L183.38 98.5435L206.071 118.631L206.199 146.833L189.873 134.026L188.989 135.15L206.216 148.681L206.28 166.824H207.726L207.598 135.038V135.054Z" fill="white"/>
<path d="M186.853 142.864L185.422 142.703L183.606 158.725L173.932 147.926H173.965L171.506 128.513L170.076 128.706L172.261 146.062L148.237 119.193L147.16 120.157L163.471 138.38L153.138 138.509L153.17 139.955L164.74 139.81L176.182 152.586L160.032 152.602V154.048L177.468 154.032L187.865 165.651L176.471 166.342L176.568 167.772L189.086 167.017L196.012 174.762L197.089 173.798L184.892 160.171L186.853 142.864Z" fill="white"/>
<path d="M241.264 148.585L260.419 144.68L260.13 143.266L243 146.753L267.988 120.784L266.943 119.788L249.99 137.4L249.09 127.115L247.66 127.244L248.656 138.782L236.764 151.14L235.543 135.038L234.097 135.15L235.431 152.538L224.616 163.755L223.089 152.457L221.643 152.65L223.33 165.088L216.131 172.577L217.175 173.573L229.854 160.396L247.274 161.055L247.322 159.625L231.204 158.998L241.248 148.552L241.264 148.585Z" fill="white"/>
<path d="M251.051 92.6941C258.568 92.6941 264.662 86.5354 264.662 78.9384C264.662 71.3413 258.568 65.1826 251.051 65.1826C243.533 65.1826 237.439 71.3413 237.439 78.9384C237.439 86.5354 243.533 92.6941 251.051 92.6941Z" fill="#247D7E" stroke="#247D7E" stroke-linecap="round" stroke-linejoin="round"/>
<path d="M288.831 116.574C288.831 116.574 295.258 116.301 296.865 127.694C298.472 139.088 305.19 168.801 305.752 172.963C306.314 177.125 303.808 182.138 297.717 184.083C291.627 186.027 288.268 180.194 287.706 177.414C287.143 174.634 281.776 140.791 281.776 140.791L288.831 116.574Z" fill="#247D7E" stroke="#247D7E" stroke-linecap="round" stroke-linejoin="round"/>
<path d="M226.27 144.279C226.27 144.279 198.116 156.186 198.116 160.509C198.116 164.832 215.456 207.111 215.456 207.111L290.164 187.619L281.792 140.824C281.792 140.824 270.671 126.955 226.27 144.279Z" fill="#1DC3C4" stroke="#247D7E" stroke-linecap="round" stroke-linejoin="round"/>
<path d="M251.951 118.727C251.951 118.727 243.916 123.725 237.488 127.324C231.06 130.924 221.418 135.938 221.418 145.949C221.418 155.961 228.649 195.669 228.649 199.831C228.517 201.689 228.609 203.556 228.923 205.391C228.923 204.556 277.807 188.438 277.807 188.438C279.311 182.046 281.167 175.742 283.367 169.556C285.874 163.449 283.367 158.162 286.147 148.167C288.927 138.171 294.182 131.502 291.98 124.062C289.779 116.622 289.2 116.847 281.149 116.558C273.098 116.268 259.728 116.22 251.951 118.727Z" fill="#247D7E" stroke="#247D7E" stroke-linecap="round" stroke-linejoin="round"/>
<path d="M248.286 114.357C248.286 114.357 244.671 116.301 243.273 125.188C242.366 132.281 241.905 139.425 241.891 146.576C241.891 146.576 256.884 138.252 259.117 137.963C261.351 137.674 277.453 144.391 277.453 144.391C276.146 137.036 274.287 129.789 271.893 122.713C268.566 113.794 251.613 110.468 248.286 114.357Z" fill="white" stroke="#247D7E" stroke-linecap="round" stroke-linejoin="round"/>
<path d="M245.507 112.139L245.78 113.087C246.857 116.847 250.89 130.764 253.285 137.69C256.065 145.725 260.227 149.083 260.227 149.083L264.389 132.467C264.389 132.467 247.998 116.574 245.507 112.139Z" fill="white" stroke="#247D7E" stroke-linecap="round" stroke-linejoin="round"/>
<path d="M260.195 76.5765C260.195 76.5765 246.583 74.3588 241.859 92.132C237.134 109.905 252.417 125.188 256.852 131.021C261.287 136.854 267.715 138.718 271.315 132.965C276.875 124.079 278.546 119.627 279.35 107.961C280.153 96.2941 278.787 88.5163 273.516 82.4098C271.812 80.5788 269.751 79.1166 267.46 78.1133C265.168 77.11 262.696 76.5869 260.195 76.5765V76.5765Z" fill="white" stroke="#247D7E" stroke-linecap="round" stroke-linejoin="round"/>
<path d="M273.565 82.4098C271.859 80.5769 269.795 79.1134 267.501 78.1101C265.206 77.1067 262.731 76.5848 260.227 76.5765C260.227 76.5765 246.616 74.3588 241.891 92.132C240.597 97.173 240.725 102.474 242.261 107.447C242.759 106.177 243.514 105.181 244.671 105.181C247.998 105.181 248.287 109.905 249.396 109.632C250.505 109.359 254.94 105.47 254.12 101.854C253.301 98.2385 254.394 96.5834 260.227 96.5834C266.06 96.5834 267.442 99.0742 269.387 98.5278C271.331 97.9814 272.729 94.0765 274.674 94.0765C275.542 94.1069 276.396 94.3102 277.185 94.6744C277.974 95.0386 278.683 95.5565 279.27 96.1977C278.841 91.122 276.848 86.3044 273.565 82.4098V82.4098Z" fill="#247D7E" stroke="#247D7E" stroke-linecap="round" stroke-linejoin="round"/>
<path d="M249.395 111.303C249.395 111.303 247.161 105.743 244.671 105.18C242.18 104.618 240.782 106.305 242.164 111.014C243.546 115.722 245.506 117.683 246.615 117.683C247.724 117.683 248.222 116.076 248.222 116.076" fill="white"/>
<path d="M249.395 111.303C249.395 111.303 247.161 105.743 244.671 105.18C242.18 104.618 240.782 106.305 242.164 111.014C243.546 115.722 245.506 117.683 246.615 117.683C247.724 117.683 248.222 116.076 248.222 116.076" stroke="#247D7E" stroke-linecap="round" stroke-linejoin="round"/>
<path d="M229.115 168.239C229.115 168.239 230.497 177.141 236.62 181.094C242.742 185.048 251.083 183.039 251.083 183.039" stroke="#247D7E" stroke-linecap="round" stroke-linejoin="round"/>
<path d="M260.194 149.083C260.194 149.083 264.083 163.803 263.248 170.183" stroke="#247D7E" stroke-linecap="round" stroke-linejoin="round"/>
<path d="M177.21 145.322C177.21 145.322 180.585 146.72 183.124 155.446C185.663 164.172 192.396 180.194 194.084 186.381C195.771 192.567 195.208 200.442 187.897 202.45C180.585 204.459 172.711 184.452 171.586 182.765C170.461 181.078 167.649 165.329 169.063 156.893C170.477 148.456 174.125 144.213 177.21 145.322Z" fill="white" stroke="#247D7E" stroke-linecap="round" stroke-linejoin="round"/>
<path d="M137.164 174.538C137.164 174.538 93.2295 217.396 93.2295 223.824C93.2295 230.252 119.086 283.41 126.317 282.205C133.549 281 166.09 246.321 166.09 246.321L137.164 174.538Z" fill="#1DC3C4" stroke="#247D7E" stroke-linecap="round" stroke-linejoin="round"/>
<path d="M138.402 152.088C130.054 159.474 122.165 167.363 114.779 175.711C104.928 187.233 105.78 206.645 108.866 219.854C111.951 233.064 117.591 270.474 124.614 271.888C131.636 273.303 137.277 258.39 149.651 247.784C162.024 237.178 171.875 228.098 172.711 221.06C173.546 214.021 172.438 191.54 173 189.852C174.338 181.57 175.09 173.204 175.25 164.815C175.25 156.668 169.063 147.669 162.876 145.692C156.689 143.716 140.925 150.144 138.402 152.088Z" fill="white" stroke="#247D7E" stroke-linecap="round" stroke-linejoin="round"/>
<path d="M195.369 416.629C195.369 416.629 186.274 435.334 173.257 447.242C160.241 459.149 139.816 473.885 139.816 473.885C139.816 473.885 161.35 480.699 165.897 481.261C170.445 481.824 169.288 484.09 164.194 486.372C159.1 488.654 152.849 490.341 138.675 490.341C124.502 490.341 115.438 490.341 114.86 486.934C114.281 483.527 123.377 475.026 130.174 468.229C136.972 461.431 163.053 418.895 165.319 416.629C167.585 414.363 183.462 406.987 195.369 416.629Z" fill="white" stroke="#247D7E" stroke-linecap="round" stroke-linejoin="round"/>
<path d="M165.897 481.262C162.153 480.796 146.903 476.103 141.632 474.464L137.55 483.527C134.469 484.025 131.315 483.799 128.336 482.868C125.357 481.936 122.636 480.325 120.388 478.16C116.997 481.84 114.554 485.118 114.844 486.934C115.422 490.341 124.485 490.341 138.659 490.341C152.832 490.341 159.068 488.638 164.178 486.372C169.288 484.106 170.429 481.824 165.897 481.262Z" fill="#247D7E" stroke="#247D7E" stroke-linecap="round" stroke-linejoin="round"/>
<path d="M358.027 416.629C358.027 416.629 367.106 435.334 380.139 447.242C393.171 459.149 413.596 473.885 413.596 473.885C413.596 473.885 392.047 480.699 387.515 481.261C382.983 481.824 384.108 484.09 389.218 486.372C394.328 488.654 400.467 490.341 414.721 490.341C428.975 490.341 437.974 490.341 438.536 486.934C439.099 483.527 430.036 475.026 423.222 468.229C416.408 461.431 390.343 418.895 388.077 416.629C385.811 414.363 369.935 406.987 358.027 416.629Z" fill="white" stroke="#247D7E" stroke-linecap="round" stroke-linejoin="round"/>
<path d="M387.516 481.262C391.244 480.796 406.51 476.103 411.781 474.464L415.863 483.527C418.941 484.021 422.092 483.794 425.068 482.862C428.043 481.931 430.762 480.321 433.009 478.16C436.384 481.84 438.843 485.118 438.537 486.934C437.975 490.341 428.895 490.341 414.722 490.341C400.548 490.341 394.313 488.638 389.219 486.372C384.125 484.106 382.984 481.824 387.516 481.262Z" fill="#247D7E" stroke="#247D7E" stroke-linecap="round" stroke-linejoin="round"/>
<path d="M64.4001 424.567C64.4001 424.567 72.3386 439.303 71.7761 444.413C71.3101 448.575 61.395 480.361 57.7793 491.867C57.6373 492.321 57.6095 492.804 57.6984 493.271C57.7873 493.738 57.9901 494.177 58.2889 494.547C58.5877 494.917 58.9732 495.208 59.4113 495.394C59.8494 495.58 60.3266 495.654 60.8005 495.612V495.612C61.3653 495.56 61.9025 495.344 62.3454 494.99C62.7882 494.635 63.1172 494.159 63.2913 493.619L79.1521 444.976C79.1521 444.976 81.9804 441.569 91.0598 439.881C98.002 438.564 132.584 436.941 148.365 436.25C151.277 436.083 154.139 437.055 156.349 438.958C158.558 440.862 159.942 443.55 160.208 446.454C160.208 446.534 160.208 446.599 160.208 446.679C160.706 453.219 171.457 487.046 173.9 494.535C174.032 494.945 174.308 495.295 174.677 495.519C175.046 495.743 175.483 495.827 175.908 495.756C176.148 495.716 176.378 495.628 176.582 495.496C176.787 495.365 176.963 495.193 177.1 494.992C177.237 494.791 177.331 494.564 177.378 494.325C177.424 494.086 177.422 493.841 177.371 493.603C175.442 484.829 167.166 447 164.177 427.974C164.177 427.974 104.076 430.802 90.4653 427.395C82.2843 425.352 74.4529 422.102 67.2284 417.753C67.2284 417.753 63.8376 417.769 64.4001 424.567Z" fill="#247D7E" stroke="#247D7E" stroke-linecap="round" stroke-linejoin="round"/>
<path d="M59.322 324.79C59.322 324.79 38.8973 388.844 42.2881 400.19C45.6788 411.535 62.1342 427.396 68.3693 427.396C74.6044 427.396 79.7146 365.045 79.7146 359.372C79.7146 353.7 68.9639 333.339 65.541 324.79C62.1182 316.241 59.322 324.79 59.322 324.79Z" fill="#1DC3C4" stroke="#247D7E" stroke-linecap="round" stroke-linejoin="round"/>
<path d="M170.911 420.598C170.702 427.026 169.705 431.943 167.022 431.943C161.928 431.943 106.358 437.6 93.3258 437.038C80.2932 436.475 70.6514 429.758 70.6514 420.116C70.6514 410.474 71.2138 367.954 80.8557 362.265C90.4975 356.576 141.519 356.03 153.427 356.03C168.082 356.03 168.709 384.345 169.336 393.938C169.513 396.702 171.232 410.474 170.911 420.598Z" fill="#1DC3C4" stroke="#247D7E" stroke-linecap="round" stroke-linejoin="round"/>
<path d="M156.255 421.16C156.255 421.16 192.541 422.301 195.369 416.629C198.197 410.956 195.369 399.048 188.009 396.783C180.649 394.517 150.02 396.22 150.02 396.22L156.255 421.16Z" fill="white" stroke="#247D7E" stroke-linecap="round" stroke-linejoin="round"/>
<path d="M68.3694 367.873C66.2115 375.45 65.2571 383.318 65.5411 391.191C66.1035 403.677 69.5103 416.147 86.4318 426.351C103.353 436.556 159.003 424.648 159.003 424.648L155.034 350.373C155.034 350.373 118.186 345.842 97.777 349.811C77.3684 353.78 68.9639 365.607 68.3694 367.873Z" fill="#247D7E" stroke="#247D7E" stroke-linecap="round" stroke-linejoin="round"/>
<path d="M334.115 106.546C330.034 110.844 326.835 115.899 324.698 121.427C321.661 129.944 311.634 155.463 311.939 160.316C312.244 165.169 316.487 171.259 320.745 167.917C325.004 164.574 335.32 146.657 335.931 145.741C336.542 144.825 337.152 132.065 337.152 124.159C337.152 116.253 337.683 106.241 334.115 106.546Z" fill="white" stroke="#247D7E" stroke-linecap="round" stroke-linejoin="round"/>
<path d="M343.918 133.833C347.245 133.19 423.207 149.903 423.207 158.468C423.207 167.033 406.06 214.182 406.06 214.182L333.216 194.898C333.216 194.898 334.678 135.681 343.918 133.833Z" fill="#1DC3C4" stroke="#247D7E" stroke-linecap="round" stroke-linejoin="round"/>
<path d="M369.581 96.8241C369.581 96.8241 353.174 94.9921 341.62 100.777C330.066 106.562 330.082 116.268 330.692 125.685C331.303 135.102 334.437 185.899 335.353 189.547C336.269 193.195 357.127 192.23 369.276 194.657C381.425 197.083 389.942 187.056 391.774 183.103C393.606 179.15 414.866 140.566 414.866 132.37C414.866 124.175 406.06 108.667 393.589 101.372C386.385 97.0412 377.87 95.4283 369.581 96.8241V96.8241Z" fill="white" stroke="#247D7E" stroke-linecap="round" stroke-linejoin="round"/>
<path d="M358.027 128.112L361.369 135.408L348.305 180.981L351.342 189.788L360.164 183.103L365.017 136.323L371.702 129.028L368.36 120.816L358.027 128.112Z" fill="#247D7E" stroke="#247D7E" stroke-linecap="round" stroke-linejoin="round"/>
<path d="M358.943 109.278C357.146 112.7 355.62 116.257 354.38 119.917C353.561 123.914 353.157 127.985 353.174 132.065C353.174 132.065 362.897 127.502 365.628 127.502C368.36 127.502 373.824 139.972 373.824 139.972C373.824 139.972 382.036 127.807 383.257 119.081C384.478 110.355 375.045 103.895 368.36 103.895C366.454 103.877 364.578 104.366 362.923 105.312C361.268 106.258 359.895 107.627 358.943 109.278V109.278Z" fill="white" stroke="#247D7E" stroke-linecap="round" stroke-linejoin="round"/>
<path d="M393.574 100.472C393.574 100.472 396.627 95.9082 397.222 100.167C397.816 104.425 394.185 107.752 392.063 108.973C391.527 109.343 390.891 109.541 390.239 109.541C389.588 109.541 388.952 109.343 388.416 108.973" fill="white"/>
<path d="M393.574 100.472C393.574 100.472 396.627 95.9082 397.222 100.167C397.816 104.425 394.185 107.752 392.063 108.973C391.527 109.343 390.891 109.541 390.239 109.541C389.588 109.541 388.952 109.343 388.416 108.973" stroke="#247D7E" stroke-linecap="round" stroke-linejoin="round"/>
<path d="M362.591 82.8437C362.591 82.8437 359.554 80.4172 357.77 85.2702C355.986 90.1233 358.992 96.2137 358.992 96.2137L362.029 89.7858" fill="white"/>
<path d="M362.591 82.8437C362.591 82.8437 359.554 80.4172 357.77 85.2702C355.986 90.1233 358.992 96.2137 358.992 96.2137L362.029 89.7858" stroke="#247D7E" stroke-linecap="round" stroke-linejoin="round"/>
<path d="M362.591 123.564C362.454 124.03 362.429 124.521 362.518 124.998C362.607 125.475 362.809 125.924 363.105 126.308C363.401 126.693 363.785 127.001 364.223 127.208C364.662 127.416 365.144 127.516 365.629 127.501C369.582 127.807 377.777 119.306 378.388 117.474C378.999 115.642 362.591 123.564 362.591 123.564Z" fill="white" stroke="#247D7E" stroke-linecap="round" stroke-linejoin="round"/>
<path d="M376.877 64.3151C376.877 64.3151 366.239 69.1361 363.813 76.7692C361.386 84.4024 357.385 99.8615 357.385 105.695C357.385 111.528 359.201 123.372 363.154 125.139C367.107 126.907 380.172 118.454 383.803 116.028C387.435 113.601 391.71 104.184 396.274 98.7045C400.837 93.2247 404.469 83.2132 402.702 75.0176C400.934 66.822 387.499 57.0194 376.877 64.3151Z" fill="white" stroke="#247D7E" stroke-linecap="round" stroke-linejoin="round"/>
<path d="M402.701 74.9534C400.869 66.7418 387.499 57.0195 376.876 64.3152C376.876 64.3152 366.238 69.1362 363.812 76.7693C362.655 80.385 361.16 85.7684 359.907 91.0553C361.98 87.8414 365.419 82.2973 365.628 81.0278C365.933 79.1958 365.933 78.8905 368.054 78.8905C370.175 78.8905 374.129 84.9649 379.608 86.1862C385.088 87.4075 392.368 86.4915 392.368 89.5287C392.368 92.5659 388.109 97.435 390.841 98.9456C392.978 100.135 391.066 104.233 391.259 106.016C392.773 103.443 394.464 100.978 396.321 98.6403C400.869 93.1765 404.516 83.149 402.701 74.9534Z" fill="#247D7E" stroke="#247D7E" stroke-linecap="round" stroke-linejoin="round"/>
<path d="M362.897 93.7871C362.897 93.7871 373.535 98.9455 378.693 100.777C383.852 102.609 389.026 104.715 387.194 108.057C385.362 111.4 379.304 112.878 375.656 111.4C372.008 109.921 372.924 102.288 370.835 101.983C368.746 101.677 367.203 105.631 363.25 105.631C359.297 105.631 355.038 99.5562 355.649 95.2977C356.26 91.0392 362.897 93.7871 362.897 93.7871Z" fill="white" stroke="#247D7E" stroke-linecap="round" stroke-linejoin="round"/>
<path d="M388.11 105.02L395.1 98.0293" stroke="#247D7E" stroke-linecap="round" stroke-linejoin="round"/>
<path d="M357.433 93.4817L361.064 85.27" stroke="#247D7E" stroke-linecap="round" stroke-linejoin="round"/>
<path d="M442.281 157.921C442.281 157.921 422.13 175.855 416.907 181.046C411.685 186.236 411.443 196.215 416.409 198.449C421.375 200.683 437.059 191.491 439.533 189.498C442.008 187.506 448.741 159.159 442.281 157.921Z" fill="#247D7E" stroke="#247D7E" stroke-linecap="round" stroke-linejoin="round"/>
<path d="M492.659 202.756C492.659 202.756 519.737 229.818 514.321 238.479C508.906 247.141 456.936 274.218 456.936 274.218L447.182 231.987L492.659 202.756Z" fill="#1DC3C4" stroke="#247D7E" stroke-linecap="round" stroke-linejoin="round"/>
<path d="M457.933 156.186C457.933 156.186 446.508 155.189 442.281 157.921C438.055 160.653 435.066 186.027 434.246 201.197C433.427 216.367 431.514 228.516 432.511 231.521C433.507 234.526 459.363 267.083 463.043 271.567C466.723 276.05 496.87 230.284 501.097 221.076C505.323 211.868 502.591 203.399 497.111 190.752C491.631 178.105 479.965 166.374 473.007 159.914C471.014 158.07 468.586 156.76 465.95 156.109C463.314 155.457 460.556 155.483 457.933 156.186V156.186Z" fill="#247D7E" stroke="#247D7E" stroke-linecap="round" stroke-linejoin="round"/>
<path d="M457.692 186.269L457.515 187.233C457.194 189.017 456.503 193.098 455.908 197.71C455.153 203.929 455.41 212.173 457.403 212.173C459.395 212.173 485.493 193.275 485.991 176.129C486.489 158.982 459.684 179.069 457.692 186.269Z" fill="white" stroke="#247D7E" stroke-linecap="round" stroke-linejoin="round"/>
<path d="M456.454 152.458C456.454 152.458 453.964 161.65 453.964 163.144C454.151 164.909 454.485 166.656 454.96 168.367C454.96 168.367 450.734 175.084 451.232 175.823C451.822 176.552 452.484 177.22 453.208 177.816C453.208 177.816 452.726 187.265 454.703 189.257C456.679 191.25 464.907 189.997 464.907 189.997C464.907 189.997 460.922 194.978 465.405 195.219C469.889 195.46 481.812 185.578 485.3 179.808C488.787 174.039 488.514 163.642 485.3 158.42C482.086 153.197 462.914 145.982 456.454 152.458Z" fill="white" stroke="#247D7E" stroke-linecap="round" stroke-linejoin="round"/>
<path d="M478.085 134.54C478.085 134.54 458.929 137.031 455.458 144.487C451.987 151.944 459.926 161.152 465.647 162.405C468.742 163.134 471.917 163.463 475.096 163.385C475.096 163.385 469.134 168.608 472.862 169.813C476.59 171.019 478.326 170.312 478.326 171.549C478.326 172.786 474.597 176.772 477.827 177.029C481.057 177.286 482.054 171.549 484.046 172.802C486.039 174.056 483.307 179.005 484.304 179.23C485.3 179.455 494.749 169.588 498.766 159.079C502.784 148.569 497.272 142.173 493.303 138.702C489.333 135.231 482.809 133.303 478.085 134.54Z" fill="#247D7E" stroke="#247D7E" stroke-linecap="round" stroke-linejoin="round"/>
<path d="M478.085 178.057C478.085 178.057 481.572 170.022 483.805 171.854C486.039 173.686 485.3 179.31 482.809 181.303C480.318 183.296 475.594 181.046 475.594 181.046" fill="white"/>
<path d="M478.085 178.057C478.085 178.057 481.572 170.022 483.805 171.854C486.039 173.686 485.3 179.31 482.809 181.303C480.318 183.296 475.594 181.046 475.594 181.046" stroke="#247D7E" stroke-linecap="round" stroke-linejoin="round"/>
<path d="M455.957 199.944L463.912 195.975L462.674 207.899" fill="white"/>
<path d="M455.957 199.944L463.912 195.975L462.674 207.899" stroke="#247D7E" stroke-linecap="round" stroke-linejoin="round"/>
<path d="M519.239 411.149C519.239 411.149 504.937 439.304 505.499 444.414C505.965 448.576 515.881 480.362 519.512 491.868C519.651 492.323 519.676 492.805 519.584 493.273C519.493 493.74 519.288 494.177 518.989 494.547C518.689 494.917 518.303 495.207 517.865 495.393C517.426 495.578 516.949 495.654 516.475 495.612C515.91 495.561 515.373 495.344 514.93 494.99C514.487 494.636 514.158 494.159 513.984 493.619L498.139 444.976C498.139 444.976 495.295 441.569 486.232 439.882C479.274 438.564 444.707 436.941 428.911 436.25C426.002 436.088 423.143 437.061 420.937 438.965C418.731 440.868 417.35 443.553 417.084 446.455C417.076 446.529 417.076 446.605 417.084 446.68C416.569 453.22 405.835 487.047 403.376 494.535C403.243 494.946 402.967 495.295 402.599 495.519C402.23 495.743 401.793 495.828 401.367 495.757C401.127 495.716 400.898 495.628 400.693 495.497C400.488 495.365 400.312 495.194 400.176 494.993C400.039 494.791 399.944 494.565 399.898 494.326C399.851 494.087 399.854 493.841 399.905 493.603C401.833 484.829 410.109 447.001 413.114 427.974C413.114 427.974 473.199 430.803 486.81 427.396C500.421 423.989 516.427 404.336 516.427 404.336C516.427 404.336 519.802 404.336 519.239 411.149Z" fill="#247D7E" stroke="#247D7E" stroke-linecap="round" stroke-linejoin="round"/>
<path d="M528.833 317.8C528.833 317.8 544.485 383.188 540.259 394.244C536.032 405.3 518.484 419.955 512.265 419.473C506.046 418.991 505.516 356.447 505.934 350.791C506.351 345.134 518.596 325.577 522.614 317.269C526.631 308.961 528.833 317.8 528.833 317.8Z" fill="#1DC3C4" stroke="#247D7E" stroke-linecap="round" stroke-linejoin="round"/>
<path d="M406.429 420.598C406.622 427.026 407.635 431.943 410.302 431.943C415.412 431.943 470.965 437.6 484.014 437.038C497.063 436.475 506.64 429.758 506.64 420.116C506.64 410.474 506.062 367.873 496.42 362.265C486.778 356.657 435.757 356.03 423.849 356.03C409.193 356.03 408.55 384.345 407.94 393.938C407.763 396.702 406.06 410.474 406.429 420.598Z" fill="#1DC3C4" stroke="#247D7E" stroke-linecap="round" stroke-linejoin="round"/>
<path d="M502.591 367.857C502.591 367.857 497.899 379.315 497.899 388.411C497.899 397.506 493.496 415.408 484.4 420.679C475.305 425.95 465.116 428.906 450.059 426.85C435.002 424.793 402.235 419.506 402.235 419.506C402.235 419.506 435.982 395.401 444.483 383.413C452.984 371.425 455.924 361.413 462.674 354.664C469.423 347.915 501.996 341.166 502.591 367.857Z" fill="#247D7E" stroke="#247D7E" stroke-linecap="round" stroke-linejoin="round"/>
<path d="M300.674 458.973C400.297 458.973 481.058 396.559 481.058 319.568C481.058 242.576 400.297 180.162 300.674 180.162C201.051 180.162 120.291 242.576 120.291 319.568C120.291 396.559 201.051 458.973 300.674 458.973Z" fill="#247D7E" stroke="#247D7E" stroke-linecap="round" stroke-linejoin="round"/>
<path d="M300.674 454.795C400.297 454.795 481.058 392.381 481.058 315.389C481.058 238.398 400.297 175.984 300.674 175.984C201.051 175.984 120.291 238.398 120.291 315.389C120.291 392.381 201.051 454.795 300.674 454.795Z" fill="#1DC3C4" stroke="#247D7E" stroke-linecap="round" stroke-linejoin="round"/>
<path d="M390.054 229.786L412.938 254.903L372.394 283.989L349.028 255.642L390.054 229.786Z" fill="white" stroke="#247D7E" stroke-linecap="round" stroke-linejoin="round"/>
<path d="M266.285 231.955L228.843 251.206L262.011 291.847L300.514 266.183L266.285 231.955Z" fill="white" stroke="#247D7E" stroke-linecap="round" stroke-linejoin="round"/>
<path d="M323.059 272.66L285.632 291.911L318.784 332.552L357.287 306.888L323.059 272.66Z" fill="white" stroke="#247D7E" stroke-linecap="round" stroke-linejoin="round"/>
<path d="M318.881 275.616L278.562 287.669L303.695 333.709L346.247 315.534L318.881 275.616Z" fill="white" stroke="#247D7E" stroke-linecap="round" stroke-linejoin="round"/>
<path d="M270.768 209.12C270.768 209.12 278.048 206.404 278.048 208.22C278.048 210.036 278.048 211.851 274.834 212.767C271.62 213.683 260.741 211.402 263.472 210.036C265.803 209.179 268.298 208.866 270.768 209.12V209.12Z" fill="white" stroke="#247D7E" stroke-linecap="round" stroke-linejoin="round"/>
<path d="M230.498 131.021C230.498 131.021 221.065 134.347 216.34 140.197C211.616 146.046 209.398 161.296 208.305 167.965C207.212 174.634 202.199 199.912 204.979 202.965C207.759 206.018 237.472 216.303 243.305 217.974C249.139 219.646 256.161 222.136 259.986 221.863C262.78 221.462 265.443 220.417 267.763 218.81C267.763 218.81 274.432 221.863 276.088 221.863C277.743 221.863 279.976 218.81 278.032 215.741C276.088 212.671 270.672 208.22 267.619 208.22C264.566 208.22 253.317 209.907 253.317 209.907C253.317 209.907 234.145 200.185 228.585 196.296C225.1 193.82 221.846 191.034 218.863 187.972L230.257 152.41" fill="#247D7E"/>
<path d="M230.498 131.021C230.498 131.021 221.065 134.347 216.34 140.197C211.616 146.046 209.398 161.296 208.305 167.965C207.212 174.634 202.199 199.912 204.979 202.965C207.759 206.018 237.472 216.303 243.305 217.974C249.139 219.646 256.161 222.136 259.986 221.863C262.78 221.462 265.443 220.417 267.763 218.81C267.763 218.81 274.432 221.863 276.088 221.863C277.743 221.863 279.976 218.81 278.032 215.741C276.088 212.671 270.672 208.22 267.619 208.22C264.566 208.22 253.317 209.907 253.317 209.907C253.317 209.907 234.145 200.185 228.585 196.296C225.1 193.82 221.846 191.034 218.863 187.972L230.257 152.41" stroke="#247D7E" stroke-linecap="round" stroke-linejoin="round"/>
<path d="M267.587 208.22C264.533 208.22 253.285 209.907 253.285 209.907C253.285 209.907 251.163 208.847 248.142 207.272C245.796 208.864 244 211.143 243 213.796C242.644 215.074 242.444 216.391 242.405 217.717L243.273 217.974C249.106 219.581 256.129 222.137 259.953 221.863C262.748 221.462 265.41 220.417 267.731 218.81C267.731 218.81 274.4 221.863 276.055 221.863C277.711 221.863 279.944 218.81 278 215.741C276.055 212.671 270.64 208.22 267.587 208.22Z" fill="white" stroke="#247D7E" stroke-linecap="round" stroke-linejoin="round"/>
<path d="M140.362 158.548C139.51 158.806 133.05 165.86 132.488 174.024C131.925 182.187 138.112 195.67 139.237 197.919C140.362 200.169 138.964 204.106 141.776 204.106C144.588 204.106 153.314 191.17 153.314 191.17C153.314 191.17 163.149 191.733 164.274 189.21C165.399 186.687 156.4 172.61 154.439 166.712C152.479 160.814 145.151 157.15 140.362 158.548Z" fill="white" stroke="#247D7E" stroke-linecap="round" stroke-linejoin="round"/>
<path d="M139.799 154.338C139.819 158.207 139.442 162.068 138.674 165.86C137.549 169.797 137.276 171.774 141.487 177.96C145.714 183.521 150.321 188.783 155.274 193.709C155.274 193.709 155.837 187.281 156.126 183.585C156.415 179.889 162.024 177.671 163.149 175.984C164.273 174.297 156.962 173.172 154.15 168.11C151.337 163.048 151.337 154.338 147.4 153.486C143.463 152.635 141.278 150.401 139.799 154.338Z" fill="white" stroke="#247D7E" stroke-linecap="round" stroke-linejoin="round"/>
<path d="M177.5 137.175C177.5 137.175 185.374 134.925 183.928 127.051C182.482 119.177 168.18 113.279 152.721 114.678C137.262 116.076 130.223 126.216 128.809 136.34C127.395 146.464 138.081 156.298 139.206 157.986C140.331 159.673 138.933 161.36 142.307 162.485C144.604 163.13 147.034 163.13 149.33 162.485C150.162 163.682 151.322 164.611 152.671 165.162C154.02 165.712 155.5 165.86 156.931 165.587C161.752 164.462 160.306 154.9 162.282 153.775C164.259 152.65 165.657 148.954 171.554 145.612C177.452 142.269 177.5 137.175 177.5 137.175Z" fill="#247D7E" stroke="#247D7E" stroke-linecap="round" stroke-linejoin="round"/>
<path d="M153.587 160.525C153.587 160.525 154.149 156.025 148.525 155.463C142.901 154.9 144.315 160.284 145.44 162.775C146.565 165.265 150.486 167.274 150.486 167.274C150.486 167.274 151.9 173.702 153.876 174.297C155.853 174.891 167.648 179.921 169.946 179.118C172.244 178.314 174.446 167.869 174.446 167.869C174.446 167.869 178.383 165.892 178.383 163.932C178.383 161.971 176.631 156.298 176.631 154.965C176.631 153.631 179.733 149.613 180.295 146.528C180.857 143.443 177.483 137.24 177.483 137.24C177.483 137.24 176.069 142.302 171.569 142.302C168.521 142.232 165.496 141.762 162.57 140.904C162.57 140.904 164.82 146.801 163.133 149.34C161.445 151.879 158.633 151.301 158.071 152.426C157.508 153.551 157.797 158.613 157.508 159.737C157.219 160.862 155.274 164.735 153.587 160.525Z" fill="white" stroke="#247D7E" stroke-linecap="round" stroke-linejoin="round"/>
<path d="M180.874 191.17C180.874 191.17 182.272 202.418 185.084 206.918C187.897 211.418 199.708 228.853 199.708 228.853C199.708 228.853 198.872 234.767 199.708 236.454C201.392 239.995 202.805 243.659 203.934 247.414C203.934 248.539 206.184 249.39 206.457 247.703C206.645 246.399 206.742 245.083 206.746 243.766L211.567 251.078C211.567 251.078 214.106 253.038 214.942 251.351C215.778 249.664 215.231 240.665 215.794 237.017C216.356 233.369 213.544 228.291 211.294 226.041C209.044 223.791 206.232 219.854 205.38 219.019C204.529 218.183 200.881 204.957 199.194 195.958C197.506 186.959 193.007 181.335 189.632 180.772" fill="white"/>
<path d="M180.874 191.17C180.874 191.17 182.272 202.418 185.084 206.918C187.897 211.418 199.708 228.853 199.708 228.853C199.708 228.853 198.872 234.767 199.708 236.454C201.392 239.995 202.805 243.659 203.934 247.414C203.934 248.539 206.184 249.39 206.457 247.703C206.645 246.399 206.742 245.083 206.746 243.766L211.567 251.078C211.567 251.078 214.106 253.038 214.942 251.351C215.778 249.664 215.231 240.665 215.794 237.017C216.356 233.369 213.544 228.291 211.294 226.041C209.044 223.791 206.232 219.854 205.38 219.019C204.529 218.183 200.881 204.957 199.194 195.958C197.506 186.959 193.007 181.335 189.632 180.772" stroke="#247D7E" stroke-linecap="round" stroke-linejoin="round"/>
<path d="M214.894 251.383C215.746 249.776 215.183 240.697 215.746 237.049C216.308 233.401 213.496 228.323 211.246 226.073C209.624 224.351 208.095 222.543 206.666 220.658C203.265 221.617 200.213 223.536 197.876 226.186L199.708 228.886C199.708 228.886 198.872 234.799 199.708 236.487C201.392 240.028 202.805 243.691 203.934 247.446C203.934 248.571 206.184 249.423 206.457 247.736C206.645 246.432 206.742 245.116 206.747 243.798L211.567 251.11C211.567 251.11 214.058 252.99 214.894 251.383Z" fill="white" stroke="#247D7E" stroke-linecap="round" stroke-linejoin="round"/>
<path d="M113.365 179.921C109.694 182.83 107.117 186.897 106.053 191.459C104.093 199.333 110.553 231.392 112.24 240.665C113.927 249.937 122.364 280.839 124.903 282.848C127.442 284.857 156.962 281.16 167.649 279.2C178.335 277.239 201.395 269.076 206.216 267.662C211.037 266.248 213.528 258.952 214.926 257.538C216.324 256.124 219.425 251.351 217.738 249.664C216.051 247.976 211.31 249.664 209.302 249.664C207.293 249.664 203.677 249.391 199.74 249.391C197.79 249.443 195.911 250.13 194.389 251.349C192.866 252.567 191.782 254.249 191.303 256.14C190.765 258.272 189.809 260.277 188.491 262.037C188.491 262.037 159.566 265.975 153.347 265.975C149.3 265.945 145.258 265.666 141.246 265.139C141.246 265.139 137.871 245.727 135.332 233.642C132.793 221.558 130.511 212.269 128.583 209.168" fill="white"/>
<path d="M113.365 179.921C109.694 182.83 107.117 186.897 106.053 191.459C104.093 199.333 110.553 231.392 112.24 240.665C113.927 249.937 122.364 280.839 124.903 282.848C127.442 284.857 156.962 281.16 167.649 279.2C178.335 277.239 201.395 269.076 206.216 267.662C211.037 266.248 213.528 258.952 214.926 257.538C216.324 256.124 219.425 251.351 217.738 249.664C216.051 247.976 211.31 249.664 209.302 249.664C207.293 249.664 203.677 249.391 199.74 249.391C197.79 249.443 195.911 250.13 194.389 251.349C192.866 252.567 191.782 254.249 191.303 256.14C190.765 258.272 189.809 260.277 188.491 262.037C188.491 262.037 159.566 265.975 153.347 265.975C149.3 265.945 145.258 265.666 141.246 265.139C141.246 265.139 137.871 245.727 135.332 233.642C132.793 221.558 130.511 212.269 128.583 209.168" stroke="#247D7E" stroke-linecap="round" stroke-linejoin="round"/>
<path d="M209.269 249.664C207.309 249.664 203.645 249.391 199.708 249.391C197.758 249.443 195.879 250.131 194.356 251.349C192.833 252.567 191.75 254.25 191.271 256.14C190.732 258.272 189.777 260.277 188.459 262.038L186.418 262.311C187.229 263.991 187.73 265.804 187.896 267.662C187.981 269.694 187.857 271.73 187.527 273.737C195.851 271.101 203.597 268.417 206.184 267.662C211.005 266.264 213.496 258.952 214.894 257.538C216.292 256.124 219.393 251.351 217.706 249.664C216.019 247.977 211.246 249.664 209.269 249.664Z" fill="white" stroke="#247D7E" stroke-linecap="round" stroke-linejoin="round"/>
<path d="M190.242 302.662C190.242 302.662 197.49 303.257 199.884 303.257C202.278 303.257 218.911 301.457 216.5 298.741C214.09 296.025 195.931 293.599 195.931 293.599L190.242 302.662Z" fill="white" stroke="#247D7E" stroke-linecap="round" stroke-linejoin="round"/>
<path d="M226.464 286.352L173.643 310.81L194.164 352.463L246.085 326.205L226.464 286.352Z" fill="white" stroke="#247D7E" stroke-linecap="round" stroke-linejoin="round"/>
<path d="M191.095 300.236C191.095 300.236 197.426 300.236 198.937 301.152C200.447 302.068 206.779 307.788 207.695 306.278C208.611 304.767 204.979 301.152 203.468 299.641C201.958 298.131 200.447 296.925 200.447 296.925" fill="white"/>
<path d="M191.095 300.236C191.095 300.236 197.426 300.236 198.937 301.152C200.447 302.068 206.779 307.788 207.695 306.278C208.611 304.767 204.979 301.152 203.468 299.641C201.958 298.131 200.447 296.925 200.447 296.925" stroke="#247D7E" stroke-linecap="round" stroke-linejoin="round"/>
<path d="M141.519 279.425L195.915 293.599L187.398 306.069L130.142 299.271C130.142 299.271 116.563 280.566 141.519 279.425Z" fill="white" stroke="#247D7E" stroke-linecap="round" stroke-linejoin="round"/>
<path d="M103.017 281.803C103.017 281.803 89.759 293.052 85.3398 306.712C80.9206 320.371 78.1084 347.69 78.1084 347.69C78.1084 347.69 64.0474 367.777 64.0474 369.786C64.0474 371.794 75.6979 369.786 75.6979 369.786L64.4491 389.069C64.4491 389.069 64.4491 405.139 73.2875 413.576C77.3677 417.452 82.2637 420.365 87.6164 422.103C92.9691 423.841 98.6429 424.359 104.222 423.619C113.864 422.012 131.54 400.318 133.549 399.113C135.558 397.908 128.728 379.427 127.121 372.598C125.514 365.768 128.728 360.947 130.737 359.742C132.746 358.537 144.396 351.305 146.807 346.083C149.217 340.86 148.815 332.022 148.012 325.192C147.208 318.362 137.165 294.659 128.326 287.428C119.488 280.197 111.453 275.376 103.017 281.803Z" fill="white" stroke="#247D7E" stroke-linecap="round" stroke-linejoin="round"/>
<path d="M111.051 279.794C111.051 279.794 105.024 288.633 105.024 295.061C105.024 301.489 110.247 311.934 114.265 316.755C116.626 319.601 119.176 322.286 121.898 324.79L130.736 322.781L131.138 329.611C131.138 329.611 133.147 325.995 138.771 328.405C144.395 330.816 148.011 329.209 148.011 328.004C149.932 320.22 149.932 312.085 148.011 304.301C144.797 290.24 141.181 287.829 135.959 282.607C130.736 277.384 118.684 275.375 111.051 279.794Z" fill="white" stroke="#247D7E" stroke-linecap="round" stroke-linejoin="round"/>
<path d="M115.068 281.803C115.068 281.803 110.649 289.436 113.059 295.463C115.47 301.489 123.103 308.72 129.129 313.943C135.155 319.166 142.788 324.79 142.788 324.79C144.152 320.345 144.605 315.67 144.122 311.045C143.639 306.421 142.229 301.941 139.976 297.873C132.343 283.41 118.684 278.991 115.068 281.803Z" fill="white" stroke="#247D7E" stroke-linecap="round" stroke-linejoin="round"/>
<path d="M150.02 245.245C151.146 247.853 152.086 250.538 152.832 253.28V256.092C152.832 256.092 158.457 259.306 157.653 260.511C156.85 261.716 153.636 266.939 153.636 266.939C154.076 271.357 153.941 275.813 153.234 280.196C152.029 285.419 153.636 287.83 149.217 287.83H137.968C137.968 287.83 136.763 304.703 133.95 304.703C131.138 304.703 118.282 298.677 115.872 295.463C113.461 292.249 112.658 289.035 113.461 286.624C115.962 280.185 118.108 273.613 119.889 266.939C121.496 259.707 133.549 254.083 136.361 252.878C139.173 251.673 150.02 245.245 150.02 245.245Z" fill="white" stroke="#247D7E" stroke-linecap="round" stroke-linejoin="round"/>
<path d="M105.427 273.769C105.427 273.769 95.7852 272.162 90.9643 272.965C86.1434 273.769 80.1172 280.598 80.1172 287.428C80.1172 294.258 85.3399 298.275 93.7765 299.079C102.213 299.882 107.838 292.651 107.838 288.633C107.842 283.581 107.028 278.561 105.427 273.769Z" fill="#247D7E" stroke="#247D7E" stroke-linecap="round" stroke-linejoin="round"/>
<path d="M129.933 271.76C129.933 271.76 145.199 255.288 150.02 245.245C154.841 235.201 153.234 224.756 145.601 224.756C137.968 224.756 129.531 222.345 115.069 227.568C100.606 232.79 94.5796 249.664 95.3831 258.502C96.1866 267.34 109.444 285.419 116.274 286.624C123.103 287.829 123.103 275.777 123.103 275.777L129.933 271.76Z" fill="#247D7E" stroke="#247D7E" stroke-linecap="round" stroke-linejoin="round"/>
<path d="M131.941 274.572C131.941 274.572 128.326 266.537 123.907 268.948C119.487 271.358 123.505 280.197 126.317 282.206C129.129 284.214 133.548 281 133.548 281" fill="white"/>
<path d="M131.941 274.572C131.941 274.572 128.326 266.537 123.907 268.948C119.487 271.358 123.505 280.197 126.317 282.206C129.129 284.214 133.548 281 133.548 281" stroke="#247D7E" stroke-linecap="round" stroke-linejoin="round"/>
<path d="M152.832 256.091C152.832 256.091 151.226 261.314 149.217 262.117" stroke="#247D7E" stroke-linecap="round" stroke-linejoin="round"/>
<path d="M183.638 328.84C183.638 328.84 180.553 326.783 180.151 329.45C179.749 332.118 182.819 334.994 182.819 334.994C182.819 334.994 178.914 330.688 178.705 333.146C178.496 335.605 180.971 338.288 180.971 338.288C180.971 338.288 177.885 336.842 177.885 338.08C177.885 339.317 182.208 343.624 182.401 345.665C182.594 347.705 186.515 341.358 187.334 336.44C187.508 334.953 187.253 333.446 186.598 332.099C185.943 330.752 184.916 329.621 183.638 328.84Z" fill="white" stroke="#247D7E" stroke-linecap="round" stroke-linejoin="round"/>
<path d="M177.741 359.34C178.711 355.787 179.383 352.158 179.749 348.493C179.749 345.279 183.365 339.655 184.972 336.441C186.579 333.227 179.749 327.602 182.963 325.995C186.177 324.388 188.588 327.602 191.4 331.218C194.212 334.834 195.016 342.467 192.605 347.689C190.332 352.522 187.354 356.99 183.767 360.947C182.59 362.207 181.237 363.289 179.749 364.161L177.741 359.34Z" fill="white" stroke="#247D7E" stroke-linecap="round" stroke-linejoin="round"/>
<path d="M180.777 351.627V341.455C180.777 336.36 183.638 328.84 183.638 328.84C184.108 328.776 184.587 328.831 185.031 328.999C185.475 329.167 185.87 329.442 186.181 329.801C186.492 330.16 186.709 330.59 186.812 331.054C186.915 331.517 186.901 331.999 186.771 332.456C186.508 335.761 186.708 339.088 187.366 342.338" fill="white"/>
<path d="M180.777 351.627V341.455C180.777 336.36 183.638 328.84 183.638 328.84C184.108 328.776 184.587 328.831 185.031 328.999C185.475 329.167 185.87 329.442 186.181 329.801C186.492 330.16 186.709 330.59 186.812 331.054C186.915 331.517 186.901 331.999 186.771 332.456C186.508 335.761 186.708 339.088 187.366 342.338" stroke="#247D7E" stroke-linecap="round" stroke-linejoin="round"/>
<path d="M91.7666 345.681C91.7666 345.681 86.1422 353.716 88.9544 362.554C91.7666 371.393 131.941 424.825 137.565 424.825C143.19 424.825 183.766 372.196 186.177 368.982C188.587 365.768 178.142 357.733 178.142 357.733L137.565 394.694C137.565 394.694 126.718 351.305 122.299 343.271C117.88 335.236 107.435 334.432 107.435 334.432" fill="white"/>
<path d="M91.7666 345.681C91.7666 345.681 86.1422 353.716 88.9544 362.554C91.7666 371.393 131.941 424.825 137.565 424.825C143.19 424.825 183.766 372.196 186.177 368.982C188.587 365.768 178.142 357.733 178.142 357.733L137.565 394.694C137.565 394.694 126.718 351.305 122.299 343.271C117.88 335.236 107.435 334.432 107.435 334.432" stroke="#247D7E" stroke-linecap="round" stroke-linejoin="round"/>
<path d="M286.067 175.47C286.067 175.47 291.611 169.363 297.444 168.238C303.278 167.114 306.331 171.019 304.676 177.961C303.021 184.903 297.734 186.574 294.664 186.301C291.595 186.028 286.63 184.694 285.231 181.03C284.783 180.129 284.623 179.113 284.773 178.118C284.922 177.123 285.374 176.199 286.067 175.47Z" fill="#247D7E" stroke="#247D7E" stroke-linecap="round" stroke-linejoin="round"/>
<path d="M289.394 173.798C289.394 173.798 277.454 175.405 274.674 177.414C271.894 179.423 265.498 190.189 265.498 191.571C265.498 192.953 269.387 194.351 271.331 194.351C273.276 194.351 278.29 187.682 278.29 187.682L275.783 194.641C275.783 194.641 278.29 194.351 278.563 193.243C278.836 192.134 282.725 184.629 282.725 184.629C282.725 184.629 289.956 184.918 291.901 181.576C293.845 178.233 295.227 176.016 289.394 173.798Z" fill="white" stroke="#247D7E" stroke-linecap="round" stroke-linejoin="round"/>
<path d="M313.369 155.463C313.369 155.463 310.027 166.712 310.027 173.686C310.027 180.66 314.832 203.174 314.832 203.174C314.166 206.984 312.503 210.549 310.011 213.507C306.057 217.765 307.279 223.534 309.095 225.35C310.91 227.166 314.574 230.525 315.78 228.388C316.985 226.25 316.085 222.313 317.306 220.803C318.528 219.292 323.075 216.849 323.734 212.286C324.393 207.722 323.429 193.757 323.429 186.156C323.429 178.555 327.382 167.322 323.124 159.432" fill="white"/>
<path d="M313.369 155.463C313.369 155.463 310.027 166.712 310.027 173.686C310.027 180.66 314.832 203.174 314.832 203.174C314.166 206.984 312.503 210.549 310.011 213.507C306.057 217.765 307.279 223.534 309.095 225.35C310.91 227.166 314.574 230.525 315.78 228.388C316.985 226.25 316.085 222.313 317.306 220.803C318.528 219.292 323.075 216.849 323.734 212.286C324.393 207.722 323.429 193.757 323.429 186.156C323.429 178.555 327.382 167.322 323.124 159.432" stroke="#247D7E" stroke-linecap="round" stroke-linejoin="round"/>
<path d="M323.75 199.574C318.817 198.594 316.101 200.265 314.655 202.065C314.8 202.756 314.896 203.158 314.896 203.158C314.231 206.968 312.567 210.533 310.075 213.491C306.122 217.749 307.343 223.518 309.159 225.334C310.975 227.15 314.639 230.509 315.844 228.371C317.049 226.234 316.149 222.297 317.371 220.786C318.592 219.276 323.14 216.833 323.799 212.269C324.037 208.041 324.021 203.801 323.75 199.574Z" fill="white" stroke="#247D7E" stroke-linecap="round" stroke-linejoin="round"/>
<path d="M332.203 199.205L303.037 232.324L332.509 253.295L360.759 217.444L332.203 199.205Z" fill="white" stroke="#247D7E" stroke-linecap="round" stroke-linejoin="round"/>
<path d="M319.443 212.816C319.443 212.816 319.749 223.149 319.749 224.676C319.749 226.202 323.091 228.018 323.397 224.37C323.446 222.333 323.65 220.302 324.007 218.296C324.312 217.38 326.128 211.611 323.702 207.352" fill="white"/>
<path d="M319.443 212.816C319.443 212.816 319.749 223.149 319.749 224.676C319.749 226.202 323.091 228.018 323.397 224.37C323.446 222.333 323.65 220.302 324.007 218.296C324.312 217.38 326.128 211.611 323.702 207.352" stroke="#247D7E" stroke-linecap="round" stroke-linejoin="round"/>
<path d="M401.48 132.37C401.48 132.37 393.284 141.482 389.331 150.047C385.378 158.612 382.341 180.419 382.341 180.419C382.341 180.419 366.544 206.243 364.407 208.381C362.27 210.518 363.507 210.196 358.333 212.623C353.158 215.049 346.489 216.271 345.573 217.797C344.657 219.324 341.315 226.604 340.415 227.52C339.515 228.436 341.62 230.251 342.841 229.03C344.063 227.809 348.305 222.956 348.305 222.956L343.147 235.105C343.156 235.328 343.211 235.546 343.31 235.746C343.408 235.947 343.547 236.124 343.718 236.268C343.889 236.412 344.088 236.518 344.302 236.581C344.516 236.643 344.741 236.66 344.963 236.631C347.191 236.216 349.353 235.503 351.39 234.51C351.39 234.51 356.565 233.289 358.381 230.862C360.197 228.436 366.898 215.355 366.898 215.355C366.898 215.355 384.575 204.106 390.89 196.521C395.834 190.528 399.739 183.749 402.444 176.466C403.344 173.429 414.593 139.714 414.288 134.235C413.982 128.755 411.25 127.807 411.25 127.807" fill="white"/>
<path d="M401.48 132.37C401.48 132.37 393.284 141.482 389.331 150.047C385.378 158.612 382.341 180.419 382.341 180.419C382.341 180.419 366.544 206.243 364.407 208.381C362.27 210.518 363.507 210.196 358.333 212.623C353.158 215.049 346.489 216.271 345.573 217.797C344.657 219.324 341.315 226.604 340.415 227.52C339.515 228.436 341.62 230.251 342.841 229.03C344.063 227.809 348.305 222.956 348.305 222.956L343.147 235.105C343.156 235.328 343.211 235.546 343.31 235.746C343.408 235.947 343.547 236.124 343.718 236.268C343.889 236.412 344.088 236.518 344.302 236.581C344.516 236.643 344.741 236.66 344.963 236.631C347.191 236.216 349.353 235.503 351.39 234.51C351.39 234.51 356.565 233.289 358.381 230.862C360.197 228.436 366.898 215.355 366.898 215.355C366.898 215.355 384.575 204.106 390.89 196.521C395.834 190.528 399.739 183.749 402.444 176.466C403.344 173.429 414.593 139.714 414.288 134.235C413.982 128.755 411.25 127.807 411.25 127.807" stroke="#247D7E" stroke-linecap="round" stroke-linejoin="round"/>
<path d="M363.507 209.297C362.511 210.438 362.543 210.598 358.333 212.511C353.174 214.953 346.489 216.158 345.573 217.685C344.657 219.212 341.315 226.491 340.415 227.407C339.515 228.323 341.62 230.139 342.841 228.918C344.063 227.697 348.305 222.843 348.305 222.843L343.147 234.992C343.156 235.215 343.211 235.434 343.31 235.634C343.408 235.834 343.547 236.012 343.718 236.156C343.889 236.299 344.088 236.406 344.302 236.468C344.516 236.531 344.741 236.548 344.963 236.519C347.191 236.104 349.353 235.391 351.39 234.398C351.39 234.398 356.565 233.176 358.381 230.75C360.197 228.323 366.898 215.242 366.898 215.242C366.898 215.242 367.991 214.551 369.758 213.378C368.139 211.413 365.958 209.989 363.507 209.297Z" fill="white" stroke="#247D7E" stroke-linecap="round" stroke-linejoin="round"/>
<path d="M484.046 218.842C484.046 218.842 477.329 231.521 476.091 236.519C474.854 241.517 472.877 246.964 472.877 246.964C472.877 246.964 460.439 244.972 449.753 243.75C439.067 242.529 423.897 239.765 420.153 239.026C416.408 238.287 409.466 236.278 407.972 237.531C406.477 238.785 407.473 238.528 409.225 239.267C410.672 239.709 412.204 239.797 413.692 239.524C413.692 239.524 411.202 240.263 408.47 241.26C405.738 242.256 400.756 243.991 400.017 244.988C399.278 245.984 401.013 249.471 403.745 249.471C405.816 249.34 407.893 249.34 409.964 249.471C411.459 249.712 412.198 251.207 417.18 251.207C422.161 251.207 429.103 247.221 429.103 247.221C429.103 247.221 452.485 257.924 465.662 260.158C478.839 262.391 480.832 259.418 486.312 255.176C491.792 250.934 507.685 224.852 506.447 219.63C505.638 216.361 504.291 213.249 502.462 210.422" fill="#247D7E"/>
<path d="M484.046 218.842C484.046 218.842 477.329 231.521 476.091 236.519C474.854 241.517 472.877 246.964 472.877 246.964C472.877 246.964 460.439 244.972 449.753 243.75C439.067 242.529 423.897 239.765 420.153 239.026C416.408 238.287 409.466 236.278 407.972 237.531C406.477 238.785 407.473 238.528 409.225 239.267C410.672 239.709 412.204 239.797 413.692 239.524C413.692 239.524 411.202 240.263 408.47 241.26C405.738 242.256 400.756 243.991 400.017 244.988C399.278 245.984 401.013 249.471 403.745 249.471C405.816 249.34 407.893 249.34 409.964 249.471C411.459 249.712 412.198 251.207 417.18 251.207C422.161 251.207 429.103 247.221 429.103 247.221C429.103 247.221 452.485 257.924 465.662 260.158C478.839 262.391 480.832 259.418 486.312 255.176C491.792 250.934 507.685 224.852 506.447 219.63C505.638 216.361 504.291 213.249 502.462 210.422" stroke="#247D7E" stroke-linecap="round" stroke-linejoin="round"/>
<path d="M434.455 241.516C427.946 240.456 422.242 239.411 420.136 238.993C416.408 238.238 409.45 236.246 407.956 237.499C406.461 238.752 407.457 238.495 409.209 239.235C410.656 239.677 412.188 239.765 413.676 239.492C413.676 239.492 411.186 240.231 408.454 241.227C405.722 242.224 400.74 243.959 400.001 244.955C399.262 245.952 400.997 249.439 403.729 249.439C405.8 249.307 407.877 249.307 409.948 249.439C411.443 249.68 412.182 251.174 417.163 251.174C422.145 251.174 429.087 247.189 429.087 247.189C429.087 247.189 430.919 248.025 433.828 249.278L434.455 241.516Z" fill="white" stroke="#247D7E" stroke-linecap="round" stroke-linejoin="round"/>
<path d="M418.402 180.548C418.402 180.548 406.719 186.269 402.235 190.19C397.752 194.111 386.567 219.276 386.326 221.012C386.085 222.747 394.779 223.759 395.775 223.261C396.772 222.763 414.432 202.371 418.9 198.883C420.134 198.08 421.055 196.877 421.508 195.476C421.961 194.075 421.92 192.56 421.39 191.186" fill="#247D7E"/>
<path d="M418.402 180.548C418.402 180.548 406.719 186.269 402.235 190.19C397.752 194.111 386.567 219.276 386.326 221.012C386.085 222.747 394.779 223.759 395.775 223.261C396.772 222.763 414.432 202.371 418.9 198.883C420.134 198.08 421.055 196.877 421.508 195.476C421.961 194.075 421.92 192.56 421.39 191.186" stroke="#247D7E" stroke-linecap="round" stroke-linejoin="round"/>
<path d="M390.553 215.869C386.852 216.652 383.198 217.644 379.609 218.842C376.62 220.095 369.662 229.046 371.398 229.544C373.133 230.042 377.826 224.322 377.826 224.322C376.174 226.662 374.758 229.159 373.599 231.778C373.101 233.771 372.603 238.206 374.595 237.499C376.588 236.792 380.557 231.28 380.557 231.28C380.557 231.28 385.523 228.291 389.508 228.291C393.494 228.291 396.225 220.834 396.225 220.834C396.225 220.834 399.439 217.621 398.218 214.117C396.997 210.614 390.553 215.869 390.553 215.869Z" fill="white" stroke="#247D7E" stroke-linecap="round" stroke-linejoin="round"/>
<path d="M397.27 213.877C396.286 213.916 395.307 213.735 394.403 213.346C393.499 212.956 392.694 212.369 392.047 211.627C390.055 209.152 388.833 211.627 388.833 214.118C388.864 214.843 389.118 215.542 389.561 216.117C390.004 216.692 390.614 217.117 391.308 217.331C391.308 217.331 387.082 221.317 389.572 222.554C390.395 222.88 391.288 222.983 392.162 222.853C393.037 222.723 393.862 222.365 394.554 221.815" fill="white"/>
<path d="M397.27 213.877C396.286 213.916 395.307 213.735 394.403 213.346C393.499 212.956 392.694 212.369 392.047 211.627C390.055 209.152 388.833 211.627 388.833 214.118C388.864 214.843 389.118 215.542 389.561 216.117C390.004 216.692 390.614 217.117 391.308 217.331C391.308 217.331 387.082 221.317 389.572 222.554C390.395 222.88 391.288 222.983 392.162 222.853C393.037 222.723 393.862 222.365 394.554 221.815" stroke="#247D7E" stroke-linecap="round" stroke-linejoin="round"/>
<path d="M484.69 278.701C484.69 278.701 472.364 276.355 467.961 275.488C463.558 274.62 449.175 280.485 445.077 281.915C440.98 283.346 445.077 284.567 449.481 285.435C453.884 286.302 462.674 284.567 462.674 284.567C462.674 284.567 453.032 288.665 455.346 289.259C457.66 289.854 462.385 288.665 466.499 288.375C470.612 288.086 474.71 284.262 474.71 284.262C474.71 284.262 494.38 293.903 496.726 293.903C499.072 293.903 502.591 286.865 497.594 283.924C493.474 281.763 489.152 280.014 484.69 278.701V278.701Z" fill="white" stroke="#247D7E" stroke-linecap="round" stroke-linejoin="round"/>
<path d="M489.092 289.517C481.388 295.351 474.568 302.268 468.844 310.054C460.327 322.091 458.865 346.436 460.632 353.443C462.4 360.449 463.557 368.693 472.074 374.333C480.591 379.974 486.746 382.256 501.417 374.333C516.089 366.411 523.722 340.008 522.308 319.696C520.894 299.384 508.52 285.355 502.06 283.603C495.6 281.852 489.092 289.517 489.092 289.517Z" fill="white" stroke="#247D7E" stroke-linecap="round" stroke-linejoin="round"/>
<path d="M489.992 293.325C489.992 293.325 484.705 293.92 482.07 297.439C479.434 300.959 480.302 302.132 482.07 303.016C482.623 303.371 483.092 303.843 483.444 304.398C483.796 304.953 484.024 305.578 484.111 306.23C484.111 306.23 477.956 316.209 481.186 318.25C484.416 320.291 498.782 313.557 502.607 308.608C506.431 303.658 504.664 295.398 502.318 293.052C499.971 290.706 489.992 293.325 489.992 293.325Z" fill="white" stroke="#247D7E" stroke-linecap="round" stroke-linejoin="round"/>
<path d="M486.441 255.192C484.742 257.215 482.768 258.989 480.576 260.463C478.23 261.636 475.305 262.809 477.651 264.577C478.991 265.561 480.264 266.635 481.46 267.791C481.46 267.791 478.519 277.433 479.708 283.041C479.812 283.758 480.069 284.443 480.461 285.052C480.853 285.66 481.372 286.177 481.982 286.567C482.591 286.958 483.278 287.212 483.995 287.313C484.712 287.415 485.442 287.361 486.136 287.155C486.136 287.155 485.252 301.827 484.079 306.23C482.906 310.633 488.482 310.328 492.885 307.692C497.288 305.057 497.883 294.194 499.634 286.271C501.386 278.349 511.96 268.964 504.632 260.158C497.304 251.352 486.441 255.192 486.441 255.192Z" fill="white" stroke="#247D7E" stroke-linecap="round" stroke-linejoin="round"/>
<path d="M534.281 245.213C523.418 234.06 506.962 236.696 504.648 237.29C504.648 237.29 495.488 235.056 490.185 235.94C484.882 236.824 482.906 252.01 486.136 260.463C487.288 263.497 489.465 266.033 492.29 267.63C491.76 267.164 488.627 264.207 491.648 261.861C493.442 260.388 495.573 259.384 497.851 258.936C497.851 258.936 495.295 267.325 496.388 268.803C500.856 274.749 480.768 302.791 479.981 302.341C479.981 302.341 485.846 305.651 493.19 309.17C509.405 316.964 528.544 300.332 534.554 286.287C539.343 275.199 543.955 255.144 534.281 245.213Z" fill="#247D7E" stroke="#247D7E" stroke-linecap="round" stroke-linejoin="round"/>
<path d="M376.283 287.026L361.466 349.008L391.774 362.811L403.232 304.542L376.283 287.026Z" fill="white" stroke="#247D7E" stroke-linecap="round" stroke-linejoin="round"/>
<path d="M377.31 293.438L365.001 344.941L390.182 356.415L399.712 307.981L377.31 293.438Z" fill="#247D7E" stroke="#247D7E" stroke-linecap="round" stroke-linejoin="round"/>
<path d="M403.231 304.542L444.659 306.567L436.576 366.186L391.773 362.811L403.231 304.542Z" fill="white" stroke="#247D7E" stroke-linecap="round" stroke-linejoin="round"/>
<path d="M415.428 331.025L418.433 331.154L418.738 329.225L415.781 329.016L415.428 331.025Z" fill="#247D7E"/>
<path d="M422.403 344.556L422.885 341.615L418.707 341.422L418.257 344.266L422.403 344.556Z" fill="#247D7E"/>
<path d="M415.011 322.588L415.38 320.515L411.62 320.258L411.234 322.428L415.011 322.588Z" fill="#247D7E"/>
<path d="M416.875 322.685L419.735 322.814L420.041 320.853L417.229 320.66L416.875 322.685Z" fill="#247D7E"/>
<path d="M414.657 335.541L417.71 335.766L418.144 332.986L415.107 332.857L414.657 335.541Z" fill="#247D7E"/>
<path d="M425.151 327.811L425.633 324.935L421.31 324.726L420.876 327.522L425.151 327.811Z" fill="#247D7E"/>
<path d="M412.712 314.087L416.457 314.264L417.003 311.05L413.291 310.857L412.712 314.087Z" fill="#247D7E"/>
<path d="M421.038 314.474L421.536 311.292L418.868 311.147L418.322 314.345L421.038 314.474Z" fill="#247D7E"/>
<path d="M412.391 315.92L411.941 318.443L415.686 318.7L416.136 316.08L412.391 315.92Z" fill="#247D7E"/>
<path d="M419.462 324.646L416.553 324.517L416.087 327.185L419.028 327.394L419.462 324.646Z" fill="#247D7E"/>
<path d="M420.763 316.305L417.999 316.176L417.533 318.828L420.329 319.021L420.763 316.305Z" fill="#247D7E"/>
<path d="M423.784 336.184L424.267 333.275L420.008 333.082L419.574 335.894L423.784 336.184Z" fill="#247D7E"/>
<path d="M406.8 336.842L403.73 336.633L403.329 338.867L406.414 339.012L406.8 336.842Z" fill="#247D7E"/>
<path d="M406.092 340.844L403.007 340.699L402.589 343.158L405.642 343.383L406.092 340.844Z" fill="#247D7E"/>
<path d="M405.321 345.199L402.267 344.99L401.882 347.207L404.935 347.352L405.321 345.199Z" fill="#247D7E"/>
<path d="M404.614 349.184L401.544 349.039L401.11 351.514L404.148 351.739L404.614 349.184Z" fill="#247D7E"/>
<path d="M407.571 332.504L404.469 332.359L404.051 334.802L407.121 335.027L407.571 332.504Z" fill="#247D7E"/>
<path d="M409.048 324.164L405.931 324.019L405.513 326.446L408.614 326.654L409.048 324.164Z" fill="#247D7E"/>
<path d="M410.543 315.823L407.393 315.678L406.976 318.089L410.093 318.298L410.543 315.823Z" fill="#247D7E"/>
<path d="M408.277 328.486L405.192 328.277L404.79 330.527L407.891 330.672L408.277 328.486Z" fill="#247D7E"/>
<path d="M409.772 320.13L406.655 319.905L406.253 322.187L409.37 322.332L409.772 320.13Z" fill="#247D7E"/>
<path d="M426.999 316.595L422.612 316.386L422.178 319.15L426.533 319.455L426.999 316.595Z" fill="#247D7E"/>
<path d="M403.826 353.555L400.805 353.346L400.194 356.753L403.215 357.058L403.826 353.555Z" fill="#247D7E"/>
<path d="M420.298 331.25L424.557 331.443L424.862 329.643L420.588 329.354L420.298 331.25Z" fill="#247D7E"/>
<path d="M417.678 347.931L421.824 348.123L422.113 346.372L417.967 346.083L417.678 347.931Z" fill="#247D7E"/>
<path d="M418.98 339.59L423.19 339.783L423.479 338.016L419.285 337.726L418.98 339.59Z" fill="#247D7E"/>
<path d="M417.437 337.582L414.335 337.373L413.982 339.365L417.132 339.51L417.437 337.582Z" fill="#247D7E"/>
<path d="M421.519 349.956L417.405 349.763L416.955 352.623L421.037 352.912L421.519 349.956Z" fill="#247D7E"/>
<path d="M416.666 354.455L416.055 358.36L420.073 358.762L420.731 354.744L416.666 354.455Z" fill="#247D7E"/>
<path d="M410.463 326.799L414.239 327.056L414.705 324.42L410.913 324.26L410.463 326.799Z" fill="#247D7E"/>
<path d="M410.865 313.991L411.443 310.761L408.277 310.601L407.715 313.863L410.865 313.991Z" fill="#247D7E"/>
<path d="M421.599 322.894L425.938 323.103L426.227 321.287L421.888 320.982L421.599 322.894Z" fill="#247D7E"/>
<path d="M422.901 314.553L427.304 314.762L427.818 311.613L423.383 311.388L422.901 314.553Z" fill="#247D7E"/>
<path d="M416.843 341.342L413.677 341.181L413.195 343.897L416.409 344.122L416.843 341.342Z" fill="#247D7E"/>
<path d="M411.812 341.101L407.939 340.925L407.489 343.512L411.346 343.769L411.812 341.101Z" fill="#247D7E"/>
<path d="M412.89 345.729L412.552 347.69L415.83 347.85L416.136 345.954L412.89 345.729Z" fill="#247D7E"/>
<path d="M415.541 349.682L412.231 349.522L411.749 352.27L415.107 352.495L415.541 349.682Z" fill="#247D7E"/>
<path d="M406.012 351.868L409.901 352.141L410.367 349.441L406.462 349.264L406.012 351.868Z" fill="#247D7E"/>
<path d="M411.041 345.601L407.168 345.327L406.799 347.433L410.688 347.609L411.041 345.601Z" fill="#247D7E"/>
<path d="M408.278 339.092L412.135 339.269L412.488 337.244L408.647 336.971L408.278 339.092Z" fill="#247D7E"/>
<path d="M405.674 353.684L405.047 357.235L408.952 357.637L409.595 353.957L405.674 353.684Z" fill="#247D7E"/>
<path d="M414.818 354.326L411.443 354.085L410.8 357.83L414.223 358.167L414.818 354.326Z" fill="#247D7E"/>
<path d="M413.934 328.888L410.142 328.615L409.756 330.752L413.58 330.929L413.934 328.888Z" fill="#247D7E"/>
<path d="M413.259 332.761L409.435 332.584L408.969 335.155L412.793 335.412L413.259 332.761Z" fill="#247D7E"/>
<path d="M490.554 342.627C490.554 342.627 486.778 342.981 480.35 348.204C473.922 353.426 448.371 398.02 448.371 398.02C448.371 398.02 425.183 383.557 419.317 379.54C413.452 375.522 408.759 368.098 405.529 363.695C402.299 359.292 401.705 358.697 397.302 358.408C392.898 358.119 389.684 355.194 389.09 357.235C388.495 359.276 390.263 360.176 391.436 360.754C392.462 361.148 393.551 361.35 394.65 361.349C391.881 361.766 389.056 361.136 386.728 359.581C382.324 356.946 381.151 356.367 381.151 359.292C381.151 362.216 384.365 366.925 386.728 369.85C389.09 372.774 402.572 373.964 402.572 373.964C407.466 383.41 412.957 392.535 419.012 401.282C427.802 413.608 446.588 426.817 451.874 425.049C457.161 423.282 485.026 388.378 492.66 378.688C500.293 368.998 510.336 357.556 507.91 351.112" fill="white"/>
<path d="M490.554 342.627C490.554 342.627 486.778 342.981 480.35 348.204C473.922 353.426 448.371 398.02 448.371 398.02C448.371 398.02 425.183 383.557 419.317 379.54C413.452 375.522 408.759 368.098 405.529 363.695C402.299 359.292 401.705 358.697 397.302 358.408C392.898 358.119 389.684 355.194 389.09 357.235C388.495 359.276 390.263 360.176 391.436 360.754C392.462 361.148 393.551 361.35 394.65 361.349C391.881 361.766 389.056 361.136 386.728 359.581C382.324 356.946 381.151 356.367 381.151 359.292C381.151 362.216 384.365 366.925 386.728 369.85C389.09 372.774 402.572 373.964 402.572 373.964C407.466 383.41 412.957 392.535 419.012 401.282C427.802 413.608 446.588 426.817 451.874 425.049C457.161 423.282 485.026 388.378 492.66 378.688C500.293 368.998 510.336 357.556 507.91 351.112" stroke="#247D7E" stroke-linecap="round" stroke-linejoin="round"/>
<path d="M411.346 371.762C409.048 368.885 407.072 365.945 405.465 363.727C402.251 359.324 401.64 358.729 397.237 358.44C392.834 358.151 389.62 355.226 389.025 357.267C388.431 359.308 390.198 360.208 391.372 360.786C392.397 361.18 393.487 361.382 394.586 361.381C391.817 361.798 388.992 361.168 386.663 359.613C382.26 356.978 381.087 356.399 381.087 359.324C381.087 362.249 384.301 366.957 386.663 369.882C389.025 372.806 402.508 373.996 402.508 373.996C402.508 373.996 403.102 375.153 404.115 377.033C406.023 374.673 408.516 372.856 411.346 371.762V371.762Z" fill="white" stroke="#247D7E" stroke-linecap="round" stroke-linejoin="round"/>
</svg>
