<svg width="48" height="48" viewBox="0 0 48 48" fill="none" xmlns="http://www.w3.org/2000/svg">
<path d="M33.498 4C34.6915 4 35.8361 4.47411 36.68 5.31802C37.5239 6.16193 37.998 7.30653 37.998 8.5V39.5C37.998 40.6935 37.5239 41.8381 36.68 42.682C35.8361 43.5259 34.6915 44 33.498 44H12.5C11.3065 44 10.1619 43.5259 9.31802 42.682C8.47411 41.8381 8 40.6935 8 39.5V8.5C8 7.30653 8.47411 6.16193 9.31802 5.31802C10.1619 4.47411 11.3065 4 12.5 4H33.498ZM40 30.004H41.5C41.8625 30.004 42.2127 30.1353 42.4859 30.3735C42.759 30.6118 42.9367 30.9409 42.986 31.3L43 31.504V34.5C43 34.8625 42.8687 35.2127 42.6305 35.4859C42.3922 35.759 42.0631 35.9367 41.704 35.986L41.5 36H40V30.004H41.5H40ZM40 22.004H41.5C41.8625 22.004 42.2127 22.1353 42.4859 22.3735C42.759 22.6118 42.9367 22.9409 42.986 23.3L43 23.504V26.5C43 26.8625 42.8687 27.2127 42.6305 27.4859C42.3922 27.759 42.0631 27.9367 41.704 27.986L41.5 28H40V22.004H41.5H40ZM40 14.004H41.5C41.8625 14.004 42.2127 14.1353 42.4859 14.3735C42.759 14.6118 42.9367 14.9409 42.986 15.3L43 15.504V18.5C43 18.8625 42.8687 19.2127 42.6305 19.4859C42.3922 19.759 42.0631 19.9367 41.704 19.986L41.5 20H40V14.004H41.5H40ZM29.508 10.994H16.5C16.1372 10.9941 15.7868 11.1256 15.5135 11.3643C15.2403 11.6029 15.0629 11.9325 15.014 12.292L15 12.494V15.502C15 16.262 15.566 16.888 16.298 16.988L16.5 17.002H29.506C29.8685 17.002 30.2187 16.8707 30.4919 16.6325C30.765 16.3942 30.9427 16.0651 30.992 15.706L31.006 15.502V12.494C31.006 12.0962 30.848 11.7146 30.5667 11.4333C30.2854 11.152 29.9038 10.994 29.506 10.994H29.508Z" fill="#247D7E"/>
</svg>
