<svg width="64" height="64" viewBox="0 0 64 64" fill="none" xmlns="http://www.w3.org/2000/svg">
<path d="M44.6638 5.33331C46.2551 5.33331 47.7813 5.96545 48.9065 7.09067C50.0317 8.21589 50.6638 9.74201 50.6638 11.3333V52.6666C50.6638 54.2579 50.0317 55.7841 48.9065 56.9093C47.7813 58.0345 46.2551 58.6666 44.6638 58.6666H16.6665C15.0752 58.6666 13.5491 58.0345 12.4239 56.9093C11.2986 55.7841 10.6665 54.2579 10.6665 52.6666V11.3333C10.6665 9.74201 11.2986 8.21589 12.4239 7.09067C13.5491 5.96545 15.0752 5.33331 16.6665 5.33331H44.6638ZM44.6638 9.33331H16.6665C16.1361 9.33331 15.6274 9.54403 15.2523 9.9191C14.8772 10.2942 14.6665 10.8029 14.6665 11.3333V52.6666C14.6665 53.7706 15.5625 54.6666 16.6665 54.6666H44.6638C45.1943 54.6666 45.703 54.4559 46.078 54.0809C46.4531 53.7058 46.6638 53.1971 46.6638 52.6666V11.3333C46.6638 10.8029 46.4531 10.2942 46.078 9.9191C45.703 9.54403 45.1943 9.33331 44.6638 9.33331ZM53.3332 40.0053H55.3332C55.8165 40.0053 56.2834 40.1804 56.6477 40.498C57.0119 40.8157 57.2488 41.2545 57.3145 41.7333L57.3332 42.0053V46C57.3332 46.4833 57.1581 46.9502 56.8405 47.3145C56.5228 47.6787 56.084 47.9156 55.6052 47.9813L55.3332 48H53.3332V40.0053H55.3332H53.3332ZM53.3332 29.3386H55.3332C55.8165 29.3387 56.2834 29.5137 56.6477 29.8314C57.0119 30.149 57.2488 30.5878 57.3145 31.0666L57.3332 31.3386V35.3333C57.3332 35.8166 57.1581 36.2836 56.8405 36.6478C56.5228 37.012 56.084 37.2489 55.6052 37.3146L55.3332 37.3333H53.3332V29.3386H55.3332H53.3332ZM53.3332 18.672H55.3332C55.8165 18.672 56.2834 18.847 56.6477 19.1647C57.0119 19.4824 57.2488 19.9212 57.3145 20.4L57.3332 20.672V24.6666C57.3332 25.1499 57.1581 25.6169 56.8405 25.9811C56.5228 26.3454 56.084 26.5823 55.6052 26.648L55.3332 26.6666H53.3332V18.672H55.3332H53.3332ZM40.6638 13.3333C41.1943 13.3333 41.703 13.544 42.0781 13.9191C42.4531 14.2942 42.6638 14.8029 42.6638 15.3333V21.9946C42.6638 22.5251 42.4531 23.0338 42.0781 23.4089C41.703 23.7839 41.1943 23.9946 40.6638 23.9946H20.6665C20.1361 23.9946 19.6274 23.7839 19.2523 23.4089C18.8772 23.0338 18.6665 22.5251 18.6665 21.9946V15.3333C18.6665 14.8029 18.8772 14.2942 19.2523 13.9191C19.6274 13.544 20.1361 13.3333 20.6665 13.3333H40.6638ZM38.6638 17.3333H22.6665V19.9946H38.6638V17.3333Z" fill="#1DC3C4"/>
</svg>
