<svg width="361" height="199" viewBox="0 0 361 199" fill="none" xmlns="http://www.w3.org/2000/svg">
<path d="M276.18 32.5089C278.982 20.6212 271.616 8.71327 259.728 5.91188C247.84 3.1105 235.932 10.4764 233.131 22.3642C230.33 34.2519 237.696 46.1598 249.583 48.9612C261.471 51.7626 273.379 44.3966 276.18 32.5089Z" fill="#E0E0E0"/>
<path d="M264.717 28.1264C264.459 28.1674 264.198 28.1858 263.937 28.1814L261.782 28.2199C259.963 28.2199 257.419 28.2638 254.55 28.2693H254.407V26.6921C254.407 23.4882 254.407 20.5865 254.451 18.4927C254.451 17.476 254.484 16.6406 254.495 16.0032C254.49 15.6981 254.509 15.3932 254.55 15.0909C254.595 15.3928 254.613 15.6981 254.605 16.0032C254.605 16.6406 254.633 17.476 254.655 18.4927C254.655 20.5865 254.693 23.4882 254.693 26.6921V28.1264L254.55 27.9835C257.419 27.9835 259.963 27.9835 261.782 28.033L263.937 28.077C264.198 28.073 264.459 28.0895 264.717 28.1264Z" fill="#FAFAFA"/>
<path d="M254.616 8.96329C254.763 9.57074 254.814 10.1977 254.765 10.8208C254.814 11.4439 254.763 12.0709 254.616 12.6783C254.476 12.0698 254.428 11.4436 254.473 10.8208C254.428 10.198 254.476 9.57179 254.616 8.96329Z" fill="#FAFAFA"/>
<path d="M264.695 11.9474C264.371 12.4707 263.969 12.9414 263.503 13.3433C263.101 13.8096 262.63 14.2117 262.107 14.5358C262.431 14.0125 262.833 13.5418 263.299 13.14C263.701 12.6737 264.172 12.2715 264.695 11.9474Z" fill="#FAFAFA"/>
<path d="M270.586 18.3827C270.122 18.7816 269.61 19.123 269.064 19.3994C268.566 19.7572 268.027 20.0543 267.459 20.2842C268.346 19.4241 269.415 18.7743 270.586 18.3827Z" fill="#FAFAFA"/>
<path d="M274.043 27.9341C272.36 28.1246 270.66 28.1246 268.976 27.9341C270.66 27.7436 272.36 27.7436 274.043 27.9341Z" fill="#FAFAFA"/>
<path d="M238.91 27.5989C237.322 27.7894 235.717 27.7894 234.129 27.5989C235.717 27.4083 237.322 27.4083 238.91 27.5989Z" fill="#FAFAFA"/>
<path d="M241.399 34.7102C240.862 35.3274 240.255 35.8807 239.591 36.3588C238.986 36.908 238.318 37.3839 237.602 37.7767C238.137 37.1577 238.744 36.6043 239.41 36.128C240.013 35.5769 240.681 35.1008 241.399 34.7102Z" fill="#FAFAFA"/>
<path d="M247.527 40.2057C247.172 40.9474 246.761 41.6603 246.296 42.338C245.918 43.0689 245.48 43.7674 244.988 44.4264C245.227 43.6336 245.585 42.8814 246.048 42.1952C246.436 41.46 246.935 40.789 247.527 40.2057Z" fill="#FAFAFA"/>
<path d="M254.616 47.3005C254.475 46.4639 254.427 45.6143 254.473 44.7671C254.427 43.9199 254.475 43.0702 254.616 42.2336C254.764 43.0694 254.814 43.9197 254.765 44.7671C254.814 45.6145 254.764 46.4647 254.616 47.3005Z" fill="#FAFAFA"/>
<path d="M265.536 43.9262C264.764 43.5692 264.058 43.0843 263.447 42.4919C262.777 41.972 262.203 41.3398 261.749 40.6234C262.409 41.1382 263.04 41.6886 263.64 42.2721C264.303 42.7869 264.936 43.3392 265.536 43.9262Z" fill="#FAFAFA"/>
<path d="M270.664 38.4087C270.054 37.9874 269.5 37.4906 269.015 36.9304C268.453 36.4368 267.956 35.8735 267.537 35.2542C268.156 35.6731 268.721 36.1679 269.218 36.727C269.769 37.2243 270.255 37.7894 270.664 38.4087Z" fill="#FAFAFA"/>
<path d="M241.185 20.7843C240.634 20.4326 240.136 20.0032 239.707 19.5094C239.211 19.0788 238.78 18.5791 238.426 18.0255C238.98 18.3789 239.48 18.8101 239.91 19.306C240.404 19.7349 240.833 20.2328 241.185 20.7843Z" fill="#FAFAFA"/>
<path d="M247.489 14.1127C246.944 13.7716 246.453 13.3511 246.032 12.8652C245.544 12.4477 245.121 11.9585 244.779 11.4143C245.323 11.7576 245.813 12.1778 246.236 12.6618C246.721 13.0822 247.143 13.5709 247.489 14.1127Z" fill="#FAFAFA"/>
<path d="M0.153876 79.3178H0.505593H1.51129L5.31424 79.2739L18.8554 79.153L18.74 79.2739C18.707 72.5253 18.663 64.4028 18.6191 55.6428L18.7619 55.7857H16.2505H13.7774H8.9688H0.0604518L0.18685 55.6538C0.18685 62.6442 0.18685 68.53 0.18685 72.6902C0.18685 74.762 0.18685 76.3997 0.18685 77.5373C0.18685 78.0868 0.18685 78.5155 0.18685 78.8232C0.18685 78.9661 0.18685 79.0705 0.18685 79.1585C0.192281 79.1986 0.192281 79.2393 0.18685 79.2794C0.184323 79.2446 0.184323 79.2097 0.18685 79.175C0.18685 79.0925 0.18685 78.9881 0.18685 78.8562C0.18685 78.554 0.18685 78.1308 0.18685 77.5922C0.18685 76.4601 0.159372 74.8444 0.13739 72.7781C0.104416 68.6014 0.0549559 62.6882 0 55.6703V55.5384H0.126398L9.04025 55.489H13.8489H16.3219H18.8279C18.7015 55.3626 19.0092 55.6648 18.9763 55.6373C18.9763 64.3753 19.0257 72.4978 19.0477 79.2684V79.3893H5.30874H1.53876H0.555054L0.153876 79.3178Z" fill="#E0E0E0"/>
<path d="M10.4582 78.9222H7.86426V79.5542H10.4582V78.9222Z" fill="#EBEBEB"/>
<path d="M11.9971 64.1006H6.32568V72.2945H11.9971V64.1006Z" fill="#E0E0E0"/>
<path d="M11.1833 55.3426L8.58936 55.353L8.59152 55.8915L11.1854 55.8811L11.1833 55.3426Z" fill="#EBEBEB"/>
<path d="M321.662 14.2903L302.486 16.1098L303.712 29.0323L322.888 27.2129L321.662 14.2903Z" fill="white"/>
<path d="M322.882 27.2252C322.865 27.1454 322.854 27.0646 322.849 26.9833C322.849 26.8075 322.8 26.5822 322.767 26.2909C322.706 25.6754 322.613 24.7961 322.492 23.686C322.267 21.4273 321.942 18.1904 321.541 14.3105L321.668 14.4149L302.499 16.2615L302.625 16.1076V16.201V16.3109V16.5252L302.664 16.9539L302.746 17.8112C302.796 18.3608 302.851 18.9433 302.906 19.5038C303.012 20.6249 303.114 21.7241 303.213 22.8012C303.417 24.9665 303.615 27.0438 303.796 29.0167L303.653 28.8958L317.441 27.6538L321.404 27.3131L322.464 27.2306H322.739C322.805 27.2306 322.838 27.2306 322.838 27.2306C322.726 27.2553 322.612 27.2719 322.497 27.2801L321.464 27.39L317.54 27.7967L303.681 29.1816H303.549V29.0497C303.356 27.0823 303.158 24.9994 302.95 22.8397C302.843 21.7406 302.737 20.6414 302.631 19.5423C302.581 18.9928 302.526 18.4432 302.472 17.8497L302.389 16.9924L302.351 16.5637V16.3494V16.2395V16.146L302.482 15.9867L321.657 14.1951H321.772V14.305C322.118 18.2454 322.404 21.4878 322.607 23.7629C322.701 24.862 322.772 25.7358 322.822 26.3514C322.822 26.6316 322.86 26.8515 322.877 27.0218C322.883 27.0894 322.884 27.1573 322.882 27.2252Z" fill="#E0E0E0"/>
<path d="M321.657 14.2995C321.485 14.5604 321.29 14.8051 321.074 15.0304L319.393 16.9649C317.964 18.6136 315.969 20.8118 313.732 23.3178L313.655 23.4057L313.551 23.3398L313.04 23.0155C310.105 21.147 307.456 19.4379 305.544 18.1904L303.285 16.7011L302.681 16.2834C302.543 16.1845 302.472 16.1296 302.477 16.1186C302.559 16.147 302.636 16.1858 302.708 16.234L303.346 16.6077L305.648 18.02C307.583 19.2236 310.254 20.9052 313.188 22.7737L313.699 23.1035H313.518C315.76 20.6414 317.783 18.4212 319.222 16.8605L320.97 14.9865C321.182 14.7412 321.412 14.5116 321.657 14.2995Z" fill="#E0E0E0"/>
<path d="M214.405 11.9419C214.575 11.9164 214.738 11.8546 214.883 11.7606C215.047 11.6334 215.165 11.4558 215.218 11.255C215.251 10.9704 215.26 10.6837 215.246 10.3977C215.246 9.05673 215.246 7.16076 215.279 4.82513C215.279 4.2371 215.279 3.62159 215.279 2.97861C215.279 2.65987 215.279 2.33013 215.279 1.9949C215.293 1.83584 215.293 1.67585 215.279 1.51679C215.245 1.3705 215.173 1.23583 215.07 1.1266C214.964 1.01947 214.828 0.946716 214.68 0.917766C214.511 0.909079 214.342 0.909079 214.174 0.917766H210.811H200.693C200.506 0.926844 200.328 1.00471 200.194 1.1365C200.06 1.26829 199.98 1.44476 199.968 1.63219C199.968 2.07184 199.968 2.51149 199.968 2.94564C199.968 3.81944 199.968 4.67675 199.929 5.52307C199.902 7.21571 199.874 8.82042 199.847 10.4032C199.847 10.601 199.847 10.7933 199.847 10.9857C199.833 11.1516 199.874 11.3174 199.962 11.4583C200.044 11.5981 200.169 11.7065 200.32 11.7661C200.484 11.8122 200.655 11.8289 200.825 11.8155H202.968H206.815L212.388 11.8595H213.905H214.295H214.432H214.295H213.905L212.388 11.887L206.815 11.9309H202.968H200.825C200.625 11.9453 200.424 11.9229 200.232 11.865C200.028 11.7873 199.856 11.6443 199.743 11.4583C199.63 11.2733 199.574 11.0592 199.583 10.8428C199.583 10.6505 199.583 10.4581 199.583 10.2932C199.583 8.7325 199.627 7.1003 199.649 5.41316C199.649 4.56684 199.649 3.70403 199.682 2.83023C199.682 2.39058 199.682 1.94544 199.682 1.5003C199.703 1.24019 199.819 0.997022 200.009 0.818203C200.199 0.639385 200.449 0.537736 200.71 0.533074H210.827H214.19C214.373 0.520084 214.557 0.520084 214.74 0.533074C214.935 0.572391 215.113 0.670157 215.251 0.813348C215.387 0.954019 215.479 1.13182 215.515 1.32444C215.535 1.50706 215.535 1.69138 215.515 1.874C215.515 2.20923 215.515 2.53347 215.515 2.85771C215.515 3.4952 215.487 4.1107 215.476 4.70423C215.427 7.03436 215.383 8.93034 215.356 10.2713C215.36 10.5655 215.339 10.8596 215.295 11.1506C215.237 11.3742 215.101 11.5694 214.91 11.7001C214.797 11.7752 214.667 11.8223 214.531 11.8375C214.497 11.8806 214.454 11.9162 214.405 11.9419Z" fill="#E0E0E0"/>
<path d="M208.145 5.41316L210.019 6.55075L208.101 7.67735L206.189 8.79845L206.227 6.53976L206.266 4.27558L208.145 5.41316Z" fill="#E0E0E0"/>
<path d="M51.9776 0H24.7524V35.496L51.9776 36.1775V0Z" fill="#EBEBEB"/>
<path d="M50.0208 1.26398H26.2029V33.4571L50.0208 34.2595V1.26398Z" fill="#FAFAFA"/>
<path d="M46.0142 7.1113L30.2034 6.51228V29.0112H46.0142V7.1113Z" fill="#E0E0E0"/>
<path d="M30.2034 29.0112L46.0142 17.454L30.2034 6.51228V29.0112Z" fill="#F5F5F5"/>
<path d="M254.825 189.526C244.862 182.569 242.603 169.649 242.999 158.037C243.065 156.097 242.85 154.052 243.774 152.354C244.697 150.656 246.846 149.491 248.582 150.304C250.022 150.986 250.649 152.657 251.456 154.041C252.53 155.89 254.106 157.395 256.001 158.383C257.238 159.026 258.749 159.416 259.98 158.746C261.629 157.822 261.849 155.514 261.838 153.585L261.772 142.803C261.772 140.879 261.772 138.907 262.354 137.077C262.937 135.246 264.278 133.548 266.113 133.037C267.949 132.526 270.213 133.587 270.603 135.466C270.674 136.265 270.692 137.067 270.658 137.868C270.707 138.665 271.081 139.555 271.84 139.775C272.598 139.995 273.384 139.456 273.961 138.89C275.95 136.945 277.302 134.439 278.561 131.944C279.819 129.449 281.05 126.893 282.853 124.772C284.655 122.651 287.156 120.969 289.92 120.81C292.684 120.65 295.619 122.359 296.317 125.069C297.015 127.778 295.432 130.564 293.706 132.762C291.147 136.025 288.13 138.901 284.749 141.303C284.089 141.664 283.563 142.229 283.248 142.913C282.831 144.199 284.045 145.474 285.315 145.897C286.755 146.375 288.315 146.227 289.816 146.403C291.316 146.578 292.948 147.243 293.514 148.667C294.305 150.634 292.657 152.7 291.036 154.052C287.789 156.764 284.098 158.894 280.127 160.35C278.709 160.872 277.214 161.329 276.071 162.323C274.928 163.318 276.703 166.846 277.396 168.204C278.088 169.561 277.396 168.204 278.879 167.929C280.363 167.654 281.693 166.83 283.111 166.313C285.76 165.313 289.156 165.494 290.876 167.786C291.975 169.292 292.091 171.386 291.525 173.183C290.88 174.95 289.888 176.57 288.607 177.947C284.406 182.99 278.942 186.828 272.774 189.07C266.63 191.203 260.936 191.78 254.825 189.543" fill="#EBEBEB"/>
<path d="M254.677 198.138C255.215 192.752 256.269 187.429 257.826 182.245C259.754 175.919 262.044 169.71 264.684 163.648C265.371 162.032 266.058 160.438 266.728 158.867C267.399 157.295 268.075 155.74 268.822 154.261C270.266 151.424 271.864 148.669 273.609 146.007C275.257 143.457 276.906 141.094 278.489 138.896C280.072 136.697 281.566 134.675 283.017 132.894C285.295 130.071 287.792 127.432 290.486 125.003C291.437 124.145 292.195 123.502 292.717 123.074L293.31 122.59C293.377 122.532 293.449 122.481 293.525 122.436C293.466 122.502 293.401 122.562 293.333 122.618L292.783 123.129C292.277 123.574 291.535 124.228 290.585 125.107C287.935 127.569 285.474 130.225 283.221 133.054C281.786 134.845 280.291 136.868 278.731 139.066C277.17 141.264 275.527 143.638 273.884 146.21C272.151 148.87 270.565 151.622 269.13 154.454C268.388 155.926 267.723 157.465 267.047 159.042C266.371 160.62 265.69 162.208 265.003 163.824C262.366 169.874 260.072 176.068 258.133 182.377C256.571 187.525 255.496 192.81 254.924 198.16" fill="#E0E0E0"/>
<path d="M268.927 154.25C268.836 153.985 268.773 153.71 268.74 153.431C268.635 152.882 268.514 152.123 268.382 151.162C268.108 149.244 267.833 146.578 267.52 143.638C267.206 140.698 266.888 138.049 266.591 136.137C266.443 135.181 266.316 134.411 266.217 133.878C266.151 133.604 266.116 133.324 266.113 133.043C266.22 133.303 266.301 133.574 266.355 133.851C266.492 134.373 266.657 135.142 266.833 136.093C267.201 138 267.564 140.66 267.871 143.6C268.179 146.54 268.421 149.123 268.63 151.129C268.723 152.036 268.806 152.777 268.872 153.409C268.921 153.687 268.939 153.969 268.927 154.25Z" fill="#E0E0E0"/>
<path d="M293.712 149.612C293.387 149.684 293.055 149.725 292.723 149.733C292.091 149.788 291.167 149.865 290.035 149.997C287.766 150.244 284.639 150.689 281.242 151.338C277.846 151.986 274.708 152.711 272.51 153.294C271.411 153.58 270.515 153.844 269.899 154.008C269.586 154.12 269.262 154.2 268.932 154.245C269.228 154.095 269.537 153.972 269.855 153.877C270.46 153.662 271.345 153.371 272.444 153.052C274.642 152.398 277.72 151.64 281.154 150.98C284.085 150.419 287.041 150.007 290.013 149.744C291.156 149.645 292.085 149.606 292.723 149.595C293.052 149.573 293.383 149.578 293.712 149.612Z" fill="#E0E0E0"/>
<path d="M258.128 181.789C258.059 181.695 258.002 181.594 257.958 181.486L257.534 180.591C257.172 179.81 256.672 178.667 256.078 177.249C254.88 174.408 253.33 170.435 251.726 166.027C250.121 161.62 248.604 157.63 247.472 154.772C246.922 153.382 246.455 152.239 246.115 151.387L245.752 150.464C245.703 150.359 245.668 150.248 245.647 150.134C245.719 150.226 245.776 150.328 245.818 150.436C245.933 150.678 246.076 150.986 246.241 151.332C246.609 152.112 247.104 153.256 247.703 154.673C248.901 157.515 250.451 161.488 252.055 165.901C253.66 170.314 255.171 174.293 256.309 177.15L257.661 180.536C257.809 180.904 257.925 181.212 258.024 181.459C258.074 181.563 258.11 181.674 258.128 181.789Z" fill="#E0E0E0"/>
<path d="M291.069 171.177C290.964 171.233 290.853 171.277 290.739 171.309L289.783 171.633L286.249 172.776C283.27 173.738 279.176 175.122 274.648 176.65C270.119 178.178 266.009 179.53 263.008 180.437C261.508 180.887 260.293 181.239 259.447 181.47L258.469 181.723C258.358 181.763 258.241 181.785 258.123 181.789C258.227 181.732 258.338 181.688 258.452 181.657L259.409 181.338L262.931 180.195C265.91 179.228 270.01 177.843 274.538 176.315C279.066 174.787 283.177 173.435 286.178 172.529C287.678 172.078 288.892 171.726 289.739 171.495L290.717 171.243C290.83 171.202 290.949 171.179 291.069 171.177Z" fill="#E0E0E0"/>
<path d="M0.0603027 98.8871C0.0603027 98.8047 80.6422 98.7443 180.024 98.7443C279.407 98.7443 360.005 98.8047 360.005 98.8871C360.005 98.9696 279.44 99.03 180.024 99.03C80.6092 99.03 0.0603027 98.9641 0.0603027 98.8871Z" fill="#247D7E"/>
<path d="M63.7654 41.2792C63.7654 41.2792 53.4721 152.406 74.9214 188.132L265.695 190.386C265.695 190.386 234.096 94.0588 236.833 38.372L63.7654 41.2792Z" fill="#E0E0E0"/>
<path d="M63.7655 41.2792C63.7655 41.2792 51.6752 155.868 89.3475 180.356H273.208C273.208 180.356 240.575 124.416 238.003 41.2792H63.7655Z" fill="#EBEBEB"/>
<path d="M241.702 14.4827H62.8313V43.1642H241.702V14.4827Z" fill="#247D7E"/>
<path d="M78.8176 14.708C78.8176 14.708 80.6202 8.22869 87.1929 8.22869C92.7929 8.22869 95.5682 12.7241 95.5682 16.8458C95.5682 20.9675 93.0237 25.3255 87.1929 25.6387" stroke="#E0E0E0" stroke-width="3" stroke-linecap="round" stroke-linejoin="round"/>
<path d="M84.9836 14.3838H76.1577V18.3241H84.9836V14.3838Z" fill="#247D7E"/>
<path d="M112.797 14.708C112.797 14.708 114.599 8.22869 121.172 8.22869C126.772 8.22869 129.547 12.7241 129.547 16.8458C129.547 20.9675 127.003 25.3255 121.172 25.6387" stroke="#E0E0E0" stroke-width="3" stroke-linecap="round" stroke-linejoin="round"/>
<path d="M118.969 14.3838H110.143V18.3241H118.969V14.3838Z" fill="#247D7E"/>
<path d="M146.782 14.708C146.782 14.708 148.584 8.22869 155.157 8.22869C160.757 8.22869 163.532 12.7241 163.532 16.8458C163.532 20.9675 160.988 25.3255 155.157 25.6387" stroke="#E0E0E0" stroke-width="3" stroke-linecap="round" stroke-linejoin="round"/>
<path d="M152.948 14.3838H144.122V18.3241H152.948V14.3838Z" fill="#247D7E"/>
<path d="M180.76 14.708C180.76 14.708 182.563 8.22869 189.136 8.22869C194.736 8.22869 197.511 12.7241 197.511 16.8458C197.511 20.9675 194.967 25.3255 189.136 25.6387" stroke="#E0E0E0" stroke-width="3" stroke-linecap="round" stroke-linejoin="round"/>
<path d="M186.932 14.3838H178.106V18.3241H186.932V14.3838Z" fill="#247D7E"/>
<path d="M214.746 14.708C214.746 14.708 216.548 8.22869 223.121 8.22869C228.721 8.22869 231.496 12.7241 231.496 16.8458C231.496 20.9675 228.952 25.3255 223.121 25.6387" stroke="#E0E0E0" stroke-width="3" stroke-linecap="round" stroke-linejoin="round"/>
<path d="M220.912 14.3838H212.086V18.3241H220.912V14.3838Z" fill="#247D7E"/>
<path d="M62.8476 44.2303C62.8476 44.2303 60.8692 171.931 102.262 171.931L272.29 171.992C272.29 171.992 247.989 147.196 240.789 44.2303H62.8476Z" fill="#F5F5F5"/>
<path d="M248.033 156.17C247.994 156.06 247.813 155.543 247.412 154.422C247.01 153.301 246.389 151.587 245.648 149.333C244.125 144.855 241.999 138.232 239.564 129.676C234.667 112.573 228.765 87.651 224.176 56.9361L224.292 57.035H80.1259H78.752L78.8949 56.8702C81.4888 75.3573 84.1542 93.3774 88.4682 110.254C90.5347 118.504 93.1472 126.608 96.2885 134.512C99.2698 142.001 102.884 149.223 107.093 156.099L106.983 156.038L248.027 156.17L106.983 156.296H106.911L106.873 156.236C102.65 149.358 99.0209 142.132 96.0247 134.638C92.8788 126.725 90.2608 118.612 88.188 110.353C83.8629 93.4543 81.1976 75.4288 78.5981 56.9361V56.7712H80.1369L224.303 56.7987H224.402V56.8976C228.968 87.6125 234.843 112.535 239.69 129.637C242.108 138.199 244.208 144.827 245.736 149.311C247.263 153.796 247.961 155.945 248.033 156.17Z" fill="#247D7E"/>
<path d="M232.76 106.468C232.76 106.55 200.292 106.611 160.251 106.611C120.21 106.611 87.7095 106.55 87.7095 106.468C87.7095 106.385 120.172 106.325 160.251 106.325C200.331 106.325 232.76 106.38 232.76 106.468Z" fill="#247D7E"/>
<path d="M240.575 132.995C240.575 133.072 208.096 133.138 168.033 133.138C127.97 133.138 95.4915 133.072 95.4915 132.995C95.4915 132.918 127.959 132.852 168.033 132.852C208.107 132.852 240.575 132.913 240.575 132.995Z" fill="#247D7E"/>
<path d="M227.852 80.9079C227.852 80.9848 195.384 81.0508 155.343 81.0508C115.302 81.0508 82.8015 80.9848 82.8015 80.9079C82.8015 80.8309 115.264 80.765 155.343 80.765C195.423 80.765 227.852 80.8254 227.852 80.9079Z" fill="#247D7E"/>
<path d="M130.614 156.17C130.614 156.17 130.581 156.088 130.526 155.923C130.471 155.758 130.389 155.499 130.29 155.186C130.081 154.521 129.784 153.565 129.399 152.345C128.63 149.878 127.553 146.3 126.25 141.865C123.662 132.995 120.233 120.696 116.908 106.99C115.259 100.137 113.781 93.5807 112.511 87.6015C111.242 81.6223 110.203 76.2201 109.395 71.6643C108.972 69.3891 108.626 67.3283 108.296 65.5202C107.967 63.7122 107.747 62.1514 107.538 60.8764C107.329 59.6015 107.192 58.6177 107.087 57.9363C107.043 57.6066 107.005 57.3538 106.977 57.1669C106.95 56.9801 106.95 56.9086 106.95 56.9086C106.975 56.9916 106.995 57.076 107.01 57.1614C107.043 57.3483 107.087 57.6011 107.148 57.9253L107.648 60.8545C107.857 62.1294 108.131 63.6902 108.456 65.4927C108.78 67.2953 109.137 69.3396 109.555 71.6258C110.39 76.1707 111.478 81.5618 112.731 87.563C113.984 93.5642 115.479 100.087 117.128 106.94C120.425 120.641 123.838 132.946 126.377 141.826C127.652 146.261 128.696 149.85 129.438 152.329C129.795 153.56 130.075 154.527 130.273 155.181L130.482 155.928C130.597 156.082 130.614 156.17 130.614 156.17Z" fill="#247D7E"/>
<path d="M158.751 156.17C158.751 156.17 158.718 156.088 158.663 155.917L158.432 155.181L157.564 152.334C156.811 149.867 155.756 146.289 154.47 141.843C151.92 132.962 148.469 120.668 145.127 106.973C141.786 93.2784 139.132 80.776 137.505 71.6808C137.087 69.4111 136.725 67.3502 136.439 65.5367C136.153 63.7232 135.889 62.1679 135.697 60.8874C135.505 59.607 135.367 58.6342 135.268 57.9473C135.224 57.6176 135.191 57.3648 135.164 57.1779C135.136 56.9911 135.12 56.9196 135.12 56.9196C135.12 56.9196 135.12 57.0021 135.175 57.1779L135.307 57.9363C135.422 58.6233 135.582 59.585 135.79 60.8709C135.999 62.1569 136.263 63.7067 136.576 65.5147C136.889 67.3228 137.258 69.3616 137.675 71.6478C139.351 80.7265 141.995 93.218 145.369 106.907C148.743 120.597 152.14 132.891 154.64 141.783L157.652 152.307C158.004 153.538 158.273 154.505 158.465 155.164L158.668 155.912C158.702 155.996 158.73 156.082 158.751 156.17Z" fill="#247D7E"/>
<path d="M188.153 156.17C188.117 156.089 188.086 156.007 188.059 155.923C188.004 155.741 187.922 155.5 187.817 155.186L186.922 152.345C186.136 149.883 185.042 146.3 183.707 141.903C181.069 133.045 177.502 120.778 174.095 107.089C170.688 93.3994 168.094 80.8584 166.599 71.7577C166.22 69.4825 165.884 67.4162 165.632 65.5972C165.379 63.7781 165.137 62.2174 164.989 60.9314C164.84 59.6454 164.714 58.6672 164.631 57.9748C164.593 57.6505 164.565 57.3922 164.543 57.2054C164.521 57.0185 164.543 56.9471 164.543 56.9471C164.543 56.9471 164.543 57.0295 164.587 57.2054L164.703 57.9693C164.802 58.6562 164.939 59.618 165.115 60.9149C165.291 62.2119 165.527 63.7616 165.807 65.5752C166.088 67.3887 166.423 69.4496 166.813 71.7247C168.363 80.8364 170.957 93.3444 174.386 107.023C177.815 120.701 181.327 132.979 183.921 141.848C185.234 146.272 186.301 149.85 187.042 152.34C187.405 153.571 187.691 154.538 187.889 155.197C187.98 155.512 188.052 155.76 188.103 155.939C188.136 156.082 188.153 156.17 188.153 156.17Z" fill="#247D7E"/>
<path d="M217.554 156.17C217.518 156.089 217.487 156.007 217.46 155.923L217.213 155.186C216.993 154.527 216.663 153.576 216.284 152.356C215.482 149.899 214.35 146.311 212.987 141.914C210.239 133.077 206.579 120.833 203.095 107.155C201.336 100.318 199.797 93.7676 198.588 87.7719C197.94 84.7823 197.429 81.9191 196.94 79.2482C196.709 77.9073 196.487 76.614 196.275 75.3683C196.06 74.1263 195.863 72.9283 195.725 71.7852C194.263 62.635 193.923 56.9196 193.923 56.9196C193.923 56.9196 193.923 57.0075 193.961 57.1779C194 57.3483 194.016 57.6176 194.054 57.9473C194.131 58.6397 194.236 59.6344 194.379 60.9094C194.522 62.1844 194.725 63.7616 194.961 65.5807C195.198 67.3997 195.511 69.4715 195.857 71.7522C196.022 72.8953 196.231 74.0933 196.451 75.3353C196.67 76.5773 196.896 77.8688 197.127 79.2097C197.649 81.8751 198.171 84.7328 198.819 87.7169C200.067 93.7016 201.594 100.252 203.348 107.089C206.837 120.756 210.492 133.006 213.163 141.854L216.383 152.323C216.762 153.549 217.059 154.521 217.262 155.17C217.356 155.489 217.427 155.719 217.482 155.912C217.537 156.104 217.554 156.17 217.554 156.17Z" fill="#247D7E"/>
<path d="M111.39 66.7457C111.39 66.7457 112.626 78.7866 117.408 86.3046H145.561C145.561 86.3046 138.719 74.1263 137.868 65.6631L137.252 60.9204H110.939L111.39 66.7457Z" fill="#455A64"/>
<path d="M134.757 68.856C134.757 68.9385 130.751 68.9989 125.805 68.9989C120.859 68.9989 116.853 68.9385 116.853 68.856C116.853 68.7736 120.859 68.7132 125.805 68.7132C130.751 68.7132 134.757 68.7791 134.757 68.856Z" fill="#FAFAFA"/>
<path d="M135.67 71.9006C135.67 71.983 131.663 72.0435 126.717 72.0435C121.771 72.0435 117.765 71.983 117.765 71.9006C117.765 71.8182 121.771 71.7577 126.717 71.7577C131.663 71.7577 135.67 71.8237 135.67 71.9006Z" fill="#FAFAFA"/>
<path d="M136.549 74.9452C136.549 75.0221 132.543 75.088 127.597 75.088C122.651 75.088 118.634 75.0221 118.634 74.9452C118.634 74.8682 122.64 74.8023 127.586 74.8023C132.532 74.8023 136.549 74.8682 136.549 74.9452Z" fill="#FAFAFA"/>
<path d="M137.445 77.9897C137.445 78.0667 133.438 78.1326 128.492 78.1326C123.546 78.1326 119.54 78.0667 119.54 77.9897C119.54 77.9128 123.546 77.8468 128.492 77.8468C133.438 77.8468 137.445 77.9073 137.445 77.9897Z" fill="#FAFAFA"/>
<path d="M208.008 96.4274C208.008 96.4274 209.245 108.468 214.026 115.981H242.169C242.169 115.981 235.327 103.808 234.475 95.3448L233.86 90.5966H207.536L208.008 96.4274Z" fill="#247D7E"/>
<path d="M231.375 97.9332C231.375 98.0157 227.369 98.0761 222.423 98.0761C217.477 98.0761 213.47 98.0157 213.47 97.9332C213.47 97.8508 217.482 97.7903 222.423 97.7903C227.363 97.7903 231.375 97.8563 231.375 97.9332Z" fill="#E0E0E0"/>
<path d="M232.271 100.978C232.271 101.055 228.265 101.121 223.319 101.121C218.373 101.121 214.366 101.055 214.366 100.978C214.366 100.901 218.373 100.835 223.319 100.835C228.265 100.835 232.271 100.884 232.271 100.978Z" fill="#E0E0E0"/>
<path d="M233.167 104.022C233.167 104.099 229.161 104.165 224.215 104.165C219.268 104.165 215.262 104.099 215.262 104.022C215.262 103.945 219.268 103.879 224.215 103.879C229.161 103.879 233.167 103.945 233.167 104.022Z" fill="#E0E0E0"/>
<path d="M234.041 107.067C234.041 107.144 230.035 107.21 225.089 107.21C220.143 107.21 216.136 107.144 216.136 107.067C216.136 106.99 220.143 106.924 225.089 106.924C230.035 106.924 234.041 106.984 234.041 107.067Z" fill="#E0E0E0"/>
<path d="M189.845 59.1673C190.136 59.4036 186.493 64.2562 180.986 69.2792C175.48 74.3022 170.347 77.5226 170.138 77.2203C169.929 76.9181 174.606 73.1976 180.03 68.2241C185.454 63.2505 189.526 58.898 189.845 59.1673Z" fill="#1DC3C4"/>
<path d="M195.182 77.6765C194.951 78.0007 188.801 73.9999 181.228 69.0594C173.655 64.1188 167.528 60.0906 167.731 59.7169C167.935 59.3432 174.414 62.8658 182.02 67.8339C189.626 72.8019 195.407 77.3577 195.182 77.6765Z" fill="#1DC3C4"/>
<path d="M142.077 75.4397C141.835 75.1265 145.886 71.6423 151.117 67.658C156.349 63.6737 160.784 60.7006 161.009 61.0138C161.235 61.3271 157.201 64.8113 151.969 68.7956C146.737 72.7799 142.313 75.753 142.077 75.4397Z" fill="#1DC3C4"/>
<path d="M164.307 77.1379C164.054 77.4676 158.669 73.6702 151.827 69.3067C144.985 64.9432 139.297 61.6128 139.483 61.2666C139.67 60.9204 145.71 63.6847 152.601 68.1031C159.493 72.5216 164.543 76.8411 164.307 77.1379Z" fill="#1DC3C4"/>
<path d="M165.857 109.21C165.857 109.166 166.137 109.1 166.687 109.062C167.496 109.036 168.305 109.117 169.094 109.304C170.354 109.596 171.552 110.109 172.633 110.82C174.089 111.763 175.306 113.031 176.188 114.524C177.251 116.362 177.811 118.447 177.81 120.57C177.819 121.745 177.671 122.917 177.37 124.054C177.038 125.262 176.531 126.416 175.864 127.477C174.352 129.83 172.177 131.682 169.614 132.8C167.05 133.918 164.213 134.252 161.46 133.759C158.602 133.271 155.959 131.93 153.876 129.912C151.952 128.002 150.671 125.539 150.211 122.867C149.777 120.47 150.005 118 150.87 115.722C151.627 113.742 152.916 112.009 154.596 110.716C155.96 109.659 157.528 108.897 159.202 108.479C160.456 108.153 161.757 108.045 163.048 108.16C163.298 108.173 163.546 108.205 163.79 108.254C164.021 108.292 164.235 108.32 164.433 108.369C164.824 108.479 165.153 108.556 165.412 108.661C165.923 108.869 166.181 109.001 166.164 109.045C166.12 109.183 165.065 108.727 163.021 108.716C161.804 108.712 160.593 108.897 159.432 109.265C157.9 109.731 156.476 110.499 155.245 111.524C153.763 112.746 152.641 114.347 151.997 116.157C151.26 118.237 151.097 120.477 151.524 122.641C151.963 125.024 153.126 127.214 154.855 128.912C156.744 130.716 159.131 131.912 161.708 132.347C164.276 132.817 166.926 132.489 169.302 131.407C171.521 130.403 173.41 128.793 174.754 126.763C175.366 125.821 175.838 124.796 176.155 123.719C176.448 122.694 176.605 121.635 176.623 120.57C176.658 118.656 176.206 116.765 175.309 115.074C174.542 113.674 173.472 112.463 172.177 111.529C171.195 110.809 170.104 110.252 168.945 109.881C167.022 109.243 165.851 109.342 165.857 109.21Z" fill="#1DC3C4"/>
<path d="M87.6764 103.28C87.3796 103.033 90.8419 98.3344 95.7055 93.0037C100.487 87.7664 104.872 83.7326 105.224 84.0898C105.576 84.447 101.591 88.6786 96.7606 93.9819C91.93 99.2851 87.9897 103.533 87.6764 103.28Z" fill="#1DC3C4"/>
<path d="M109.967 101.038C109.758 101.373 104.136 98.2904 97.4096 94.1193C90.683 89.9481 85.3963 86.3155 85.6051 85.9803C85.8139 85.6451 91.37 88.7281 98.1021 92.8993C104.834 97.0704 110.176 100.703 109.967 101.038Z" fill="#1DC3C4"/>
<path d="M163.428 113.568L165.576 116.651C165.662 116.779 165.779 116.882 165.915 116.953C166.051 117.024 166.203 117.06 166.357 117.058H170.116C170.293 117.057 170.466 117.106 170.617 117.198C170.768 117.291 170.89 117.424 170.97 117.582C171.049 117.74 171.083 117.918 171.067 118.094C171.051 118.27 170.986 118.439 170.88 118.58L168.61 121.575C168.517 121.698 168.456 121.84 168.431 121.992C168.406 122.143 168.419 122.298 168.467 122.444L169.649 126.01C169.705 126.178 169.713 126.358 169.672 126.53C169.631 126.702 169.542 126.859 169.416 126.984C169.29 127.108 169.132 127.194 168.959 127.233C168.787 127.272 168.606 127.261 168.44 127.203L164.889 125.972C164.744 125.923 164.589 125.91 164.437 125.933C164.285 125.956 164.14 126.014 164.016 126.104L160.988 128.335C160.845 128.44 160.676 128.503 160.499 128.516C160.323 128.53 160.146 128.494 159.989 128.412C159.832 128.33 159.702 128.206 159.612 128.053C159.522 127.901 159.477 127.726 159.482 127.549L159.553 123.795C159.556 123.641 159.521 123.489 159.452 123.351C159.383 123.213 159.282 123.094 159.157 123.004L156.107 120.806C155.969 120.703 155.862 120.563 155.797 120.403C155.732 120.243 155.713 120.068 155.742 119.898C155.77 119.727 155.845 119.568 155.958 119.437C156.071 119.307 156.218 119.21 156.382 119.157L159.982 118.058C160.128 118.012 160.262 117.932 160.371 117.824C160.48 117.716 160.561 117.583 160.608 117.437L161.746 113.859C161.796 113.689 161.893 113.536 162.025 113.417C162.158 113.299 162.321 113.22 162.496 113.19C162.671 113.16 162.851 113.179 163.016 113.246C163.181 113.313 163.323 113.424 163.428 113.568Z" fill="#1DC3C4"/>
<path d="M221.951 59.2992C222.214 59.5905 217.428 64.3112 211.256 69.8343C205.085 75.3573 199.869 79.5944 199.606 79.2977C199.342 79.0009 204.128 74.2912 210.3 68.7681C216.472 63.2451 221.681 59.0025 221.951 59.2992Z" fill="#1DC3C4"/>
<path d="M225.533 76.2751C225.357 76.6268 218.647 73.6207 210.552 69.565C202.457 65.5092 196.027 61.9261 196.209 61.5689C196.39 61.2117 203.089 64.2232 211.19 68.2845C219.29 72.3457 225.709 75.9234 225.533 76.2751Z" fill="#1DC3C4"/>
<path d="M215.262 65.6246H248.032L255.897 71.7083L248.961 77.3962L217.543 77.3632L215.262 65.6246Z" fill="#455A64"/>
<path opacity="0.2" d="M163.428 113.568L165.576 116.651C165.662 116.779 165.779 116.882 165.915 116.953C166.051 117.024 166.203 117.06 166.357 117.058H170.116C170.293 117.057 170.466 117.106 170.617 117.198C170.768 117.291 170.89 117.424 170.97 117.582C171.049 117.74 171.083 117.918 171.067 118.094C171.051 118.27 170.986 118.439 170.88 118.58L168.61 121.575C168.517 121.698 168.456 121.84 168.431 121.992C168.406 122.143 168.419 122.298 168.467 122.444L169.649 126.01C169.705 126.178 169.713 126.358 169.672 126.53C169.631 126.702 169.542 126.859 169.416 126.984C169.29 127.108 169.132 127.194 168.959 127.233C168.787 127.272 168.606 127.261 168.44 127.203L164.889 125.972C164.744 125.923 164.589 125.91 164.437 125.933C164.285 125.956 164.14 126.014 164.016 126.104L160.988 128.335C160.845 128.44 160.676 128.503 160.499 128.516C160.323 128.53 160.146 128.494 159.989 128.412C159.832 128.33 159.702 128.206 159.612 128.053C159.522 127.901 159.477 127.726 159.482 127.549L159.553 123.795C159.556 123.641 159.521 123.489 159.452 123.351C159.383 123.213 159.282 123.094 159.157 123.004L156.107 120.806C155.969 120.703 155.862 120.563 155.797 120.403C155.732 120.243 155.713 120.068 155.742 119.898C155.77 119.727 155.845 119.568 155.958 119.437C156.071 119.307 156.218 119.21 156.382 119.157L159.982 118.058C160.128 118.012 160.262 117.932 160.371 117.824C160.48 117.716 160.561 117.583 160.608 117.437L161.746 113.859C161.796 113.689 161.893 113.536 162.025 113.417C162.158 113.299 162.321 113.22 162.496 113.19C162.671 113.16 162.851 113.179 163.016 113.246C163.181 113.313 163.323 113.424 163.428 113.568Z" fill="white"/>
<path d="M301.593 175.877L301.62 171.249H310.287L310.32 178.014L309.77 178.053C307.379 178.185 297.603 178.57 296.031 178.086C294.234 177.536 301.593 175.877 301.593 175.877Z" fill="#1DC3C4"/>
<g opacity="0.6">
<path opacity="0.6" d="M307.187 178.053C307.312 177.323 307.703 176.664 308.286 176.206C308.858 175.751 309.579 175.525 310.308 175.574V177.998L307.187 178.053Z" fill="white"/>
</g>
<g opacity="0.6">
<path opacity="0.6" d="M298.009 176.811C298.009 176.811 295.432 177.558 295.756 177.981C296.08 178.405 305.967 178.394 310.331 177.981V177.789L298.79 177.905C298.79 177.905 298.515 176.811 298.009 176.811Z" fill="white"/>
</g>
<path d="M310.38 177.745H310.232H309.803L308.226 177.811C306.896 177.861 305.06 177.905 303.027 177.91C300.994 177.916 299.18 177.877 297.828 177.833L296.257 177.773L295.828 177.745H295.679H296.257L297.834 177.778C299.164 177.778 300.999 177.828 303.027 177.822C305.055 177.817 306.874 177.784 308.226 177.756L309.803 177.718H310.353L310.38 177.745Z" fill="#247D7E"/>
<path d="M298.779 178.091C298.709 177.832 298.61 177.581 298.482 177.344C298.32 177.124 298.136 176.921 297.932 176.739C298.201 176.84 298.424 177.036 298.559 177.289C298.729 177.52 298.807 177.806 298.779 178.091Z" fill="#247D7E"/>
<path d="M301.499 176.591C301.499 176.591 301.35 176.459 301.224 176.256C301.098 176.053 301.015 175.888 301.043 175.871C301.07 175.855 301.186 176.003 301.312 176.201C301.403 176.315 301.467 176.449 301.499 176.591Z" fill="#247D7E"/>
<path d="M302.186 176.217C302.186 176.217 302.027 176.146 301.878 176.014C301.73 175.882 301.625 175.756 301.642 175.734C301.658 175.712 301.796 175.805 301.95 175.937C302.103 176.069 302.219 176.195 302.186 176.217Z" fill="#247D7E"/>
<path d="M302.642 175.399C302.642 175.432 302.439 175.454 302.191 175.459C301.944 175.465 301.735 175.459 301.735 175.41C301.881 175.357 302.037 175.339 302.191 175.355C302.343 175.335 302.497 175.35 302.642 175.399Z" fill="#247D7E"/>
<path d="M302.796 174.822C302.646 174.921 302.47 174.972 302.29 174.97C302.105 175.003 301.913 174.98 301.741 174.904C301.909 174.873 302.081 174.86 302.252 174.866C302.431 174.834 302.614 174.819 302.796 174.822Z" fill="#247D7E"/>
<path d="M301.202 175.833C301.02 175.863 300.835 175.863 300.653 175.833C300.451 175.807 300.253 175.763 300.059 175.701C299.941 175.667 299.827 175.621 299.719 175.563C299.652 175.525 299.603 175.462 299.581 175.388C299.573 175.346 299.576 175.304 299.592 175.264C299.608 175.225 299.634 175.192 299.669 175.168C299.881 175.064 300.122 175.036 300.352 175.09C300.581 175.144 300.785 175.277 300.928 175.465C301.015 175.572 301.076 175.698 301.109 175.833C301.136 175.932 301.109 175.987 301.109 175.987C301.054 175.813 300.968 175.651 300.856 175.509C300.726 175.366 300.562 175.26 300.378 175.201C300.27 175.165 300.156 175.151 300.043 175.16C299.93 175.168 299.82 175.199 299.719 175.25C299.631 175.316 299.664 175.421 299.762 175.476C299.861 175.532 299.966 175.576 300.076 175.607C300.254 175.673 300.438 175.723 300.625 175.756C300.993 175.816 301.202 175.816 301.202 175.833Z" fill="#247D7E"/>
<path d="M301.087 175.86C301.019 175.744 300.995 175.607 301.021 175.476C301.041 175.33 301.093 175.191 301.175 175.069C301.222 174.987 301.289 174.918 301.37 174.868C301.45 174.818 301.542 174.789 301.636 174.783C301.693 174.795 301.743 174.829 301.775 174.877C301.807 174.926 301.818 174.985 301.807 175.041C301.799 175.131 301.766 175.216 301.713 175.289C301.641 175.412 301.554 175.526 301.455 175.629C301.369 175.729 301.259 175.807 301.136 175.855C301.136 175.855 301.246 175.756 301.4 175.574C301.487 175.472 301.565 175.362 301.631 175.245C301.708 175.124 301.757 174.915 301.631 174.887C301.505 174.86 301.351 175.014 301.263 175.124C301.186 175.232 301.133 175.356 301.109 175.486C301.088 175.61 301.081 175.735 301.087 175.86Z" fill="#247D7E"/>
<path d="M310.429 175.536C310.429 175.536 310.182 175.536 309.792 175.563C309.285 175.616 308.802 175.806 308.396 176.113C307.999 176.437 307.697 176.862 307.522 177.344C307.39 177.718 307.379 177.965 307.357 177.965C307.35 177.907 307.35 177.848 307.357 177.789C307.375 177.631 307.406 177.475 307.45 177.322C307.607 176.813 307.913 176.364 308.328 176.031C308.744 175.699 309.25 175.5 309.781 175.459C309.94 175.444 310.1 175.444 310.259 175.459C310.319 175.475 310.377 175.501 310.429 175.536Z" fill="#247D7E"/>
<path d="M309.534 171.662C309.62 172.847 309.636 174.036 309.583 175.223C309.497 174.038 309.48 172.849 309.534 171.662Z" fill="#247D7E"/>
<path d="M306.258 176.926C305.844 177.024 305.419 177.066 304.994 177.053C304.57 177.076 304.145 177.043 303.73 176.954C303.73 176.921 304.28 176.954 304.994 176.954C305.709 176.954 306.258 176.893 306.258 176.926Z" fill="#247D7E"/>
<path d="M307.956 176.921C307.956 176.921 307.912 177.042 307.858 177.174C307.803 177.306 307.764 177.415 307.737 177.415C307.709 177.415 307.693 177.278 307.737 177.13C307.781 176.981 307.94 176.899 307.956 176.921Z" fill="#247D7E"/>
<path d="M308.599 176.124C308.599 176.124 308.561 176.234 308.473 176.327C308.385 176.421 308.292 176.476 308.275 176.454C308.259 176.432 308.308 176.344 308.396 176.25C308.484 176.157 308.577 176.102 308.599 176.124Z" fill="#247D7E"/>
<path d="M309.512 175.761C309.512 175.789 309.391 175.789 309.264 175.833C309.138 175.877 309.044 175.948 309.022 175.926C309 175.904 309.072 175.789 309.231 175.734C309.391 175.679 309.523 175.712 309.512 175.761Z" fill="#247D7E"/>
<path d="M310.166 175.585C310.166 175.613 310.127 175.657 310.056 175.684C309.984 175.712 309.913 175.717 309.902 175.684C309.891 175.651 309.946 175.613 310.017 175.585C310.089 175.558 310.155 175.558 310.166 175.585Z" fill="#247D7E"/>
<path d="M272.213 23.1597L348.481 26.2318V43.8177L271.087 40.9764L272.213 23.1597Z" fill="#1DC3C4"/>
<path d="M258.595 29.6995C258.595 29.6995 254.254 29.1829 253.226 31.0514C253.226 31.0514 254.105 33.4255 258.408 33.2496L258.595 29.6995Z" fill="#1DC3C4"/>
<path d="M258.221 28.8807L257.787 33.7442L263.013 34.2553C263.013 34.2553 265.162 34.4312 267.641 37.0966C270.119 39.7619 271.097 40.9764 271.097 40.9764L272.224 23.1597L268.789 26.3802C268.107 27.0167 267.323 27.5349 266.47 27.9134C265.437 28.4221 264.341 28.7916 263.211 29.0125C261.547 29.08 259.88 29.036 258.221 28.8807Z" fill="#247D7E"/>
<path d="M348.48 26.2318C348.48 26.2318 353.08 28.8642 352.163 35.6677C351.377 41.5315 348.48 43.8232 348.48 43.8232V26.2318Z" fill="#247D7E"/>
<path opacity="0.4" d="M271.85 29.6555L348.481 32.4583V37.2175L271.565 34.1564L271.85 29.6555Z" fill="white"/>
<g opacity="0.3">
<path opacity="0.3" d="M315.925 26.0614C317.117 26.1493 317.914 27.3034 318.964 27.8805C320.014 28.4575 321.261 28.43 322.261 29.018C322.706 29.2717 323.085 29.6252 323.369 30.0506C323.653 30.476 323.834 30.9617 323.898 31.4692C323.962 31.9767 323.907 32.4922 323.737 32.9748C323.568 33.4574 323.288 33.8939 322.921 34.2498C322.025 35.1017 320.58 35.5688 320.316 36.7778C320.2 37.3274 320.124 38.1407 319.579 38.0528C319.277 38.0088 319.129 37.6681 318.909 37.4593C318.442 37.0086 317.629 37.2065 317.161 37.6571C316.736 38.1532 316.367 38.6951 316.062 39.2728C315.91 39.559 315.685 39.8001 315.41 39.9718C315.135 40.1435 314.82 40.2398 314.496 40.251C314.496 40.9764 314.496 41.8502 314.496 42.5757L310.737 42.3888L311.16 27.0836L315.925 26.0614Z" fill="black"/>
</g>
<path d="M328.147 176.151V171.53H319.453L319.42 178.295L319.969 178.328C322.36 178.465 332.131 178.844 333.708 178.361C335.506 177.817 328.147 176.151 328.147 176.151Z" fill="#1DC3C4"/>
<g opacity="0.6">
<path opacity="0.6" d="M322.553 178.333C322.428 177.601 322.037 176.941 321.454 176.481C320.883 176.025 320.16 175.801 319.431 175.855V178.273L322.553 178.333Z" fill="white"/>
</g>
<g opacity="0.6">
<path opacity="0.6" d="M331.731 177.086C331.731 177.086 334.308 177.833 333.984 178.256C333.659 178.679 323.773 178.668 319.409 178.284V178.086L330.95 178.201C330.95 178.201 331.225 177.108 331.731 177.086Z" fill="white"/>
</g>
<path d="M319.36 178.02C319.409 178.027 319.459 178.027 319.508 178.02H319.937L321.514 178.091C322.844 178.141 324.679 178.185 326.713 178.19C328.746 178.196 330.56 178.157 331.912 178.113L333.483 178.047H333.912H334.06H333.511L331.934 178.075C330.604 178.102 328.768 178.124 326.74 178.119C324.712 178.113 322.893 178.086 321.541 178.053L319.964 178.02H319.535H319.36Z" fill="#247D7E"/>
<path d="M330.961 178.372C331.029 178.11 331.129 177.857 331.258 177.619C331.42 177.399 331.604 177.196 331.808 177.014C331.54 177.117 331.318 177.312 331.181 177.564C331.009 177.796 330.931 178.084 330.961 178.372Z" fill="#247D7E"/>
<path d="M328.241 176.866C328.241 176.866 328.389 176.734 328.515 176.536C328.642 176.338 328.724 176.162 328.697 176.146C328.669 176.13 328.554 176.278 328.428 176.476C328.301 176.674 328.213 176.849 328.241 176.866Z" fill="#247D7E"/>
<path d="M327.537 176.492C327.537 176.492 327.696 176.426 327.845 176.289C327.993 176.151 328.098 176.031 328.081 176.009C328.065 175.987 327.922 176.08 327.773 176.212C327.625 176.344 327.521 176.476 327.537 176.492Z" fill="#247D7E"/>
<path d="M327.097 175.679C327.242 175.731 327.396 175.749 327.548 175.734C327.703 175.762 327.863 175.754 328.015 175.712C328.015 175.679 327.812 175.657 327.559 175.651C327.306 175.646 327.097 175.646 327.097 175.679Z" fill="#247D7E"/>
<path d="M326.944 175.102C327.096 175.195 327.271 175.244 327.449 175.245C327.626 175.278 327.808 175.255 327.971 175.179C327.804 175.155 327.634 175.15 327.466 175.162C327.294 175.124 327.119 175.104 326.944 175.102Z" fill="#247D7E"/>
<path d="M328.565 176.113C328.746 176.146 328.933 176.146 329.114 176.113C329.315 176.087 329.514 176.045 329.708 175.987C329.826 175.95 329.94 175.902 330.049 175.844C330.115 175.807 330.164 175.746 330.186 175.673C330.194 175.631 330.19 175.588 330.175 175.548C330.159 175.508 330.133 175.473 330.098 175.448C329.886 175.344 329.645 175.316 329.415 175.371C329.186 175.425 328.982 175.557 328.839 175.745C328.754 175.856 328.69 175.983 328.653 176.118C328.64 176.167 328.64 176.218 328.653 176.267C328.707 176.095 328.793 175.935 328.905 175.794C329.031 175.647 329.197 175.539 329.384 175.486C329.491 175.449 329.604 175.433 329.718 175.44C329.831 175.448 329.942 175.479 330.043 175.53C330.131 175.596 330.098 175.701 329.999 175.761C329.899 175.815 329.794 175.859 329.686 175.893C329.506 175.954 329.322 176.004 329.136 176.042C328.746 176.091 328.565 176.097 328.565 176.113Z" fill="#247D7E"/>
<path d="M328.68 176.141C328.746 176.022 328.769 175.884 328.746 175.75C328.726 175.605 328.673 175.466 328.592 175.344C328.546 175.261 328.479 175.192 328.398 175.143C328.318 175.094 328.225 175.066 328.131 175.063C328.074 175.074 328.024 175.107 327.991 175.154C327.958 175.201 327.945 175.259 327.955 175.316C327.969 175.407 328.002 175.493 328.054 175.569C328.128 175.69 328.214 175.802 328.312 175.904C328.399 176.004 328.508 176.081 328.631 176.13C328.631 176.13 328.521 176.031 328.367 175.855C328.278 175.752 328.201 175.639 328.136 175.519C328.059 175.399 328.01 175.19 328.136 175.162C328.263 175.135 328.417 175.289 328.505 175.404C328.582 175.51 328.635 175.632 328.658 175.761C328.675 175.887 328.683 176.014 328.68 176.141Z" fill="#247D7E"/>
<path d="M319.305 175.816C319.305 175.816 319.552 175.816 319.942 175.816C320.449 175.868 320.932 176.058 321.338 176.366C321.736 176.692 322.038 177.119 322.212 177.602C322.276 177.804 322.329 178.01 322.371 178.218C322.371 178.218 322.371 178.157 322.371 178.042C322.353 177.883 322.32 177.727 322.272 177.575C322.119 177.066 321.814 176.616 321.399 176.284C320.984 175.953 320.478 175.755 319.948 175.717C319.789 175.699 319.628 175.699 319.47 175.717C319.41 175.741 319.354 175.774 319.305 175.816Z" fill="#247D7E"/>
<path d="M320.206 171.936C320.148 172.528 320.122 173.122 320.129 173.717C320.103 174.31 320.112 174.905 320.156 175.497C320.243 174.312 320.259 173.123 320.206 171.936Z" fill="#247D7E"/>
<path d="M323.476 177.201C323.89 177.298 324.315 177.341 324.74 177.328C325.165 177.351 325.592 177.318 326.009 177.229C326.009 177.201 325.46 177.229 324.745 177.229C324.031 177.229 323.481 177.174 323.476 177.201Z" fill="#247D7E"/>
<path d="M321.778 177.196C321.778 177.196 321.827 177.317 321.882 177.448C321.937 177.58 321.976 177.696 322.003 177.69C322.031 177.685 322.047 177.553 322.003 177.404C321.959 177.256 321.8 177.179 321.778 177.196Z" fill="#247D7E"/>
<path d="M321.14 176.399C321.14 176.399 321.179 176.514 321.267 176.602C321.355 176.69 321.443 176.751 321.465 176.729C321.487 176.707 321.432 176.619 321.344 176.531C321.256 176.443 321.162 176.382 321.14 176.399Z" fill="#247D7E"/>
<path d="M320.228 176.036C320.228 176.064 320.349 176.064 320.475 176.108C320.602 176.151 320.695 176.223 320.717 176.201C320.739 176.179 320.668 176.064 320.508 176.009C320.349 175.954 320.217 176.009 320.228 176.036Z" fill="#247D7E"/>
<path d="M319.574 175.866C319.574 175.893 319.612 175.937 319.684 175.965C319.755 175.992 319.827 175.992 319.832 175.965C319.838 175.937 319.794 175.893 319.722 175.866C319.651 175.838 319.585 175.838 319.574 175.866Z" fill="#247D7E"/>
<path d="M296.894 46.5215C296.894 46.5215 283.457 52.2039 283.028 52.0171C282.6 51.8302 282.286 41.4161 282.286 41.4161L275.582 41.1688C275.582 41.1688 274.329 57.0291 278.33 59.601C283.825 63.1182 297.169 55.8035 297.169 55.8035L296.894 46.5215Z" fill="#FFBE9D"/>
<path d="M303.659 42.801C303.659 41.1193 303.659 39.6575 303.659 39.6575C303.659 39.6575 300.268 39.3003 300.059 35.937C299.85 32.5737 300.059 24.8194 300.059 24.8194L306.236 21.8023L313.029 26.9462L312.314 42.9549C312.263 44.0649 311.787 45.1126 310.983 45.8802C310.18 46.6478 309.111 47.0763 308 47.0765C306.858 47.0839 305.759 46.6379 304.946 45.8363C304.132 45.0348 303.669 43.9432 303.659 42.801Z" fill="#FFBE9D"/>
<path d="M300.757 30.4744C300.756 30.5607 300.781 30.6454 300.828 30.7176C300.876 30.7898 300.943 30.8463 301.023 30.8799C301.102 30.9134 301.19 30.9225 301.275 30.9059C301.36 30.8893 301.437 30.8479 301.498 30.7868C301.559 30.7258 301.601 30.6479 301.618 30.5632C301.634 30.4785 301.625 30.3907 301.592 30.3112C301.558 30.2316 301.501 30.1639 301.429 30.1166C301.357 30.0693 301.272 30.0446 301.186 30.0457C301.072 30.0457 300.963 30.0909 300.883 30.1713C300.803 30.2516 300.757 30.3607 300.757 30.4744Z" fill="#247D7E"/>
<path d="M300.34 30.0018C300.395 30.0622 300.713 29.7874 301.18 29.7654C301.648 29.7435 301.988 29.9633 302.038 29.9028C302.087 29.8424 302.005 29.7709 301.851 29.6665C301.646 29.5328 301.403 29.4691 301.158 29.4852C300.915 29.4977 300.684 29.5905 300.499 29.749C300.362 29.8699 300.312 29.9798 300.34 30.0018Z" fill="#247D7E"/>
<path d="M305.747 30.4744C305.747 30.5591 305.772 30.642 305.82 30.7125C305.867 30.783 305.934 30.8379 306.012 30.8704C306.09 30.9028 306.176 30.9113 306.26 30.8948C306.343 30.8782 306.419 30.8374 306.479 30.7775C306.539 30.7175 306.58 30.6411 306.596 30.558C306.613 30.4748 306.604 30.3887 306.572 30.3103C306.54 30.232 306.485 30.1651 306.414 30.1179C306.344 30.0708 306.261 30.0457 306.176 30.0457C306.062 30.0457 305.953 30.0909 305.873 30.1713C305.792 30.2516 305.747 30.3607 305.747 30.4744Z" fill="#247D7E"/>
<path d="M305.483 30.0017C305.538 30.0622 305.857 29.7874 306.319 29.7654C306.78 29.7434 307.132 29.9633 307.181 29.9028C307.231 29.8424 307.143 29.7709 306.995 29.6665C306.789 29.5339 306.547 29.4704 306.302 29.4853C306.058 29.5001 305.825 29.5925 305.637 29.7489C305.483 29.8698 305.45 29.9798 305.483 30.0017Z" fill="#247D7E"/>
<path d="M303.835 33.9256C303.586 33.994 303.328 34.0182 303.071 33.9971C303 34.0043 302.928 34.0043 302.857 33.9971C302.807 33.9853 302.761 33.9616 302.723 33.9281C302.685 33.8946 302.655 33.8522 302.637 33.8047C302.59 33.6351 302.603 33.4542 302.675 33.2936L302.972 32.3264C303.199 31.4868 303.512 30.6729 303.906 29.8973C303.781 30.7583 303.56 31.6025 303.247 32.4143L302.901 33.3761C302.845 33.4805 302.82 33.5987 302.829 33.7168C302.829 33.7772 302.928 33.8047 303.049 33.8102C303.516 33.8322 303.835 33.8762 303.835 33.9256Z" fill="#247D7E"/>
<path d="M306.033 34.1454C306.033 34.5301 306.632 34.8049 307.346 34.8214C308.061 34.8379 308.66 34.5851 308.676 34.2059C308.693 33.8267 308.127 33.453 307.363 33.4365C306.599 33.42 306.033 33.7662 306.033 34.1454Z" fill="#EB996E"/>
<path d="M305.335 34.3543C305.808 34.0465 304.044 35.1291 303.098 35.1291C303.267 35.3641 303.511 35.535 303.789 35.6138C304.068 35.6926 304.365 35.6748 304.632 35.5633C305.621 35.1456 305.335 34.3543 305.335 34.3543Z" fill="white"/>
<path d="M303.472 39.6575C305.069 39.5919 306.614 39.0693 307.923 38.1517C307.923 38.1517 306.912 40.6247 303.527 40.4818L303.472 39.6575Z" fill="#EB996E"/>
<path d="M317.969 29.7489V30.348C317.898 29.727 317.722 28.3091 317.623 27.9244C315.788 20.912 309.627 19.6041 308.407 19.6041C307.099 19.6041 304.813 18.8897 301.477 22.3519C300.533 23.258 299.886 24.4286 299.62 25.7097C299.354 26.9908 299.482 28.3223 299.988 29.5291L300.537 29.0125L305.483 27.7431C305.093 26.4186 305.665 24.7699 305.989 24.0061L306.022 23.9731C307 29.007 312.545 29.5291 312.545 29.5291L312.078 38.8716C318.673 37.4812 317.969 29.7489 317.969 29.7489Z" fill="#247D7E"/>
<path d="M317.805 29.4082C317.797 29.004 317.927 28.6092 318.172 28.2879C318.418 27.9666 318.765 27.7378 319.156 27.6386C319.954 27.4625 320.788 27.594 321.492 28.0069C321.865 28.1687 322.198 28.4114 322.466 28.7174C322.734 29.0234 322.931 29.3851 323.042 29.7764C323.229 30.7437 322.602 31.6669 321.976 32.4363C321.616 32.9308 321.175 33.3617 320.673 33.7113C320.42 33.8838 320.13 33.9976 319.827 34.0442C319.524 34.0907 319.214 34.069 318.92 33.9806C318.442 33.7739 318.052 33.4038 317.821 32.9364C317.401 32.144 317.258 31.2339 317.414 30.3507C317.57 29.4675 318.017 28.6618 318.684 28.0618" fill="#247D7E"/>
<path d="M305.698 21.3847C305.188 21.5874 304.667 21.7599 304.137 21.9013C302.917 22.3328 301.82 23.053 300.939 24.0003C300.057 24.9477 299.418 26.0941 299.076 27.3419C298.795 28.2981 298.762 28.9356 298.669 28.9301C298.575 28.9246 298.493 28.2871 298.669 27.2485C298.927 25.8868 299.565 24.626 300.509 23.6116C301.453 22.5973 302.665 21.871 304.005 21.5166C305.038 21.2528 305.698 21.3187 305.698 21.3847Z" fill="#247D7E"/>
<path d="M313.414 33.7772C313.363 33.2214 313.422 32.661 313.59 32.1285C313.68 31.8619 313.841 31.6244 314.055 31.4408C314.268 31.2572 314.527 31.1341 314.804 31.0844C315.126 31.0716 315.441 31.1759 315.692 31.378C315.943 31.5801 316.111 31.8663 316.167 32.1835C316.202 32.5045 316.142 32.8287 315.995 33.1159C315.847 33.4032 315.619 33.6407 315.337 33.7992C315.05 33.9489 314.733 34.0316 314.409 34.0411C314.086 34.0506 313.764 33.9867 313.469 33.8542" fill="#FFBE9D"/>
<path d="M314.403 33.5134C314.403 33.4695 314.535 33.4255 314.694 33.2826C314.796 33.1956 314.879 33.0889 314.939 32.9689C314.998 32.849 315.033 32.7183 315.041 32.5847C315.039 32.4509 315.01 32.3188 314.956 32.1968C314.901 32.0747 314.821 31.9654 314.722 31.8757C314.568 31.7274 314.431 31.6724 314.442 31.6284C314.453 31.5845 314.612 31.5735 314.843 31.7109C314.993 31.8023 315.116 31.9315 315.201 32.0855C315.285 32.2395 315.328 32.413 315.325 32.5886C315.321 32.7643 315.272 32.936 315.182 33.0867C315.091 33.2374 314.963 33.3618 314.81 33.4475C314.573 33.5739 314.403 33.5464 314.403 33.5134Z" fill="#EB996E"/>
<path d="M304.093 30.26C304.093 30.26 304.093 30.2051 304.093 30.0952C304.089 29.9307 304.106 29.7664 304.142 29.6061C304.272 29.0048 304.608 28.468 305.093 28.0893C305.456 27.8067 305.885 27.6199 306.339 27.546C306.793 27.4721 307.258 27.5134 307.692 27.6661C308.232 27.853 308.701 28.2035 309.032 28.6689C309.363 29.1343 309.542 29.6914 309.542 30.2628C309.542 30.8341 309.363 31.3913 309.032 31.8567C308.701 32.3221 308.232 32.6726 307.692 32.8595C307.258 33.0122 306.793 33.0535 306.339 32.9796C305.885 32.9056 305.456 32.7188 305.093 32.4363C304.608 32.0576 304.272 31.5208 304.142 30.9195C304.106 30.7592 304.089 30.5949 304.093 30.4304C304.093 30.3205 304.093 30.26 304.093 30.26C304.093 30.26 304.093 30.4963 304.23 30.892C304.391 31.4479 304.731 31.935 305.197 32.2769C305.571 32.5551 306.014 32.724 306.478 32.7647C306.942 32.8053 307.408 32.7162 307.825 32.5073C308.241 32.2983 308.591 31.9778 308.835 31.5814C309.08 31.185 309.209 30.7285 309.209 30.2628C309.209 29.7971 309.08 29.3405 308.835 28.9442C308.591 28.5478 308.241 28.2273 307.825 28.0183C307.408 27.8093 306.942 27.7202 306.478 27.7609C306.014 27.8016 305.571 27.9705 305.197 28.2487C304.731 28.5906 304.391 29.0777 304.23 29.6335C304.12 30.0292 304.12 30.2655 304.093 30.26Z" fill="#247D7E"/>
<path d="M298.02 30.26C298.02 30.26 298.02 30.2051 298.02 30.0952C298.016 29.9307 298.033 29.7664 298.07 29.6061C298.199 29.0048 298.536 28.468 299.021 28.0893C299.384 27.8067 299.812 27.6199 300.266 27.546C300.72 27.4721 301.186 27.5134 301.62 27.6661C302.16 27.853 302.628 28.2035 302.96 28.6689C303.291 29.1343 303.469 29.6914 303.469 30.2628C303.469 30.8341 303.291 31.3913 302.96 31.8567C302.628 32.3221 302.16 32.6726 301.62 32.8595C301.186 33.0122 300.72 33.0535 300.266 32.9796C299.812 32.9056 299.384 32.7188 299.021 32.4363C298.536 32.0576 298.199 31.5208 298.07 30.9195C298.033 30.7592 298.016 30.5949 298.02 30.4304C298.02 30.3205 298.02 30.26 298.02 30.26C298.02 30.26 298.02 30.4963 298.158 30.892C298.318 31.4466 298.656 31.9332 299.119 32.2769C299.459 32.5264 299.855 32.6876 300.272 32.7461C300.69 32.8046 301.115 32.7586 301.51 32.6122C301.99 32.4341 302.403 32.1136 302.695 31.6936C302.987 31.2737 303.144 30.7744 303.144 30.2628C303.144 29.7512 302.987 29.2519 302.695 28.8319C302.403 28.412 301.99 28.0914 301.51 27.9134C301.115 27.767 300.69 27.721 300.272 27.7795C299.855 27.838 299.459 27.9992 299.119 28.2487C298.656 28.5924 298.318 29.079 298.158 29.6335C298.042 30.0292 298.048 30.2655 298.02 30.26Z" fill="#247D7E"/>
<path d="M303.285 30.348C303.285 30.2655 303.5 30.2051 303.769 30.2051C304.038 30.2051 304.253 30.2655 304.253 30.348C304.253 30.4304 304.033 30.4909 303.769 30.4909C303.505 30.4909 303.285 30.4249 303.285 30.348Z" fill="#247D7E"/>
<path d="M309.276 30.8151C310.071 30.8279 310.863 30.9349 311.633 31.1338C312.424 31.2405 313.199 31.4416 313.941 31.7329C313.144 31.7235 312.35 31.6164 311.578 31.4141C310.79 31.307 310.017 31.1059 309.276 30.8151Z" fill="#247D7E"/>
<path d="M294.041 85.4193L298.251 174.299L311.743 174.585L308.242 97.7789L317.376 174.261L331.153 174.602L320.371 84.4466" fill="#247D7E"/>
<path d="M304.604 174.437C304.527 174.437 303.554 154.576 302.439 130.071C301.323 105.566 300.477 85.6996 300.559 85.6941C300.641 85.6886 301.636 105.55 302.735 130.06C303.834 154.57 304.686 174.431 304.604 174.437Z" fill="#455A64"/>
<path d="M324.745 173.717C324.663 173.717 322.239 154.438 319.327 130.637C316.414 106.836 314.117 87.5296 314.199 87.5186C314.282 87.5076 316.7 106.797 319.613 130.604C322.525 154.411 324.822 173.711 324.745 173.717Z" fill="#455A64"/>
<path d="M323.811 64.7284L330.724 56.0838L322.228 47.5162C320.595 45.8125 318.587 44.5123 316.364 43.7187C315.281 43.3347 314.148 43.1071 313.001 43.0428V42.3558L309.275 42.4273C309.275 42.4273 309.083 43.0153 308.879 43.6803C308.681 44.2298 308.582 45.296 308.33 45.296C308.077 45.296 307.714 44.1969 307.351 43.6473L306.714 42.3668L303.274 42.202V43.0648C301.021 43.3568 298.831 44.0119 296.789 45.0047L284.1 50.1486L288.166 61.3651L296.772 58.4689C296.717 58.6228 296.657 58.7767 296.613 58.936C296.349 59.8744 296.338 60.8662 296.584 61.8097C296.829 62.7532 297.321 63.6145 298.009 64.3052L297.844 73.351L293.997 85.3973L320.327 85.6721L317.331 72.664L318.694 59.7714L323.811 64.7284Z" fill="#455A64"/>
<path d="M306.643 42.5152C306.632 42.7897 306.57 43.0598 306.462 43.3121L306.192 44.1419C306.132 44.3013 306.088 44.4552 306.011 44.642C305.97 44.7587 305.888 44.8565 305.78 44.9168C305.717 44.9474 305.646 44.9609 305.576 44.9561C305.506 44.9513 305.438 44.9283 305.379 44.8893C304.592 44.4168 303.855 43.8643 303.181 43.2406C304.012 43.6287 304.802 44.1001 305.539 44.6475C305.742 44.8398 305.841 44.3507 305.967 44.065L306.297 43.2516C306.371 42.9886 306.488 42.7397 306.643 42.5152Z" fill="#247D7E"/>
<path d="M313.309 43.2186C312.729 44.1335 311.961 44.9146 311.056 45.5103L310.864 45.6477L310.748 45.7301L310.666 45.6092C310.063 44.8037 309.641 43.8777 309.429 42.8944C309.506 42.8944 309.979 44.0979 310.902 45.4499L310.704 45.4114L310.886 45.2795C312.314 44.2573 313.243 43.1637 313.309 43.2186Z" fill="#247D7E"/>
<path d="M307.253 85.5841C307.228 85.4501 307.217 85.3138 307.22 85.1775C307.22 84.8807 307.22 84.4905 307.182 84.0014C307.182 82.9847 307.182 81.5064 307.182 79.6819C307.248 76.0328 307.418 70.9988 307.632 65.4373C307.847 59.8758 308.033 54.8693 308.182 51.1982C308.226 49.3957 308.264 47.9009 308.292 46.8787C308.292 46.3914 308.292 46.0012 308.292 45.7081C308.286 45.5702 308.295 45.4319 308.319 45.296C308.319 45.296 308.319 45.4389 308.352 45.7026C308.385 45.9664 308.352 46.3896 308.391 46.8787C308.391 47.9009 308.391 49.3792 308.391 51.1982C308.325 54.8473 308.154 59.8868 307.935 65.4483C307.715 71.0098 307.539 76.0163 307.385 79.6874C307.336 81.4844 307.297 82.9518 307.27 84.0014C307.27 84.4905 307.27 84.8807 307.27 85.1775C307.276 85.3133 307.271 85.4493 307.253 85.5841Z" fill="#247D7E"/>
<path d="M310.545 51.9291C310.545 51.8962 310.77 51.8577 310.973 52.1215C311.033 52.1985 311.073 52.2881 311.092 52.3834C311.112 52.4787 311.108 52.5772 311.083 52.6711C311.045 52.7915 310.973 52.8983 310.876 52.9784C310.778 53.0584 310.659 53.1082 310.534 53.1217C310.411 53.1435 310.285 53.1291 310.171 53.0803C310.057 53.0315 309.959 52.9504 309.891 52.8469C309.842 52.7649 309.812 52.6732 309.802 52.5782C309.793 52.4833 309.804 52.3874 309.836 52.2974C309.957 51.9896 310.193 51.9566 310.193 51.9896C310.193 52.0226 310.067 52.1215 310.034 52.3523C310.013 52.4768 310.041 52.6044 310.11 52.7095C310.157 52.7629 310.216 52.8032 310.282 52.8263C310.349 52.8495 310.42 52.8547 310.49 52.8414C310.561 52.8352 310.629 52.8093 310.686 52.7666C310.743 52.7239 310.788 52.666 310.814 52.5996C310.852 52.4797 310.842 52.3496 310.786 52.2369C310.704 52.0171 310.534 51.9731 310.545 51.9291Z" fill="#247D7E"/>
<path d="M310.632 61.0299C310.632 60.9969 310.83 60.9639 311.017 61.1837C311.069 61.2497 311.106 61.326 311.126 61.4075C311.146 61.4891 311.148 61.5739 311.133 61.6564C311.106 61.7627 311.049 61.8587 310.967 61.9322C310.886 62.0056 310.785 62.0531 310.676 62.0685C310.571 62.0853 310.462 62.0709 310.365 62.0269C310.267 61.983 310.184 61.9115 310.127 61.8212C310.085 61.7455 310.063 61.6604 310.063 61.5739C310.063 61.4874 310.085 61.4023 310.127 61.3266C310.281 61.0683 310.512 61.1068 310.495 61.1453C310.479 61.1837 310.363 61.2277 310.308 61.409C310.287 61.4562 310.279 61.5085 310.286 61.5598C310.294 61.611 310.315 61.6593 310.348 61.6989C310.382 61.7385 310.425 61.7679 310.475 61.7837C310.524 61.7996 310.577 61.8011 310.627 61.7882C310.68 61.7794 310.73 61.7576 310.772 61.7248C310.815 61.692 310.848 61.6491 310.87 61.6001C310.892 61.5511 310.901 61.4974 310.897 61.4439C310.893 61.3905 310.876 61.3388 310.847 61.2936C310.764 61.1233 310.627 61.0738 310.632 61.0299Z" fill="#247D7E"/>
<path d="M290.277 60.5407C290.014 60.027 289.79 59.4943 289.607 58.947C289.189 57.8754 288.661 56.5454 288.084 55.0726L286.491 51.2257C286.241 50.7057 286.032 50.1674 285.864 49.6155C286.179 50.099 286.45 50.6104 286.672 51.1433C287.134 52.105 287.738 53.4569 288.348 54.9902C288.958 56.5235 289.447 57.8919 289.799 58.9086C290.01 59.4362 290.17 59.9827 290.277 60.5407Z" fill="#247D7E"/>
<path d="M329.664 54.9133C329.719 54.9682 328.015 56.8367 325.817 59.0789C324.54 60.4686 323.194 61.7929 321.783 63.0467C322.993 61.5931 324.277 60.2027 325.63 58.8811C327.795 56.6389 329.603 54.8583 329.664 54.9133Z" fill="#247D7E"/>
<path d="M304.997 80.6239L304.468 78.0621C304.251 77.0258 304.241 75.9568 304.439 74.9165C304.636 73.8763 305.037 72.8854 305.619 72.0007C306.201 71.1161 306.952 70.3551 307.829 69.7616C308.706 69.1681 309.691 68.7538 310.729 68.5425L328.177 64.9386L331.957 83.2374L314.508 86.8413C313.475 87.0575 312.41 87.0682 311.373 86.8728C310.337 86.6774 309.348 86.2797 308.465 85.7023C307.582 85.125 306.821 84.3794 306.226 83.508C305.631 82.6367 305.214 81.6567 304.997 80.6239Z" fill="#1DC3C4"/>
<path d="M342.304 62.0081L314.232 67.8114C314.119 67.2605 314.229 66.687 314.538 66.217C314.847 65.7471 315.33 65.4192 315.881 65.3054L339.803 60.3594C340.354 60.2458 340.928 60.3556 341.398 60.6648C341.868 60.974 342.196 61.4572 342.309 62.0081H342.304Z" fill="#1DC3C4"/>
<g opacity="0.4">
<path opacity="0.4" d="M328.532 64.8493C328.043 65.0321 327.539 65.17 327.026 65.2615C326.092 65.4868 324.795 65.7671 323.36 66.0693C321.926 66.3716 320.613 66.6189 319.667 66.7892C319.16 66.9094 318.643 66.983 318.123 67.0091C318.609 66.823 319.111 66.6831 319.623 66.5914C320.563 66.3716 321.86 66.0858 323.294 65.789C324.729 65.4923 326.042 65.2395 326.982 65.0691C327.491 64.9491 328.01 64.8755 328.532 64.8493Z" fill="black"/>
</g>
<g opacity="0.3">
<path opacity="0.3" d="M329.587 72.0705C329.521 71.6363 329.455 71.2022 329.395 70.7735C326.115 73.4308 323.093 76.3894 320.365 79.6104C319.535 80.4844 318.861 81.4936 318.37 82.5945C318.127 83.147 318.014 83.748 318.039 84.3512C318.065 84.9543 318.229 85.5435 318.519 86.0733L325.811 84.4246L329.587 72.0705Z" fill="black"/>
</g>
<path d="M336.88 76.0383C338.219 74.4984 338.954 72.5243 338.947 70.4833C338.94 68.4423 338.191 66.4733 336.841 64.9427L329.829 57.0071L324.262 63.9041C324.509 64.0689 330.263 70.8999 330.263 70.8999L321.47 81.8526C320.118 83.5453 319.382 85.9194 320.085 87.9692L321.256 90.4258C321.663 91.2741 322.386 91.93 323.269 92.2543C324.153 92.5786 325.128 92.5456 325.987 92.1624L328.092 91.2171C328.212 91.1641 328.317 91.0816 328.397 90.9773C328.477 90.873 328.529 90.7502 328.549 90.6203C328.569 90.4904 328.555 90.3576 328.51 90.2342C328.465 90.1109 328.389 90.001 328.29 89.9147L327.774 89.4695C327.588 89.306 327.371 89.1826 327.135 89.107C326.9 89.0313 326.651 89.0051 326.405 89.0299L323.729 89.3047L323.602 88.8101L336.88 76.0383Z" fill="#FFBE9D"/>
<path d="M328.521 90.2609C328.247 90.3887 327.964 90.4953 327.675 90.5796C326.993 90.8779 326.263 91.0492 325.52 91.0852C325.089 91.046 324.686 90.8506 324.388 90.5357C324.148 90.2948 323.95 90.014 323.806 89.7058C323.642 89.4375 323.571 89.1228 323.602 88.8101C323.652 88.8101 323.701 89.1453 323.982 89.6124C324.141 89.8833 324.339 90.1295 324.57 90.3433C324.83 90.6047 325.171 90.7711 325.537 90.8159C326.244 90.7684 326.942 90.6299 327.614 90.4038C327.901 90.2841 328.212 90.2351 328.521 90.2609Z" fill="#EB996E"/>
<path d="M327.773 89.4311C327.138 89.7607 326.459 89.9994 325.757 90.14C325.24 90.2829 324.689 90.2321 324.207 89.9971C323.844 89.7938 323.74 89.5355 323.767 89.5245C323.795 89.5135 323.959 89.6839 324.317 89.8158C324.768 89.9725 325.257 89.9879 325.718 89.8597C326.382 89.6295 327.073 89.4854 327.773 89.4311Z" fill="#EB996E"/>
<path d="M31.6108 77.9029C31.358 77.8369 26.3625 85.1736 26.1976 91.488C26.1843 92.1061 26.2063 92.7244 26.2636 93.34C26.4785 95.5496 27.0097 97.7168 27.8408 99.7753C32.0614 110.442 36.4194 123.093 36.4909 125.973C36.7107 134.854 40.5521 174.719 40.5521 174.719L48.9768 174.939L50.3178 125.978L47.3282 77.5017L31.6108 77.9029Z" fill="#FFBE9D"/>
<path d="M47.6963 84.2008C47.6963 84.2008 59.0887 121.175 58.3742 133.112C57.6598 145.048 48.9768 174.768 48.9768 174.768L47.6963 84.2008Z" fill="#EB996E"/>
<path d="M28.1975 77.9579C28.1975 77.9579 21.8556 86.1243 26.3071 98.973C30.7035 111.728 27.5545 127.308 27.5545 127.308C27.5545 127.308 33.1655 123.099 37.1444 124.956C41.6727 127.072 44.6898 129.6 50.3338 127.154C56.1976 124.593 60.8578 123.154 66.216 128.166L57.9287 99.2588L53.1365 80.854L28.1975 77.9579Z" fill="#247D7E"/>
<path d="M61.4407 68.401C60.0503 68.2746 57.5498 55.5193 57.5498 55.5193L47.273 58.9541C47.273 58.9541 46.9653 60.894 53.1533 73.2426C53.1533 73.2426 56.7969 79.7274 61.3472 79.4307L61.4407 68.401Z" fill="#EB996E"/>
<path d="M46.6413 43.3191C46.6413 43.3191 54.423 42.5553 58.0446 52.0077L58.0776 52.0956C58.1435 52.2715 58.204 52.4528 58.27 52.6452L61.298 61.1688L52.9557 65.329V66.2742L53.8625 83.371L27.2528 78.3425L29.4016 75.2485C31.468 72.3963 31.0008 68.39 30.1545 64.9718L29.8687 63.8067L26.2636 65.6917C24.6272 61.9556 23.9582 57.8676 24.3182 53.8047C24.3182 53.7003 24.3182 53.6014 24.3182 53.5025C24.6051 50.3934 26.0976 47.5201 28.4764 45.4977C30.8552 43.4753 33.9312 42.4645 37.046 42.6817L46.6413 43.3191Z" fill="#1DC3C4"/>
<g opacity="0.3">
<path opacity="0.3" d="M33.8914 53.1782C35.3587 58.7233 38.068 64.2683 40.7938 69.3078C41.0576 69.7969 41.6346 70.3464 42.0523 69.9892C42.371 69.7199 42.2007 69.2034 42.0083 68.8352L33.8914 53.1782Z" fill="black"/>
</g>
<path d="M52.2903 56.1953C52.514 56.6093 52.698 57.0436 52.8398 57.4923C53.1311 58.3056 53.5433 59.4157 53.939 60.6907C54.1309 61.2994 54.2 61.9401 54.1423 62.5757C54.0716 63.0896 53.9136 63.5877 53.6752 64.0485C53.4825 64.4799 53.2289 64.8815 52.9223 65.241C53.0801 64.8056 53.2636 64.3798 53.4718 63.9661C53.6754 63.5168 53.8071 63.0384 53.862 62.5482C53.9037 61.9465 53.8309 61.3423 53.6477 60.7676C53.274 59.5641 52.9333 58.476 52.642 57.5527C52.4757 57.1144 52.3578 56.6592 52.2903 56.1953Z" fill="#247D7E"/>
<path d="M50.0974 27.882C50.0988 28.9902 50.3838 30.0796 50.9254 31.0464C51.467 32.0132 52.2471 32.8252 53.1915 33.4051C53.7197 33.6742 54.23 33.9771 54.7192 34.3119C54.9636 34.4822 55.1651 34.7068 55.3081 34.968C55.4512 35.2292 55.5317 35.5201 55.5436 35.8177C55.5051 36.7464 54.5654 37.3399 53.7355 37.7631C53.981 37.9712 54.1801 38.2284 54.32 38.5181C54.46 38.8079 54.5376 39.1238 54.548 39.4454C54.5583 39.767 54.5012 40.0872 54.3802 40.3854C54.2592 40.6835 54.077 40.953 53.8455 41.1765C53.6139 41.3999 53.3381 41.5724 53.0358 41.6827C52.7336 41.793 52.4115 41.8387 52.0905 41.8169C51.7694 41.7951 51.4565 41.7062 51.1719 41.5561C50.8873 41.4059 50.6374 41.1977 50.4382 40.945C50.3711 41.816 50.0361 42.6449 49.4792 43.318C48.9223 43.991 48.1707 44.4752 47.3277 44.704C46.4794 44.9117 45.5956 44.9283 44.7402 44.7524C43.8848 44.5766 43.0792 44.2128 42.3816 43.6873C40.99 42.6258 39.9036 41.2152 39.2327 39.5986" fill="#247D7E"/>
<path d="M54.6096 31.4267C54.6096 31.4267 54.7196 31.5476 54.7141 31.8279C54.7044 32.0223 54.6497 32.2119 54.5543 32.3816C54.459 32.5513 54.3255 32.6966 54.1645 32.8061C53.9088 32.9506 53.6201 33.0265 53.3264 33.0265C53.0327 33.0265 52.744 32.9506 52.4883 32.8061C51.8762 32.4809 51.372 31.9844 51.0375 31.3772C50.4155 30.3169 50.0172 29.1405 49.8669 27.9205C49.781 27.4223 49.781 26.913 49.8669 26.4147C49.9109 26.4147 49.9274 26.9643 50.0923 27.893C50.3036 29.067 50.7164 30.1955 51.3123 31.2288C51.6025 31.8002 52.0458 32.2797 52.5928 32.6137C52.8116 32.7389 53.0579 32.8084 53.3099 32.8161C53.562 32.8237 53.812 32.7693 54.0381 32.6577C54.1824 32.5692 54.3061 32.4508 54.4009 32.3105C54.4957 32.1702 54.5594 32.0113 54.5877 31.8444C54.6371 31.5751 54.5822 31.4322 54.6096 31.4267Z" fill="#247D7E"/>
<path d="M45.8172 43.7643C45.9381 41.654 46.0865 39.5602 46.0865 39.5602C46.0865 39.5602 49.4608 39.2029 49.6641 35.8561C49.8675 32.5093 49.6641 24.8045 49.6641 24.8045L43.5201 21.8039L36.7495 26.9203L37.442 43.6983C37.4837 44.7344 37.9089 45.718 38.635 46.4583C39.361 47.1986 40.3362 47.6428 41.3713 47.7046C41.9227 47.7411 42.4758 47.6677 42.9986 47.4889C43.5214 47.3101 44.0035 47.0293 44.417 46.6628C44.8305 46.2963 45.1672 45.8514 45.4076 45.3538C45.6479 44.8563 45.7872 44.316 45.8172 43.7643Z" fill="#FFBE9D"/>
<path d="M48.9935 30.4265C48.9935 30.5113 48.9684 30.5941 48.9213 30.6646C48.8742 30.7351 48.8073 30.7901 48.7289 30.8225C48.6506 30.855 48.5644 30.8635 48.4813 30.8469C48.3981 30.8304 48.3217 30.7896 48.2618 30.7296C48.2018 30.6697 48.161 30.5933 48.1445 30.5101C48.1279 30.427 48.1364 30.3408 48.1689 30.2625C48.2013 30.1841 48.2562 30.1172 48.3267 30.0701C48.3972 30.023 48.4801 29.9978 48.5649 29.9978C48.6786 29.9978 48.7876 30.043 48.868 30.1234C48.9484 30.2038 48.9935 30.3128 48.9935 30.4265Z" fill="#247D7E"/>
<path d="M49.389 29.9594C49.334 30.0143 49.0208 29.745 48.5592 29.7231C48.0975 29.7011 47.7513 29.9154 47.7018 29.8549C47.6524 29.7945 47.7348 29.7285 47.8887 29.6241C48.0923 29.4916 48.3331 29.4281 48.5755 29.4429C48.818 29.4578 49.0492 29.5502 49.2351 29.7066C49.389 29.8275 49.433 29.9319 49.389 29.9594Z" fill="#247D7E"/>
<path d="M44.031 30.4265C44.0317 30.4825 44.0213 30.5381 44.0004 30.5901C43.9795 30.6421 43.9484 30.6894 43.909 30.7293C43.8697 30.7692 43.8228 30.8008 43.7711 30.8224C43.7194 30.844 43.6639 30.8552 43.6079 30.8552C43.4942 30.8552 43.3851 30.81 43.3047 30.7296C43.2244 30.6492 43.1792 30.5402 43.1792 30.4265C43.1792 30.3128 43.2244 30.2038 43.3047 30.1234C43.3851 30.043 43.4942 29.9978 43.6079 29.9978C43.6639 29.9978 43.7194 30.009 43.7711 30.0306C43.8228 30.0522 43.8697 30.0838 43.909 30.1237C43.9484 30.1636 43.9795 30.2109 44.0004 30.2629C44.0213 30.3148 44.0317 30.3705 44.031 30.4265Z" fill="#247D7E"/>
<path d="M44.3001 29.9594C44.2452 30.0143 43.9264 29.745 43.4648 29.7231C43.0032 29.7011 42.6624 29.9154 42.613 29.8549C42.5635 29.7945 42.6459 29.7285 42.7998 29.6241C43.0034 29.4916 43.2442 29.4281 43.4866 29.4429C43.7291 29.4578 43.9604 29.5502 44.1462 29.7066C44.2836 29.8275 44.3276 29.9319 44.3001 29.9594Z" fill="#247D7E"/>
<path d="M45.9596 33.8228C46.2055 33.759 46.4586 33.7276 46.7125 33.7293C46.8279 33.7293 46.9488 33.7293 46.9763 33.6194C46.9934 33.4928 46.9704 33.364 46.9104 33.2512C46.806 32.938 46.7015 32.6302 46.5971 32.3005C46.3773 31.63 46.1849 31.0145 46.0476 30.5694C45.9602 30.332 45.903 30.0846 45.8772 29.833C46.0009 30.0517 46.0986 30.284 46.1685 30.5254C46.3278 30.965 46.5367 31.5751 46.7565 32.251C46.8554 32.5753 46.9543 32.8885 47.0587 33.2018C47.1272 33.3517 47.1408 33.5209 47.0972 33.6799C47.0564 33.744 46.9977 33.7948 46.9284 33.8261C46.8591 33.8573 46.7821 33.8676 46.707 33.8557C46.4574 33.8708 46.2069 33.8597 45.9596 33.8228Z" fill="#247D7E"/>
<path d="M44.4427 34.2844C43.9811 33.9766 45.7342 35.0538 46.6739 35.0538C46.5053 35.2875 46.2627 35.4575 45.9855 35.5363C45.7082 35.6151 45.4125 35.5981 45.1462 35.4879C44.157 35.0703 44.4427 34.2844 44.4427 34.2844Z" fill="white"/>
<path d="M46.0916 39.5602C44.5024 39.4917 42.9658 38.9712 41.6621 38.0599C41.6621 38.0599 42.6678 40.5164 46.0201 40.379L46.0916 39.5602Z" fill="#EB996E"/>
<path d="M48.2567 22.348C44.9593 18.9077 42.6677 19.6002 41.3652 19.6002C39.9348 19.7604 38.5531 20.2146 37.3066 20.9343C36.0601 21.654 34.9759 22.6236 34.122 23.7823C33.1988 24.744 31.8798 27.8765 31.726 28.9811C31.6655 30.0963 31.6765 31.2142 31.7589 32.328C31.7589 33.4271 31.4951 34.6471 30.6598 35.389C30.1102 35.8561 29.3848 36.1254 29.0661 36.7574C28.9198 37.1445 28.9133 37.5705 29.0477 37.9619C29.1822 38.3532 29.4492 38.6853 29.8025 38.9007C30.5273 39.3079 31.361 39.4789 32.1876 39.3898C32.1205 40.2219 32.3643 41.0493 32.8719 41.7121C33.3794 42.375 34.1146 42.8261 34.9354 42.9784C35.7724 43.0888 36.6195 42.8702 37.2985 42.3684C37.86 42.9138 38.4547 43.424 39.0791 43.8962C39.2183 39.0307 39.1157 34.1671 38.7713 29.3054C41.0025 28.9097 45.0033 27.7062 45.7012 24.134C46.5915 26.1674 47.9434 27.2775 49.7405 28.8163C49.7515 28.8218 51.587 25.7937 48.2567 22.348Z" fill="#247D7E"/>
<path d="M39.03 28.0194C39.4844 27.9624 39.9441 27.9624 40.3984 28.0194C41.4701 28.137 42.5544 28.0092 43.5694 27.6457C44.1056 27.4248 44.5659 27.0524 44.8938 26.5741C45.1609 26.1743 45.3475 25.7263 45.4434 25.2551C45.6028 24.4473 45.5258 23.9197 45.5753 23.9142C45.7152 24.3605 45.7416 24.8346 45.6522 25.2936C45.5852 25.8008 45.4109 26.2878 45.1411 26.7225C44.794 27.2566 44.2942 27.674 43.7068 27.9205C42.6522 28.304 41.5168 28.41 40.4094 28.2283C39.9441 28.2022 39.4822 28.1322 39.03 28.0194Z" fill="#247D7E"/>
<path d="M30.325 36.2024C30.5111 36.2066 30.6967 36.1806 30.8745 36.1254C31.1063 36.0339 31.3111 35.885 31.4697 35.6928C31.6283 35.5006 31.7355 35.2713 31.7813 35.0263C31.8713 34.2799 31.7293 33.5239 31.3746 32.861C31.1831 32.44 31.025 32.0045 30.902 31.5586C30.785 31.0676 30.7533 30.56 30.8086 30.0583C30.9216 29.0944 31.2626 28.1713 31.8033 27.3655C32.238 26.7166 32.745 26.1193 33.3146 25.5849C33.7927 25.1233 34.2048 24.7825 34.4906 24.5517C34.629 24.4176 34.7864 24.3047 34.9577 24.2165C34.9907 24.2549 34.4082 24.799 33.4629 25.7333C32.9275 26.2748 32.4488 26.8696 32.0341 27.5083C31.5329 28.2863 31.2135 29.1673 31.0998 30.0858C31.0521 30.5561 31.0799 31.0311 31.1823 31.4926C31.2991 31.9244 31.4479 32.3469 31.6274 32.7566C31.9928 33.4711 32.118 34.2844 31.9846 35.0758C31.9226 35.3439 31.7908 35.5908 31.6026 35.7915C31.4144 35.9923 31.1765 36.1397 30.913 36.2188C30.7684 36.253 30.6179 36.253 30.4733 36.2188C30.3689 36.2353 30.325 36.2134 30.325 36.2024Z" fill="#247D7E"/>
<path d="M48.6963 176.027V174.928L40.0078 174.763V178.153L40.5574 178.186C42.948 178.324 52.7191 178.703 54.2963 178.219C56.0549 177.692 48.6963 176.027 48.6963 176.027Z" fill="#1DC3C4"/>
<g opacity="0.6">
<path opacity="0.6" d="M43.1072 178.208C42.9794 177.479 42.5883 176.822 42.0081 176.362C41.4355 175.904 40.7116 175.678 39.9802 175.73V178.148L43.1072 178.208Z" fill="white"/>
</g>
<g opacity="0.6">
<path opacity="0.6" d="M52.2794 176.966C52.2794 176.966 54.8568 177.708 54.5381 178.137C54.2193 178.566 44.3218 178.544 39.9583 178.137V177.945L51.499 178.055C51.499 178.055 51.7738 177.01 52.2794 176.966Z" fill="white"/>
</g>
<path d="M39.9143 177.895H40.0627L40.4913 177.923L42.0631 177.994C43.393 178.044 45.234 178.087 47.2619 178.093C49.2898 178.098 51.1088 178.06 52.4607 178.016L54.038 177.95H54.4666H54.615H54.0325L52.4607 177.978C51.1308 177.978 49.2898 178.027 47.2619 178.027C45.234 178.027 43.415 177.989 42.0631 177.956L40.4913 177.923H40.0627L39.9143 177.895Z" fill="#247D7E"/>
<path d="M51.5104 178.247C51.5814 177.986 51.6809 177.733 51.8071 177.494C51.9659 177.272 52.1504 177.069 52.3567 176.889C52.0883 176.991 51.8657 177.186 51.7302 177.439C51.5635 177.674 51.4856 177.96 51.5104 178.247Z" fill="#247D7E"/>
<path d="M48.7899 176.741C48.8174 176.741 48.9383 176.609 49.0647 176.411C49.1558 176.297 49.2197 176.164 49.2515 176.021C49.2241 176.021 49.1032 176.153 48.9768 176.356C48.8504 176.56 48.7679 176.725 48.7899 176.741Z" fill="#247D7E"/>
<path d="M48.0919 176.373C48.0919 176.373 48.2458 176.301 48.3942 176.17C48.5426 176.038 48.6525 175.906 48.6305 175.884C48.6085 175.862 48.4766 175.955 48.3282 176.087C48.1798 176.219 48.0699 176.351 48.0919 176.373Z" fill="#247D7E"/>
<path d="M47.6467 175.554C47.7928 175.606 47.9486 175.625 48.1029 175.609C48.2545 175.628 48.4085 175.613 48.5535 175.565C48.4091 175.514 48.2556 175.493 48.1029 175.505C47.8501 175.505 47.6467 175.521 47.6467 175.554Z" fill="#247D7E"/>
<path d="M47.4985 174.977C47.6485 175.076 47.8246 175.127 48.0041 175.125C48.1796 175.155 48.36 175.13 48.5207 175.054C48.3515 175.029 48.1806 175.018 48.0096 175.021C47.841 174.991 47.6699 174.976 47.4985 174.977Z" fill="#247D7E"/>
<path d="M49.0864 175.988C49.2682 176.02 49.4542 176.02 49.636 175.988C49.8375 175.966 50.0364 175.924 50.2295 175.862C50.3482 175.827 50.4625 175.779 50.5702 175.719C50.6364 175.682 50.6857 175.621 50.7076 175.549C50.7159 175.507 50.7125 175.464 50.698 175.424C50.6835 175.385 50.6583 175.35 50.6252 175.323C50.4127 175.219 50.1706 175.191 49.94 175.245C49.7095 175.299 49.5049 175.432 49.3612 175.62C49.275 175.73 49.2132 175.858 49.1798 175.994C49.1689 176.043 49.1689 176.093 49.1798 176.142C49.2395 175.971 49.3267 175.812 49.4381 175.669C49.5614 175.522 49.726 175.415 49.9108 175.362C50.1295 175.288 50.3686 175.304 50.5757 175.406C50.6637 175.472 50.6307 175.576 50.5318 175.636C50.4309 175.688 50.3262 175.733 50.2185 175.768C50.0304 175.833 49.8375 175.883 49.6415 175.917C49.3008 175.972 49.0864 175.972 49.0864 175.988Z" fill="#247D7E"/>
<path d="M49.2296 176.016C49.301 175.901 49.3247 175.763 49.2955 175.631C49.279 175.486 49.2281 175.346 49.1471 175.224C49.1011 175.14 49.0337 175.069 48.9517 175.019C48.8697 174.969 48.7761 174.941 48.68 174.939C48.6233 174.95 48.5736 174.984 48.5417 175.033C48.5098 175.081 48.4983 175.14 48.5097 175.197C48.5239 175.285 48.5557 175.369 48.6031 175.444C48.6755 175.567 48.7642 175.68 48.8669 175.779C48.9533 175.879 49.0627 175.957 49.1856 176.005C49.1856 176.005 49.0757 175.906 48.9218 175.73C48.8316 175.627 48.7524 175.514 48.6855 175.395C48.6141 175.279 48.5591 175.065 48.6855 175.043C48.8119 175.021 48.9658 175.164 49.0482 175.279C49.1274 175.387 49.1819 175.511 49.2076 175.642C49.2266 175.766 49.2339 175.891 49.2296 176.016Z" fill="#247D7E"/>
<path d="M39.854 175.691C39.854 175.691 40.1013 175.691 40.497 175.691C41.006 175.753 41.4886 175.953 41.8929 176.268C42.2907 176.593 42.5912 177.021 42.7612 177.505C42.8931 177.873 42.9041 178.126 42.926 178.12C42.9367 178.064 42.9367 178.006 42.926 177.95C42.9117 177.791 42.8803 177.635 42.8326 177.483C42.6731 176.975 42.3696 176.525 41.9588 176.186C41.5395 175.861 41.0321 175.669 40.5025 175.636C40.3436 175.619 40.1832 175.619 40.0244 175.636C39.9651 175.646 39.9077 175.665 39.854 175.691Z" fill="#247D7E"/>
<path d="M44.0305 177.082C44.8667 177.241 45.7245 177.25 46.564 177.109C46.564 177.076 46.0144 177.109 45.2945 177.109C44.5746 177.109 44.036 177.049 44.0305 177.082Z" fill="#247D7E"/>
<path d="M42.3323 177.076C42.3323 177.076 42.3762 177.192 42.4367 177.324C42.4971 177.456 42.5246 177.571 42.5521 177.565C42.5796 177.56 42.6016 177.428 42.5521 177.28C42.5026 177.131 42.3488 177.054 42.3323 177.076Z" fill="#247D7E"/>
<path d="M41.6953 176.279C41.6953 176.279 41.7283 176.389 41.8162 176.477C41.9041 176.565 41.9976 176.626 42.0196 176.609C42.0415 176.593 41.9811 176.494 41.8932 176.406C41.8052 176.318 41.6953 176.257 41.6953 176.279Z" fill="#247D7E"/>
<path d="M40.7773 175.911C40.7773 175.944 40.8982 175.939 41.0246 175.988C41.151 176.038 41.2444 176.098 41.2664 176.082C41.2883 176.065 41.2169 175.939 41.063 175.884C40.9092 175.829 40.7718 175.911 40.7773 175.911Z" fill="#247D7E"/>
<path d="M40.1287 175.741C40.1287 175.768 40.1671 175.812 40.2386 175.84C40.31 175.867 40.376 175.867 40.387 175.84C40.3979 175.812 40.3485 175.768 40.277 175.741C40.2056 175.713 40.1397 175.713 40.1287 175.741Z" fill="#247D7E"/>
<path opacity="0.3" d="M30.418 73.1712C30.418 73.1712 31.4072 80.7936 38.8262 80.5188C43.7885 80.2953 48.7306 79.7446 53.6203 78.8701L53.5434 77.4248L30.418 73.1712Z" fill="black"/>
<path d="M73.3936 68.3296C72.7341 67.2689 68.2003 69.7969 67.7991 69.9783C67.3979 70.1596 67.1176 69.5881 67.4858 69.4287C68.0354 69.2144 73.531 66.8403 72.91 65.7961C72.5583 65.2466 71.5801 65.9445 71.5801 65.9445C71.5801 65.9445 66.5681 68.5494 66.2878 68.0438C66.0075 67.5382 68.8872 65.906 69.8984 65.4279C70.9096 64.9498 71.0854 64.2848 70.5029 64.0155C70.1127 63.8342 66.9747 65.2301 65.9855 65.7247C64.9963 66.2193 62.298 67.6371 63.0619 65.8621C63.8258 64.087 63.7378 62.4328 63.4026 62.0151C63.3156 61.9241 63.2024 61.8624 63.0787 61.8388C62.955 61.8152 62.827 61.8308 62.7126 61.8835C62.5982 61.9362 62.5032 62.0232 62.4406 62.1325C62.3781 62.2419 62.3513 62.368 62.3639 62.4933C62.3147 63.143 62.176 63.7829 61.9518 64.3947C61.7902 64.8941 61.5449 65.3624 61.2264 65.7796C60.8527 66.2687 60.5174 66.6644 60.2207 66.9941C57.33 68.0053 49.0811 70.5608 41.3763 69.8574C39.9804 69.731 36.4303 60.4104 36.4303 60.4104L26.835 65.3565C26.835 65.3565 26.6591 65.8785 31.0336 74.3912C36.9908 85.9814 63.9027 73.9571 63.9027 73.9571V73.9296C65.9437 73.5247 67.9617 73.0111 69.9479 72.3908C72.6517 71.4126 72.5693 71.1653 72.3989 70.874C71.9483 70.0772 67.5738 72.4128 68.2222 71.3631C68.8707 70.3135 73.8992 69.1374 73.3936 68.3296Z" fill="#FFBE9D"/>
</svg>
