<svg width="64" height="62" viewBox="0 0 64 62" fill="none" xmlns="http://www.w3.org/2000/svg">
<path d="M12 54.15C12 54.15 8 54.15 8 50.35C8 46.55 12 35.15 32 35.15C52 35.15 56 46.55 56 50.35C56 54.15 52 54.15 52 54.15H12ZM32 31.35C35.1826 31.35 38.2348 30.1489 40.4853 28.011C42.7357 25.8731 44 22.9735 44 19.95C44 16.9265 42.7357 14.0269 40.4853 11.889C38.2348 9.75107 35.1826 8.55 32 8.55C28.8174 8.55 25.7652 9.75107 23.5147 11.889C21.2643 14.0269 20 16.9265 20 19.95C20 22.9735 21.2643 25.8731 23.5147 28.011C25.7652 30.1489 28.8174 31.35 32 31.35Z" fill="#1DC3C4"/>
</svg>
