<svg width="64" height="64" viewBox="0 0 64 64" fill="none" xmlns="http://www.w3.org/2000/svg">
<path d="M4 20V57C4 57.2652 4.10536 57.5196 4.29289 57.7071C4.48043 57.8946 4.73478 58 5 58H22V20C22 19.4696 21.7893 18.9609 21.4142 18.5858C21.0391 18.2107 20.5304 18 20 18H6C5.46957 18 4.96086 18.2107 4.58579 18.5858C4.21071 18.9609 4 19.4696 4 20V20Z" stroke="#1DC3C4" stroke-width="4" stroke-linecap="round" stroke-linejoin="round"/>
<path d="M40 6H24C23.4696 6 22.9609 6.21071 22.5858 6.58579C22.2107 6.96086 22 7.46957 22 8V58H42V8C42 7.46957 41.7893 6.96086 41.4142 6.58579C41.0391 6.21071 40.5304 6 40 6V6Z" stroke="#1DC3C4" stroke-width="4" stroke-linecap="round" stroke-linejoin="round"/>
<path d="M58 26H44C43.4696 26 42.9609 26.2107 42.5858 26.5858C42.2107 26.9609 42 27.4696 42 28V58H59C59.2652 58 59.5196 57.8946 59.7071 57.7071C59.8946 57.5196 60 57.2652 60 57V28C60 27.4696 59.7893 26.9609 59.4142 26.5858C59.0391 26.2107 58.5304 26 58 26Z" stroke="#1DC3C4" stroke-width="4" stroke-linecap="round" stroke-linejoin="round"/>
</svg>
