<svg width="341" height="350" viewBox="0 0 341 350" fill="none" xmlns="http://www.w3.org/2000/svg">
<path d="M175.877 350C260.051 350 328.288 346.822 328.288 342.901C328.288 338.98 260.051 335.802 175.877 335.802C91.7025 335.802 23.4656 338.98 23.4656 342.901C23.4656 346.822 91.7025 350 175.877 350Z" fill="#247D7E"/>
<path d="M279.071 16.1134C280.16 17.94 284.098 20.6184 284.098 20.6261C284.098 20.6338 285.08 17.4948 285.118 17.2876C285.533 14.9008 284.942 10.0427 282.547 8.7764C282.143 8.57513 281.701 8.46148 281.25 8.4429C280.798 8.42432 280.348 8.50122 279.929 8.66857C279.509 8.83592 279.13 9.08995 278.815 9.41403C278.501 9.73812 278.258 10.125 278.104 10.5492C277.39 12.3298 278.142 14.5631 279.071 16.1134Z" fill="#247D7E"/>
<path d="M317.659 44.9702C317.659 45.0162 320.199 42.898 320.345 42.7445C322.01 40.987 324.182 36.6048 322.901 34.2333C322.674 33.8433 322.368 33.5054 322.001 33.2418C321.635 32.9783 321.218 32.7948 320.776 32.7036C320.334 32.6123 319.878 32.6153 319.438 32.7122C318.997 32.8092 318.582 32.998 318.219 33.2663C316.638 34.3484 316.032 36.6278 315.917 38.439C315.848 40.5572 317.659 44.9702 317.659 44.9702Z" fill="#247D7E"/>
<path d="M272.386 28.3008C273.86 29.7129 278.035 31.1788 278.365 31.2939C277.522 33.6705 276.839 36.1012 276.323 38.5695C276.008 40.0046 275.74 41.4705 275.487 42.9364C275.487 42.2533 275.487 41.6317 275.487 41.5472C275.264 39.1374 273.414 34.64 270.759 34.0184C270.314 33.9292 269.856 33.935 269.414 34.0354C268.972 34.1358 268.556 34.3286 268.194 34.6011C267.831 34.8736 267.53 35.2197 267.311 35.6166C267.092 36.0135 266.959 36.4522 266.922 36.9041C266.699 38.8074 268.011 40.7414 269.316 42.0154C270.621 43.2894 274.174 44.6094 275.118 44.9471C275.026 45.5151 274.926 46.0753 274.842 46.6432C274.42 49.3524 274.005 52.0155 273.522 54.7016C273.353 55.6303 273.153 56.5436 272.954 57.4492C272.954 56.8429 272.954 56.3287 272.954 56.2519C272.731 53.8344 270.882 49.3447 268.234 48.7154C267.79 48.6274 267.332 48.6341 266.89 48.7351C266.448 48.836 266.033 49.0289 265.671 49.3012C265.309 49.5735 265.008 49.919 264.789 50.3153C264.569 50.7116 264.436 51.1497 264.397 51.6011C264.174 53.5044 265.486 55.4384 266.791 56.7201C268.096 58.0017 271.312 59.1836 272.424 59.5904C272.194 60.5114 271.964 61.4477 271.695 62.3303C271.503 62.9366 271.358 63.5275 271.127 64.1261L270.483 65.8836C270.038 66.9888 269.585 68.1323 269.117 69.1991C268.802 69.9666 268.487 70.6496 268.173 71.3557C268.349 70.4347 268.664 68.6158 268.671 68.4623C268.817 66.0448 267.674 61.2865 265.141 60.3041C264.715 60.1531 264.262 60.0937 263.811 60.1301C263.361 60.1664 262.923 60.2976 262.526 60.5149C262.13 60.7323 261.784 61.0311 261.511 61.3915C261.238 61.752 261.045 62.166 260.943 62.6066C260.429 64.4561 261.434 66.5897 262.532 68.0249C263.744 69.6059 267.49 71.6243 267.958 71.8622C267.428 73.0288 266.906 74.1646 266.423 75.2314C264.949 78.3013 263.583 80.9337 262.493 82.9061L263.975 83.9652C265.041 81.9007 266.407 79.1608 267.881 75.8914C268.426 74.7095 268.978 73.4278 269.531 72.1078C270.862 72.4373 272.209 72.6936 273.568 72.8753C273.821 74.9014 275.694 78.401 275.939 78.8538C274.85 79.5445 273.79 80.1969 272.777 80.8032C269.892 82.5377 267.359 83.9345 265.371 84.9936L266.983 86.1448C268.84 85.0857 271.097 83.7656 273.614 82.177C274.727 81.4786 275.916 80.7188 277.083 79.9206C277.436 80.3043 280.345 83.4203 282.179 84.1954C283.852 84.9015 286.17 85.3313 287.827 84.3719C288.225 84.1586 288.572 83.8642 288.848 83.5079C289.124 83.1515 289.322 82.7411 289.429 82.3032C289.536 81.8654 289.55 81.41 289.47 80.9665C289.39 80.5229 289.217 80.1012 288.963 79.7287C287.375 77.5261 282.478 77.6259 280.176 78.3703C280.038 78.4164 278.641 79.061 277.728 79.4832C278.219 79.1608 278.687 78.8462 279.186 78.5008C280.168 77.8331 281.135 77.1347 282.171 76.3826L283.652 75.2314C284.151 74.863 284.635 74.4025 285.141 73.9881C286.277 72.9904 287.382 71.9313 288.472 70.8415C289.063 71.701 291.204 74.7249 292.755 75.6765C294.305 76.6282 296.523 77.3956 298.303 76.6973C298.729 76.5485 299.119 76.3115 299.446 76.0018C299.774 75.6921 300.033 75.3165 300.205 74.8999C300.378 74.4832 300.46 74.0348 300.447 73.5841C300.434 73.1333 300.326 72.6904 300.13 72.2843C298.894 69.8745 294.044 69.2144 291.649 69.6135C291.504 69.6135 289.823 70.1124 288.902 70.381C289.547 69.7133 290.199 69.061 290.836 68.3702C292.67 66.3748 294.466 64.295 296.27 62.2305L297.935 60.3502C298.142 60.6572 300.606 64.3103 302.34 65.3771C303.875 66.3211 306.116 67.0962 307.897 66.3978C308.321 66.2471 308.709 66.009 309.035 65.6989C309.362 65.3887 309.619 65.0135 309.791 64.5976C309.964 64.1816 310.046 63.7341 310.035 63.284C310.023 62.8339 309.917 62.3914 309.723 61.9849C308.488 59.5674 303.637 58.915 301.243 59.3141C301.066 59.3141 298.641 60.0279 298.035 60.2351C299.255 58.8536 300.491 57.4952 301.757 56.1982C303.486 54.4458 305.326 52.8076 307.267 51.2941C307.367 51.4399 309.923 55.2619 311.703 56.3517C313.238 57.2957 315.472 58.0708 317.26 57.3724C317.685 57.2227 318.073 56.9851 318.4 56.6752C318.728 56.3653 318.986 55.9899 319.158 55.5736C319.33 55.1573 319.413 54.7093 319.401 54.2589C319.388 53.8085 319.281 53.3658 319.086 52.9595C317.843 50.5496 312.993 49.8896 310.606 50.2887C310.445 50.2887 308.603 50.8413 307.728 51.1099L307.659 50.9718C309.629 49.493 311.727 48.1934 313.929 47.0884C315.134 46.459 316.316 45.9372 317.482 45.446C317.889 46.2135 319.785 49.6594 321.258 50.8183C322.732 51.9771 324.819 52.9441 326.669 52.4453C327.108 52.3444 327.521 52.1519 327.881 51.8803C328.241 51.6088 328.539 51.2643 328.757 50.8694C328.974 50.4745 329.105 50.0382 329.142 49.5889C329.179 49.1397 329.121 48.6877 328.971 48.2626C328.004 45.7223 323.254 44.548 320.836 44.6785C320.706 44.6785 319.37 44.9011 318.403 45.0776C318.933 44.8627 319.478 44.6325 319.992 44.4406C321.903 43.6731 323.707 43.1589 325.303 42.6831C326.216 42.4222 327.045 42.1996 327.82 42.0001C328.588 42.545 331.803 44.6785 333.622 45.0162C335.441 45.3539 337.759 45.2618 339.171 43.9648C339.513 43.6721 339.79 43.3106 339.984 42.9037C340.177 42.4969 340.283 42.054 340.294 41.6036C340.304 41.1533 340.22 40.7058 340.047 40.2901C339.873 39.8744 339.614 39.5 339.286 39.1911C337.26 37.3876 332.502 38.5311 330.414 39.7591C330.238 39.8665 327.605 41.8466 327.644 41.8773H327.69C326.922 42.0538 326.155 42.2533 325.257 42.4836C323.645 42.921 321.826 43.4352 319.885 44.1259C317.791 44.8527 315.742 45.6983 313.745 46.6586C311.476 47.7346 309.309 49.0111 307.267 50.4729L307.198 50.5266C307.666 49.8896 308.933 48.0554 309.01 47.9019C310.153 45.7683 311.112 40.9947 309.224 39.0146C308.902 38.7004 308.517 38.4573 308.095 38.3012C307.673 38.1451 307.222 38.0794 306.773 38.1083C306.324 38.1373 305.886 38.2602 305.487 38.4692C305.088 38.6782 304.738 38.9686 304.458 39.3216C303.223 40.7875 303.238 43.1589 303.63 44.9088C304.082 46.9042 306.753 50.4268 306.968 50.7108C304.947 52.2348 303.029 53.8911 301.227 55.6686C300.176 56.6971 299.148 57.7715 298.158 58.8536C298.549 58.2934 298.925 57.7792 298.925 57.7101C300.069 55.5689 301.028 50.8029 299.14 48.8152C298.818 48.5009 298.433 48.2579 298.011 48.1018C297.588 47.9457 297.138 47.8799 296.689 47.9089C296.239 47.9378 295.801 48.0608 295.403 48.2698C295.004 48.4788 294.653 48.7692 294.374 49.1222C293.131 50.588 293.154 52.9595 293.545 54.7093C293.936 56.4591 296.17 59.552 296.768 60.3579C296.377 60.7723 296.001 61.1944 295.602 61.6165C293.76 63.6426 291.926 65.6687 290.061 67.6104C289.408 68.2935 288.733 68.9382 288.065 69.5905C288.411 69.084 288.702 68.6619 288.741 68.5928C289.884 66.4516 290.836 61.6856 288.948 59.7055C288.627 59.3897 288.242 59.1452 287.82 58.9877C287.398 58.8303 286.948 58.7635 286.498 58.7918C286.049 58.82 285.61 58.9426 285.211 59.1516C284.812 59.3606 284.461 59.6513 284.182 60.0048C282.946 61.4707 282.962 63.8422 283.361 65.592C283.76 67.3418 285.763 70.1431 286.431 71.0947C285.732 71.7394 285.026 72.3918 284.312 72.9827C283.814 73.3818 283.368 73.7962 282.847 74.1646L281.312 75.2774C280.329 75.9528 279.316 76.6589 278.342 77.2882C277.666 77.7333 277.014 78.1478 276.361 78.5699C277.022 77.8945 278.288 76.5514 278.38 76.4286C279.593 74.6756 280.338 72.6413 280.544 70.5191C280.688 70.3319 280.814 70.1315 280.92 69.9205C281.135 69.5235 281.263 69.0857 281.298 68.6357C281.332 68.1857 281.271 67.7336 281.119 67.3086C280.967 66.8837 280.727 66.4955 280.415 66.1694C280.103 65.8432 279.726 65.5863 279.309 65.4155C276.768 64.4638 272.747 67.2421 271.235 69.1377C271.143 69.2451 270.314 70.5729 269.807 71.4401C270.03 70.8952 270.252 70.3733 270.483 69.8131C270.928 68.7079 271.35 67.5951 271.803 66.3978C271.995 65.8146 272.202 65.2236 272.401 64.625C272.601 64.0264 272.762 63.3894 272.954 62.76C273.353 61.3095 273.721 59.813 273.998 58.3011C274.965 58.6925 278.418 60.0355 280.237 59.9741C282.056 59.9127 284.397 59.2911 285.502 57.7562C285.774 57.3967 285.967 56.9839 286.069 56.5448C286.17 56.1057 286.178 55.6501 286.092 55.2076C286.006 54.7652 285.828 54.3459 285.569 53.9771C285.31 53.6082 284.976 53.2981 284.589 53.0669C282.225 51.7315 277.82 53.8344 276.047 55.5152C275.932 55.6226 274.788 56.9426 274.174 57.6871C274.358 56.7738 274.535 55.8682 274.688 54.9396C275.118 52.2611 275.456 49.5673 275.832 46.8274C275.939 45.9909 276.062 45.1697 276.177 44.3408C276.523 44.479 280.59 46.1674 282.632 46.0983C284.435 46.0369 286.722 45.4537 287.827 43.888C288.098 43.5275 288.291 43.1141 288.392 42.6746C288.493 42.2351 288.501 41.7793 288.414 41.3366C288.328 40.894 288.15 40.4743 287.892 40.1047C287.634 39.7351 287.3 39.4239 286.914 39.1911C284.55 37.8634 280.145 40.0046 278.372 41.647C278.234 41.7698 276.592 43.6808 276.2 44.1873C276.461 42.3608 276.738 40.5419 277.083 38.769C277.522 36.3634 278.12 33.9893 278.871 31.6623C279.032 31.7313 283.269 33.5042 285.356 33.4351C287.16 33.3737 289.447 32.7905 290.552 31.2248C290.824 30.8653 291.017 30.4526 291.119 30.0135C291.22 29.5743 291.228 29.1187 291.142 28.6763C291.056 28.2339 290.878 27.8146 290.619 27.4457C290.36 27.0769 290.026 26.7668 289.639 26.5356C287.275 25.2079 282.87 27.3414 281.097 28.9838C280.982 29.0913 279.723 30.5187 279.147 31.2862L279.009 31.2095C279.833 28.8898 280.86 26.6477 282.079 24.5095C282.739 23.3276 283.438 22.2071 284.136 21.1787C284.903 21.5931 288.372 23.435 290.276 23.5808C292.179 23.7267 294.42 23.389 295.686 21.9538C295.996 21.6258 296.233 21.2364 296.382 20.8108C296.531 20.3853 296.589 19.9331 296.552 19.4836C296.516 19.0342 296.384 18.5975 296.168 18.202C295.951 17.8065 295.654 17.4609 295.295 17.1878C293.092 15.6069 288.48 17.2492 286.53 18.7228C286.423 18.7995 285.433 19.7128 284.727 20.3959C285.049 19.9277 285.379 19.4365 285.694 18.9914C286.891 17.326 288.088 15.8678 289.163 14.5938C289.777 13.8724 290.345 13.2277 290.882 12.6368C291.841 12.6368 295.679 12.6368 297.382 11.946C299.086 11.2553 300.974 9.8662 301.435 8.00893C301.559 7.57575 301.59 7.12129 301.527 6.67517C301.463 6.22905 301.307 5.80128 301.067 5.41971C300.828 5.03814 300.51 4.71133 300.136 4.46058C299.761 4.20983 299.338 4.04076 298.894 3.96438C296.208 3.58065 292.87 7.15704 291.811 9.33665C291.718 9.52084 290.613 12.6291 290.667 12.6291H290.721C290.191 13.1893 289.631 13.8033 289.025 14.4787C287.927 15.7297 286.722 17.1648 285.456 18.8149C284.105 20.5756 282.857 22.4129 281.718 24.3176C280.432 26.4458 279.341 28.6856 278.457 31.0099C278.452 31.0379 278.452 31.0664 278.457 31.0943C278.503 30.3269 278.541 28.0782 278.526 27.9017C278.303 25.4918 276.454 20.9945 273.806 20.3728C273.361 20.2836 272.903 20.2894 272.461 20.3898C272.019 20.4903 271.603 20.6831 271.24 20.9556C270.878 21.2281 270.577 21.5741 270.358 21.971C270.139 22.3679 270.006 22.8067 269.968 23.2585C269.769 25.0851 271.081 27.0575 272.386 28.3008Z" fill="#247D7E"/>
<path d="M201.265 55.6072C203.26 54.8397 206.637 51.5013 206.637 51.5013C206.637 51.5013 203.744 49.9663 203.567 49.8819C201.303 49.03 196.422 48.7154 194.734 50.8412C194.463 51.201 194.272 51.6136 194.171 52.0523C194.071 52.4909 194.064 52.9457 194.151 53.3872C194.238 53.8288 194.417 54.2471 194.676 54.615C194.935 54.9829 195.268 55.2922 195.655 55.5228C197.228 56.5589 199.569 56.2212 201.265 55.6072Z" fill="#247D7E"/>
<path d="M236.745 23.0128C236.799 23.0128 235.21 20.1272 235.056 19.943C233.637 17.9783 229.738 15.0235 227.159 15.8601C226.735 16.0112 226.347 16.2502 226.02 16.5614C225.694 16.8725 225.437 17.2489 225.267 17.666C225.096 18.0831 225.015 18.5315 225.029 18.982C225.043 19.4325 225.151 19.875 225.348 20.2807C226.115 22.0382 228.249 23.0589 230.014 23.4733C232.056 23.9875 236.745 23.0128 236.745 23.0128Z" fill="#247D7E"/>
<path d="M212.002 64.4254C213.667 63.2359 215.877 59.4062 216.054 59.0992C218.241 60.3687 220.51 61.4917 222.846 62.4607C224.205 63.0363 225.594 63.5659 226.99 64.0878C226.315 63.9419 225.709 63.8191 225.624 63.8115C223.214 63.5889 218.418 64.5789 217.351 67.0732C217.186 67.4924 217.111 67.9416 217.131 68.3915C217.151 68.8415 217.266 69.2823 217.467 69.6853C217.668 70.0883 217.951 70.4446 218.299 70.731C218.647 71.0174 219.051 71.2276 219.485 71.348C221.311 71.9159 223.483 70.9873 224.957 69.9359C226.43 68.8844 228.403 65.638 228.901 64.7785L230.513 65.3617C233.099 66.275 235.686 67.1806 238.188 68.14C239.07 68.4853 239.922 68.846 240.782 69.2144C240.191 69.084 239.684 68.9842 239.608 68.9765C237.19 68.754 232.401 69.744 231.334 72.2306C231.167 72.6496 231.09 73.0992 231.108 73.5501C231.126 74.0009 231.239 74.4428 231.44 74.847C231.641 75.2512 231.924 75.6085 232.272 75.8955C232.62 76.1826 233.025 76.393 233.46 76.513C235.294 77.081 237.459 76.1523 238.932 75.1009C240.406 74.0495 242.186 71.1178 242.77 70.097C243.637 70.4961 244.512 70.8645 245.333 71.3173C245.885 71.6243 246.446 71.8775 246.991 72.2152L248.602 73.1669C249.608 73.8116 250.644 74.4639 251.603 75.1163C252.278 75.5691 252.915 76.0065 253.552 76.4516C252.678 76.1063 250.951 75.4616 250.797 75.4232C248.449 74.8323 243.56 75.0779 242.125 77.388C241.898 77.7767 241.756 78.2088 241.707 78.6561C241.658 79.1035 241.704 79.5561 241.841 79.9846C241.979 80.4131 242.205 80.8079 242.505 81.1433C242.805 81.4787 243.172 81.7472 243.583 81.9314C245.31 82.7756 247.589 82.1846 249.209 81.3711C250.981 80.4732 253.66 77.1654 253.99 76.7663C255.041 77.5338 256.062 78.2245 257.014 78.9229C259.784 80.949 262.094 82.7602 263.852 84.2031L265.164 82.9521C263.33 81.5169 260.889 79.6673 257.95 77.5798C256.883 76.8124 255.724 76.0449 254.527 75.2774C255.095 74.0289 255.587 72.7475 256.001 71.4401C258.042 71.5629 261.826 70.3656 262.317 70.2121C262.793 71.4017 263.246 72.5683 263.652 73.6811C264.819 76.8354 265.724 79.5829 266.4 81.7318L267.827 80.3581C267.137 78.3396 266.246 75.876 265.149 73.1055C264.673 71.8929 264.144 70.6035 263.576 69.2682C264.021 68.9919 267.62 66.7125 268.718 65.0471C269.715 63.5121 270.567 61.3325 269.93 59.529C269.795 59.099 269.57 58.7025 269.271 58.3651C268.972 58.0278 268.605 57.7573 268.195 57.5712C267.784 57.3851 267.339 57.2876 266.888 57.2851C266.438 57.2826 265.991 57.3751 265.579 57.5566C263.123 58.7078 262.317 63.5352 262.632 65.9373C262.632 66.0832 263.015 67.5951 263.269 68.5467C263.038 68.0095 262.816 67.4876 262.57 66.9351C262.094 65.8452 261.58 64.7708 261.035 63.6119C260.759 63.0593 260.467 62.5068 260.183 61.9465C259.899 61.3863 259.546 60.826 259.232 60.2504C258.464 58.9534 257.628 57.6717 256.753 56.4131C257.712 55.991 261.081 54.4484 262.302 53.0976C263.522 51.7469 264.688 49.7131 264.328 47.8328C264.26 47.387 264.099 46.9605 263.855 46.5811C263.611 46.2018 263.29 45.8781 262.913 45.6311C262.536 45.3842 262.111 45.2196 261.665 45.148C261.22 45.0764 260.765 45.0995 260.329 45.2157C257.727 45.9832 256.193 50.634 256.139 53.0592C256.139 53.2127 256.292 54.9549 256.392 55.9065C255.863 55.1391 255.341 54.3716 254.78 53.6041C253.153 51.4322 251.45 49.2833 249.753 47.1344C249.232 46.4744 248.717 45.8144 248.219 45.1467C248.556 45.0008 252.601 43.251 253.967 41.7468C255.179 40.4037 256.354 38.3546 256.001 36.4743C255.932 36.0283 255.77 35.6019 255.525 35.2227C255.281 34.8436 254.959 34.5204 254.581 34.2741C254.203 34.0278 253.777 33.8641 253.331 33.7936C252.886 33.7231 252.43 33.7474 251.995 33.8649C249.4 34.6324 247.866 39.2832 247.812 41.7084C247.812 41.8849 248.034 44.3945 248.119 45.0315C246.991 43.5733 245.878 42.1075 244.842 40.6263C243.428 38.6266 242.147 36.5373 241.004 34.3714C241.158 34.3023 245.394 32.4988 246.791 30.9485C248.004 29.6131 249.178 27.564 248.825 25.6837C248.755 25.2381 248.592 24.8122 248.347 24.4335C248.103 24.0547 247.781 23.7315 247.403 23.4849C247.026 23.2382 246.601 23.0735 246.155 23.0015C245.71 22.9295 245.255 22.9516 244.819 23.0666C242.217 23.8341 240.69 28.4926 240.636 30.9101C240.636 31.0713 240.797 32.9823 240.905 33.8879L240.751 33.934C239.664 31.7145 238.775 29.4031 238.096 27.0268C237.704 25.7297 237.405 24.4711 237.136 23.2355C237.965 22.9745 241.703 21.7619 243.123 20.511C244.542 19.26 245.87 17.4411 245.717 15.4994C245.701 15.0463 245.59 14.6016 245.39 14.1944C245.191 13.7873 244.908 13.427 244.559 13.1371C244.21 12.8472 243.804 12.6343 243.368 12.5123C242.931 12.3904 242.473 12.3622 242.025 12.4295C239.354 12.913 237.328 17.3643 237.006 19.7665C237.006 19.897 236.952 21.2477 236.944 22.2301C236.837 21.6698 236.707 21.0942 236.614 20.557C236.246 18.5309 236.039 16.6659 235.847 15.0082C235.755 14.0566 235.694 13.2047 235.64 12.4065C236.315 11.7311 239.009 8.99128 239.669 7.2568C240.329 5.52232 240.682 3.23527 239.669 1.60824C239.444 1.21752 239.14 0.878556 238.775 0.61345C238.41 0.348344 237.994 0.163046 237.553 0.0696352C237.112 -0.0237757 236.656 -0.0232022 236.216 0.0713186C235.775 0.165839 235.359 0.352184 234.995 0.618208C232.846 2.27594 233.092 7.1647 233.913 9.44408C233.982 9.63595 235.448 12.5907 235.486 12.56L235.525 12.514C235.525 13.2814 235.601 14.118 235.67 15.0159C235.809 16.6813 235.977 18.5693 236.3 20.6031C236.619 22.8 237.07 24.9759 237.651 27.1189C238.282 29.5226 239.127 31.8651 240.175 34.1182L240.222 34.1949C239.677 33.6116 238.111 32.0383 237.981 31.8925C236.093 30.3576 231.549 28.5463 229.285 30.0429C228.915 30.3005 228.604 30.6333 228.371 31.0195C228.138 31.4056 227.989 31.8366 227.934 32.2841C227.879 32.7316 227.919 33.1857 228.051 33.6168C228.184 34.0479 228.405 34.4462 228.702 34.7859C229.914 36.2671 232.232 36.6892 234.074 36.6201C236.116 36.551 240.076 34.5786 240.39 34.4175C241.519 36.6868 242.801 38.8766 244.228 40.9716C245.041 42.1996 245.908 43.4045 246.783 44.6094C246.3 44.1183 245.87 43.6885 245.801 43.6347C243.913 42.0998 239.37 40.2886 237.106 41.7852C236.736 42.0428 236.424 42.3756 236.191 42.7617C235.958 43.1479 235.81 43.5788 235.755 44.0263C235.7 44.4739 235.74 44.928 235.872 45.3591C236.004 45.7901 236.226 46.1885 236.522 46.5281C237.735 48.0093 240.053 48.4314 241.895 48.37C243.737 48.3086 247.136 46.6893 248.034 46.2441C248.38 46.7046 248.71 47.1651 249.055 47.6179C250.705 49.8129 252.363 51.9925 253.921 54.1721C254.473 54.9395 254.988 55.707 255.502 56.4745L254.65 55.6226C252.762 54.0877 248.219 52.2841 245.955 53.773C245.584 54.0306 245.273 54.3634 245.04 54.7496C244.807 55.1357 244.659 55.5666 244.604 56.0142C244.548 56.4617 244.588 56.9158 244.721 57.3469C244.853 57.778 245.075 58.1763 245.371 58.5159C246.576 60.0048 248.902 60.4269 250.744 60.3579C252.585 60.2888 255.655 58.8229 256.722 58.3164C257.229 59.1299 257.735 59.9434 258.188 60.7493C258.48 61.3095 258.802 61.8314 259.071 62.407C259.339 62.9826 259.623 63.5352 259.892 64.0954C260.375 65.1852 260.874 66.3057 261.319 67.3802C261.634 68.1477 261.918 68.846 262.209 69.5675C261.672 68.8 260.582 67.2651 260.483 67.1883C258.983 65.6706 257.121 64.561 255.072 63.965C254.915 63.7887 254.74 63.6292 254.55 63.4891C254.199 63.2054 253.792 62.9989 253.356 62.8832C252.92 62.7675 252.464 62.7451 252.019 62.8176C251.573 62.89 251.148 63.0556 250.771 63.3036C250.394 63.5515 250.073 63.8763 249.83 64.2566C248.426 66.559 250.406 71.0487 251.995 72.8752C252.087 72.9827 253.238 74.0418 253.967 74.7018C253.476 74.3795 253.008 74.0648 252.501 73.7425C251.496 73.0978 250.475 72.4762 249.385 71.8161L247.75 70.8952C247.213 70.5729 246.599 70.3042 246.024 70.0126C244.665 69.3449 243.261 68.7386 241.833 68.1553C242.393 67.2804 244.351 64.1338 244.627 62.3379C244.903 60.5421 244.75 58.1936 243.414 56.8198C243.113 56.4846 242.744 56.2166 242.332 56.0331C241.92 55.8496 241.474 55.7548 241.024 55.7548C240.573 55.7548 240.127 55.8496 239.715 56.0331C239.303 56.2166 238.934 56.4846 238.633 56.8198C236.891 58.8997 238.18 63.6196 239.469 65.6687C239.546 65.7992 240.644 67.2037 241.258 67.9021C240.39 67.5644 239.531 67.219 238.648 66.8967C236.1 65.9834 233.491 65.1315 230.889 64.2719L228.51 63.5045C228.71 63.1975 231.119 59.506 231.426 57.4875C231.695 55.6993 231.549 53.3432 230.214 51.9771C229.912 51.6419 229.544 51.3739 229.132 51.1904C228.72 51.0069 228.274 50.9121 227.823 50.9121C227.372 50.9121 226.926 51.0069 226.515 51.1904C226.103 51.3739 225.734 51.6419 225.432 51.9771C223.69 54.057 224.98 58.7846 226.269 60.8337C226.361 60.9872 227.934 62.9519 228.364 63.4354C226.614 62.8368 224.88 62.2382 223.199 61.5705C220.921 60.6881 218.701 59.6628 216.553 58.5006C216.645 58.3548 219.178 54.5098 219.492 52.4529C219.769 50.6647 219.615 48.3086 218.28 46.9349C217.978 46.5997 217.609 46.3316 217.198 46.1481C216.786 45.9647 216.34 45.8698 215.889 45.8698C215.438 45.8698 214.992 45.9647 214.58 46.1481C214.169 46.3316 213.8 46.5997 213.498 46.9349C211.756 49.0147 213.046 53.7346 214.335 55.7838C214.419 55.9219 215.617 57.4185 216.2 58.0862L216.1 58.2089C213.974 56.9654 211.963 55.5348 210.091 53.9342C209.047 53.0669 208.095 52.1767 207.197 51.2941C207.742 50.6264 210.198 47.5488 210.682 45.7299C211.165 43.911 211.265 41.624 210.083 40.1121C209.819 39.747 209.481 39.4416 209.091 39.2159C208.701 38.9902 208.267 38.8493 207.819 38.8022C207.371 38.7551 206.918 38.803 206.489 38.9428C206.061 39.0825 205.667 39.311 205.332 39.6132C203.368 41.4935 204.135 46.3286 205.187 48.5082C205.248 48.6233 205.954 49.7668 206.499 50.588C206.1 50.1812 205.678 49.7745 205.302 49.3754C203.882 47.8942 202.669 46.4513 201.618 45.162C201.019 44.3945 200.497 43.7422 200.006 43.1052C200.206 42.1689 200.935 38.4006 200.536 36.5894C200.137 34.7782 199.154 32.6753 197.412 31.8771C196.993 31.6713 196.535 31.559 196.068 31.5481C195.602 31.5373 195.138 31.6281 194.71 31.8143C194.282 32.0006 193.9 32.2777 193.59 32.6265C193.28 32.9753 193.05 33.3874 192.915 33.8342C192.04 36.4052 194.941 40.3423 196.883 41.7928C197.052 41.9156 199.899 43.5733 199.914 43.5273C199.93 43.4813 199.914 43.4813 199.914 43.4659C200.367 44.0952 200.858 44.7629 201.449 45.4767C202.478 46.789 203.659 48.2626 205.049 49.7822C206.529 51.4386 208.105 53.0069 209.768 54.4791C211.624 56.1338 213.622 57.6208 215.739 58.9227H215.824C215.056 58.7385 212.869 58.278 212.7 58.2627C210.29 58.0401 205.494 59.0301 204.427 61.5167C204.261 61.9364 204.185 62.3862 204.204 62.8371C204.224 63.288 204.338 63.7298 204.539 64.1337C204.74 64.5376 205.024 64.8947 205.372 65.1816C205.721 65.4686 206.125 65.679 206.56 65.7992C208.364 66.4055 210.567 65.4769 212.002 64.4254Z" fill="#247D7E"/>
<path d="M87.649 285.195C89.0765 285.686 91.4863 288.042 91.4863 288.042C91.4863 288.042 89.4449 289.186 89.3067 289.24C87.7027 289.884 84.2261 290.184 82.9905 288.695C82.7944 288.441 82.6535 288.149 82.5767 287.838C82.5 287.527 82.4891 287.203 82.5447 286.887C82.6003 286.571 82.7213 286.271 82.8998 286.005C83.0783 285.738 83.3105 285.512 83.5814 285.341C84.7556 284.573 86.4287 284.773 87.649 285.195Z" fill="#247D7E"/>
<path d="M113.428 307.904C113.428 307.904 112.354 309.984 112.269 310.107C111.287 311.527 108.547 313.691 106.698 313.131C106.394 313.028 106.115 312.862 105.879 312.645C105.644 312.428 105.456 312.163 105.328 311.869C105.2 311.575 105.135 311.258 105.137 310.937C105.139 310.616 105.208 310.3 105.339 310.007C105.869 308.749 107.365 307.989 108.616 307.666C110.082 307.29 113.428 307.904 113.428 307.904Z" fill="#247D7E"/>
<path d="M95.1701 278.787C96.3751 279.608 98.0098 282.309 98.1402 282.524C99.6814 281.584 101.284 280.748 102.937 280.022C103.896 279.6 104.879 279.193 105.861 278.81C105.385 278.917 104.955 279.017 104.894 279.017C103.182 279.217 99.7519 278.587 98.9461 276.822C98.8255 276.526 98.7679 276.208 98.777 275.888C98.786 275.569 98.8615 275.255 98.9987 274.966C99.1359 274.677 99.3317 274.42 99.5737 274.211C99.8157 274.002 100.099 273.846 100.404 273.752C101.701 273.315 103.259 273.944 104.326 274.673C105.393 275.402 106.851 277.689 107.219 278.296L108.363 277.85C110.189 277.16 112.016 276.477 113.789 275.755C114.418 275.502 115.025 275.226 115.631 274.988L114.794 275.172C113.075 275.364 109.645 274.735 108.846 272.969C108.726 272.673 108.668 272.355 108.677 272.036C108.686 271.716 108.762 271.402 108.899 271.113C109.036 270.824 109.232 270.567 109.474 270.358C109.716 270.149 109.999 269.993 110.305 269.899C111.594 269.462 113.152 270.099 114.219 270.82C115.285 271.542 116.598 273.614 117.051 274.335C117.657 274.036 118.279 273.737 118.854 273.422C119.246 273.2 119.622 273.008 120.021 272.762L121.157 272.056C121.863 271.588 122.599 271.097 123.275 270.621L124.61 269.577C123.989 269.838 122.768 270.345 122.661 270.345C120.995 270.797 117.503 270.69 116.452 269.071C116.285 268.796 116.178 268.489 116.138 268.17C116.097 267.852 116.123 267.528 116.215 267.22C116.307 266.912 116.462 266.627 116.671 266.382C116.879 266.138 117.137 265.94 117.427 265.801C118.639 265.18 120.274 265.563 121.441 266.124C122.607 266.684 124.672 269.055 124.917 269.347C125.685 268.81 126.375 268.272 127.043 267.766C128.985 266.277 130.604 264.942 131.84 263.929L132.791 264.803C131.502 265.847 129.791 267.206 127.726 268.71C126.959 269.262 126.191 269.838 125.324 270.414C125.745 271.294 126.114 272.199 126.429 273.123C127.964 273.17 129.485 273.428 130.949 273.89C131.272 273.031 131.579 272.194 131.847 271.396C132.615 269.132 133.244 267.16 133.689 265.617L134.725 266.569C134.265 268.019 133.666 269.792 132.93 271.787C132.607 272.655 132.246 273.583 131.863 274.535C132.185 274.719 134.787 276.292 135.593 277.467C136.398 278.641 136.966 280.084 136.537 281.381C136.445 281.688 136.29 281.972 136.081 282.216C135.873 282.46 135.616 282.657 135.327 282.796C135.038 282.935 134.724 283.011 134.403 283.022C134.083 283.032 133.764 282.975 133.467 282.854C131.702 282.087 131.049 278.633 131.233 276.914C131.233 276.814 131.487 275.732 131.656 275.049C131.494 275.433 131.349 275.817 131.18 276.208C130.857 276.976 130.504 277.743 130.136 278.603C129.944 278.994 129.752 279.37 129.553 279.8C129.353 280.23 129.115 280.613 128.9 281.02C128.371 281.964 127.795 282.885 127.189 283.806C127.88 284.098 130.305 285.149 131.195 286.108C132.085 287.068 132.945 288.488 132.73 289.838C132.685 290.155 132.575 290.459 132.406 290.731C132.237 291.003 132.013 291.237 131.749 291.417C131.485 291.598 131.185 291.721 130.871 291.78C130.556 291.838 130.233 291.831 129.921 291.757C128.056 291.25 126.89 287.958 126.851 286.231C126.851 286.124 126.928 284.88 126.989 284.197C126.621 284.75 126.222 285.295 125.869 285.84C124.741 287.413 123.566 288.971 122.377 290.529C122.016 291.005 121.663 291.488 121.31 291.964C121.556 292.064 124.464 293.254 125.462 294.313C126.345 295.249 127.212 296.692 126.997 298.035C126.952 298.353 126.842 298.658 126.672 298.93C126.503 299.203 126.278 299.437 126.013 299.617C125.748 299.798 125.448 299.921 125.132 299.979C124.817 300.037 124.492 300.028 124.18 299.953C122.315 299.447 121.157 296.155 121.111 294.428C121.111 294.297 121.226 292.509 121.279 292.056C120.512 293.108 119.744 294.167 118.977 295.241C118.004 296.689 117.122 298.196 116.337 299.754C116.452 299.8 119.499 301.028 120.52 302.11C121.402 303.046 122.269 304.489 122.055 305.84C122.01 306.158 121.899 306.463 121.73 306.735C121.56 307.008 121.336 307.242 121.071 307.422C120.806 307.603 120.505 307.726 120.19 307.784C119.874 307.842 119.55 307.833 119.238 307.759C117.373 307.244 116.214 303.921 116.168 302.233C116.168 302.118 116.252 300.752 116.314 300.107H116.206C115.464 301.698 114.865 303.352 114.418 305.049C114.157 305.978 113.958 306.884 113.789 307.774C114.38 307.943 117.066 308.749 118.094 309.624C119.123 310.498 120.097 311.796 120.021 313.154C120.011 313.475 119.935 313.79 119.797 314.079C119.659 314.369 119.462 314.626 119.218 314.835C118.975 315.044 118.69 315.199 118.383 315.292C118.076 315.384 117.753 315.412 117.434 315.372C115.523 315.073 114.011 311.926 113.743 310.222C113.743 310.13 113.689 309.171 113.666 308.465C113.597 308.871 113.513 309.278 113.459 309.662C113.229 311.112 113.106 312.448 113.006 313.63C112.952 314.305 112.922 314.919 112.899 315.487C113.39 315.963 115.347 317.874 115.846 319.102C116.345 320.33 116.613 321.949 115.93 323.123C115.773 323.403 115.56 323.646 115.304 323.838C115.047 324.03 114.754 324.167 114.442 324.239C114.13 324.311 113.806 324.318 113.492 324.258C113.177 324.198 112.878 324.073 112.615 323.891C111.08 322.747 111.156 319.286 111.709 317.621C111.763 317.475 112.76 315.318 112.783 315.372C112.783 314.819 112.783 314.228 112.853 313.584C112.922 312.394 113.014 311.051 113.213 309.601C113.414 308.03 113.704 306.472 114.081 304.934C114.497 303.21 115.064 301.525 115.777 299.9C115.779 299.882 115.779 299.864 115.777 299.846C115.401 300.268 114.311 301.419 114.242 301.496C112.914 302.609 109.706 303.975 108.064 302.947C107.797 302.767 107.572 302.533 107.401 302.261C107.231 301.988 107.119 301.683 107.074 301.365C107.028 301.047 107.05 300.723 107.137 300.414C107.224 300.105 107.375 299.817 107.58 299.57C108.424 298.495 110.067 298.165 111.364 298.181C112.814 298.181 115.669 299.554 115.892 299.662C116.646 298.021 117.507 296.431 118.47 294.904C119.038 294.013 119.637 293.138 120.243 292.271C119.906 292.624 119.599 292.939 119.553 292.977C118.233 294.09 115.017 295.456 113.413 294.428C113.147 294.248 112.921 294.014 112.75 293.742C112.58 293.469 112.468 293.164 112.423 292.846C112.377 292.528 112.399 292.204 112.486 291.895C112.573 291.586 112.724 291.298 112.929 291.051C113.766 289.976 115.416 289.646 116.705 289.662C117.995 289.677 120.474 290.782 121.118 291.082L121.824 290.092C122.968 288.503 124.127 286.922 125.201 285.341C125.577 284.788 125.969 284.22 126.291 283.66C125.992 283.975 125.738 284.243 125.692 284.274C124.365 285.387 121.157 286.753 119.553 285.725C119.288 285.545 119.063 285.311 118.893 285.04C118.723 284.768 118.612 284.464 118.567 284.147C118.521 283.83 118.542 283.507 118.629 283.198C118.715 282.89 118.865 282.603 119.069 282.355C119.906 281.273 121.556 280.943 122.845 280.959C124.134 280.974 126.368 281.972 127.135 282.325C127.488 281.741 127.834 281.158 128.148 280.575C128.348 280.168 128.57 279.807 128.754 279.378C128.939 278.948 129.131 278.564 129.315 278.165C129.637 277.398 129.982 276.569 130.282 275.801C130.497 275.264 130.689 274.75 130.88 274.228C130.512 274.788 129.76 275.863 129.683 275.947C128.643 277.055 127.335 277.874 125.884 278.326C125.771 278.451 125.648 278.567 125.516 278.672C125.27 278.878 124.984 279.03 124.675 279.119C124.367 279.208 124.043 279.232 123.725 279.189C123.408 279.145 123.102 279.036 122.829 278.868C122.556 278.699 122.321 278.476 122.139 278.211C121.103 276.576 122.454 273.361 123.551 272.025C123.62 271.949 124.418 271.181 124.933 270.698C124.587 270.936 124.257 271.166 123.896 271.404C123.198 271.88 122.477 272.332 121.709 272.824L120.558 273.507C120.182 273.744 119.744 273.944 119.338 274.159C118.386 274.658 117.388 275.111 116.375 275.54C116.79 276.162 118.233 278.38 118.455 279.654C118.678 280.928 118.609 282.609 117.688 283.606C117.475 283.847 117.215 284.04 116.923 284.174C116.631 284.308 116.315 284.379 115.994 284.383C115.673 284.388 115.355 284.325 115.06 284.199C114.765 284.073 114.499 283.887 114.28 283.652C113.014 282.194 113.858 278.81 114.748 277.329C114.802 277.236 115.562 276.246 115.984 275.709C115.378 275.97 114.771 276.223 114.142 276.477C112.338 277.167 110.489 277.812 108.647 278.464C108.087 278.656 107.526 278.863 106.966 279.071C107.112 279.286 108.885 281.88 109.13 283.315C109.353 284.581 109.284 286.262 108.363 287.26C108.151 287.499 107.891 287.692 107.601 287.826C107.31 287.959 106.995 288.031 106.675 288.036C106.355 288.041 106.037 287.98 105.743 287.855C105.448 287.731 105.182 287.546 104.963 287.313C103.689 285.855 104.533 282.471 105.423 280.989C105.485 280.874 106.582 279.454 106.874 279.101C105.638 279.554 104.41 280.007 103.221 280.514C101.608 281.174 100.041 281.943 98.5316 282.816C98.6007 282.916 100.458 285.617 100.719 287.083C100.934 288.349 100.865 290.03 99.9514 291.028C99.7394 291.269 99.4794 291.463 99.188 291.597C98.8967 291.731 98.5804 291.804 98.2596 291.809C97.9387 291.814 97.6203 291.752 97.3249 291.626C97.0294 291.501 96.7634 291.316 96.5439 291.082C95.2699 289.623 96.1141 286.239 97.0044 284.758C97.0658 284.658 97.8946 283.576 98.3014 283.069L98.2246 282.985C96.7273 283.901 95.3147 284.949 94.0036 286.116C93.2745 286.753 92.6145 287.398 91.9851 288.042C92.3766 288.511 94.1724 290.667 94.5485 291.956C94.9245 293.246 95.0243 294.881 94.2108 295.97C94.0261 296.233 93.7884 296.454 93.5131 296.62C93.2377 296.785 92.9308 296.891 92.612 296.931C92.2933 296.971 91.9697 296.944 91.6622 296.851C91.3546 296.758 91.0699 296.602 90.8263 296.392C89.3988 295.088 89.8669 291.634 90.5883 290.061C90.6267 289.976 91.1256 289.155 91.494 288.526C91.2177 288.818 90.9184 289.117 90.6574 289.408C89.6674 290.483 88.8308 291.534 88.0941 292.478C87.6796 293.008 87.3266 293.507 86.9813 293.967C87.1347 294.627 87.7103 297.306 87.4494 298.572C87.1885 299.838 86.5285 301.381 85.2928 301.972C85.0087 302.119 84.697 302.206 84.3775 302.226C84.058 302.246 83.7378 302.2 83.4374 302.089C83.137 301.979 82.8629 301.807 82.6326 301.584C82.4024 301.362 82.221 301.094 82.1002 300.798C81.4401 298.979 83.4509 296.124 84.8093 295.065C84.9321 294.973 86.9352 293.752 86.9429 293.783C87.2575 293.33 87.6029 292.847 87.9866 292.333C88.7004 291.381 89.5216 290.306 90.4886 289.209C91.5219 288.008 92.6237 286.868 93.7887 285.794C95.0655 284.62 96.4419 283.559 97.9023 282.624H97.956C97.4111 282.77 95.8608 283.131 95.7457 283.146C94.0266 283.338 90.596 282.708 89.7979 280.943C89.6771 280.648 89.6192 280.33 89.6278 280.011C89.6364 279.692 89.7112 279.378 89.8476 279.089C89.9841 278.801 90.179 278.543 90.4202 278.334C90.6613 278.125 90.9433 277.968 91.2484 277.873C92.5454 277.39 94.1033 278.019 95.1701 278.787Z" fill="#247D7E"/>
<path d="M134.142 296.17C135.554 295.61 138.947 295.809 138.947 295.809C138.947 295.809 138.133 298.004 138.064 298.112C137.296 299.646 134.818 302.125 132.907 301.795C132.593 301.73 132.297 301.599 132.037 301.412C131.777 301.226 131.559 300.987 131.396 300.711C131.234 300.435 131.13 300.128 131.093 299.81C131.056 299.492 131.085 299.17 131.18 298.864C131.517 297.574 132.945 296.638 134.142 296.17Z" fill="#247D7E"/>
<path d="M168.494 296.669C168.494 296.669 169.031 298.971 169.047 299.094C169.223 300.813 168.555 304.236 166.744 305.011C166.446 305.131 166.126 305.187 165.805 305.176C165.484 305.165 165.168 305.087 164.879 304.947C164.59 304.807 164.333 304.608 164.126 304.362C163.918 304.117 163.765 303.831 163.674 303.522C163.252 302.225 163.905 300.667 164.641 299.616C165.555 298.372 168.494 296.669 168.494 296.669Z" fill="#247D7E"/>
<path d="M135.669 286.377C137.12 286.223 140.113 287.213 140.351 287.29C140.914 285.574 141.591 283.897 142.377 282.271C142.822 281.327 143.313 280.383 143.805 279.447C143.521 279.838 143.252 280.214 143.214 280.214C142.032 281.473 139.016 283.23 137.266 282.409C136.979 282.264 136.726 282.06 136.523 281.81C136.32 281.561 136.171 281.272 136.087 280.962C136.002 280.652 135.984 280.327 136.032 280.01C136.08 279.692 136.195 279.388 136.368 279.117C137.066 277.95 138.67 277.413 139.944 277.275C141.218 277.137 143.82 277.919 144.503 278.142L145.079 277.068C146.023 275.348 146.967 273.645 147.841 271.941C148.156 271.342 148.432 270.744 148.716 270.137C148.463 270.49 148.241 270.782 148.202 270.82C147.028 272.087 144.004 273.837 142.254 273.015C141.969 272.87 141.717 272.666 141.514 272.417C141.312 272.169 141.164 271.881 141.079 271.571C140.995 271.262 140.976 270.939 141.024 270.622C141.071 270.305 141.185 270.001 141.356 269.731C142.062 268.556 143.659 268.027 144.94 267.889C146.222 267.751 148.563 268.457 149.369 268.718C149.637 268.088 149.914 267.467 150.136 266.845C150.29 266.423 150.466 266.024 150.589 265.586C150.712 265.149 150.865 264.734 150.996 264.312C151.226 263.491 151.464 262.655 151.671 261.849C151.817 261.288 151.94 260.751 152.07 260.214C151.771 260.813 151.157 261.979 151.095 262.071C150.121 263.499 147.404 265.686 145.547 265.141C145.242 265.04 144.962 264.877 144.724 264.661C144.487 264.445 144.297 264.182 144.166 263.889C144.036 263.595 143.969 263.278 143.969 262.957C143.969 262.636 144.036 262.319 144.165 262.025C144.679 260.767 146.176 259.991 147.427 259.661C148.801 259.293 151.786 259.784 152.162 259.846C152.377 258.955 152.577 258.088 152.746 257.267C153.26 254.872 153.62 252.808 153.881 251.204L155.171 251.258C154.879 252.885 154.457 255.026 153.866 257.512C153.651 258.418 153.413 259.385 153.152 260.375C154.044 260.767 154.91 261.212 155.746 261.711C156.949 260.765 158.276 259.99 159.691 259.408C159.376 258.541 159.062 257.712 158.755 256.929C157.88 254.696 157.059 252.8 156.391 251.334L157.803 251.388C158.394 252.793 159.093 254.519 159.822 256.522C160.152 257.39 160.474 258.334 160.804 259.301C161.172 259.239 164.165 258.74 165.539 259.101C166.79 259.431 168.287 260.199 168.809 261.465C168.938 261.759 169.005 262.076 169.005 262.397C169.005 262.718 168.938 263.035 168.807 263.329C168.677 263.622 168.487 263.885 168.25 264.101C168.012 264.316 167.732 264.48 167.427 264.581C165.57 265.133 162.822 262.946 161.878 261.511C161.817 261.427 161.295 260.444 160.98 259.823C161.111 260.214 161.241 260.59 161.372 261.012C161.633 261.818 161.878 262.632 162.139 263.506C162.247 263.936 162.362 264.366 162.469 264.796C162.577 265.226 162.669 265.701 162.769 266.154C162.976 267.206 163.145 268.288 163.283 269.378C163.989 269.147 166.514 268.372 167.803 268.51C169.093 268.648 170.681 269.178 171.387 270.352C171.559 270.622 171.673 270.926 171.721 271.242C171.77 271.559 171.751 271.882 171.667 272.191C171.584 272.5 171.436 272.789 171.235 273.038C171.033 273.287 170.782 273.491 170.497 273.637C168.747 274.466 165.723 272.716 164.549 271.457C164.472 271.373 163.728 270.375 163.329 269.815C163.406 270.475 163.49 271.127 163.551 271.795C163.72 273.721 163.828 275.678 163.951 277.628C163.951 278.226 164.027 278.817 164.066 279.416C164.319 279.332 167.304 278.342 168.747 278.495C170.029 278.633 171.625 279.163 172.331 280.329C172.505 280.6 172.619 280.903 172.668 281.221C172.717 281.538 172.699 281.863 172.616 282.173C172.532 282.483 172.384 282.772 172.182 283.021C171.979 283.271 171.727 283.475 171.441 283.622C169.691 284.443 166.667 282.701 165.486 281.434C165.401 281.342 164.327 279.9 164.073 279.523C164.165 280.836 164.265 282.141 164.419 283.422C164.621 285.154 164.931 286.871 165.347 288.564C165.47 288.526 168.578 287.482 170.052 287.643C171.334 287.774 172.93 288.311 173.636 289.478C173.809 289.748 173.924 290.052 173.973 290.369C174.022 290.687 174.004 291.011 173.92 291.321C173.836 291.631 173.689 291.92 173.486 292.17C173.284 292.419 173.032 292.624 172.746 292.77C170.996 293.591 167.972 291.849 166.798 290.583C166.721 290.498 165.9 289.401 165.524 288.871L165.424 288.917C165.893 290.613 166.514 292.262 167.281 293.844C167.688 294.719 168.126 295.533 168.571 296.316C169.131 296.062 171.702 294.927 173.045 294.927C174.388 294.927 175.984 295.272 176.806 296.362C177.006 296.611 177.153 296.9 177.235 297.209C177.318 297.518 177.336 297.841 177.286 298.158C177.237 298.474 177.123 298.777 176.95 299.046C176.778 299.316 176.551 299.546 176.284 299.723C174.634 300.736 171.441 299.332 170.144 298.188C170.075 298.127 169.377 297.421 168.947 296.907C169.154 297.252 169.361 297.62 169.568 297.95C170.336 299.201 171.103 300.291 171.802 301.258C172.201 301.803 172.569 302.287 172.93 302.739C173.605 302.739 176.337 302.954 177.535 303.561C178.732 304.167 179.975 305.226 180.213 306.569C180.277 306.884 180.274 307.208 180.205 307.522C180.136 307.835 180.002 308.131 179.812 308.39C179.622 308.648 179.38 308.864 179.102 309.024C178.823 309.184 178.514 309.283 178.195 309.317C176.268 309.455 174.073 306.738 173.429 305.134C173.375 304.996 172.753 302.732 172.792 302.732H172.83C172.477 302.31 172.109 301.849 171.717 301.335C170.996 300.383 170.182 299.301 169.415 298.065C168.545 296.744 167.753 295.373 167.043 293.96C166.238 292.379 165.576 290.73 165.063 289.032C165.063 289.032 165.063 288.986 165.063 288.971C165.063 289.539 164.971 291.12 164.948 291.273C164.664 292.977 163.114 296.101 161.203 296.385C160.884 296.421 160.561 296.39 160.254 296.295C159.948 296.199 159.665 296.04 159.423 295.828C159.182 295.616 158.988 295.356 158.853 295.065C158.718 294.774 158.645 294.457 158.64 294.136C158.578 292.77 159.614 291.442 160.604 290.621C161.725 289.692 164.772 288.864 165.017 288.794C164.538 287.056 164.177 285.286 163.935 283.499C163.789 282.455 163.674 281.404 163.567 280.345C163.567 280.836 163.521 281.273 163.505 281.335C163.221 283.038 161.671 286.162 159.76 286.446C159.434 286.49 159.103 286.463 158.788 286.368C158.474 286.274 158.183 286.112 157.936 285.896C157.688 285.679 157.49 285.412 157.355 285.112C157.22 284.813 157.15 284.488 157.151 284.159C157.089 282.801 158.126 281.473 159.116 280.644C160.106 279.815 162.707 279.055 163.39 278.863C163.39 278.457 163.321 278.05 163.283 277.643C163.122 275.694 162.968 273.752 162.761 271.849C162.692 271.173 162.592 270.513 162.5 269.861C162.5 270.291 162.454 270.629 162.446 270.713C162.162 272.417 160.612 275.548 158.693 275.824C158.375 275.86 158.053 275.828 157.747 275.732C157.442 275.635 157.159 275.476 156.919 275.264C156.678 275.053 156.485 274.793 156.35 274.502C156.216 274.212 156.143 273.896 156.138 273.576C156.076 272.217 157.112 270.889 158.102 270.068C159.093 269.247 161.441 268.533 162.254 268.311C162.139 267.643 162.024 266.968 161.878 266.323C161.771 265.886 161.694 265.456 161.564 265.018L161.195 263.737C160.934 262.923 160.673 262.087 160.428 261.304C160.244 260.759 160.052 260.245 159.868 259.723C159.944 260.391 160.075 261.703 160.075 261.81C159.999 263.328 159.534 264.8 158.724 266.085C158.725 266.255 158.709 266.425 158.678 266.592C158.625 266.908 158.506 267.211 158.329 267.479C158.152 267.747 157.921 267.975 157.651 268.148C157.381 268.322 157.077 268.437 156.759 268.486C156.442 268.535 156.118 268.517 155.808 268.434C153.958 267.866 152.891 264.543 152.868 262.816C152.868 262.716 152.968 261.611 153.053 260.912C152.937 261.311 152.838 261.68 152.723 262.117C152.5 262.938 152.247 263.752 151.955 264.627C151.817 265.041 151.671 265.463 151.525 265.886C151.379 266.308 151.195 266.745 151.026 267.175C150.62 268.173 150.159 269.163 149.676 270.153C150.389 270.352 152.93 271.097 153.927 271.926C154.925 272.754 155.961 274.067 155.9 275.433C155.895 275.754 155.824 276.07 155.69 276.362C155.556 276.654 155.362 276.914 155.122 277.127C154.881 277.339 154.598 277.499 154.292 277.596C153.986 277.693 153.663 277.725 153.344 277.689C151.426 277.405 149.875 274.289 149.584 272.586C149.584 272.478 149.499 271.227 149.476 270.544C149.177 271.135 148.885 271.726 148.563 272.317C147.642 274.013 146.66 275.709 145.677 277.398L144.795 278.933C145.048 279.002 148.087 279.823 149.2 280.744C150.313 281.665 151.234 282.893 151.18 284.259C151.174 284.58 151.102 284.896 150.967 285.188C150.832 285.479 150.638 285.739 150.396 285.951C150.155 286.162 149.872 286.321 149.565 286.417C149.259 286.513 148.936 286.544 148.617 286.507C146.706 286.231 145.148 283.108 144.864 281.404C144.864 281.273 144.741 279.485 144.741 279.025C144.096 280.168 143.459 281.327 142.876 282.471C142.09 284.028 141.4 285.633 140.811 287.275C140.934 287.275 144.104 288.15 145.247 289.094C146.245 289.923 147.281 291.243 147.22 292.609C147.214 292.929 147.142 293.245 147.007 293.536C146.873 293.826 146.679 294.086 146.439 294.298C146.198 294.509 145.916 294.668 145.61 294.765C145.305 294.861 144.983 294.893 144.664 294.857C142.753 294.581 141.195 291.458 140.904 289.754C140.904 289.646 140.811 288.28 140.796 287.628H140.681C140.141 289.299 139.75 291.014 139.514 292.755C139.369 293.714 139.284 294.635 139.23 295.533C139.837 295.633 142.6 296.101 143.728 296.838C144.856 297.574 145.984 298.749 146.076 300.115C146.106 300.435 146.069 300.757 145.967 301.062C145.865 301.366 145.7 301.646 145.483 301.883C145.266 302.121 145.002 302.31 144.708 302.439C144.413 302.567 144.095 302.633 143.774 302.632C141.84 302.563 139.937 299.631 139.476 297.973C139.476 297.881 139.292 296.93 139.184 296.239C139.184 296.646 139.131 297.068 139.123 297.451C139.069 298.917 139.123 300.26 139.161 301.45C139.161 302.125 139.238 302.732 139.284 303.3C139.829 303.706 142.009 305.364 142.653 306.523C143.298 307.682 143.782 309.255 143.229 310.506C143.109 310.803 142.928 311.072 142.698 311.295C142.468 311.518 142.194 311.691 141.894 311.802C141.593 311.914 141.273 311.961 140.953 311.941C140.633 311.922 140.321 311.835 140.036 311.688C138.348 310.736 138.026 307.26 138.371 305.548C138.371 305.402 139.138 303.169 139.138 303.184C139.085 302.632 139.031 302.041 138.985 301.404C138.908 300.214 138.831 298.864 138.854 297.398C138.856 295.815 138.95 294.234 139.138 292.662C139.343 290.9 139.7 289.16 140.205 287.459V287.398C139.883 287.866 138.939 289.14 138.854 289.232C137.68 290.498 134.664 292.248 132.914 291.427C132.629 291.281 132.377 291.078 132.174 290.829C131.972 290.58 131.824 290.292 131.739 289.983C131.655 289.674 131.636 289.35 131.683 289.033C131.731 288.716 131.844 288.413 132.016 288.142C132.791 287.052 134.388 286.523 135.669 286.377Z" fill="#247D7E"/>
<path d="M310.46 61.0025H96.1294C93.2175 61.0025 90.8569 63.3631 90.8569 66.275V274.635C90.8569 277.547 93.2175 279.907 96.1294 279.907H310.46C313.372 279.907 315.732 277.547 315.732 274.635V66.275C315.732 63.3631 313.372 61.0025 310.46 61.0025Z" fill="white" stroke="#247D7E" stroke-linecap="round" stroke-linejoin="round"/>
<path d="M310.606 61.0025H95.999C94.6365 61.0025 93.3298 61.5432 92.3657 62.5059C91.4016 63.4685 90.859 64.7744 90.8569 66.1369V75.2006H315.709V66.1369C315.707 64.7811 315.17 63.4809 314.214 62.5193C313.258 61.5578 311.962 61.0126 310.606 61.0025Z" fill="#1DC3C4" stroke="#247D7E" stroke-linecap="round" stroke-linejoin="round"/>
<path d="M101.648 67.8559C101.649 68.2752 101.526 68.6854 101.294 69.0348C101.062 69.3841 100.732 69.6568 100.345 69.8183C99.9583 69.9798 99.5322 70.0229 99.1208 69.942C98.7094 69.8611 98.3313 69.66 98.0343 69.3641C97.7373 69.0682 97.5348 68.6907 97.4524 68.2796C97.37 67.8685 97.4115 67.4422 97.5716 67.0547C97.7317 66.6672 98.0032 66.336 98.3517 66.1029C98.7002 65.8698 99.1101 65.7454 99.5293 65.7454C100.089 65.7474 100.626 65.9701 101.022 66.3653C101.419 66.7604 101.644 67.2961 101.648 67.8559Z" fill="white" stroke="#247D7E" stroke-linecap="round" stroke-linejoin="round"/>
<path d="M110.527 67.8559C110.529 68.2752 110.406 68.6854 110.174 69.0348C109.942 69.3841 109.612 69.6568 109.225 69.8183C108.838 69.9798 108.412 70.0229 108 69.942C107.589 69.8611 107.211 69.66 106.914 69.3641C106.617 69.0682 106.414 68.6907 106.332 68.2796C106.25 67.8685 106.291 67.4422 106.451 67.0547C106.611 66.6672 106.883 66.336 107.231 66.1029C107.58 65.8698 107.99 65.7454 108.409 65.7454C108.969 65.7454 109.507 65.9675 109.904 66.363C110.301 66.7586 110.525 67.2954 110.527 67.8559Z" fill="white" stroke="#247D7E" stroke-linecap="round" stroke-linejoin="round"/>
<path d="M119.407 67.8559C119.408 68.2755 119.285 68.6861 119.053 69.0356C118.821 69.3851 118.49 69.6578 118.103 69.8191C117.715 69.9803 117.289 70.0229 116.877 69.9414C116.466 69.86 116.088 69.6581 115.791 69.3614C115.494 69.0647 115.292 68.6865 115.211 68.2749C115.129 67.8633 115.172 67.4368 115.333 67.0494C115.494 66.6621 115.767 66.3313 116.117 66.0992C116.466 65.867 116.877 65.7439 117.296 65.7454C117.855 65.7474 118.391 65.9704 118.786 66.3658C119.182 66.7611 119.405 67.2968 119.407 67.8559Z" fill="white" stroke="#247D7E" stroke-linecap="round" stroke-linejoin="round"/>
<path d="M206.729 101.049V86.6743H203.782V85.0549H211.457V86.6743H208.51V101.049H206.729Z" fill="#247D7E"/>
<path d="M212.562 88.9152C212.562 86.467 213.774 84.8937 216.215 84.8937C218.656 84.8937 219.899 86.4286 219.899 88.9152V97.1808C219.899 99.606 218.686 101.202 216.215 101.202C213.744 101.202 212.562 99.606 212.562 97.1808V88.9152ZM214.319 97.2729C214.319 98.7388 214.941 99.5753 216.215 99.5753C217.489 99.5753 218.111 98.7311 218.111 97.2729V88.8308C218.111 87.3879 217.52 86.5284 216.215 86.5284C214.91 86.5284 214.319 87.3956 214.319 88.8308V97.2729Z" fill="#247D7E"/>
<path d="M225.333 85.0549C227.819 85.0549 228.963 86.5899 228.963 89.0304V97.0965C228.963 99.537 227.819 101.049 225.333 101.049H221.587V85.0549H225.333ZM225.333 99.4219C226.614 99.4219 227.228 98.6545 227.228 97.1656V88.9383C227.228 87.4725 226.614 86.6743 225.31 86.6743H223.391V99.4219H225.333Z" fill="#247D7E"/>
<path d="M232.409 97.8256L231.795 101.049H230.152L233.222 85.0549H235.801L238.871 101.049H237.09L236.468 97.8256H232.409ZM232.639 96.2907H236.208L234.396 87.081L232.639 96.2907Z" fill="#247D7E"/>
<path d="M241.964 95.3083L238.579 85.0549H240.429L242.923 92.9138L245.433 85.0549H247.121L243.721 95.3083V101.049H241.964V95.3083Z" fill="#247D7E"/>
<path d="M104.886 85.4923V85.7225H103.988V85.4386C103.988 84.6711 103.697 84.226 103.014 84.226C102.331 84.226 102.047 84.6788 102.047 85.4309C102.047 87.3342 104.894 87.5184 104.894 89.9052C104.894 91.1869 104.28 92.0234 102.983 92.0234C101.686 92.0234 101.072 91.1869 101.072 89.9052V89.4217H101.962V89.9897C101.962 90.7571 102.277 91.2023 102.952 91.2023C103.628 91.2023 103.95 90.7571 103.95 89.9897C103.95 88.1017 101.11 87.9175 101.11 85.5307C101.11 84.2183 101.717 83.4048 102.991 83.4048C104.265 83.4048 104.886 84.203 104.886 85.4923Z" fill="#247D7E"/>
<path d="M109.468 85.5V86.2675H108.57V85.454C108.57 84.6865 108.271 84.226 107.58 84.226C106.889 84.226 106.582 84.6865 106.582 85.454V89.9436C106.582 90.7111 106.897 91.1639 107.58 91.1639C108.263 91.1639 108.57 90.7034 108.57 89.9436V88.8385H109.468V89.8899C109.468 91.1793 108.862 92.0235 107.557 92.0235C106.252 92.0235 105.646 91.1793 105.646 89.8899V85.5C105.646 84.2183 106.252 83.3665 107.557 83.3665C108.862 83.3665 109.468 84.2183 109.468 85.5Z" fill="#247D7E"/>
<path d="M111.279 88.1247V91.9621H110.335V83.4509H111.279V87.2882H113.367V83.4509H114.311V91.939H113.367V88.1017L111.279 88.1247Z" fill="#247D7E"/>
<path d="M118.302 87.2115V88.0633H116.229V91.0795H118.777V91.939H115.285V83.4509H118.777V84.3104H116.229V87.2115H118.302Z" fill="#247D7E"/>
<path d="M121.64 83.4509C122.96 83.4509 123.566 84.2183 123.566 85.5614V89.8439C123.566 91.1409 122.96 91.939 121.64 91.939H119.652V83.4509H121.64ZM121.64 91.0795C122.323 91.0795 122.645 90.6574 122.645 89.8822V85.5153C122.645 84.7479 122.323 84.3104 121.632 84.3104H120.612V91.0795H121.64Z" fill="#247D7E"/>
<path d="M125.378 89.9436C125.378 90.7111 125.677 91.1639 126.368 91.1639C127.058 91.1639 127.35 90.7034 127.35 89.9436V83.4509H128.24V89.8899C128.24 91.1793 127.642 92.0388 126.337 92.0388C125.032 92.0388 124.441 91.1793 124.441 89.8899V83.4509H125.378V89.9436Z" fill="#247D7E"/>
<path d="M129.146 91.939V83.4509H130.098V91.0795H132.523V91.939H129.146Z" fill="#247D7E"/>
<path d="M136.26 87.2115V88.0633H134.181V91.0795H136.729V91.939H133.237V83.4509H136.729V84.3104H134.181V87.2115H136.26Z" fill="#247D7E"/>
<path d="M159.607 110.972V111.226C159.651 111.565 159.586 111.91 159.42 112.21C159.254 112.509 158.997 112.748 158.686 112.891C159.001 113.04 159.26 113.285 159.426 113.592C159.591 113.898 159.655 114.25 159.607 114.595V115.193C159.607 115.702 159.405 116.19 159.045 116.55C158.685 116.91 158.197 117.112 157.688 117.112C157.179 117.112 156.691 116.91 156.331 116.55C155.971 116.19 155.769 115.702 155.769 115.193V114.595C155.72 114.248 155.785 113.894 155.953 113.587C156.122 113.279 156.386 113.035 156.706 112.891C156.389 112.753 156.127 112.516 155.957 112.216C155.788 111.915 155.722 111.567 155.769 111.226V110.972C155.769 110.463 155.971 109.975 156.331 109.616C156.691 109.256 157.179 109.054 157.688 109.054C158.197 109.054 158.685 109.256 159.045 109.616C159.405 109.975 159.607 110.463 159.607 110.972ZM156.69 110.972V111.364C156.69 112.131 157.066 112.5 157.703 112.5C158.34 112.5 158.716 112.146 158.716 111.364V110.972C158.716 110.143 158.34 109.767 157.703 109.767C157.066 109.767 156.69 110.166 156.69 110.995V110.972ZM156.69 114.464V115.147C156.69 115.976 157.059 116.368 157.703 116.368C158.348 116.368 158.709 115.976 158.716 115.147V114.464C158.716 113.697 158.371 113.305 157.703 113.305C157.036 113.305 156.69 113.704 156.69 114.487V114.464Z" fill="#247D7E"/>
<path d="M161.288 111.617V112.737H160.42V111.617H161.288ZM161.288 116.014V117.127H160.42V116.014H161.288Z" fill="#247D7E"/>
<path d="M162.139 111.011C162.139 109.775 162.753 108.977 163.989 108.977C165.225 108.977 165.838 109.744 165.838 111.011V115.17C165.838 116.406 165.232 117.212 163.989 117.212C162.746 117.212 162.139 116.406 162.139 115.17V111.011ZM163.03 115.224C163.03 115.991 163.337 116.391 163.989 116.391C164.641 116.391 164.941 115.953 164.941 115.224V110.965C164.941 110.197 164.641 109.79 163.989 109.79C163.337 109.79 163.03 110.228 163.03 110.965V115.224Z" fill="#247D7E"/>
<path d="M166.621 111.011C166.621 109.775 167.235 108.977 168.471 108.977C169.707 108.977 170.321 109.744 170.321 111.011V115.17C170.321 116.406 169.714 117.212 168.471 117.212C167.228 117.212 166.621 116.406 166.621 115.17V111.011ZM167.512 115.224C167.512 115.991 167.819 116.391 168.471 116.391C169.123 116.391 169.423 115.953 169.423 115.224V110.965C169.423 110.197 169.123 109.79 168.471 109.79C167.819 109.79 167.512 110.228 167.512 110.965V115.224Z" fill="#247D7E"/>
<path d="M179.722 110.527C179.383 110.733 178.998 110.851 178.602 110.872V110.105C178.92 110.113 179.232 110.01 179.484 109.814C179.736 109.619 179.912 109.342 179.983 109.031H180.635V117.097H179.745L179.722 110.527Z" fill="#247D7E"/>
<path d="M181.902 111.011C181.902 109.775 182.508 108.977 183.744 108.977C184.979 108.977 185.601 109.744 185.601 111.011V115.17C185.601 116.406 184.987 117.212 183.744 117.212C182.5 117.212 181.902 116.406 181.902 115.17V111.011ZM182.784 115.224C182.784 115.991 183.099 116.391 183.744 116.391C184.388 116.391 184.703 115.953 184.703 115.224V110.965C184.703 110.197 184.404 109.79 183.744 109.79C183.084 109.79 182.784 110.228 182.784 110.965V115.224Z" fill="#247D7E"/>
<path d="M187.312 111.617V112.737H186.453V111.617H187.312ZM187.312 116.014V117.127H186.453V116.014H187.312Z" fill="#247D7E"/>
<path d="M188.172 111.011C188.172 109.775 188.778 108.977 190.014 108.977C191.249 108.977 191.871 109.744 191.871 111.011V115.17C191.871 116.406 191.257 117.212 190.014 117.212C188.77 117.212 188.172 116.406 188.172 115.17V111.011ZM189.054 115.224C189.054 115.991 189.369 116.391 190.014 116.391C190.658 116.391 190.973 115.953 190.973 115.224V110.965C190.973 110.197 190.666 109.79 190.014 109.79C189.361 109.79 189.054 110.228 189.054 110.965V115.224Z" fill="#247D7E"/>
<path d="M192.654 111.011C192.654 109.775 193.26 108.977 194.496 108.977C195.731 108.977 196.353 109.744 196.353 111.011V115.17C196.353 116.406 195.739 117.212 194.496 117.212C193.252 117.212 192.654 116.406 192.654 115.17V111.011ZM193.536 115.224C193.536 115.991 193.851 116.391 194.496 116.391C195.14 116.391 195.455 115.953 195.455 115.224V110.965C195.455 110.197 195.156 109.79 194.496 109.79C193.836 109.79 193.536 110.228 193.536 110.965V115.224Z" fill="#247D7E"/>
<path d="M206.322 110.527C205.983 110.733 205.598 110.851 205.202 110.872V110.105C205.521 110.113 205.833 110.01 206.084 109.814C206.336 109.619 206.513 109.342 206.583 109.031H207.213V117.097H206.322V110.527Z" fill="#247D7E"/>
<path d="M212.201 111.018C212.201 113.451 209.469 114.326 209.454 116.183V116.314H212.101V117.127H208.571V116.437C208.571 113.835 211.303 113.328 211.303 111.064C211.303 110.235 211.027 109.798 210.352 109.798C209.676 109.798 209.408 110.266 209.408 110.98V111.694H208.571V111.041C208.571 109.806 209.131 108.984 210.382 108.984C211.633 108.984 212.201 109.79 212.201 111.018Z" fill="#247D7E"/>
<path d="M213.897 111.617V112.737H213.03V111.617H213.897ZM213.897 116.014V117.127H213.03V116.014H213.897Z" fill="#247D7E"/>
<path d="M214.749 111.011C214.749 109.775 215.356 108.977 216.591 108.977C217.827 108.977 218.448 109.744 218.448 111.011V115.17C218.448 116.406 217.834 117.212 216.591 117.212C215.348 117.212 214.749 116.406 214.749 115.17V111.011ZM215.632 115.224C215.632 115.991 215.947 116.391 216.591 116.391C217.236 116.391 217.551 115.953 217.551 115.224V110.965C217.551 110.197 217.244 109.79 216.591 109.79C215.939 109.79 215.632 110.228 215.632 110.965V115.224Z" fill="#247D7E"/>
<path d="M219.231 111.011C219.231 109.775 219.837 108.977 221.073 108.977C222.309 108.977 222.93 109.744 222.93 111.011V115.17C222.93 116.406 222.316 117.212 221.073 117.212C219.83 117.212 219.231 116.406 219.231 115.17V111.011ZM220.114 115.224C220.114 115.991 220.428 116.391 221.073 116.391C221.718 116.391 222.032 115.953 222.032 115.224V110.965C222.032 110.197 221.733 109.79 221.073 109.79C220.413 109.79 220.114 110.228 220.114 110.965V115.224Z" fill="#247D7E"/>
<path d="M235.893 111.018C235.893 113.451 233.161 114.326 233.145 116.183V116.314H235.801V117.127H232.263V116.437C232.263 113.835 234.987 113.328 234.987 111.064C234.987 110.235 234.711 109.798 234.043 109.798C233.376 109.798 233.099 110.266 233.099 110.98V111.694H232.263V111.041C232.263 109.806 232.823 108.984 234.066 108.984C235.31 108.984 235.893 109.79 235.893 111.018Z" fill="#247D7E"/>
<path d="M237.581 111.617V112.737H236.722V111.617H237.581ZM237.581 116.014V117.127H236.722V116.014H237.581Z" fill="#247D7E"/>
<path d="M238.433 111.011C238.433 109.775 239.047 108.977 240.283 108.977C241.518 108.977 242.132 109.744 242.132 111.011V115.17C242.132 116.406 241.526 117.212 240.283 117.212C239.04 117.212 238.433 116.406 238.433 115.17V111.011ZM239.323 115.224C239.323 115.991 239.638 116.391 240.283 116.391C240.927 116.391 241.234 115.953 241.234 115.224V110.965C241.234 110.197 240.935 109.79 240.283 109.79C239.63 109.79 239.323 110.228 239.323 110.965V115.224Z" fill="#247D7E"/>
<path d="M242.915 111.011C242.915 109.775 243.529 108.977 244.765 108.977C246.001 108.977 246.622 109.744 246.622 111.011V115.17C246.622 116.406 246.008 117.212 244.765 117.212C243.522 117.212 242.915 116.406 242.915 115.17V111.011ZM243.806 115.224C243.806 115.991 244.12 116.391 244.765 116.391C245.41 116.391 245.717 115.953 245.717 115.224V110.965C245.717 110.197 245.417 109.79 244.765 109.79C244.113 109.79 243.806 110.228 243.806 110.965V115.224Z" fill="#247D7E"/>
<path d="M261.15 115.5V117.127H260.268V115.5H257.666V114.687L260.168 109.061H261.15V114.687H261.795V115.5H261.15ZM258.495 114.687H260.268V110.711L258.495 114.687Z" fill="#247D7E"/>
<path d="M263.345 111.617V112.737H262.486V111.617H263.345ZM263.345 116.014V117.127H262.486V116.014H263.345Z" fill="#247D7E"/>
<path d="M264.197 111.011C264.197 109.775 264.811 108.977 266.047 108.977C267.282 108.977 267.896 109.744 267.896 111.011V115.17C267.896 116.406 267.29 117.212 266.047 117.212C264.803 117.212 264.197 116.406 264.197 115.17V111.011ZM265.087 115.224C265.087 115.991 265.402 116.391 266.047 116.391C266.691 116.391 266.998 115.953 266.998 115.224V110.965C266.998 110.197 266.699 109.79 266.047 109.79C265.394 109.79 265.087 110.228 265.087 110.965V115.224Z" fill="#247D7E"/>
<path d="M268.687 111.011C268.687 109.775 269.293 108.977 270.529 108.977C271.764 108.977 272.386 109.744 272.386 111.011V115.17C272.386 116.406 271.772 117.212 270.529 117.212C269.286 117.212 268.687 116.406 268.687 115.17V111.011ZM269.569 115.224C269.569 115.991 269.884 116.391 270.529 116.391C271.173 116.391 271.488 115.953 271.488 115.224V110.965C271.488 110.197 271.181 109.79 270.529 109.79C269.876 109.79 269.569 110.228 269.569 110.965V115.224Z" fill="#247D7E"/>
<path d="M288.587 110.995V111.149H287.743V110.942C287.743 110.174 287.444 109.79 286.791 109.79C286.139 109.79 285.809 110.228 285.809 111.087V112.899C285.902 112.632 286.08 112.402 286.316 112.246C286.551 112.089 286.831 112.014 287.114 112.031C288.15 112.031 288.61 112.799 288.61 113.95V115.17C288.61 116.406 287.996 117.212 286.761 117.212C285.525 117.212 284.911 116.406 284.911 115.17V111.057C284.911 109.775 285.487 108.977 286.761 108.977C288.035 108.977 288.587 109.767 288.587 110.995ZM285.778 114.019V115.224C285.778 115.991 286.078 116.391 286.73 116.391C287.382 116.391 287.689 115.953 287.689 115.224V114.019C287.689 113.29 287.382 112.853 286.73 112.853C286.078 112.853 285.778 113.29 285.778 114.019Z" fill="#247D7E"/>
<path d="M290.314 111.617V112.737H289.447V111.617H290.314ZM290.314 116.014V117.127H289.447V116.014H290.314Z" fill="#247D7E"/>
<path d="M291.151 111.011C291.151 109.775 291.765 108.977 292.993 108.977C294.22 108.977 294.85 109.744 294.85 111.011V115.17C294.85 116.406 294.244 117.212 292.993 117.212C291.742 117.212 291.151 116.406 291.151 115.17V111.011ZM292.041 115.224C292.041 115.991 292.348 116.391 292.993 116.391C293.637 116.391 293.952 115.953 293.952 115.224V110.965C293.952 110.197 293.653 109.79 292.993 109.79C292.333 109.79 292.041 110.228 292.041 110.965V115.224Z" fill="#247D7E"/>
<path d="M295.648 111.011C295.648 109.775 296.262 108.977 297.498 108.977C298.733 108.977 299.347 109.744 299.347 111.011V115.17C299.347 116.406 298.741 117.212 297.498 117.212C296.254 117.212 295.648 116.406 295.648 115.17V111.011ZM296.538 115.224C296.538 115.991 296.845 116.391 297.498 116.391C298.15 116.391 298.449 115.953 298.449 115.224V110.965C298.449 110.197 298.15 109.79 297.498 109.79C296.845 109.79 296.538 110.228 296.538 110.965V115.224Z" fill="#247D7E"/>
<path d="M176.422 207.067H151.848V230.221H176.422V207.067Z" stroke="#ADADAD" stroke-miterlimit="10"/>
<path d="M201.71 207.067H177.136V230.221H201.71V207.067Z" stroke="#ADADAD" stroke-miterlimit="10"/>
<path d="M226.998 207.067H202.424V230.221H226.998V207.067Z" stroke="#ADADAD" stroke-miterlimit="10"/>
<path d="M252.294 207.067H227.719V230.221H252.294V207.067Z" stroke="#ADADAD" stroke-miterlimit="10"/>
<path d="M277.582 207.067H253.007V230.221H277.582V207.067Z" stroke="#ADADAD" stroke-miterlimit="10"/>
<path d="M302.977 207.067H278.403V230.221H302.977V207.067Z" stroke="#ADADAD" stroke-miterlimit="10"/>
<path d="M101.318 121.993H141.111" stroke="#ADADAD" stroke-miterlimit="10"/>
<path d="M101.318 126.36H141.111" stroke="#ADADAD" stroke-miterlimit="10"/>
<path d="M101.318 130.719H141.111" stroke="#ADADAD" stroke-miterlimit="10"/>
<path d="M101.318 135.078H141.111" stroke="#ADADAD" stroke-miterlimit="10"/>
<path d="M101.318 139.438H141.111" stroke="#ADADAD" stroke-miterlimit="10"/>
<path d="M101.318 143.805H141.111" stroke="#ADADAD" stroke-miterlimit="10"/>
<path d="M101.318 148.164H141.111" stroke="#ADADAD" stroke-miterlimit="10"/>
<path d="M101.318 152.523H141.111" stroke="#ADADAD" stroke-miterlimit="10"/>
<path d="M101.318 219.124H141.111" stroke="#ADADAD" stroke-miterlimit="10"/>
<path d="M101.318 223.483H141.111" stroke="#ADADAD" stroke-miterlimit="10"/>
<path d="M101.318 227.842H141.111" stroke="#ADADAD" stroke-miterlimit="10"/>
<path d="M101.318 232.201H141.111" stroke="#ADADAD" stroke-miterlimit="10"/>
<path d="M101.318 236.568H141.111" stroke="#ADADAD" stroke-miterlimit="10"/>
<path d="M101.318 240.927H141.111" stroke="#ADADAD" stroke-miterlimit="10"/>
<path d="M101.318 245.287H141.111" stroke="#ADADAD" stroke-miterlimit="10"/>
<path d="M101.318 249.646H141.111" stroke="#ADADAD" stroke-miterlimit="10"/>
<path d="M176.422 122.016H151.848V145.171H176.422V122.016Z" stroke="#ADADAD" stroke-miterlimit="10"/>
<path d="M201.71 122.016H177.136V145.171H201.71V122.016Z" fill="#1DC3C4" stroke="#ADADAD" stroke-miterlimit="10"/>
<path d="M226.998 122.016H202.424V145.171H226.998V122.016Z" fill="#1DC3C4" stroke="#ADADAD" stroke-miterlimit="10"/>
<path d="M252.294 122.016H227.719V145.171H252.294V122.016Z" stroke="#ADADAD" stroke-miterlimit="10"/>
<path d="M277.582 122.016H253.007V145.171H277.582V122.016Z" stroke="#ADADAD" stroke-miterlimit="10"/>
<path d="M302.977 122.016H278.403V145.171H302.977V122.016Z" stroke="#ADADAD" stroke-miterlimit="10"/>
<path d="M181.449 128.616H198.632" stroke="#ADADAD" stroke-miterlimit="10"/>
<path d="M181.449 131.233H198.632" stroke="#ADADAD" stroke-miterlimit="10"/>
<path d="M181.449 133.85H198.632" stroke="#ADADAD" stroke-miterlimit="10"/>
<path d="M181.449 136.46H198.632" stroke="#ADADAD" stroke-miterlimit="10"/>
<path d="M181.449 139.077H198.632" stroke="#ADADAD" stroke-miterlimit="10"/>
<path d="M176.422 150.343H151.848V173.498H176.422V150.343Z" stroke="#ADADAD" stroke-miterlimit="10"/>
<path d="M201.71 150.343H177.136V173.498H201.71V150.343Z" fill="#1DC3C4" stroke="#ADADAD" stroke-miterlimit="10"/>
<path d="M226.998 150.343H202.424V173.498H226.998V150.343Z" stroke="#ADADAD" stroke-miterlimit="10"/>
<path d="M252.294 150.343H227.719V173.498H252.294V150.343Z" stroke="#ADADAD" stroke-miterlimit="10"/>
<path d="M277.582 150.343H253.007V173.498H277.582V150.343Z" stroke="#ADADAD" stroke-miterlimit="10"/>
<path d="M302.977 150.343H278.403V173.498H302.977V150.343Z" stroke="#ADADAD" stroke-miterlimit="10"/>
<path d="M181.449 156.637H198.632" stroke="#ADADAD" stroke-miterlimit="10"/>
<path d="M181.449 159.246H198.632" stroke="#ADADAD" stroke-miterlimit="10"/>
<path d="M181.449 161.863H198.632" stroke="#ADADAD" stroke-miterlimit="10"/>
<path d="M181.449 164.48H198.632" stroke="#ADADAD" stroke-miterlimit="10"/>
<path d="M181.449 167.097H198.632" stroke="#ADADAD" stroke-miterlimit="10"/>
<path d="M176.422 178.663H151.848V201.817H176.422V178.663Z" stroke="#ADADAD" stroke-miterlimit="10"/>
<path d="M201.71 178.663H177.136V201.817H201.71V178.663Z" stroke="#ADADAD" stroke-miterlimit="10"/>
<path d="M226.998 178.663H202.424V201.817H226.998V178.663Z" stroke="#ADADAD" stroke-miterlimit="10"/>
<path d="M252.294 178.663H227.719V201.817H252.294V178.663Z" stroke="#ADADAD" stroke-miterlimit="10"/>
<path d="M277.582 178.663H253.007V201.817H277.582V178.663Z" fill="#1DC3C4" stroke="#ADADAD" stroke-miterlimit="10"/>
<path d="M302.977 178.663H278.403V201.817H302.977V178.663Z" stroke="#ADADAD" stroke-miterlimit="10"/>
<path d="M257.651 185.025H274.834" stroke="#ADADAD" stroke-miterlimit="10"/>
<path d="M257.651 187.642H274.834" stroke="#ADADAD" stroke-miterlimit="10"/>
<path d="M257.651 190.252H274.834" stroke="#ADADAD" stroke-miterlimit="10"/>
<path d="M257.651 192.869H274.834" stroke="#ADADAD" stroke-miterlimit="10"/>
<path d="M257.651 195.486H274.834" stroke="#ADADAD" stroke-miterlimit="10"/>
<path d="M176.422 235.463H151.848V258.618H176.422V235.463Z" stroke="#ADADAD" stroke-miterlimit="10"/>
<path d="M201.71 235.463H177.136V258.618H201.71V235.463Z" stroke="#ADADAD" stroke-miterlimit="10"/>
<path d="M226.998 235.463H202.424V258.618H226.998V235.463Z" fill="#1DC3C4" stroke="#ADADAD" stroke-miterlimit="10"/>
<path d="M252.294 235.463H227.719V258.618H252.294V235.463Z" fill="#1DC3C4" stroke="#ADADAD" stroke-miterlimit="10"/>
<path d="M277.582 235.463H253.007V258.618H277.582V235.463Z" fill="#1DC3C4" stroke="#ADADAD" stroke-miterlimit="10"/>
<path d="M302.977 235.463H278.403V258.618H302.977V235.463Z" stroke="#ADADAD" stroke-miterlimit="10"/>
<path d="M206.476 241.802H223.66" stroke="#ADADAD" stroke-miterlimit="10"/>
<path d="M206.476 244.419H223.66" stroke="#ADADAD" stroke-miterlimit="10"/>
<path d="M206.476 247.036H223.66" stroke="#ADADAD" stroke-miterlimit="10"/>
<path d="M206.476 249.646H223.66" stroke="#ADADAD" stroke-miterlimit="10"/>
<path d="M206.476 252.263H223.66" stroke="#ADADAD" stroke-miterlimit="10"/>
<path d="M231.503 241.802H248.687" stroke="#ADADAD" stroke-miterlimit="10"/>
<path d="M231.503 244.419H248.687" stroke="#ADADAD" stroke-miterlimit="10"/>
<path d="M231.503 247.036H248.687" stroke="#ADADAD" stroke-miterlimit="10"/>
<path d="M231.503 249.646H248.687" stroke="#ADADAD" stroke-miterlimit="10"/>
<path d="M231.503 252.263H248.687" stroke="#ADADAD" stroke-miterlimit="10"/>
<path d="M256.53 241.802H273.714" stroke="#ADADAD" stroke-miterlimit="10"/>
<path d="M256.53 244.419H273.714" stroke="#ADADAD" stroke-miterlimit="10"/>
<path d="M256.53 247.036H273.714" stroke="#ADADAD" stroke-miterlimit="10"/>
<path d="M256.53 249.646H273.714" stroke="#ADADAD" stroke-miterlimit="10"/>
<path d="M256.53 252.263H273.714" stroke="#ADADAD" stroke-miterlimit="10"/>
<path d="M83.8423 73.5276C76.8891 68.3779 67.7255 68.9228 62.2228 72.3687C56.72 75.8146 55.0162 82.0158 53.4736 86.2598C50.4038 94.702 43.8112 99.7212 36.6738 104.595C29.7666 109.33 20.7949 116.268 25.5302 125.731C27.6714 130.021 30.3499 132.968 26.2976 139.937C22.2454 146.905 17.986 150.128 20.9254 156.821C23.8648 163.513 27.6253 173.981 43.4428 170.228C59.2603 166.476 64.0877 148.509 65.6994 141.832C67.3111 135.155 75.0548 132.415 80.7111 127.619C86.3673 122.822 85.807 115.285 84.1954 110.466C82.9674 106.767 81.586 101.502 85.8147 97.3114L86.3673 97.4802C86.3673 97.4802 94.8631 93.6429 96.2753 91.3021C97.6874 88.9613 90.7879 78.6696 83.8423 73.5276Z" fill="#247D7E" stroke="#247D7E" stroke-linecap="round" stroke-linejoin="round"/>
<path d="M96.2139 118.777C96.2139 118.777 112.76 131.556 117.074 134.25C121.387 136.943 131.832 141.986 134.165 143.789C136.498 145.593 132.906 153.321 127.872 156.199C122.837 159.077 118.156 155.838 115.462 154.396C112.768 152.953 94.7404 141.264 94.7404 141.264L96.2139 118.777Z" fill="#919191" stroke="#247D7E" stroke-linecap="round" stroke-linejoin="round"/>
<path d="M99.9054 126.383L97.0964 142.492L103.489 129.706" stroke="#247D7E" stroke-linecap="round" stroke-linejoin="round"/>
<path d="M101.77 202.807C101.77 202.807 97.4572 202.984 92.5608 198.487C87.6643 193.989 86.421 192.009 86.421 192.009C86.421 192.009 83.9344 166.99 83.9344 164.649C83.9344 162.308 85.9452 150.62 87.7718 144.864C89.5984 139.108 92.9906 145.946 92.9906 145.946C92.9906 145.946 97.1272 186.238 97.8486 190.198C98.5701 194.158 101.77 202.807 101.77 202.807Z" fill="#787878" stroke="#247D7E" stroke-linecap="round" stroke-linejoin="round"/>
<path d="M87.3266 246.96C87.3266 246.96 82.4148 259.178 82.223 265.08C82.0311 270.982 83.2437 279.884 78.6926 289.869C74.1415 299.854 69.8744 314.489 69.1607 318.964C68.4469 323.438 72.5375 335.687 74.6558 339.685C76.774 343.684 75.9451 343.384 73.6964 343.308C72.0161 343.311 70.3647 342.871 68.9093 342.031C67.4538 341.192 66.2459 339.983 65.4078 338.526C63.0133 334.505 63.9342 332.003 62.3379 330.545L60.6955 329.079L59.2834 337.759L57.3187 337.413L59.1069 326.216C59.1069 326.216 58.9073 323.676 60.0662 322.586C61.2251 321.496 63.0286 318.181 63.0286 318.181C63.0286 318.181 64.9626 302.486 64.4791 291.772C63.9956 281.058 63.6579 274.297 64.9319 269.838C66.2059 265.379 66.252 263.967 66.4055 259.469C66.559 254.972 66.4515 249.623 66.4745 248.779C66.4976 247.934 87.3266 246.96 87.3266 246.96Z" fill="white"/>
<path opacity="0.2" d="M66.4362 248.794C66.4362 249.408 66.4362 252.447 66.4362 255.793C68.8844 256.3 74.8784 256.975 84.6022 254.55C85.9376 250.421 87.3267 246.96 87.3267 246.96C87.3267 246.96 66.4669 247.95 66.4362 248.794Z" fill="black"/>
<path d="M87.3266 246.96C87.3266 246.96 82.4148 259.178 82.223 265.08C82.0311 270.982 83.2437 279.884 78.6926 289.869C74.1415 299.854 69.8744 314.489 69.1607 318.964C68.4469 323.438 72.5375 335.687 74.6558 339.685C76.774 343.684 75.9451 343.384 73.6964 343.308C72.0161 343.311 70.3647 342.871 68.9093 342.031C67.4538 341.192 66.2459 339.983 65.4078 338.526C63.0133 334.505 63.9342 332.003 62.3379 330.545L60.6955 329.079L59.2834 337.759L57.3187 337.413L59.1069 326.216C59.1069 326.216 58.9073 323.676 60.0662 322.586C61.2251 321.496 63.0286 318.181 63.0286 318.181C63.0286 318.181 64.9626 302.486 64.4791 291.772C63.9956 281.058 63.6579 274.297 64.9319 269.838C66.2059 265.379 66.252 263.967 66.4055 259.469C66.559 254.972 66.4515 249.623 66.4745 248.779C66.4976 247.934 87.3266 246.96 87.3266 246.96Z" stroke="#247D7E" stroke-linecap="round" stroke-linejoin="round"/>
<path d="M74.6558 339.7L74.4332 339.255C69.6135 340.698 67.526 335.832 65.0318 330.046C63.8401 327.267 62.2416 324.68 60.2888 322.371C60.1967 322.463 60.1123 322.555 60.0279 322.632C58.869 323.722 59.0685 326.262 59.0685 326.262L57.2803 337.46L59.2451 337.805L60.6572 329.125L62.2996 330.591C63.9343 332.049 63.0133 334.551 65.3694 338.572C66.2075 340.029 67.4154 341.238 68.8709 342.077C70.3264 342.917 71.9778 343.357 73.6581 343.354C75.9451 343.4 76.774 343.707 74.6558 339.7Z" fill="#1DC3C4" stroke="#247D7E" stroke-linecap="round" stroke-linejoin="round"/>
<path d="M56.8812 332.632L57.1728 342.786L58.5773 342.832L59.3294 335.241L56.8812 332.632Z" fill="#1DC3C4" stroke="#247D7E" stroke-linecap="round" stroke-linejoin="round"/>
<path d="M48.8305 245.11C48.8305 245.11 51.9771 251.964 49.3754 262.578C46.7737 273.192 49.3063 289.877 53.2128 300.422C57.1192 310.967 56.7585 320.521 57.2496 322.786C57.7408 325.05 56.7431 329.524 56.9196 332.632C57.0961 335.74 62.2919 340.974 63.3356 342.694C64.3794 344.413 72.2766 344.681 74.249 344.75C76.2214 344.82 76.5514 342.855 75.1853 341.965C73.8192 341.074 70.8798 335.909 70.8798 335.909C70.8798 335.909 66.4362 325.932 65.9834 322.517C65.5306 319.102 63.9496 299.086 64.6557 294.888C65.3618 290.69 67.8253 267.413 68.5928 261.25C69.3603 255.087 69.9359 246.376 69.9359 246.376L48.8305 245.11Z" fill="white"/>
<path opacity="0.2" d="M69.2144 255.041C69.6289 250.475 69.8975 246.376 69.8975 246.376L48.8305 245.11C49.7704 247.526 50.2895 250.086 50.3654 252.677C53.8344 253.913 60.0048 255.379 69.2144 255.041Z" fill="black"/>
<path d="M48.8305 245.11C48.8305 245.11 51.9771 251.964 49.3754 262.578C46.7737 273.192 49.3063 289.877 53.2128 300.422C57.1192 310.967 56.7585 320.521 57.2496 322.786C57.7408 325.05 56.7431 329.524 56.9196 332.632C57.0961 335.74 62.2919 340.974 63.3356 342.694C64.3794 344.413 72.2766 344.681 74.249 344.75C76.2214 344.82 76.5514 342.855 75.1853 341.965C73.8192 341.074 70.8798 335.909 70.8798 335.909C70.8798 335.909 66.4362 325.932 65.9834 322.517C65.5306 319.102 63.9496 299.086 64.6557 294.888C65.3618 290.69 67.8253 267.413 68.5928 261.25C69.3603 255.087 69.9359 246.376 69.9359 246.376L48.8305 245.11Z" stroke="#247D7E" stroke-linecap="round" stroke-linejoin="round"/>
<path d="M75.1469 341.965C74.5337 341.462 74.0006 340.87 73.5659 340.207C69.79 340.023 65.2466 339.593 63.7347 338.204C61.9618 336.585 57.7561 328.872 57.1345 327.72C56.9334 329.35 56.8488 330.991 56.8812 332.632C57.0577 335.702 62.2535 340.974 63.2972 342.694C64.341 344.413 72.2382 344.681 74.2106 344.75C76.183 344.82 76.5207 342.855 75.1469 341.965Z" fill="#1DC3C4" stroke="#247D7E" stroke-linecap="round" stroke-linejoin="round"/>
<path d="M45.2848 167.888C45.2848 167.888 35.5763 197.051 36.2901 209.623C37.0038 222.194 44.2103 247.044 44.2103 247.044C44.2103 247.044 60.3962 251.357 71.9082 251.357C79.2458 251.264 86.5261 250.05 93.4971 247.758C93.4971 247.758 99.2531 207.082 96.7358 192.715C95.1508 183.944 91.7156 175.611 86.6589 168.271L45.2848 167.888Z" fill="#247D7E" stroke="#247D7E" stroke-linecap="round" stroke-linejoin="round"/>
<path d="M53.5658 117.703C53.5658 117.703 62.9135 113.566 67.5951 113.566C72.2766 113.566 82.5223 121.479 84.1417 122.922C85.761 124.365 91.517 140.727 92.415 145.224C93.3129 149.722 86.659 169.507 86.659 169.507C86.659 169.507 74.6097 172.024 65.615 171.671C56.6203 171.318 52.6602 170.228 52.6602 170.228C52.6602 170.228 49.0684 152.239 47.2879 141.625C45.5074 131.011 43.512 123.973 45.1313 121.302C46.7507 118.632 53.5658 117.703 53.5658 117.703Z" fill="white"/>
<path opacity="0.3" d="M86.659 169.507C86.659 169.507 93.3206 149.722 92.415 145.224C91.5094 140.727 85.761 124.357 84.1417 122.922C83.6505 122.477 82.3458 121.433 80.642 120.197L79.4832 121.878C79.4832 121.878 85.4694 139.108 85.6689 145.792C85.8608 152.032 80.2967 168.586 79.5292 170.72C83.6735 170.136 86.659 169.507 86.659 169.507Z" fill="black"/>
<path d="M53.5658 117.703C53.5658 117.703 62.9135 113.566 67.5951 113.566C72.2766 113.566 82.5223 121.479 84.1417 122.922C85.761 124.365 91.517 140.727 92.415 145.224C93.3129 149.722 86.659 169.507 86.659 169.507C86.659 169.507 74.6097 172.024 65.615 171.671C56.6203 171.318 52.6602 170.228 52.6602 170.228C52.6602 170.228 49.0684 152.239 47.2879 141.625C45.5074 131.011 43.512 123.973 45.1313 121.302C46.7507 118.632 53.5658 117.703 53.5658 117.703Z" stroke="#247D7E" stroke-linecap="round" stroke-linejoin="round"/>
<path d="M76.0449 116.26C76.0449 116.26 85.4003 132.991 88.1018 143.428C90.8033 153.866 95.293 197.573 97.2731 199.553C98.6142 200.837 100.128 201.927 101.77 202.792C101.77 202.792 96.3982 173.291 96.3982 164.472C96.3982 155.654 97.841 121.118 96.9354 119.138C96.0298 117.158 92.9829 118.24 86.682 117.519C80.3811 116.797 76.0449 116.26 76.0449 116.26Z" fill="#919191" stroke="#247D7E" stroke-linecap="round" stroke-linejoin="round"/>
<path d="M60.6725 112.645L30.7412 123.996C30.7412 123.996 31.8157 158.893 32.1764 163.39C32.5371 167.888 34.3407 170.228 36.8579 172.024C39.3752 173.82 40.2732 171.671 40.2732 171.671C40.2732 171.671 35.2386 190.559 32.1764 196.998C29.1142 203.437 30.7412 203.836 30.7412 203.836C30.7412 203.836 42.4298 208.87 50.8872 206.177C59.3447 203.483 61.862 197.358 61.862 197.358L57.1575 142.178C57.1575 142.178 57.1575 126.345 58.0554 122.745C58.9533 119.146 60.6725 112.645 60.6725 112.645Z" fill="#919191" stroke="#247D7E" stroke-linecap="round" stroke-linejoin="round"/>
<path d="M39.5748 181.096C39.5748 181.096 48.5235 181.349 53.8881 179.308V182.631C49.9074 183.168 45.8939 183.424 41.8772 183.398" stroke="#247D7E" stroke-linecap="round" stroke-linejoin="round"/>
<path d="M37.0192 124.081C37.0192 124.081 44.9471 129.453 47.5028 137.895" stroke="#247D7E" stroke-linecap="round" stroke-linejoin="round"/>
<path d="M60.6725 112.645C59.8712 113.301 59.1384 114.037 58.4852 114.84C57.4568 116.122 54.6478 122.047 52.9517 123.843C51.2556 125.639 52.1843 126.03 52.829 125.907C53.4736 125.784 59.6441 123.605 60.8029 123.075C61.7706 122.678 62.7596 122.334 63.7654 122.047L73.0287 131.18L75.6074 121.916C75.6074 121.916 85.2544 122.684 86.4133 122.814C87.5722 122.945 88.4701 122.3 87.5722 122.3C86.6743 122.3 79.2068 118.57 78.1784 118.056C77.15 117.542 75.7302 114.449 72.645 112.392C69.5597 110.335 62.8674 109.691 60.6725 112.645Z" fill="white" stroke="#247D7E" stroke-linecap="round" stroke-linejoin="round"/>
<path d="M73.6734 115.738L73.0287 131.18C73.0287 131.18 63.6349 119.338 62.4454 117.926C61.628 116.72 61.0592 115.363 60.7723 113.935L61.8007 100.55C61.8007 100.55 67.8483 110.335 69.3986 111.364C70.9489 112.392 73.5429 114.449 73.6734 115.738Z" fill="white" stroke="#247D7E" stroke-linecap="round" stroke-linejoin="round"/>
<path d="M69.4293 111.364C67.8944 110.335 61.8314 100.55 61.8314 100.55L61.0639 110.573C62.2458 112.96 71.3249 118.302 72.8369 118.547C73.0725 118.591 73.3111 118.617 73.5506 118.624L73.6734 115.738C73.5429 114.449 70.9719 112.392 69.4293 111.364Z" fill="#247D7E" stroke="#247D7E" stroke-linecap="round" stroke-linejoin="round"/>
<path d="M84.7403 84.3334C84.7403 84.3334 70.9719 92.4456 66.8506 94.3719L64.5482 95.0166C64.5482 95.0166 61.5858 90.7725 60.166 91.6704C58.7462 92.5684 57.9787 94.8861 58.7538 96.9506C59.4417 98.4002 60.5008 99.642 61.8237 100.55C61.8237 100.55 61.9542 106.728 62.8598 109.046C63.7654 111.364 73.1899 116.897 74.7248 117.15C76.2598 117.404 77.6873 117.15 78.4624 115.738C79.2375 114.326 84.1186 108.532 86.3059 100.55C88.4932 92.5684 87.1885 85.6228 84.7403 84.3334Z" fill="white" stroke="#247D7E" stroke-linecap="round" stroke-linejoin="round"/>
<path d="M81.655 97.3344L82.0388 104.802L77.9175 103.896" stroke="#247D7E" stroke-linecap="round" stroke-linejoin="round"/>
<path d="M72.7754 104.802C72.7754 104.802 73.6733 105.953 77.3802 107.242" stroke="#247D7E" stroke-linecap="round" stroke-linejoin="round"/>
<path d="M72.1307 96.4364C72.1307 96.4364 73.1591 98.6237 76.889 97.8486" stroke="#247D7E" stroke-linecap="round" stroke-linejoin="round"/>
<path d="M83.0673 99.3911C83.3416 99.833 83.7616 100.165 84.2548 100.331C84.748 100.496 85.2835 100.484 85.7687 100.297" stroke="#247D7E" stroke-linecap="round" stroke-linejoin="round"/>
<path d="M73.1898 92.8293C74.146 92.4223 75.1745 92.2125 76.2136 92.2125C77.2528 92.2125 78.2813 92.4223 79.2375 92.8293" stroke="#247D7E" stroke-linecap="round" stroke-linejoin="round"/>
<path d="M86.7971 95.7917C86.2828 94.3719 83.9728 93.8577 83.9728 93.8577" stroke="#247D7E" stroke-linecap="round" stroke-linejoin="round"/>
<path d="M110.205 151.541L98.6928 154.127C98.6928 154.127 84.4102 153.505 83.3434 153.92C82.2767 154.334 83.2437 158.578 83.2437 158.578C81.6929 158.691 80.136 158.691 78.5852 158.578C76.8277 158.371 75.9988 158.686 76.4132 159.822C76.8277 160.957 78.5852 161.994 80.2506 161.994C81.9542 161.876 83.647 161.634 85.3158 161.272C85.3158 161.272 89.5599 162.807 91.1179 162.807C92.6758 162.807 94.9552 161.464 94.9552 161.464C94.9552 161.464 97.7488 161.564 99.1993 161.671C100.65 161.779 102.507 159.906 102.507 159.906L113.789 159.599L110.205 151.541Z" fill="white" stroke="#247D7E" stroke-linecap="round" stroke-linejoin="round"/>
<path d="M81.4325 153.198C81.4325 153.198 78.7386 153.406 78.7386 154.234C78.7386 155.063 80.9183 161.272 80.9183 161.272L85.2621 161.686C85.2621 161.686 85.8838 161.479 85.3619 160.65C84.7593 159.879 84.0662 159.184 83.2974 158.578L83.3972 153.92L81.4325 153.198Z" fill="white" stroke="#247D7E" stroke-linecap="round" stroke-linejoin="round"/>
<path d="M85.8685 152.469C85.8685 152.469 81.1792 152.062 81.0027 152.592C80.8262 153.122 81.7702 161.034 81.7702 161.034C81.7702 161.034 86.5131 162.055 87.1424 162.009C87.3048 161.99 87.4586 161.925 87.5862 161.823C87.7139 161.721 87.8103 161.585 87.8646 161.431C87.919 161.276 87.929 161.11 87.8936 160.951C87.8582 160.791 87.7788 160.644 87.6643 160.528C86.8971 159.935 86.0625 159.435 85.1777 159.039L85.8685 152.469Z" fill="white" stroke="#247D7E" stroke-linecap="round" stroke-linejoin="round"/>
<path d="M88.5776 151.955C88.5776 151.955 83.919 151.188 83.7118 151.748C83.5046 152.308 83.919 160.236 83.919 160.236C83.919 160.236 88.5776 161.579 89.1915 161.579C89.355 161.569 89.5126 161.514 89.6465 161.42C89.7805 161.326 89.8856 161.196 89.9501 161.046C90.0147 160.895 90.036 160.73 90.0118 160.568C89.9876 160.406 89.9189 160.254 89.8132 160.129C89.0875 159.487 88.289 158.933 87.434 158.478L88.5776 151.955Z" fill="white" stroke="#247D7E" stroke-linecap="round" stroke-linejoin="round"/>
<path d="M100.581 155.056C100.581 155.056 88.9843 150.712 88.3704 150.504C87.7564 150.297 87.3343 150.612 87.3343 151.026C87.3343 151.441 85.4693 159.062 86.091 159.614C86.7126 160.167 90.4348 161.272 90.4348 161.272C90.4348 161.272 91.4709 160.543 91.5784 160.236C91.6858 159.929 90.4348 159.092 90.4348 159.092L90.6421 156.79L93.3359 157.719" fill="white"/>
<path d="M100.581 155.056C100.581 155.056 88.9843 150.712 88.3704 150.504C87.7564 150.297 87.3343 150.612 87.3343 151.026C87.3343 151.441 85.4693 159.062 86.091 159.614C86.7126 160.167 90.4348 161.272 90.4348 161.272C90.4348 161.272 91.4709 160.543 91.5784 160.236C91.6858 159.929 90.4348 159.092 90.4348 159.092L90.6421 156.79L93.3359 157.719" stroke="#247D7E" stroke-linecap="round" stroke-linejoin="round"/>
<path d="M101.717 153.298C101.717 153.298 104.311 156.368 103.067 159.614H105.754C105.754 159.614 106.79 154.442 104.41 152.991L101.717 153.298Z" fill="#247D7E" stroke="#247D7E" stroke-linecap="round" stroke-linejoin="round"/>
<path d="M105.754 151.748C105.754 151.748 107.588 154.142 108.056 162.178C108.148 163.667 127.465 161.065 132.845 160.029C138.225 158.993 140.297 156.959 140.712 152.469C141.126 147.98 136.153 143.467 132.431 141.917C128.708 140.366 105.754 151.748 105.754 151.748Z" fill="#919191" stroke="#247D7E" stroke-linecap="round" stroke-linejoin="round"/>
<path d="M56.6342 87.7009L49.8677 91.0716C49.1279 91.4401 48.8269 92.3386 49.1954 93.0784L58.0756 110.905C58.4441 111.645 59.3426 111.946 60.0824 111.577L66.8489 108.206C67.5887 107.838 67.8897 106.939 67.5212 106.2L58.641 88.3732C58.2725 87.6333 57.374 87.3324 56.6342 87.7009Z" fill="#1DC3C4" stroke="#247D7E" stroke-linecap="round" stroke-linejoin="round"/>
<path d="M51.2787 123.843L53.0823 116.513L49.2449 104.41C49.2449 104.41 52.7216 95.5308 53.3662 94.6329C54.0109 93.735 55.6686 92.8293 56.321 93.098C56.9733 93.3666 56.9657 94.2568 56.0677 94.771C55.4338 95.2229 54.9413 95.8458 54.6479 96.5669L52.7216 103.136L53.5965 104.572L56.0447 97.1041C56.0447 97.1041 63.1207 96.2062 63.5045 96.2062C63.8882 96.2062 65.4385 96.3367 64.6633 97.3651C64.2329 97.9647 63.5912 98.3788 62.8675 98.5239H65.8222C65.8222 98.5239 66.8506 99.0382 66.206 99.8133C65.5613 100.588 61.1944 101.74 61.1944 101.74L59.5213 107.02L62.737 103.282L65.9527 102.768C65.9527 102.768 68.14 103.282 67.7562 104.188C67.3725 105.093 65.4538 104.572 65.4538 104.572L63.5198 105.6L60.5651 110.972V117.665C60.5651 119.338 57.6027 125.393 57.6027 125.393L51.2787 123.843Z" fill="white" stroke="#247D7E" stroke-linecap="round" stroke-linejoin="round"/>
<path d="M62.8675 98.4932L58.4852 99.5216L56.1752 106.989" stroke="#247D7E" stroke-linecap="round" stroke-linejoin="round"/>
<path d="M49.7822 121.456L61.4784 125.416C61.4784 125.416 52.2074 166.337 50.7338 170.083C48.3854 176.13 40.0584 174.879 36.6355 173.805C33.2126 172.73 31.2632 166.069 32.1381 163.367C33.013 160.666 49.7822 121.456 49.7822 121.456Z" fill="#919191" stroke="#247D7E" stroke-linecap="round" stroke-linejoin="round"/>
</svg>
