<svg width="160" height="160" viewBox="0 0 160 160" fill="none" xmlns="http://www.w3.org/2000/svg">
<path d="M80 160C124.183 160 160 124.183 160 80C160 35.8173 124.183 0 80 0C35.8173 0 0 35.8173 0 80C0 124.183 35.8173 160 80 160Z" fill="url(#paint0_linear)"/>
<path d="M29.7938 83.9133C39.1457 78.762 49.585 74.4627 59.339 70.1413C76.1197 63.0633 92.967 56.108 109.984 49.6327C113.295 48.5293 119.244 47.4503 119.828 52.357C119.508 59.3023 118.194 66.207 117.293 73.1117C115.005 88.2957 112.361 103.428 109.783 118.562C108.895 123.603 102.58 126.212 98.539 122.986C88.8284 116.427 79.043 109.932 69.4564 103.22C66.316 100.029 69.228 95.447 72.0327 93.1683C80.0307 85.2863 88.5127 78.5897 96.0927 70.3003C98.1374 65.3627 92.096 69.524 90.1034 70.799C79.154 78.3443 68.4727 86.3503 56.9287 92.9817C51.032 96.2277 44.1594 93.4537 38.2654 91.6423C32.9806 89.4543 25.2366 87.25 29.7932 83.9137L29.7938 83.9133Z" fill="white"/>
<defs>
<linearGradient id="paint0_linear" x1="60.0093" y1="6.672" x2="20.0093" y2="100" gradientUnits="userSpaceOnUse">
<stop stop-color="#37AEE2"/>
<stop offset="1" stop-color="#1E96C8"/>
</linearGradient>
</defs>
</svg>
