<svg width="36" height="36" viewBox="0 0 36 36" fill="none" xmlns="http://www.w3.org/2000/svg">
<path d="M32.1429 0H3.85714C1.72768 0 0 1.72768 0 3.85714V32.1429C0 34.2723 1.72768 36 3.85714 36H32.1429C34.2723 36 36 34.2723 36 32.1429V3.85714C36 1.72768 34.2723 0 32.1429 0ZM28.2134 12.7607C28.2295 12.9857 28.2295 13.2188 28.2295 13.4438C28.2295 20.4107 22.9259 28.4384 13.2348 28.4384C10.2455 28.4384 7.47321 27.5705 5.14286 26.0759C5.56875 26.1241 5.97857 26.1402 6.4125 26.1402C8.87946 26.1402 11.1455 25.3045 12.9536 23.8902C10.6393 23.842 8.69464 22.3232 8.02768 20.2339C8.83929 20.3545 9.57054 20.3545 10.4062 20.1375C7.99554 19.6473 6.1875 17.5259 6.1875 14.9625V14.8982C6.88661 15.292 7.70625 15.533 8.56607 15.5652C7.8432 15.0843 7.25061 14.432 6.84118 13.6665C6.43175 12.9009 6.21822 12.0459 6.21964 11.1777C6.21964 10.1973 6.47679 9.29732 6.93482 8.51786C9.53036 11.7161 13.4277 13.8054 17.7991 14.0304C17.0518 10.4545 19.7277 7.55357 22.942 7.55357C24.4607 7.55357 25.8268 8.18839 26.7911 9.21696C27.9804 8.99196 29.1214 8.55 30.1339 7.94732C29.7402 9.16875 28.9125 10.1973 27.8196 10.8482C28.8804 10.7357 29.9089 10.4384 30.8571 10.0286C30.142 11.0812 29.242 12.0134 28.2134 12.7607Z" fill="#A0A1A1"/>
</svg>
