<svg width="29" height="32" viewBox="0 0 29 32" fill="none" xmlns="http://www.w3.org/2000/svg">
<path d="M24.0951 4H5.23793C3.81829 4 2.6665 5.15179 2.6665 6.57143V25.4286C2.6665 26.8482 3.81829 28 5.23793 28H24.0951C25.5147 28 26.6665 26.8482 26.6665 25.4286V6.57143C26.6665 5.15179 25.5147 4 24.0951 4ZM21.4754 12.5071C21.4861 12.6571 21.4861 12.8125 21.4861 12.9625C21.4861 17.6071 17.9504 22.9589 11.4897 22.9589C9.49686 22.9589 7.64865 22.3804 6.09508 21.3839C6.379 21.4161 6.65222 21.4268 6.9415 21.4268C8.58615 21.4268 10.0969 20.8696 11.3022 19.9268C9.75936 19.8946 8.46293 18.8821 8.01829 17.4893C8.55936 17.5696 9.04686 17.5696 9.604 17.425C7.99686 17.0982 6.7915 15.6839 6.7915 13.975V13.9321C7.25758 14.1946 7.804 14.3554 8.37722 14.3768C7.8953 14.0562 7.50024 13.6214 7.22729 13.111C6.95434 12.6006 6.81199 12.0306 6.81293 11.4518C6.81293 10.7982 6.98436 10.1982 7.28972 9.67857C9.02008 11.8107 11.6183 13.2036 14.5326 13.3536C14.0344 10.9696 15.8183 9.03571 17.9611 9.03571C18.9736 9.03571 19.8844 9.45893 20.5272 10.1446C21.3201 9.99464 22.0808 9.7 22.7558 9.29821C22.4933 10.1125 21.9415 10.7982 21.2129 11.2321C21.9201 11.1571 22.6058 10.9589 23.2379 10.6857C22.7611 11.3875 22.1611 12.0089 21.4754 12.5071Z" fill="#CCCCCC"/>
</svg>
