<svg width="42" height="48" viewBox="0 0 42 48" fill="none" xmlns="http://www.w3.org/2000/svg">
<path d="M35.1429 6H6.85714C4.72768 6 3 7.72768 3 9.85714V38.1429C3 40.2723 4.72768 42 6.85714 42H35.1429C37.2723 42 39 40.2723 39 38.1429V9.85714C39 7.72768 37.2723 6 35.1429 6ZM31.2134 18.7607C31.2295 18.9857 31.2295 19.2188 31.2295 19.4438C31.2295 26.4107 25.9259 34.4384 16.2348 34.4384C13.2455 34.4384 10.4732 33.5705 8.14286 32.0759C8.56875 32.1241 8.97857 32.1402 9.4125 32.1402C11.8795 32.1402 14.1455 31.3045 15.9536 29.8902C13.6393 29.842 11.6946 28.3232 11.0277 26.2339C11.8393 26.3545 12.5705 26.3545 13.4062 26.1375C10.9955 25.6473 9.1875 23.5259 9.1875 20.9625V20.8982C9.88661 21.292 10.7062 21.533 11.5661 21.5652C10.8432 21.0843 10.2506 20.432 9.84118 19.6665C9.43175 18.9009 9.21822 18.0459 9.21964 17.1777C9.21964 16.1973 9.47679 15.2973 9.93482 14.5179C12.5304 17.7161 16.4277 19.8054 20.7991 20.0304C20.0518 16.4545 22.7277 13.5536 25.942 13.5536C27.4607 13.5536 28.8268 14.1884 29.7911 15.217C30.9804 14.992 32.1214 14.55 33.1339 13.9473C32.7402 15.1687 31.9125 16.1973 30.8196 16.8482C31.8804 16.7357 32.9089 16.4384 33.8571 16.0286C33.142 17.0813 32.242 18.0134 31.2134 18.7607Z" fill="#1DC3C4"/>
</svg>
