<svg width="160" height="160" viewBox="0 0 160 160" fill="none" xmlns="http://www.w3.org/2000/svg">
<path d="M80 160C124.183 160 160 124.183 160 80C160 35.8173 124.183 0 80 0C35.8173 0 0 35.8173 0 80C0 124.183 35.8173 160 80 160Z" fill="#25D366"/>
<path fill-rule="evenodd" clip-rule="evenodd" d="M82.6368 124.508H82.6172C74.6555 124.506 66.8325 122.508 59.8842 118.718L34.6665 125.333L41.4152 100.683C37.2522 93.4683 35.0618 85.285 35.0652 76.9007C35.0758 50.6723 56.4158 29.3333 82.6362 29.3333C95.3618 29.3388 107.306 34.293 116.287 43.2847C125.269 52.276 130.212 64.2277 130.207 76.9383C130.197 103.161 108.865 124.498 82.6368 124.508ZM61.0528 110.106L62.4965 110.963C68.5672 114.566 75.5258 116.472 82.6208 116.474H82.6368C104.429 116.474 122.166 98.737 122.175 76.9357C122.179 66.3707 118.071 56.437 110.606 48.9633C103.141 41.4897 93.2132 37.3717 82.6522 37.368C60.8428 37.368 43.1058 55.1037 43.0972 76.9037C43.0942 84.3747 45.1845 91.6504 49.1422 97.9454L50.0825 99.4413L46.0882 114.032L61.0528 110.106ZM104.975 87.18C105.803 87.5807 106.364 87.8513 106.603 88.2503C106.9 88.746 106.9 91.126 105.91 93.9027C104.919 96.6794 100.17 99.2134 97.8862 99.5544C95.8385 99.8607 93.2468 99.9883 90.3995 99.0834C88.6732 98.5357 86.4595 97.8044 83.6235 96.5797C72.4805 91.768 64.9498 80.968 63.5265 78.9267C63.4268 78.7837 63.3572 78.6837 63.3182 78.6317L63.3088 78.619C62.6798 77.7797 58.4648 72.156 58.4648 66.336C58.4648 60.8607 61.1542 57.991 62.3922 56.67C62.4772 56.5797 62.5552 56.4964 62.6248 56.42C63.7145 55.23 65.0022 54.9323 65.7945 54.9323C66.5868 54.9323 67.3802 54.9397 68.0728 54.9747C68.1582 54.979 68.2472 54.9783 68.3388 54.9777C69.0315 54.9737 69.8952 54.9687 70.7472 57.015C71.0748 57.8023 71.5545 58.97 72.0602 60.2013C73.0828 62.6913 74.2132 65.4427 74.4118 65.8407C74.7092 66.4357 74.9072 67.1297 74.5108 67.923C74.4515 68.042 74.3965 68.1544 74.3438 68.2617C74.0462 68.8694 73.8275 69.316 73.3222 69.906C73.1238 70.1377 72.9185 70.3877 72.7132 70.6377C72.3042 71.1357 71.8955 71.6337 71.5395 71.9883C70.9442 72.581 70.3248 73.224 71.0182 74.414C71.7115 75.604 74.0972 79.4963 77.6305 82.6483C81.4292 86.0364 84.7305 87.4684 86.4038 88.194C86.7305 88.336 86.9952 88.4507 87.1895 88.548C88.3775 89.143 89.0708 89.0434 89.7645 88.2503C90.4578 87.457 92.7358 84.7794 93.5278 83.5897C94.3202 82.4004 95.1128 82.5983 96.2022 82.9947C97.2922 83.392 103.136 86.267 104.325 86.862C104.557 86.978 104.773 87.083 104.975 87.18Z" fill="#FDFDFD"/>
</svg>
