<svg width="501" height="500" viewBox="0 0 501 500" fill="none" xmlns="http://www.w3.org/2000/svg">
<path d="M217.243 183.705L167.609 371.827L223.645 338.203L255.666 385.438L251.664 187.707L217.243 183.705Z" fill="#1DC3C4"/>
<path d="M225.875 328.09L179.604 355.861L222.848 191.934L244.274 194.423L247.637 360.178L225.875 328.09Z" fill="white"/>
<path opacity="0.3" d="M252.582 232.936L251.663 187.73L217.265 183.705L206.647 223.944C210.437 231.579 213.038 241.726 219.687 243.89C228.656 246.782 240.597 232.678 250.485 232.678C251.191 232.699 251.893 232.786 252.582 232.936V232.936Z" fill="black"/>
<path d="M285.646 185.14L364.745 362.891L312.509 336.499L280.006 390.416L252.313 194.603L285.646 185.14Z" fill="#1DC3C4"/>
<path d="M260.677 200.04L281.43 194.154L349.284 346.657L309.673 326.633L284.491 368.419L260.677 200.04Z" fill="white"/>
<path opacity="0.3" d="M285.657 185.14L252.324 194.603L257.627 231.983H258.121C268.009 231.983 280.006 246.031 288.931 243.138C295.77 240.896 298.326 230.211 302.306 222.509L285.657 185.14Z" fill="black"/>
<path d="M357.76 136.156C357.76 146.044 340.572 153.097 337.668 162.01C334.675 171.26 344.328 187.046 338.722 194.748C333.116 202.451 315.032 198.19 307.262 203.841C299.492 209.492 298.147 227.969 288.897 230.962C279.928 233.866 267.976 219.75 258.087 219.75C248.198 219.75 236.213 233.81 227.288 230.962C218.039 227.969 216.615 209.447 208.924 203.841C201.232 198.235 183.137 202.518 177.452 194.748C171.768 186.978 181.511 171.26 178.506 162.021C175.613 153.052 158.426 146.044 158.426 136.156C158.426 126.267 175.613 119.215 178.506 110.301C181.511 101.052 171.857 85.2653 177.452 77.5629C183.047 69.8604 201.143 74.1208 208.924 68.4701C216.705 62.8194 218.039 44.3424 227.288 41.3489C236.258 38.445 248.198 52.5046 258.087 52.5046C267.976 52.5046 279.973 38.445 288.897 41.3489C298.136 44.3424 299.56 62.8642 307.262 68.4701C314.964 74.076 333.049 69.7931 338.722 77.5629C344.395 85.3326 334.675 101.108 337.668 110.29C340.595 119.17 357.76 126.222 357.76 136.156Z" fill="#1DC3C4"/>
<path opacity="0.6" d="M346.884 136.156C346.884 144.968 331.569 151.247 328.946 159.196C326.266 167.436 334.865 181.496 329.876 188.346C324.887 195.197 308.776 191.418 301.847 196.453C294.918 201.487 293.729 217.945 285.489 220.625C277.54 223.204 266.855 210.68 258.042 210.68C249.23 210.68 238.568 223.159 230.652 220.58C222.411 217.901 221.144 201.408 214.283 196.408C207.421 191.407 191.299 195.23 186.253 188.302C181.208 181.373 189.864 167.392 187.195 159.151C184.605 151.202 169.256 144.923 169.256 136.111C169.256 127.298 184.56 121.02 187.195 113.071C189.864 104.83 181.264 90.7704 186.253 83.92C191.243 77.0696 207.365 80.848 214.283 75.8139C221.2 70.7798 222.411 54.3209 230.652 51.6413C238.59 49.0626 249.286 61.5862 258.087 61.5862C266.888 61.5862 277.584 49.0626 285.534 51.6413C293.774 54.3209 295.041 70.8134 301.892 75.8139C308.742 80.8143 324.887 76.9351 329.921 83.92C334.955 90.9049 326.311 104.83 328.99 113.071C331.625 121.02 346.884 127.298 346.884 136.156Z" fill="white"/>
<path d="M258.087 210.153C298.98 210.153 332.13 177.003 332.13 136.111C332.13 95.2181 298.98 62.0681 258.087 62.0681C217.195 62.0681 184.045 95.2181 184.045 136.111C184.045 177.003 217.195 210.153 258.087 210.153Z" fill="white"/>
<path d="M222.804 101.399C231.65 97.049 238.635 94.5712 249.97 81.061H277.596V168.916H292.026V189.557H229.946V168.961H245.463V111.378L229.946 118.677L222.804 101.399Z" fill="#247D7E"/>
<path opacity="0.2" d="M375.587 498.834C433.681 498.834 480.776 489.608 480.776 478.227C480.776 466.846 433.681 457.62 375.587 457.62C317.493 457.62 270.398 466.846 270.398 478.227C270.398 489.608 317.493 498.834 375.587 498.834Z" fill="black"/>
<path d="M472.827 216.253C471.179 208.55 470.259 208.92 460.909 205.983C450.628 202.755 439.951 200.963 429.18 200.657C422.247 200.396 415.316 201.201 408.628 203.045C408.628 203.045 396.878 204.514 388.447 206.409C381.216 220.85 389.378 240.672 389.378 240.672C389.378 240.672 399.648 263.23 399.648 274.789C399.648 286.349 390.835 306.519 390.476 307.068C390.118 307.618 363.333 354.158 356.538 369.977C349.744 385.797 349.576 392.177 353.242 398.41C356.908 404.644 398.728 462.239 398.728 462.239C398.728 462.239 387.517 475.076 382.404 478.384C377.291 481.691 370.867 482.207 373.109 484.965C375.352 487.723 390.163 488.811 394.199 487.892C398.235 486.972 407.406 478.922 412.721 475.245C418.035 471.567 422.811 469 420.793 464.414C418.775 459.828 414.369 455.792 412.541 452.081C410.714 448.37 404.099 437.775 400.433 424.567C396.766 411.36 394.019 403.478 389.793 396.325C385.566 389.172 382.639 386.425 382.639 386.425C382.639 386.425 398.414 371.928 406.857 364.596C415.299 357.263 422.811 351.209 422.811 351.209C422.811 351.209 451.424 321.856 453.991 315.432C456.559 309.008 463.532 288.838 468.667 271.235C473.802 253.633 474.475 223.955 472.827 216.253Z" fill="#1DC3C4" stroke="#247D7E" stroke-width="0.967197" stroke-linecap="round" stroke-linejoin="round"/>
<path d="M389.377 240.65C389.377 240.65 381.215 220.827 388.446 206.386C386.46 206.804 384.502 207.343 382.582 208.001C375.62 210.568 341.682 224.819 338.195 226.343C334.708 227.868 328.295 233.127 329.943 238.676C331.591 244.226 334.159 245.829 345.897 246.009C357.636 246.188 389.377 240.65 389.377 240.65Z" fill="#247D7E" stroke="#247D7E" stroke-width="0.967197" stroke-linecap="round" stroke-linejoin="round"/>
<path d="M364.432 140.506C364.432 140.506 374.881 145.821 375.43 146.74C375.98 147.659 375.251 149.666 374.511 151.135C373.771 152.604 369.746 156.091 367.918 156.819C366.091 157.548 367.548 152.054 367.548 148.971C367.548 145.888 362.223 143.287 361.673 141.818C361.124 140.349 363.019 139.946 364.432 140.506Z" fill="white" stroke="#247D7E" stroke-width="0.967197" stroke-linecap="round" stroke-linejoin="round"/>
<path d="M344.429 244.686L340.404 245.807C336.368 246.928 329.394 247.455 328.295 245.986C327.197 244.518 323.34 225.076 323.889 214.257C324.439 203.438 340.584 157.212 342.422 153.714C344.261 150.216 360.025 138.858 360.025 138.858C360.025 138.858 362.043 138.309 364.431 140.517C366.819 142.726 373.602 147.3 373.232 149.128C372.862 150.955 369.017 156.472 367.357 157.94C365.698 159.409 363.142 157.94 363.142 157.94C363.142 157.94 361.123 161.416 358.556 162.526C355.988 163.636 349.934 162.335 349.934 162.335C349.934 162.335 344.99 193.157 346.447 204.94C347.905 216.724 350.853 230.436 348.69 237.039" fill="#247D7E"/>
<path d="M344.429 244.686L340.404 245.807C336.368 246.928 329.394 247.455 328.295 245.986C327.197 244.518 323.34 225.076 323.889 214.257C324.439 203.438 340.584 157.212 342.422 153.714C344.261 150.216 360.025 138.858 360.025 138.858C360.025 138.858 362.043 138.309 364.431 140.517C366.819 142.726 373.602 147.3 373.232 149.128C372.862 150.955 369.017 156.472 367.357 157.94C365.698 159.409 363.142 157.94 363.142 157.94C363.142 157.94 361.123 161.416 358.556 162.526C355.988 163.636 349.934 162.335 349.934 162.335C349.934 162.335 344.99 193.157 346.447 204.94C347.905 216.724 350.853 230.436 348.69 237.039" stroke="#247D7E" stroke-width="0.967197" stroke-linecap="round" stroke-linejoin="round"/>
<path d="M358.534 162.515C361.102 161.394 363.12 157.929 363.12 157.929C363.12 157.929 365.687 159.398 367.335 157.929C368.984 156.46 372.84 150.955 373.21 149.117C373.58 147.278 366.786 142.704 364.409 140.506C362.032 138.309 360.003 138.847 360.003 138.847C360.003 138.847 344.228 150.227 342.4 153.702C341.952 154.554 340.663 157.929 338.947 162.672C342.013 164.806 345.562 166.143 349.273 166.562C349.654 163.916 349.912 162.291 349.912 162.291C349.912 162.291 355.989 163.614 358.534 162.515Z" fill="white" stroke="#247D7E" stroke-width="0.967197" stroke-linecap="round" stroke-linejoin="round"/>
<path d="M374.869 150.787C374.869 150.787 377.437 151.516 376.708 153.355C375.979 155.194 373.221 157.201 371.573 157.021C369.925 156.842 369.555 154.633 370.654 152.806C371.752 150.978 373.95 150.047 374.869 150.787Z" fill="white" stroke="#247D7E" stroke-width="0.967197" stroke-linecap="round" stroke-linejoin="round"/>
<path d="M363.142 157.929C363.142 157.929 361.673 156.27 362.592 154.992C363.512 153.713 365.339 154.622 365.339 154.622L362.592 151.135" stroke="#247D7E" stroke-width="0.967197" stroke-linecap="round" stroke-linejoin="round"/>
<path d="M384.926 291.82C390.66 291.82 395.308 287.172 395.308 281.438C395.308 275.704 390.66 271.056 384.926 271.056C379.192 271.056 374.544 275.704 374.544 281.438C374.544 287.172 379.192 291.82 384.926 291.82Z" fill="white" stroke="#247D7E" stroke-width="0.967197" stroke-linecap="round" stroke-linejoin="round"/>
<path d="M382.202 271.258C383.289 268.325 385.009 265.667 387.239 263.473C389.469 261.28 392.155 259.604 395.106 258.566C405.376 254.732 422.104 250.718 431.78 238.015C441.456 225.312 437.958 201.016 437.958 201.016L445.481 202.036C445.481 202.036 444.472 226.321 439.64 239.215C434.807 252.108 420.086 259.396 408.404 261.391C396.721 263.387 387.045 263.197 382.202 271.258Z" fill="white" stroke="#247D7E" stroke-width="0.967197" stroke-linecap="round" stroke-linejoin="round"/>
<path d="M382.201 271.258C382.201 271.258 380.99 262.995 388.446 254.328C395.902 245.661 408 236.199 410.018 227.33C412.036 218.462 409.816 203.146 409.816 203.146L416.263 201.33C418.036 209.355 418.105 217.663 416.464 225.716C413.639 238.206 406.789 244.26 398.324 250.707C389.859 257.153 382.201 271.258 382.201 271.258Z" fill="white" stroke="#247D7E" stroke-width="0.967197" stroke-linecap="round" stroke-linejoin="round"/>
<path d="M465.304 209.649C463.141 211.433 461.36 213.636 460.07 216.125C458.779 218.614 458.004 221.339 457.792 224.135C457.052 233.676 458.7 258.801 458.7 268.713C458.7 278.624 451.367 293.468 452.466 301.171C453.565 308.873 463.678 318.044 469.161 312.001C474.643 305.958 478.881 286.506 480.899 261.369C482.917 236.232 481.269 219.37 478.152 214.28C475.036 209.189 469.889 205.792 465.304 209.649Z" fill="#247D7E" stroke="#247D7E" stroke-width="0.967197" stroke-linecap="round" stroke-linejoin="round"/>
<path d="M471.358 304.478C470.237 310.712 466.772 316.811 463.106 318.045C459.44 319.278 455.258 314.199 449.349 304.658C443.441 295.117 440.38 284.667 438.137 273.657C436.149 263.593 434.682 253.433 433.742 243.217C433.552 239.002 433.742 237.892 436.119 235.369C438.496 232.846 447.129 230.783 447.129 230.783L448.598 228.216C449.327 226.938 453.184 226.198 455.011 227.308C456.839 228.418 457.769 234.461 457.769 234.461C457.769 234.461 462.904 237.387 462.904 240.325C462.904 243.262 459.597 246.379 455.93 251.335C452.264 256.29 451.165 254.451 450.796 259.037C450.426 263.623 453.038 269.677 457.579 273.893C462.119 278.108 468.79 283.243 470.607 291.495" fill="#247D7E"/>
<path d="M471.358 304.478C470.237 310.712 466.772 316.811 463.106 318.045C459.44 319.278 455.258 314.199 449.349 304.658C443.441 295.117 440.38 284.667 438.137 273.657C436.149 263.593 434.682 253.433 433.742 243.217C433.552 239.002 433.742 237.892 436.119 235.369C438.496 232.846 447.129 230.783 447.129 230.783L448.598 228.216C449.327 226.938 453.184 226.198 455.011 227.308C456.839 228.418 457.769 234.461 457.769 234.461C457.769 234.461 462.904 237.387 462.904 240.325C462.904 243.262 459.597 246.379 455.93 251.335C452.264 256.29 451.165 254.451 450.796 259.037C450.426 263.623 453.038 269.677 457.579 273.893C462.119 278.108 468.79 283.243 470.607 291.495" stroke="#247D7E" stroke-width="0.967197" stroke-linecap="round" stroke-linejoin="round"/>
<path d="M450.784 260.001C450.784 259.665 450.784 259.317 450.784 258.992C451.154 254.406 452.252 256.234 455.919 251.29C459.585 246.345 462.892 243.217 462.892 240.28C462.892 237.342 457.757 234.416 457.757 234.416C457.757 234.416 456.838 228.362 454.999 227.263C453.161 226.164 449.315 226.893 448.586 228.171L447.106 230.738C447.106 230.738 438.484 232.757 436.096 235.324C433.708 237.892 433.529 239.001 433.719 243.172C433.831 245.908 434.728 253.263 435.962 261.111C440.91 262.117 446.04 261.733 450.784 260.001V260.001Z" fill="white" stroke="#247D7E" stroke-width="0.967197" stroke-linecap="round" stroke-linejoin="round"/>
<path d="M454.171 314.905C432.083 307.517 404.715 304.019 392.338 302.718C391.317 305.252 390.577 306.889 390.476 307.046C390.106 307.595 363.333 354.135 356.538 369.955C349.744 385.775 349.576 392.155 353.242 398.388C356.908 404.622 398.728 462.217 398.728 462.217C405.455 461.398 411.454 456.88 414.055 454.649C413.465 453.852 412.94 453.008 412.485 452.126C410.646 448.46 404.043 437.82 400.376 424.613C396.71 411.405 393.963 403.523 389.736 396.37C385.51 389.217 382.583 386.47 382.583 386.47C382.583 386.47 398.358 371.973 406.801 364.641C415.243 357.308 422.755 351.254 422.755 351.254C422.755 351.254 451.368 321.902 453.935 315.477C454.014 315.298 454.081 315.107 454.171 314.905Z" fill="#247D7E" stroke="#247D7E" stroke-width="0.967197" stroke-linecap="round" stroke-linejoin="round"/>
<path d="M414.054 454.649C411.947 458.64 403.134 466.253 403.134 466.253C403.134 466.253 400.892 463.865 399.647 462.217C398.672 460.972 398.335 461.286 398.223 461.522L398.728 462.217C398.728 462.217 387.516 475.054 382.404 478.362C377.291 481.669 370.867 482.207 373.109 484.965C375.351 487.723 390.162 488.811 394.198 487.892C398.235 486.972 407.406 478.922 412.72 475.245C418.035 471.567 422.811 469 420.793 464.414C419.167 460.86 416.173 457.631 414.054 454.649Z" fill="#1DC3C4" stroke="#247D7E" stroke-width="0.967197" stroke-linecap="round" stroke-linejoin="round"/>
<path d="M391.205 485.695C387.404 486.681 377.235 484.573 372.706 483.452C372.609 483.705 372.591 483.982 372.653 484.245C372.715 484.509 372.854 484.748 373.053 484.932C375.296 487.679 390.106 488.778 394.143 487.858C398.179 486.939 407.35 478.889 412.664 475.211C417.979 471.534 422.755 468.967 420.737 464.381C420.501 463.854 420.232 463.327 419.941 462.811C418.988 464.089 417.867 465.525 416.701 466.948C413.404 471.018 396.161 484.405 391.205 485.695Z" fill="white" stroke="#247D7E" stroke-width="0.967197" stroke-linecap="round" stroke-linejoin="round"/>
<path d="M442.936 324.099C442.936 324.099 426.925 309.792 411.386 304.657C395.846 299.522 366.808 300.991 359.475 303.929C352.143 306.866 355.26 316.262 355.439 327.036C355.619 337.811 362.962 357.846 366.079 369.226C369.196 380.606 370.295 393.253 370.665 397.648C371.035 402.043 371.035 403.702 371.035 403.702C371.035 403.702 350.674 403.523 345.349 402.973C340.023 402.424 336.917 404.095 335.998 405.911C335.454 406.853 335.259 407.956 335.449 409.028C335.449 409.028 349.205 417.997 361.124 422.964C373.042 427.931 384.422 431.036 385.89 430.296C387.359 429.556 388.817 418.378 388.817 410.676C388.817 402.973 391.205 365.918 391.205 359.315V342.262C391.205 342.262 426.791 361.153 440.918 356.747C455.045 352.341 454.17 314.905 454.17 314.905L442.745 311.261" fill="#247D7E"/>
<path d="M442.936 324.099C442.936 324.099 426.925 309.792 411.386 304.657C395.846 299.522 366.808 300.991 359.475 303.929C352.143 306.866 355.26 316.262 355.439 327.036C355.619 337.811 362.962 357.846 366.079 369.226C369.196 380.606 370.295 393.253 370.665 397.648C371.035 402.043 371.035 403.702 371.035 403.702C371.035 403.702 350.674 403.523 345.349 402.973C340.023 402.424 336.917 404.095 335.998 405.911C335.454 406.853 335.259 407.956 335.449 409.028C335.449 409.028 349.205 417.997 361.124 422.964C373.042 427.931 384.422 431.036 385.89 430.296C387.359 429.556 388.817 418.378 388.817 410.676C388.817 402.973 391.205 365.918 391.205 359.315V342.262C391.205 342.262 426.791 361.153 440.918 356.747C455.045 352.341 454.17 314.905 454.17 314.905L442.745 311.261" stroke="#247D7E" stroke-width="0.967197" stroke-linecap="round" stroke-linejoin="round"/>
<path d="M371.035 403.702C371.035 403.702 350.674 403.523 345.349 402.974C340.023 402.424 336.917 404.095 335.998 405.911C335.454 406.853 335.259 407.957 335.449 409.028C335.449 409.028 349.205 417.997 361.124 422.964C373.042 427.931 384.422 431.037 385.89 430.297C387.18 429.658 388.469 420.913 388.761 413.569C381.204 407.133 371.035 403.702 371.035 403.702Z" fill="#1DC3C4" stroke="#247D7E" stroke-width="0.967197" stroke-linecap="round" stroke-linejoin="round"/>
<path d="M385.89 430.297C386.462 430.017 387.011 428.055 387.527 425.453C381.126 424.985 374.827 423.591 368.826 421.316C358.455 417.403 341.559 409.185 335.796 406.349C335.407 407.185 335.286 408.121 335.449 409.028C335.449 409.028 349.205 417.998 361.123 422.964C373.042 427.931 384.421 431.026 385.89 430.297Z" fill="white" stroke="#247D7E" stroke-width="0.967197" stroke-linecap="round" stroke-linejoin="round"/>
<path d="M391.205 342.262C391.205 342.262 391.026 326.308 382.953 318.415" stroke="#247D7E" stroke-width="0.967197" stroke-linecap="round" stroke-linejoin="round"/>
<path d="M378.715 183.133C378.715 183.133 383.087 197.473 385.016 202.541C386.944 207.609 387.112 210.389 393.223 216.174C399.333 221.96 400.567 226.489 406.856 227.005C413.146 227.521 415.602 223.641 415.602 223.641C415.602 223.641 416.476 229.415 419.795 231.153C423.113 232.891 430.457 233.25 434.998 224.337C439.539 215.423 436.747 211.062 435.177 206.869C433.608 202.675 431.5 197.428 431.5 197.428C433.781 194.282 434.963 190.472 434.863 186.587C434.516 180.476 432.767 179.77 430.85 179.243C428.932 178.716 423.506 182.214 421.241 181.171C418.976 180.129 422.811 174.175 416.689 173.659C410.567 173.144 404.278 181.508 393.268 182.393C382.258 183.279 378.311 179.815 378.715 183.133Z" fill="white" stroke="#247D7E" stroke-width="0.967197" stroke-linecap="round" stroke-linejoin="round"/>
<path d="M415.546 223.686L425.502 212.474C429.875 207.586 429.875 200.242 429.875 200.242" fill="white"/>
<path d="M415.546 223.686L425.502 212.474C429.875 207.586 429.875 200.242 429.875 200.242" stroke="#247D7E" stroke-width="0.967197" stroke-linecap="round" stroke-linejoin="round"/>
<path d="M395.97 200.265C395.97 200.265 397.192 205.871 395.97 208.651C394.748 211.432 395.791 212.856 397.887 213.024C398.891 213.195 399.922 213.074 400.858 212.676" stroke="#247D7E" stroke-width="0.967197" stroke-linecap="round" stroke-linejoin="round"/>
<path d="M402.439 200.792C402.439 200.792 403.661 197.125 409.424 198.168" stroke="#247D7E" stroke-width="1.93439" stroke-linecap="round" stroke-linejoin="round"/>
<path d="M387.931 201.834C387.931 201.834 391.294 199.917 393.693 202.541" stroke="#247D7E" stroke-width="1.93439" stroke-linecap="round" stroke-linejoin="round"/>
<path d="M384.96 196.251C384.96 196.251 388.974 192.226 393.694 198.493" stroke="#247D7E" stroke-width="0.967197" stroke-linecap="round" stroke-linejoin="round"/>
<path d="M399.288 196.767C399.288 196.767 401.205 190.309 407.136 191.161" stroke="#247D7E" stroke-width="0.967197" stroke-linecap="round" stroke-linejoin="round"/>
<path d="M404.704 214.425C404.704 214.425 413.797 212.676 415.546 202.014C415.546 202.014 420.031 209.201 416.925 214.963C413.819 220.726 409.604 219.841 409.604 219.841L404.704 214.425Z" stroke="#247D7E" stroke-width="0.967197" stroke-linecap="round" stroke-linejoin="round"/>
<path d="M384.601 162.862C384.601 162.862 389.153 156.573 384.085 157.447C379.017 158.322 370.631 168.109 371.674 177.37C372.716 186.631 391.418 188.728 400.51 187.338C405.967 186.486 411.03 183.982 415.018 180.162C415.018 180.162 411.655 187.338 415.198 188.201C418.741 189.064 420.434 188.201 420.434 188.201C420.434 188.201 423.797 195.724 424.806 193.448C425.815 191.172 424.56 189.389 425.154 186.463C426.555 179.646 431.623 179.815 431.623 179.815C431.623 179.815 432.498 162.862 426.208 156.27C419.918 149.677 403.482 148.926 396.665 152.424C389.848 155.922 384.601 162.862 384.601 162.862Z" fill="#247D7E" stroke="#247D7E" stroke-width="0.967197" stroke-linecap="round" stroke-linejoin="round"/>
<path opacity="0.2" d="M120.754 498.834C178.848 498.834 225.943 489.608 225.943 478.227C225.943 466.846 178.848 457.62 120.754 457.62C62.6601 457.62 15.5654 466.846 15.5654 478.227C15.5654 489.608 62.6601 498.834 120.754 498.834Z" fill="black"/>
<path d="M50.9385 455.578C50.9385 455.578 37.2489 462.642 31.7776 469.033C26.3062 475.423 32.4615 479.751 43.6396 476.107C54.8178 472.463 58.9213 456.722 58.9213 456.722C58.9213 456.722 55.042 453.527 50.9385 455.578Z" fill="#1DC3C4" stroke="#247D7E" stroke-width="0.967197" stroke-linecap="round" stroke-linejoin="round"/>
<path d="M196.243 455.578C196.243 455.578 209.933 462.642 215.404 469.033C220.875 475.423 214.72 479.751 203.542 476.107C192.364 472.463 188.26 456.722 188.26 456.722C188.26 456.722 192.14 453.527 196.243 455.578Z" fill="#1DC3C4" stroke="#247D7E" stroke-width="0.967197" stroke-linecap="round" stroke-linejoin="round"/>
<path d="M110.036 166.326L109.868 178.491C104.779 177.305 99.7593 175.837 94.8326 174.096C86.7265 171.226 84.742 173.76 79.9658 177.807C75.1895 181.854 52.609 207.911 50.2097 210.074C47.8104 212.238 40.4106 223.529 40.4106 229.325C40.4106 235.122 44.9738 239.124 54.089 234.225C63.2042 229.325 79.9321 216.151 79.9321 216.151C79.9321 216.151 88.554 241.826 88.7221 246.221C88.8903 250.616 82.8023 260.236 79.5958 269.026C76.3892 277.816 74.8756 302.302 72.7005 310.745C70.5255 319.187 64.9308 327.977 60.547 350.435C56.1632 372.892 55.8156 390.135 54.8066 394.519C53.7975 398.903 52.4521 415.642 50.9161 428.782C49.3801 441.923 48.3822 456.475 50.0752 458C51.7682 459.525 56.6565 460.534 59.0446 458C61.4327 455.466 79.1249 410.575 82.7239 400.271C86.3228 389.967 110.26 343.338 112.289 338.102C114.319 332.866 117.974 325.634 117.974 325.634C117.974 325.634 130.475 348.943 134.69 360.592C138.906 372.241 162.058 417.178 168.483 428.984C174.907 440.79 185.368 456.509 188.238 458.034C191.108 459.559 195.738 458.617 196.243 455.579C196.748 452.54 191.96 405.843 188.395 397.053C184.829 388.263 182.486 383.375 181.477 376.962C180.468 370.549 170.658 318.01 166.106 308.379C161.554 298.748 160.87 296.898 160.702 296.383C160.534 295.867 157.338 284.565 152.584 273.073C147.831 261.581 142.628 251.289 142.628 251.289L151.239 227.643C151.239 227.643 163.908 253.823 169.817 259.395C175.725 264.967 194.987 288.949 194.987 288.949L201.064 282.872L181.477 249.237C181.477 249.237 177.25 227.453 172.183 213.763C167.115 200.074 163.404 189.949 156.811 186.855C150.219 183.76 136.036 182.964 133.502 181.955C130.968 180.946 131.809 180.094 131.641 179.59C131.473 179.085 132.493 167.772 132.493 167.772C132.493 167.772 123.086 171.058 118.602 169.701C115.676 168.763 112.815 167.635 110.036 166.326V166.326Z" fill="#247D7E" stroke="#247D7E" stroke-width="0.967197" stroke-linecap="round" stroke-linejoin="round"/>
<path d="M146.418 287.727L126.898 313.032" stroke="#696969" stroke-width="0.967197" stroke-linecap="round" stroke-linejoin="round"/>
<path d="M84.249 289.902L105.944 312.314" stroke="#696969" stroke-width="0.967197" stroke-linecap="round" stroke-linejoin="round"/>
<path d="M87.8701 302.908L109.554 316.642" stroke="#696969" stroke-width="0.967197" stroke-linecap="round" stroke-linejoin="round"/>
<path d="M142.64 251.289L151.25 227.643C151.25 227.643 146.687 195.578 137.998 182.908C136.482 182.74 134.982 182.448 133.513 182.034C130.979 181.025 131.82 180.173 131.652 179.668C131.484 179.164 132.504 167.851 132.504 167.851C132.504 167.851 123.086 171.058 118.601 169.701C115.661 168.768 112.785 167.645 109.991 166.337L109.823 178.502C109.823 178.502 107.58 177.998 104.082 177.033C100.371 181.798 85.381 201.565 79.9209 216.162C79.9209 216.162 88.5427 241.837 88.7109 246.232C88.8343 249.417 85.6725 255.336 82.7014 261.705C88.2064 265.393 98.0391 269.755 114.094 270.046C133.367 270.394 143.705 265.954 148.279 263.14C145.162 256.256 142.64 251.289 142.64 251.289Z" fill="#1DC3C4" stroke="#247D7E" stroke-width="0.967197" stroke-linecap="round" stroke-linejoin="round"/>
<path d="M131.226 195.578C134.589 192.304 135.621 187.337 135.565 182.505C134.867 182.411 134.18 182.249 133.513 182.023C130.979 181.014 131.82 180.162 131.652 179.657C131.484 179.152 132.504 167.84 132.504 167.84C132.504 167.84 123.086 171.058 118.601 169.701C115.661 168.768 112.785 167.645 109.991 166.337L109.823 178.502C109.823 178.502 109.116 178.345 107.894 178.042C106.964 181.63 105.17 191.284 111 196.576C116.606 201.598 125.99 200.623 131.226 195.578Z" fill="#B2B2B2" stroke="#247D7E" stroke-width="0.967197" stroke-linecap="round" stroke-linejoin="round"/>
<path d="M103.611 176.798C103.611 176.798 103.107 189.467 99.9001 196.396C96.6936 203.325 93.3076 204.334 93.3076 204.334C94.6567 205.189 96.0698 205.939 97.5345 206.577C100.236 207.698 100.741 207.249 100.741 207.249C100.741 207.249 105.809 204.043 108.174 195.589C109.617 190.026 110.188 184.274 109.867 178.536L103.611 176.798Z" fill="white" stroke="#247D7E" stroke-width="0.967197" stroke-linecap="round" stroke-linejoin="round"/>
<path d="M113.12 112.061C113.12 112.061 112.907 106.332 123.311 103.574C133.716 100.816 142.865 109.09 143.705 114.618C144.546 120.145 142.865 123.116 141.586 123.587C140.308 124.058 134.792 118.486 126.507 115.739C118.221 112.992 112.055 114.618 113.12 112.061Z" fill="#247D7E" stroke="#247D7E" stroke-width="0.967197" stroke-linecap="round" stroke-linejoin="round"/>
<path d="M102.49 139.9C102.49 139.9 101.223 136.077 98.0052 138.409C94.7874 140.741 96.301 147.973 97.7922 150.092C99.2834 152.211 102.277 152.222 102.882 150.731C103.488 149.239 103.521 140.741 103.521 140.741" fill="#B2B2B2"/>
<path d="M102.49 139.9C102.49 139.9 101.223 136.077 98.0052 138.409C94.7874 140.741 96.301 147.973 97.7922 150.092C99.2834 152.211 102.277 152.222 102.882 150.731C103.488 149.239 103.521 140.741 103.521 140.741" stroke="#247D7E" stroke-width="0.967197" stroke-linecap="round" stroke-linejoin="round"/>
<path d="M102.076 121.412C102.076 121.412 98.4544 126.726 100.159 132.041C101.863 137.355 101.011 141.167 101.011 147.334C101.011 153.5 105.495 161.774 108.444 166.876C111.393 171.977 117.346 178.031 123.715 176.125C130.083 174.219 139.411 160.922 141.16 154.767C142.909 148.612 142.225 147.121 143.279 144.564C145.072 140.04 145.941 135.202 145.835 130.337C145.835 123.329 137.55 113.979 127.347 111.007C117.144 108.036 105.899 111.007 102.076 121.412Z" fill="#B2B2B2" stroke="#247D7E" stroke-width="0.967197" stroke-linecap="round" stroke-linejoin="round"/>
<path d="M140.734 146.055C140.734 146.055 142.438 140.954 145.622 142.445C148.806 143.936 147.528 151.796 144.983 154.128C142.438 156.46 139.668 155.406 139.668 153.915" fill="#B2B2B2"/>
<path d="M140.734 146.055C140.734 146.055 142.438 140.954 145.622 142.445C148.806 143.936 147.528 151.796 144.983 154.128C142.438 156.46 139.668 155.406 139.668 153.915" stroke="#247D7E" stroke-width="0.967197" stroke-linecap="round" stroke-linejoin="round"/>
<path d="M116.729 152.85C117.765 153.878 119.153 154.472 120.611 154.512C122.07 154.551 123.488 154.033 124.578 153.063" stroke="#247D7E" stroke-width="0.967197" stroke-linecap="round" stroke-linejoin="round"/>
<path d="M114.868 157.817C114.868 157.817 120.014 162.301 127.1 157.716" stroke="#247D7E" stroke-width="0.967197" stroke-linecap="round" stroke-linejoin="round"/>
<path d="M113.31 147.715C114.171 147.715 114.868 146.585 114.868 145.192C114.868 143.799 114.171 142.669 113.31 142.669C112.449 142.669 111.751 143.799 111.751 145.192C111.751 146.585 112.449 147.715 113.31 147.715Z" fill="#247D7E"/>
<path d="M128.457 147.715C129.318 147.715 130.015 146.585 130.015 145.192C130.015 143.799 129.318 142.669 128.457 142.669C127.596 142.669 126.898 143.799 126.898 145.192C126.898 146.585 127.596 147.715 128.457 147.715Z" fill="#247D7E"/>
<path d="M109.038 138.981C110.063 138.064 111.318 137.444 112.67 137.187C114.021 136.93 115.416 137.046 116.706 137.523" stroke="#247D7E" stroke-width="0.967197" stroke-linecap="round" stroke-linejoin="round"/>
<path d="M124.667 138.106C124.667 138.106 130.396 135.583 133.502 140.629" stroke="#247D7E" stroke-width="0.967197" stroke-linecap="round" stroke-linejoin="round"/>
<path d="M127.347 111.007C117.156 108.025 105.899 111.007 102.076 121.412C102.076 121.412 98.4544 126.726 100.159 132.041C100.701 133.728 101.032 135.475 101.145 137.243L101.437 137.557C102.71 136.13 103.523 134.352 103.769 132.456C104.195 129.271 111.202 121.244 122.683 122.051C134.164 122.858 139.669 131.02 140.734 136.29C141.799 141.56 139.041 145.416 143.279 144.564C145.072 140.04 145.941 135.202 145.835 130.337C145.835 123.329 137.55 113.979 127.347 111.007Z" fill="#247D7E" stroke="#247D7E" stroke-width="0.967197" stroke-linecap="round" stroke-linejoin="round"/>
<path d="M201.076 282.873L212.052 285.115C212.938 285.29 213.733 285.775 214.295 286.483C216.144 288.804 220.293 294.129 220.685 295.699C221.19 297.728 221.19 298.233 220.517 298.233C219.609 298.194 218.705 298.082 217.815 297.896C216.963 297.728 213.756 293.165 211.223 292.997C208.745 292.619 206.311 291.995 203.957 291.136C203.957 291.136 209.361 295.194 210.55 296.203C211.738 297.212 211.559 297.728 210.718 298.065C209.877 298.401 208.689 297.896 207.511 297.392C206.334 296.887 205.818 296.708 201.76 295.026C197.701 293.344 195.033 288.938 195.033 288.938L201.076 282.873Z" fill="#B2B2B2" stroke="#247D7E" stroke-width="0.967197" stroke-linecap="round" stroke-linejoin="round"/>
<path d="M158.011 209.57L151.25 227.643L157.327 216.835" stroke="#696969" stroke-width="0.967197" stroke-linecap="round" stroke-linejoin="round"/>
<path d="M79.9656 196.217V216.151L76.5908 201.632" stroke="#696969" stroke-width="0.967197" stroke-linecap="round" stroke-linejoin="round"/>
<path d="M113.41 209.738C114.289 210.342 115.284 210.759 116.331 210.961C117.379 211.164 118.457 211.148 119.498 210.915C122.862 210.074 131.988 203.482 137.572 196.049C143.155 188.615 145.678 184.366 145.678 184.366L136.708 181.664C136.708 181.664 131.977 194.501 125.732 200.074C119.487 205.646 110.192 208.348 110.192 208.348L113.41 209.738Z" fill="white" stroke="#247D7E" stroke-width="0.967197" stroke-linecap="round" stroke-linejoin="round"/>
<path d="M71.6918 149.43C71.6918 149.43 111.561 208.718 113.411 209.738C114.288 210.232 115.19 210.681 116.113 211.084C116.113 211.084 106.661 211.084 103.959 208.841C101.257 206.599 79.6297 166.45 77.7685 162.055C76.2654 158.699 74.5735 155.431 72.7008 152.267L71.019 149.049L71.6918 149.43Z" fill="white" stroke="#247D7E" stroke-width="0.967197" stroke-linecap="round" stroke-linejoin="round"/>
<path d="M71.6914 149.43C71.6914 149.43 88.2512 197.069 89.6302 200.443C91.0093 203.818 95.707 206.531 98.2409 206.868L100.775 207.204C100.775 207.204 88.7893 187.606 83.5535 175.811C78.3176 164.016 71.6914 149.43 71.6914 149.43Z" fill="white" stroke="#247D7E" stroke-width="0.967197" stroke-linecap="round" stroke-linejoin="round"/>
<path d="M67.218 151.47C72.9581 151.47 77.6113 146.817 77.6113 141.077C77.6113 135.337 72.9581 130.684 67.218 130.684C61.4779 130.684 56.8247 135.337 56.8247 141.077C56.8247 146.817 61.4779 151.47 67.218 151.47Z" fill="white" stroke="#247D7E" stroke-width="0.967197" stroke-linecap="round" stroke-linejoin="round"/>
<path d="M57.5087 232.195C52.1046 235.077 41.4535 241.826 39.4353 238.788C37.4172 235.749 37.7424 218.517 42.6419 208.213C47.5414 197.91 56.3763 179.489 56.6566 176.327C56.9369 173.165 56.2306 152.21 56.5221 151.347C56.8136 150.484 65.5588 145.741 65.5588 145.741C66.0193 145.628 66.5041 145.663 66.9433 145.842C67.3824 146.022 67.7535 146.336 68.0029 146.739C68.8662 148.174 72.7455 152.345 72.5998 153.466C72.454 154.587 72.3082 155.473 72.3082 155.473C72.3082 155.473 74.6067 156.774 74.0349 158.926C73.4631 161.079 72.454 167.683 71.1646 168.546C70.0918 169.064 68.878 169.214 67.7114 168.972C67.5672 170.535 67.1298 172.056 66.4221 173.457C65.4242 175.038 64.4152 175.901 64.2694 176.327C64.1237 176.753 61.0516 226.455 59.3587 228.148" fill="#247D7E"/>
<path d="M57.5087 232.195C52.1046 235.077 41.4535 241.826 39.4353 238.788C37.4172 235.749 37.7424 218.517 42.6419 208.213C47.5414 197.91 56.3763 179.489 56.6566 176.327C56.9369 173.165 56.2306 152.21 56.5221 151.347C56.8136 150.484 65.5588 145.741 65.5588 145.741C66.0193 145.628 66.5041 145.663 66.9433 145.842C67.3824 146.022 67.7535 146.336 68.0029 146.739C68.8662 148.174 72.7455 152.345 72.5998 153.466C72.454 154.587 72.3082 155.473 72.3082 155.473C72.3082 155.473 74.6067 156.774 74.0349 158.926C73.4631 161.079 72.454 167.683 71.1646 168.546C70.0918 169.064 68.878 169.214 67.7114 168.972C67.5672 170.535 67.1298 172.056 66.4221 173.457C65.4242 175.038 64.4152 175.901 64.2694 176.327C64.1237 176.753 61.0516 226.455 59.3587 228.148" stroke="#247D7E" stroke-width="0.967197" stroke-linecap="round" stroke-linejoin="round"/>
<path d="M72.3081 155.507C72.3081 155.507 72.4538 154.655 72.5996 153.5C72.7453 152.345 68.866 148.186 68.0027 146.773C67.7533 146.37 67.3822 146.056 66.9431 145.876C66.5039 145.697 66.0191 145.662 65.5586 145.775C65.5586 145.775 56.8022 150.507 56.5219 151.381C56.2416 152.256 56.8134 169.264 56.7237 174.926C57.7607 175.77 58.9842 176.355 60.2926 176.632C61.601 176.909 62.9566 176.87 64.2468 176.518C64.2468 176.417 64.2468 176.35 64.2468 176.327C64.3925 175.901 65.368 175.038 66.3995 173.457C67.1072 172.056 67.5446 170.535 67.6888 168.972C68.8554 169.214 70.0692 169.064 71.142 168.546C72.4314 167.683 73.3844 161.079 74.0122 158.927C74.6401 156.774 72.3081 155.507 72.3081 155.507Z" fill="#B2B2B2" stroke="#247D7E" stroke-width="0.967197" stroke-linecap="round" stroke-linejoin="round"/>
<path d="M72.3076 155.507L64.9863 152.636" stroke="#247D7E" stroke-width="0.967197" stroke-linecap="round" stroke-linejoin="round"/>
<path d="M64.1235 156.662C64.1235 156.662 71.7363 158.377 72.4539 159.532C72.9024 160.319 73.149 161.205 73.1714 162.111" stroke="#247D7E" stroke-width="0.967197" stroke-linecap="round" stroke-linejoin="round"/>
<path d="M64.561 160.821C64.561 160.821 70.3015 162.111 71.1648 162.828C72.0281 163.546 72.1626 166.562 72.1626 166.562" stroke="#247D7E" stroke-width="0.967197" stroke-linecap="round" stroke-linejoin="round"/>
<path d="M67.7109 169.006V166.707L69.2918 166.562" stroke="#247D7E" stroke-width="0.967197" stroke-linecap="round" stroke-linejoin="round"/>
<path d="M113.242 271.224L111.213 298.917L114.431 299.421C114.431 299.421 114.431 270.203 113.242 271.224Z" fill="white" stroke="#247D7E" stroke-width="0.967197" stroke-linecap="round" stroke-linejoin="round"/>
<path d="M115.238 272.232L116.247 302.975L121.315 302.807L116.416 272.535C116.416 272.535 115.608 269.699 115.238 272.232Z" fill="white" stroke="#247D7E" stroke-width="0.967197" stroke-linecap="round" stroke-linejoin="round"/>
<path d="M201.379 25.9666L207.142 31.6733L210.326 26.6168L201.379 25.9666Z" fill="#9C9C9C"/>
<path d="M129.231 35.5525L134.994 41.2481L138.178 36.1916L129.231 35.5525Z" fill="#9C9C9C"/>
<path d="M83.8682 12.344L89.631 18.0508L92.8152 12.9831L83.8682 12.344Z" fill="#9C9C9C"/>
<path d="M266.418 56.6643L262.797 63.9183L268.593 65.3646L266.418 56.6643Z" fill="#9C9C9C"/>
<path d="M321.681 5.31421L318.06 12.5682L323.856 14.0145L321.681 5.31421Z" fill="#9C9C9C"/>
<path d="M201.804 68.6607L196.165 62.8306L192.88 67.8198L201.804 68.6607Z" fill="#1DC3C4"/>
<path d="M168.752 70.825L163.123 64.9949L159.827 69.9841L168.752 70.825Z" fill="#1DC3C4"/>
<path d="M239.958 44.847L246.551 40.1269L242.1 36.1355L239.958 44.847Z" fill="#1DC3C4"/>
<path d="M165.726 21.3583L172.318 16.6493L167.867 12.6467L165.726 21.3583Z" fill="#1DC3C4"/>
<path d="M291.914 63.3802L298.506 58.6713L294.055 54.6687L291.914 63.3802Z" fill="#1DC3C4"/>
<path d="M27.9993 67.2705L24.3779 74.5133L30.1744 75.9708L27.9993 67.2705Z" fill="#9C9C9C"/>
<path d="M64.8416 72.6858L61.2202 79.9398L67.0167 81.3861L64.8416 72.6858Z" fill="#9C9C9C"/>
<path d="M44.6609 47.8296L39.0214 41.9995L35.7251 46.9888L44.6609 47.8296Z" fill="#1DC3C4"/>
<path d="M199.226 105.02L205.83 100.311L201.379 96.3088L199.226 105.02Z" fill="#1DC3C4"/>
<path d="M374.892 48.491L380.655 54.1865L383.839 49.13L374.892 48.491Z" fill="#9C9C9C"/>
<path d="M439.943 63.2903L436.31 70.5443L442.118 71.9906L439.943 63.2903Z" fill="#9C9C9C"/>
<path d="M352.166 24.9351L348.544 32.1891L354.341 33.6466L352.166 24.9351Z" fill="#9C9C9C"/>
<path d="M476.784 68.7058L473.152 75.9598L478.96 77.4174L476.784 68.7058Z" fill="#9C9C9C"/>
<path d="M495.205 41.0798L491.573 48.3338L497.38 49.7802L495.205 41.0798Z" fill="#9C9C9C"/>
<path d="M375.33 75.2759L369.69 69.4458L366.394 74.4462L375.33 75.2759Z" fill="#1DC3C4"/>
<path d="M342.277 77.451L336.638 71.6208L333.341 76.6101L342.277 77.451Z" fill="#1DC3C4"/>
<path d="M412.384 22.3563L418.977 17.6474L414.526 13.6448L412.384 22.3563Z" fill="#1DC3C4"/>
<path d="M339.25 14.7435L345.843 10.0234L341.392 6.03198L339.25 14.7435Z" fill="#1DC3C4"/>
<path d="M448.15 31.6283L454.742 26.9194L450.291 22.928L448.15 31.6283Z" fill="#1DC3C4"/>
<path d="M372.75 111.647L379.343 106.927L374.892 102.935L372.75 111.647Z" fill="#1DC3C4"/>
<path d="M105.193 63.3575L111.785 58.6486L107.334 54.646L105.193 63.3575Z" fill="#1DC3C4"/>
<path d="M320.38 150.653L314.617 144.946L311.433 150.003L320.38 150.653Z" fill="#9C9C9C"/>
<path d="M376.181 146.852L370.419 141.156L367.234 146.213L376.181 146.852Z" fill="#9C9C9C"/>
<path d="M439.674 154.083L433.911 148.376L430.727 153.444L439.674 154.083Z" fill="#9C9C9C"/>
<path d="M255.33 135.842L258.962 128.588L253.155 127.141L255.33 135.842Z" fill="#9C9C9C"/>
<path d="M218.488 130.426L222.121 123.172L216.313 121.726L218.488 130.426Z" fill="#9C9C9C"/>
<path d="M400.679 143.365L406.319 149.195L409.615 144.195L400.679 143.365Z" fill="#1DC3C4"/>
<path d="M239.835 132.624L233.243 137.333L237.694 141.325L239.835 132.624Z" fill="#1DC3C4"/>
<path d="M243.086 106.613L236.494 111.333L240.945 115.324L243.086 106.613Z" fill="#1DC3C4"/>
<path d="M493.759 125.247L497.38 117.993L491.573 116.546L493.759 125.247Z" fill="#9C9C9C"/>
<path d="M456.906 119.831L460.539 112.577L454.731 111.131L456.906 119.831Z" fill="#9C9C9C"/>
<path d="M478.253 122.029L471.661 126.738L476.112 130.729L478.253 122.029Z" fill="#1DC3C4"/>
<path d="M165.489 106.915L159.727 101.208L156.542 106.276L165.489 106.915Z" fill="#9C9C9C"/>
<path d="M81.8167 129.215L85.4381 121.973L79.6416 120.515L81.8167 129.215Z" fill="#9C9C9C"/>
<path d="M44.9744 123.8L48.5958 116.546L42.7993 115.1L44.9744 123.8Z" fill="#9C9C9C"/>
<path d="M26.553 151.437L30.1744 144.183L24.3779 142.737L26.553 151.437Z" fill="#9C9C9C"/>
<path d="M65.1558 148.657L70.7953 154.487L74.0915 149.498L65.1558 148.657Z" fill="#1DC3C4"/>
<path d="M182.51 148.635L175.917 153.355L180.368 157.346L182.51 148.635Z" fill="#1DC3C4"/>
<path d="M69.5735 99.9868L62.9697 104.707L67.4208 108.698L69.5735 99.9868Z" fill="#1DC3C4"/>
<path d="M405.96 102.666L399.368 107.375L403.819 111.366L405.96 102.666Z" fill="#1DC3C4"/>
<path d="M145.567 178.11L151.33 183.817L154.514 178.761L145.567 178.11Z" fill="#9C9C9C"/>
<path d="M82.0742 170.89L87.8371 176.585L91.0212 171.529L82.0742 170.89Z" fill="#9C9C9C"/>
<path d="M266.418 189.12L262.797 196.374L268.593 197.82L266.418 189.12Z" fill="#9C9C9C"/>
<path d="M92.9388 226.982L89.3174 234.236L95.1139 235.683L92.9388 226.982Z" fill="#9C9C9C"/>
<path d="M201.804 201.117L196.165 195.287L192.88 200.276L201.804 201.117Z" fill="#1DC3C4"/>
<path d="M168.752 203.281L163.123 197.45L159.827 202.44L168.752 203.281Z" fill="#1DC3C4"/>
<path d="M121.08 181.608L115.441 175.778L112.145 180.767L121.08 181.608Z" fill="#1DC3C4"/>
<path d="M283.079 169.69L277.44 163.86L274.144 168.849L283.079 169.69Z" fill="#1DC3C4"/>
<path d="M239.958 177.303L246.551 172.583L242.1 168.591L239.958 177.303Z" fill="#1DC3C4"/>
<path d="M281.924 192.349L288.517 187.629L284.066 183.638L281.924 192.349Z" fill="#1DC3C4"/>
<path d="M278.673 218.36L285.265 213.64L280.814 209.649L278.673 218.36Z" fill="#1DC3C4"/>
<path d="M27.9993 199.715L24.3779 206.969L30.1744 208.427L27.9993 199.715Z" fill="#9C9C9C"/>
<path d="M64.8416 205.142L61.2202 212.396L67.0167 213.842L64.8416 205.142Z" fill="#9C9C9C"/>
<path d="M44.6609 180.285L39.0214 174.455L35.7251 179.445L44.6609 180.285Z" fill="#1DC3C4"/>
<path d="M43.5063 202.944L50.0989 198.224L45.6478 194.233L43.5063 202.944Z" fill="#1DC3C4"/>
<path d="M199.226 237.476L205.83 232.756L201.379 228.765L199.226 237.476Z" fill="#1DC3C4"/>
<path d="M319.091 184.736L324.854 190.443L328.038 185.375L319.091 184.736Z" fill="#9C9C9C"/>
<path d="M439.943 195.746L436.31 203L442.118 204.446L439.943 195.746Z" fill="#9C9C9C"/>
<path d="M476.784 201.161L473.152 208.415L478.96 209.873L476.784 201.161Z" fill="#9C9C9C"/>
<path d="M495.205 173.536L491.573 180.79L497.38 182.236L495.205 173.536Z" fill="#9C9C9C"/>
<path d="M342.277 209.907L336.638 204.077L333.341 209.066L342.277 209.907Z" fill="#1DC3C4"/>
<path d="M331.345 335.49L325.706 329.66L322.421 334.649L331.345 335.49Z" fill="#1DC3C4"/>
<path d="M267.181 8.71155L273.773 3.99139L269.322 0L267.181 8.71155Z" fill="#1DC3C4"/>
<path d="M372.75 244.102L379.343 239.382L374.892 235.391L372.75 244.102Z" fill="#1DC3C4"/>
<path d="M115.789 222.307L122.392 217.587L117.941 213.595L115.789 222.307Z" fill="#1DC3C4"/>
<path d="M376.181 279.307L370.419 273.612L367.234 278.668L376.181 279.307Z" fill="#9C9C9C"/>
<path d="M255.33 268.297L258.962 261.043L253.155 259.597L255.33 268.297Z" fill="#9C9C9C"/>
<path d="M218.488 262.882L222.121 255.628L216.313 254.182L218.488 262.882Z" fill="#9C9C9C"/>
<path d="M319.944 256.312L325.583 262.142L328.88 257.153L319.944 256.312Z" fill="#1DC3C4"/>
<path d="M352.996 254.148L358.635 259.978L361.931 254.978L352.996 254.148Z" fill="#1DC3C4"/>
<path d="M400.679 359.203L406.319 365.033L409.615 360.044L400.679 359.203Z" fill="#1DC3C4"/>
<path d="M281.801 280.126L275.208 284.846L279.659 288.838L281.801 280.126Z" fill="#1DC3C4"/>
<path d="M243.086 239.068L236.494 243.789L240.945 247.78L243.086 239.068Z" fill="#1DC3C4"/>
<path d="M493.759 341.096L497.38 333.842L491.573 332.395L493.759 341.096Z" fill="#9C9C9C"/>
<path d="M456.906 252.287L460.539 245.033L454.731 243.587L456.906 252.287Z" fill="#9C9C9C"/>
<path d="M478.253 337.866L471.661 342.587L476.112 346.578L478.253 337.866Z" fill="#1DC3C4"/>
<path d="M322.522 219.941L315.929 224.662L320.38 228.653L322.522 219.941Z" fill="#1DC3C4"/>
<path d="M202.668 272.693L196.905 266.986L193.721 272.042L202.668 272.693Z" fill="#9C9C9C"/>
<path d="M81.8167 261.672L85.4381 254.429L79.6416 252.971L81.8167 261.672Z" fill="#9C9C9C"/>
<path d="M169.593 270.888L173.214 263.634L167.418 262.187L169.593 270.888Z" fill="#9C9C9C"/>
<path d="M44.9744 256.256L48.5958 249.013L42.7993 247.556L44.9744 256.256Z" fill="#9C9C9C"/>
<path d="M26.553 283.893L30.1744 276.639L24.3779 275.193L26.553 283.893Z" fill="#9C9C9C"/>
<path d="M179.482 247.522L185.121 253.352L188.406 248.363L179.482 247.522Z" fill="#1DC3C4"/>
<path d="M65.1558 281.113L70.7953 286.943L74.0915 281.953L65.1558 281.113Z" fill="#1DC3C4"/>
<path d="M108.287 273.5L101.695 278.22L106.146 282.211L108.287 273.5Z" fill="#1DC3C4"/>
<path d="M130.296 392.939L123.704 397.659L128.155 401.65L130.296 392.939Z" fill="#1DC3C4"/>
<path d="M259.613 339.111L253.021 343.831L257.472 347.823L259.613 339.111Z" fill="#1DC3C4"/>
<path d="M405.96 235.111L399.368 239.831L403.819 243.822L405.96 235.111Z" fill="#1DC3C4"/>
<path d="M201.379 401.359L207.142 407.066L210.326 401.998L201.379 401.359Z" fill="#9C9C9C"/>
<path d="M78.1279 349.987L83.8908 355.682L87.0749 350.626L78.1279 349.987Z" fill="#9C9C9C"/>
<path d="M266.418 416.159L262.797 423.413L268.593 424.859L266.418 416.159Z" fill="#9C9C9C"/>
<path d="M178.653 313.694L175.02 320.948L180.828 322.394L178.653 313.694Z" fill="#9C9C9C"/>
<path d="M303.261 421.585L299.639 428.828L305.436 430.285L303.261 421.585Z" fill="#9C9C9C"/>
<path d="M321.681 393.948L318.06 401.202L323.856 402.648L321.681 393.948Z" fill="#9C9C9C"/>
<path d="M201.804 428.155L196.165 422.325L192.88 427.314L201.804 428.155Z" fill="#1DC3C4"/>
<path d="M117.122 360.705L111.494 354.875L108.198 359.864L117.122 360.705Z" fill="#1DC3C4"/>
<path d="M239.958 404.341L246.551 399.621L242.1 395.63L239.958 404.341Z" fill="#1DC3C4"/>
<path d="M278.673 445.399L285.265 440.679L280.814 436.687L278.673 445.399Z" fill="#1DC3C4"/>
<path d="M24.0535 378.812L20.4209 386.066L26.2286 387.512L24.0535 378.812Z" fill="#9C9C9C"/>
<path d="M60.8948 384.227L57.2734 391.481L63.0699 392.939L60.8948 384.227Z" fill="#9C9C9C"/>
<path d="M40.7029 359.382L35.0746 353.552L31.7783 358.541L40.7029 359.382Z" fill="#1DC3C4"/>
<path d="M199.226 472.486L205.83 467.777L201.379 463.775L199.226 472.486Z" fill="#1DC3C4"/>
<path d="M374.892 314.726L380.655 320.432L383.839 315.365L374.892 314.726Z" fill="#9C9C9C"/>
<path d="M439.943 412.918L436.31 420.172L442.118 421.619L439.943 412.918Z" fill="#9C9C9C"/>
<path d="M352.166 320.32L348.544 327.574L354.341 329.02L352.166 320.32Z" fill="#9C9C9C"/>
<path d="M476.784 418.333L473.152 425.588L478.96 427.034L476.784 418.333Z" fill="#9C9C9C"/>
<path d="M495.205 390.708L491.573 397.951L497.38 399.408L495.205 390.708Z" fill="#9C9C9C"/>
<path d="M342.277 436.934L336.638 431.115L333.341 436.104L342.277 436.934Z" fill="#1DC3C4"/>
<path d="M456.592 393.477L450.964 387.647L447.667 392.636L456.592 393.477Z" fill="#1DC3C4"/>
<path d="M413.472 401.09L420.065 396.37L415.614 392.378L413.472 401.09Z" fill="#1DC3C4"/>
<path d="M452.186 442.147L458.778 437.427L454.327 433.436L452.186 442.147Z" fill="#1DC3C4"/>
<path d="M372.75 479.113L379.343 474.393L374.892 470.401L372.75 479.113Z" fill="#1DC3C4"/>
<path d="M90.3936 433.761L96.9861 429.041L92.535 425.05L90.3936 433.761Z" fill="#1DC3C4"/>
<path d="M201.379 487.846L207.142 489.069L210.326 487.981L201.379 487.846Z" fill="#9C9C9C"/>
<path d="M145.567 464.941L151.33 466.174L154.514 465.086L145.567 464.941Z" fill="#9C9C9C"/>
<path d="M82.0742 463.394L87.8371 464.616L91.0212 463.528L82.0742 463.394Z" fill="#9C9C9C"/>
<path d="M266.418 467.306L262.797 468.865L268.593 469.179L266.418 467.306Z" fill="#9C9C9C"/>
<path d="M178.653 465.333L175.02 466.892L180.828 467.206L178.653 465.333Z" fill="#9C9C9C"/>
<path d="M303.261 468.472L299.639 470.031L305.436 470.345L303.261 468.472Z" fill="#9C9C9C"/>
<path d="M321.681 462.542L318.06 464.1L323.856 464.414L321.681 462.542Z" fill="#9C9C9C"/>
<path d="M186.905 484.73L181.276 483.474L177.98 484.55L186.905 484.73Z" fill="#1DC3C4"/>
<path d="M168.752 470.345L163.123 469.1L159.827 470.165L168.752 470.345Z" fill="#1DC3C4"/>
<path d="M121.08 465.692L115.441 464.447L112.145 465.512L121.08 465.692Z" fill="#1DC3C4"/>
<path d="M283.079 463.136L277.44 461.891L274.144 462.956L283.079 463.136Z" fill="#1DC3C4"/>
<path d="M239.958 464.773L246.551 463.764L242.1 462.9L239.958 464.773Z" fill="#1DC3C4"/>
<path d="M165.726 463.147L172.318 462.127L167.867 461.275L165.726 463.147Z" fill="#1DC3C4"/>
<path d="M281.924 468.002L288.517 466.993L284.066 466.129L281.924 468.002Z" fill="#1DC3C4"/>
<path d="M278.673 473.585L285.265 472.576L280.814 471.712L278.673 473.585Z" fill="#1DC3C4"/>
<path d="M27.9993 469.583L24.3779 471.141L30.1744 471.455L27.9993 469.583Z" fill="#9C9C9C"/>
<path d="M64.8416 470.749L61.2202 472.307L67.0167 472.621L64.8416 470.749Z" fill="#9C9C9C"/>
<path d="M30.758 482.555L25.1185 481.31L21.8223 482.386L30.758 482.555Z" fill="#1DC3C4"/>
<path d="M55.7266 485.514L62.3191 484.505L57.868 483.642L55.7266 485.514Z" fill="#1DC3C4"/>
<path d="M40.2544 475.861L46.8469 474.852L42.3958 473.989L40.2544 475.861Z" fill="#1DC3C4"/>
<path d="M199.226 477.689L205.83 476.68L201.379 475.816L199.226 477.689Z" fill="#1DC3C4"/>
<path d="M374.892 465.558L380.655 466.78L383.839 465.692L374.892 465.558Z" fill="#9C9C9C"/>
<path d="M319.091 466.365L324.854 467.598L328.038 466.511L319.091 466.365Z" fill="#9C9C9C"/>
<path d="M439.943 468.73L436.31 470.289L442.118 470.603L439.943 468.73Z" fill="#9C9C9C"/>
<path d="M352.166 466.757L348.544 468.316L354.341 468.618L352.166 466.757Z" fill="#9C9C9C"/>
<path d="M476.784 469.896L473.152 471.454L478.96 471.768L476.784 469.896Z" fill="#9C9C9C"/>
<path d="M280.164 483.642L276.542 485.2L282.339 485.514L280.164 483.642Z" fill="#9C9C9C"/>
<path d="M495.205 463.966L491.573 465.524L497.38 465.838L495.205 463.966Z" fill="#9C9C9C"/>
<path d="M375.33 471.309L369.69 470.053L366.394 471.13L375.33 471.309Z" fill="#1DC3C4"/>
<path d="M342.277 471.769L336.638 470.524L333.341 471.589L342.277 471.769Z" fill="#1DC3C4"/>
<path d="M479.946 484.909L474.318 483.653L471.021 484.73L479.946 484.909Z" fill="#1DC3C4"/>
<path d="M456.592 464.56L450.964 463.304L447.667 464.38L456.592 464.56Z" fill="#1DC3C4"/>
<path d="M413.472 466.197L420.065 465.177L415.614 464.324L413.472 466.197Z" fill="#1DC3C4"/>
<path d="M339.25 464.571L345.843 463.551L341.392 462.698L339.25 464.571Z" fill="#1DC3C4"/>
<path d="M455.437 469.425L462.03 468.416L457.578 467.553L455.437 469.425Z" fill="#1DC3C4"/>
<path d="M452.186 475.009L458.778 474L454.327 473.136L452.186 475.009Z" fill="#1DC3C4"/>
<path d="M412.059 493.721L408.427 495.28L414.234 495.594L412.059 493.721Z" fill="#9C9C9C"/>
<path d="M448.901 494.887L445.28 496.446L451.076 496.76L448.901 494.887Z" fill="#9C9C9C"/>
<path d="M428.709 489.551L423.08 488.295L419.784 489.371L428.709 489.551Z" fill="#1DC3C4"/>
<path d="M427.554 494.417L434.147 493.408L429.696 492.544L427.554 494.417Z" fill="#1DC3C4"/>
<path d="M424.303 500L430.895 498.991L426.444 498.128L424.303 500Z" fill="#1DC3C4"/>
<path d="M318.15 490.941L324.742 489.921L320.291 489.069L318.15 490.941Z" fill="#1DC3C4"/>
<path d="M115.789 474.437L122.392 473.417L117.941 472.565L115.789 474.437Z" fill="#1DC3C4"/>
<path d="M96.627 482.42L102.39 483.642L105.574 482.555L96.627 482.42Z" fill="#9C9C9C"/>
<path d="M119.814 487.824L114.185 486.58L110.889 487.645L119.814 487.824Z" fill="#1DC3C4"/>
<path d="M72.1413 483.171L66.5018 481.916L63.2056 482.992L72.1413 483.171Z" fill="#1DC3C4"/>
<path d="M66.8486 491.916L73.4524 490.896L69.0013 490.044L66.8486 491.916Z" fill="#1DC3C4"/>
</svg>
